<?xml version="1.0" encoding="UTF-8"?>
<!DOCTYPE svg PUBLIC "-//W3C//DTD SVG 1.1//EN" "http://www.w3.org/Graphics/SVG/1.1/DTD/svg11.dtd">
<!-- Creator: CorelDRAW -->
<svg xmlns="http://www.w3.org/2000/svg" xml:space="preserve" width="100%" height="100%" shape-rendering="geometricPrecision" text-rendering="geometricPrecision" image-rendering="optimizeQuality" fill-rule="evenodd" clip-rule="evenodd"
viewBox="0 0 0.959858 0.96024"
 xmlns:xlink="http://www.w3.org/1999/xlink">
 <g id="Layer_x0020_1">
  <metadata id="CorelCorpID_0Corel-Layer"/>
  <g id="_254028352">
   <path id="_254029384" fill="none" stroke="#DF5C5D" stroke-width="0.0305551" d="M0.18311 0.242843c0.114689,0 0.229378,0 0.344067,0 -0.000574803,-0.0849764 -0.0334567,-0.121571 -0.0825197,-0.135665 -0.000468504,-0.119354 -0.169705,-0.124476 -0.17763,-0.00419685 -0.0545512,0.0240276 -0.0803386,0.0582283 -0.0839173,0.139862z"/>
   <circle id="_254029312" fill="none" stroke="#DF5C5D" stroke-width="0.0305551" cx="0.355143" cy="0.114169" r="0.0419594"/>
   <path id="_254029240" fill="none" stroke="#DF5C5D" stroke-width="0.0305551" stroke-linecap="round" stroke-linejoin="round" d="M0.697811 0.278197l0 -0.108083 -0.176228 0m-0.327283 0l-0.179024 0 0 0.77485 0.679736 0 0.00114173 -0.0308346"/>
   <rect id="_254029168" fill="none" stroke="#DF5C5D" stroke-width="0.0305551" x="0.0977917" y="0.335155" width="0.102101" height="0.109094" rx="0.00679134" ry="0.00679134"/>
   <rect id="_254029096" fill="none" stroke="#DF5C5D" stroke-width="0.0305551" x="0.0977917" y="0.532364" width="0.102101" height="0.109094" rx="0.00679134" ry="0.00679134"/>
   <rect id="_254029024" fill="none" stroke="#DF5C5D" stroke-width="0.0305551" x="0.0977917" y="0.728174" width="0.102101" height="0.109094" rx="0.00679134" ry="0.00679134"/>
   <line id="_254028952" fill="none" stroke="#DF5C5D" stroke-width="0.0305551" stroke-linecap="round" stroke-linejoin="round" x1="0.254441" y1="0.3925" x2="0.460039" y2= "0.3925" />
   <line id="_254028880" fill="none" stroke="#DF5C5D" stroke-width="0.0305551" stroke-linecap="round" stroke-linejoin="round" x1="0.254441" y1="0.588327" x2="0.376122" y2= "0.588327" />
   <ellipse id="_254028808" fill="none" stroke="#DF5C5D" stroke-width="0.0305551" cx="0.405494" cy="0.766637" rx="0.125878" ry="0.125179"/>
   <polyline id="_254028736" fill="none" stroke="#DF5C5D" stroke-width="0.0305551" stroke-linecap="round" stroke-linejoin="round" points="0.335563,0.765937 0.370528,0.816287 0.471228,0.725378 "/>
   <polyline id="_254028664" fill="none" stroke="#DF5C5D" stroke-width="0.0305551" stroke-linecap="round" stroke-linejoin="round" points="0.532772,0.778528 0.679846,0.875469 0.944087,0.736567 0.944642,0.476563 0.680618,0.334409 0.423677,0.47222 0.678228,0.627472 0.787323,0.561736 0.789425,0.654063 0.854461,0.62048 0.854461,0.526772 0.604102,0.3925 "/>
   <line id="_254028592" fill="none" stroke="#DF5C5D" stroke-width="0.0305551" stroke-linecap="round" stroke-linejoin="round" x1="0.680327" y1="0.62539" x2="0.680327" y2= "0.86524" />
   <line id="_254028520" fill="none" stroke="#DF5C5D" stroke-width="0.0305551" stroke-linecap="round" stroke-linejoin="round" x1="0.41878" y1="0.474335" x2="0.41878" y2= "0.63726" />
   <line id="_254028448" fill="none" stroke="#DF5C5D" stroke-width="0.0305551" stroke-linecap="round" stroke-linejoin="round" x1="0.527177" y1="0.420492" x2="0.78522" y2= "0.559642" />
   <line id="_254028376" fill="none" stroke="#DF5C5D" stroke-width="0.0305551" stroke-linecap="round" stroke-linejoin="round" x1="0.853059" y1="0.532386" x2="0.943972" y2= "0.48063" />
  </g>
 </g>
</svg>
