<?xml version="1.0" encoding="UTF-8"?>
<!DOCTYPE svg PUBLIC "-//W3C//DTD SVG 1.1//EN" "http://www.w3.org/Graphics/SVG/1.1/DTD/svg11.dtd">
<!-- Creator: CorelDRAW -->
<svg xmlns="http://www.w3.org/2000/svg" xml:space="preserve" width="100%" height="100%" style="shape-rendering:geometricPrecision; text-rendering:geometricPrecision; image-rendering:optimizeQuality; fill-rule:evenodd; clip-rule:evenodd"
viewBox="0 0 0.617394 0.608488"
 xmlns:xlink="http://www.w3.org/1999/xlink">
 <defs>
  <style type="text/css">
   <![CDATA[
    .str0 {stroke:#1CABA4;stroke-width:0.0194449}
    .fil1 {fill:none}
    .fil0 {fill:#1CABA4;fill-rule:nonzero}
   ]]>
  </style>
 </defs>
 <g id="Layer_x0020_1">
  <metadata id="CorelCorpID_0Corel-Layer"/>
  <g>
   <path class="fil0" d="M0.324571 0.50265l-0.0208583 0 1.1811e-005 -0.000527559 4.33071e-005 -0.000523622 6.69291e-005 -0.000511811 9.05512e-005 -0.000507874 0.000114173 -0.000496063 0.000141732 -0.000488189 0.000165354 -0.000476378 0.000185039 -0.000468504 0.000208661 -0.000452756 0.000232283 -0.000444882 0.000251969 -0.000429134 0.000267717 -0.000417323 0.000291339 -0.000401575 0.000311024 -0.000389764 0.000326772 -0.000374016 0.000346457 -0.000354331 0.000362205 -0.00034252 0.000377953 -0.000322835 0.000393701 -0.00030315 0.000409449 -0.000287402 0.00042126 -0.000267717 0.000437008 -0.000248031 0.000452756 -0.000228346 0.00046063 -0.000204724 0.000472441 -0.000185039 0.000484252 -0.000161417 0.000496063 -0.000137795 0.000503937 -0.000114173 0.000515748 -9.05512e-005 0.000519685 -6.69291e-005 0.000531496 -3.93701e-005 0.000535433 -1.1811e-005 0.000535433 1.1811e-005 0.000531496 3.93701e-005 0.000519685 6.69291e-005 0.000515748 9.05512e-005 0.000503937 0.000114173 0.000496063 0.000137795 0.000484252 0.000161417 0.000472441 0.000185039 0.00046063 0.000204724 0.000452756 0.000228346 0.000437008 0.000248031 0.00042126 0.000267717 0.000409449 0.000287402 0.000393701 0.00030315 0.000377953 0.000322835 0.000362205 0.00034252 0.000346457 0.000354331 0.000326772 0.000374016 0.000311024 0.000389764 0.000291339 0.000401575 0.000267717 0.000417323 0.000251969 0.000429134 0.000232283 0.000444882 0.000208661 0.000452756 0.000185039 0.000468504 0.000165354 0.000476378 0.000141732 0.000488189 0.000114173 0.000496063 9.05512e-005 0.000507874 6.69291e-005 0.000511811 4.33071e-005 0.000523622 1.1811e-005 0.000527559zm-0.0209134 0.0313898l5.51181e-005 -0.0313898 0.0208583 0 -5.51181e-005 0.0313898 -0.0208583 0zm0 0l0.0208583 0 -1.1811e-005 0.000527559 -4.33071e-005 0.000523622 -6.69291e-005 0.000511811 -9.05512e-005 0.000507874 -0.000114173 0.000496063 -0.000141732 0.000488189 -0.000165354 0.000476378 -0.000185039 0.000468504 -0.000208661 0.000452756 -0.000232283 0.000444882 -0.000251969 0.000429134 -0.000267717 0.000417323 -0.000291339 0.000401575 -0.000311024 0.000389764 -0.000326772 0.000374016 -0.000346457 0.000354331 -0.000362205 0.00034252 -0.000377953 0.000322835 -0.000393701 0.00030315 -0.000409449 0.000287402 -0.00042126 0.000267717 -0.000437008 0.000248031 -0.000452756 0.000228346 -0.00046063 0.000204724 -0.000472441 0.000185039 -0.000484252 0.000161417 -0.000496063 0.000137795 -0.000503937 0.000114173 -0.000515748 9.05512e-005 -0.000519685 6.69291e-005 -0.000531496 3.93701e-005 -0.000535433 1.1811e-005 -0.000535433 -1.1811e-005 -0.000531496 -3.93701e-005 -0.000519685 -6.69291e-005 -0.000515748 -9.05512e-005 -0.000503937 -0.000114173 -0.000496063 -0.000137795 -0.000484252 -0.000161417 -0.000472441 -0.000185039 -0.00046063 -0.000204724 -0.000452756 -0.000228346 -0.000437008 -0.000248031 -0.00042126 -0.000267717 -0.000409449 -0.000287402 -0.000393701 -0.00030315 -0.000377953 -0.000322835 -0.000362205 -0.00034252 -0.000346457 -0.000354331 -0.000326772 -0.000374016 -0.000311024 -0.000389764 -0.000291339 -0.000401575 -0.000267717 -0.000417323 -0.000251969 -0.000429134 -0.000232283 -0.000444882 -0.000208661 -0.000452756 -0.000185039 -0.000468504 -0.000165354 -0.000476378 -0.000141732 -0.000488189 -0.000114173 -0.000496063 -9.05512e-005 -0.000507874 -6.69291e-005 -0.000511811 -4.33071e-005 -0.000523622 -1.1811e-005 -0.000527559z"/>
  </g>
  <g>
   <path class="fil0" d="M0.464913 0.437366l-0.0141496 0.0150709 -0.000385827 -0.000370079 -0.000358268 -0.00038189 -0.000338583 -0.000393701 -0.000314961 -0.000409449 -0.000291339 -0.00042126 -0.000267717 -0.000433071 -0.000244094 -0.000444882 -0.000220472 -0.000448819 -0.00019685 -0.00046063 -0.000173228 -0.000464567 -0.000149606 -0.000476378 -0.000125984 -0.000476378 -0.000102362 -0.000484252 -7.87402e-005 -0.000488189 -5.51181e-005 -0.000488189 -3.14961e-005 -0.000492126 -7.87402e-006 -0.000492126 1.5748e-005 -0.000492126 3.93701e-005 -0.000492126 6.29921e-005 -0.000488189 9.05512e-005 -0.000488189 0.000110236 -0.000484252 0.000137795 -0.000480315 0.00015748 -0.000472441 0.000185039 -0.000464567 0.000208661 -0.00046063 0.000232283 -0.000452756 0.000255906 -0.000440945 0.000283465 -0.000433071 0.00030315 -0.00042126 0.000330709 -0.000409449 0.000354331 -0.000397638 0.000374016 -0.000377953 0.000389764 -0.000358268 0.000401575 -0.000330709 0.000417323 -0.000311024 0.000425197 -0.000287402 0.000440945 -0.00026378 0.000448819 -0.000240157 0.000456693 -0.000216535 0.000464567 -0.000192913 0.000476378 -0.000173228 0.000480315 -0.000145669 0.000484252 -0.000125984 0.000492126 -9.84252e-005 0.000496063 -7.87402e-005 0.000496063 -5.51181e-005 0.0005 -3.14961e-005 0.0005 -7.87402e-006 0.0005 1.5748e-005 0.000496063 3.93701e-005 0.0005 6.69291e-005 0.000492126 8.66142e-005 0.000492126 0.000110236 0.000484252 0.000133858 0.000480315 0.00015748 0.000476378 0.000181102 0.000464567 0.000204724 0.00046063 0.000228346 0.000448819 0.000251969 0.000437008 0.000279528 0.000429134 0.000299213 0.000417323 0.000322835 0.000401575 0.000350394zm0.00852756 0.0357677l-0.0226772 -0.0206969 0.0141496 -0.0150709 0.0226772 0.0206969 -0.0141496 0.0150709zm0 0l0.0141496 -0.0150709 0.000385827 0.000370079 0.000358268 0.00038189 0.000338583 0.000393701 0.000314961 0.000409449 0.000291339 0.00042126 0.000267717 0.000433071 0.000244094 0.000444882 0.000220472 0.000448819 0.00019685 0.00046063 0.000173228 0.000464567 0.000149606 0.000476378 0.000125984 0.000476378 0.000102362 0.000484252 7.87402e-005 0.000488189 5.51181e-005 0.000488189 3.14961e-005 0.000492126 7.87402e-006 0.000492126 -1.5748e-005 0.000492126 -3.93701e-005 0.000492126 -6.29921e-005 0.000488189 -9.05512e-005 0.000488189 -0.000110236 0.000484252 -0.000137795 0.000480315 -0.00015748 0.000472441 -0.000185039 0.000464567 -0.000208661 0.00046063 -0.000232283 0.000452756 -0.000255906 0.000440945 -0.000283465 0.000433071 -0.00030315 0.00042126 -0.000330709 0.000409449 -0.000354331 0.000397638 -0.000374016 0.000377953 -0.000389764 0.000358268 -0.000401575 0.000330709 -0.000417323 0.000311024 -0.000425197 0.000287402 -0.000440945 0.00026378 -0.000448819 0.000240157 -0.000456693 0.000216535 -0.000464567 0.000192913 -0.000476378 0.000173228 -0.000480315 0.000145669 -0.000484252 0.000125984 -0.000492126 9.84252e-005 -0.000496063 7.87402e-005 -0.000496063 5.51181e-005 -0.0005 3.14961e-005 -0.0005 7.87402e-006 -0.0005 -1.5748e-005 -0.000496063 -3.93701e-005 -0.0005 -6.69291e-005 -0.000492126 -8.66142e-005 -0.000492126 -0.000110236 -0.000484252 -0.000133858 -0.000480315 -0.00015748 -0.000476378 -0.000181102 -0.000464567 -0.000204724 -0.00046063 -0.000228346 -0.000448819 -0.000251969 -0.000437008 -0.000279528 -0.000429134 -0.000299213 -0.000417323 -0.000322835 -0.000401575 -0.000350394z"/>
  </g>
  <g>
   <path class="fil0" d="M0.548583 0.313177l-0.000574803 -0.0205512 0.000535433 0 0.000531496 2.3622e-005 0.000523622 5.11811e-005 0.000515748 7.87402e-005 0.000507874 9.84252e-005 0.0005 0.000125984 0.000488189 0.000149606 0.000480315 0.000169291 0.000468504 0.00019685 0.000456693 0.000212598 0.000440945 0.00023622 0.000433071 0.000255906 0.000417323 0.000275591 0.000401575 0.000295276 0.000385827 0.000311024 0.000374016 0.000330709 0.000354331 0.000346457 0.000338583 0.000366142 0.000318898 0.000377953 0.00030315 0.000393701 0.000283465 0.000409449 0.00026378 0.000425197 0.000240157 0.000437008 0.000224409 0.000448819 0.00019685 0.00046063 0.000177165 0.000472441 0.000153543 0.000484252 0.000133858 0.000496063 0.000102362 0.0005 8.26772e-005 0.000515748 5.51181e-005 0.000519685 2.75591e-005 0.000527559 0 0.000527559 -2.3622e-005 0.000523622 -5.11811e-005 0.000515748 -7.87402e-005 0.000507874 -0.000102362 0.0005 -0.000129921 0.000492126 -0.000149606 0.000484252 -0.000173228 0.000472441 -0.00019685 0.00046063 -0.000216535 0.000448819 -0.000240157 0.000437008 -0.000259843 0.000425197 -0.000279528 0.000409449 -0.000299213 0.000397638 -0.000314961 0.00038189 -0.000334646 0.000366142 -0.000354331 0.000350394 -0.000370079 0.000330709 -0.000385827 0.000318898 -0.000397638 0.000295276 -0.000417323 0.000279528 -0.000429134 0.000259843 -0.000444882 0.000240157 -0.000456693 0.000216535 -0.000468504 0.00019685 -0.000480315 0.000173228 -0.000488189 0.000153543 -0.000503937 0.000129921 -0.000507874 0.000102362 -0.000523622 7.87402e-005 -0.000527559 5.51181e-005 -0.000535433 2.75591e-005zm-0.032752 -0.0196457l0.0321772 -0.000905512 0.000574803 0.0205512 -0.0321772 0.000905512 -0.000574803 -0.0205512zm0 0l0.000574803 0.0205512 -0.000535433 0 -0.000531496 -2.3622e-005 -0.000523622 -5.11811e-005 -0.000515748 -7.87402e-005 -0.000507874 -9.84252e-005 -0.0005 -0.000125984 -0.000488189 -0.000149606 -0.000480315 -0.000169291 -0.000468504 -0.00019685 -0.000456693 -0.000212598 -0.000440945 -0.00023622 -0.000433071 -0.000255906 -0.000417323 -0.000275591 -0.000401575 -0.000295276 -0.000385827 -0.000311024 -0.000374016 -0.000330709 -0.000354331 -0.000346457 -0.000338583 -0.000366142 -0.000318898 -0.000377953 -0.00030315 -0.000393701 -0.000283465 -0.000409449 -0.00026378 -0.000425197 -0.000240157 -0.000437008 -0.000224409 -0.000448819 -0.00019685 -0.00046063 -0.000177165 -0.000472441 -0.000153543 -0.000484252 -0.000133858 -0.000496063 -0.000102362 -0.0005 -8.26772e-005 -0.000515748 -5.51181e-005 -0.000519685 -2.75591e-005 -0.000527559 0 -0.000527559 2.3622e-005 -0.000523622 5.11811e-005 -0.000515748 7.87402e-005 -0.000507874 0.000102362 -0.0005 0.000129921 -0.000492126 0.000149606 -0.000484252 0.000173228 -0.000472441 0.00019685 -0.00046063 0.000216535 -0.000448819 0.000240157 -0.000437008 0.000259843 -0.000425197 0.000279528 -0.000409449 0.000299213 -0.000397638 0.000314961 -0.00038189 0.000334646 -0.000366142 0.000354331 -0.000350394 0.000370079 -0.000330709 0.000385827 -0.000318898 0.000397638 -0.000295276 0.000417323 -0.000279528 0.000429134 -0.000259843 0.000444882 -0.000240157 0.000456693 -0.000216535 0.000468504 -0.00019685 0.000480315 -0.000173228 0.000488189 -0.000153543 0.000503937 -0.000129921 0.000507874 -0.000102362 0.000523622 -7.87402e-005 0.000527559 -5.51181e-005 0.000535433 -2.75591e-005z"/>
  </g>
  <g>
   <path class="fil0" d="M0.486213 0.143878l-0.0155433 -0.0137008 0.000366142 -0.000385827 0.000385827 -0.000362205 0.000397638 -0.000338583 0.000409449 -0.000314961 0.00042126 -0.000295276 0.000437008 -0.000271654 0.000444882 -0.000244094 0.000452756 -0.000228346 0.000464567 -0.000200787 0.000472441 -0.000177165 0.000476378 -0.00015748 0.000484252 -0.000129921 0.000492126 -0.000110236 0.000492126 -8.66142e-005 0.000496063 -5.90551e-005 0.0005 -3.93701e-005 0.0005 -1.5748e-005 0.0005 7.87402e-006 0.0005 3.14961e-005 0.0005 5.51181e-005 0.000496063 7.87402e-005 0.000492126 0.000102362 0.000488189 0.000125984 0.000484252 0.000149606 0.000476378 0.000173228 0.000472441 0.00019685 0.00046063 0.000224409 0.000452756 0.000244094 0.000444882 0.000271654 0.000433071 0.000291339 0.00042126 0.000318898 0.000409449 0.00034252 0.000389764 0.000362205 0.000370079 0.000377953 0.00034252 0.000389764 0.000322835 0.000405512 0.000299213 0.000417323 0.000275591 0.000429134 0.000248031 0.000437008 0.000228346 0.000448819 0.000208661 0.000456693 0.000181102 0.000464567 0.00015748 0.000468504 0.000133858 0.000480315 0.000110236 0.000480315 8.66142e-005 0.000488189 6.29921e-005 0.000488189 3.93701e-005 0.000492126 1.5748e-005 0.000492126 -7.87402e-006 0.000492126 -3.14961e-005 0.000492126 -5.51181e-005 0.000492126 -7.87402e-005 0.000488189 -0.000106299 0.000484252 -0.000125984 0.000484252 -0.000153543 0.000476378 -0.000177165 0.000468504 -0.000200787 0.000464567 -0.000224409 0.000456693 -0.000248031 0.000444882 -0.000275591 0.000437008 -0.000299213 0.000425197 -0.000322835 0.000417323 -0.000346457 0.000401575zm-0.0363583 0.00923622l0.020815 -0.022937 0.0155433 0.0137008 -0.020815 0.022937 -0.0155433 -0.0137008zm0 0l0.0155433 0.0137008 -0.000366142 0.000385827 -0.000385827 0.000362205 -0.000397638 0.000338583 -0.000409449 0.000314961 -0.00042126 0.000295276 -0.000437008 0.000271654 -0.000444882 0.000244094 -0.000452756 0.000228346 -0.000464567 0.000200787 -0.000472441 0.000177165 -0.000476378 0.00015748 -0.000484252 0.000129921 -0.000492126 0.000110236 -0.000492126 8.66142e-005 -0.000496063 5.90551e-005 -0.0005 3.93701e-005 -0.0005 1.5748e-005 -0.0005 -7.87402e-006 -0.0005 -3.14961e-005 -0.0005 -5.51181e-005 -0.000496063 -7.87402e-005 -0.000492126 -0.000102362 -0.000488189 -0.000125984 -0.000484252 -0.000149606 -0.000476378 -0.000173228 -0.000472441 -0.00019685 -0.00046063 -0.000224409 -0.000452756 -0.000244094 -0.000444882 -0.000271654 -0.000433071 -0.000291339 -0.00042126 -0.000318898 -0.000409449 -0.00034252 -0.000389764 -0.000362205 -0.000370079 -0.000377953 -0.00034252 -0.000389764 -0.000322835 -0.000405512 -0.000299213 -0.000417323 -0.000275591 -0.000429134 -0.000248031 -0.000437008 -0.000228346 -0.000448819 -0.000208661 -0.000456693 -0.000181102 -0.000464567 -0.00015748 -0.000468504 -0.000133858 -0.000480315 -0.000110236 -0.000480315 -8.66142e-005 -0.000488189 -6.29921e-005 -0.000488189 -3.93701e-005 -0.000492126 -1.5748e-005 -0.000492126 7.87402e-006 -0.000492126 3.14961e-005 -0.000492126 5.51181e-005 -0.000492126 7.87402e-005 -0.000488189 0.000106299 -0.000484252 0.000125984 -0.000484252 0.000153543 -0.000476378 0.000177165 -0.000468504 0.000200787 -0.000464567 0.000224409 -0.000456693 0.000248031 -0.000444882 0.000275591 -0.000437008 0.000299213 -0.000425197 0.000322835 -0.000417323 0.000346457 -0.000401575z"/>
  </g>
  <g>
   <path class="fil0" d="M0.324571 0.0706811l-0.0208583 0 1.1811e-005 -0.000527559 4.33071e-005 -0.000523622 6.69291e-005 -0.000511811 9.05512e-005 -0.000507874 0.000114173 -0.000496063 0.000141732 -0.000488189 0.000165354 -0.000476378 0.000185039 -0.000468504 0.000208661 -0.000452756 0.000232283 -0.000444882 0.000251969 -0.000429134 0.000267717 -0.000417323 0.000291339 -0.000401575 0.000311024 -0.000389764 0.000326772 -0.000374016 0.000346457 -0.000354331 0.000362205 -0.00034252 0.000377953 -0.000322835 0.000393701 -0.00030315 0.000409449 -0.000287402 0.00042126 -0.000267717 0.000437008 -0.000248031 0.000452756 -0.000228346 0.00046063 -0.000204724 0.000472441 -0.000185039 0.000484252 -0.000161417 0.000496063 -0.000137795 0.000503937 -0.000114173 0.000515748 -9.05512e-005 0.000519685 -6.69291e-005 0.000531496 -3.93701e-005 0.000535433 -1.1811e-005 0.000535433 1.1811e-005 0.000531496 3.93701e-005 0.000519685 6.69291e-005 0.000515748 9.05512e-005 0.000503937 0.000114173 0.000496063 0.000137795 0.000484252 0.000161417 0.000472441 0.000185039 0.00046063 0.000204724 0.000452756 0.000228346 0.000437008 0.000248031 0.00042126 0.000267717 0.000409449 0.000287402 0.000393701 0.00030315 0.000377953 0.000322835 0.000362205 0.00034252 0.000346457 0.000354331 0.000326772 0.000374016 0.000311024 0.000389764 0.000291339 0.000401575 0.000267717 0.000417323 0.000251969 0.000429134 0.000232283 0.000444882 0.000208661 0.000452756 0.000185039 0.000468504 0.000165354 0.000476378 0.000141732 0.000488189 0.000114173 0.000496063 9.05512e-005 0.000507874 6.69291e-005 0.000511811 4.33071e-005 0.000523622 1.1811e-005 0.000527559zm-0.0209134 0.0313898l5.51181e-005 -0.0313898 0.0208583 0 -5.51181e-005 0.0313898 -0.0208583 0zm0 0l0.0208583 0 -1.1811e-005 0.000527559 -4.33071e-005 0.000523622 -6.69291e-005 0.000511811 -9.05512e-005 0.000507874 -0.000114173 0.000496063 -0.000141732 0.000488189 -0.000165354 0.000476378 -0.000185039 0.000468504 -0.000208661 0.000452756 -0.000232283 0.000444882 -0.000251969 0.000429134 -0.000267717 0.000417323 -0.000291339 0.000401575 -0.000311024 0.000389764 -0.000326772 0.000374016 -0.000346457 0.000354331 -0.000362205 0.00034252 -0.000377953 0.000322835 -0.000393701 0.00030315 -0.000409449 0.000287402 -0.00042126 0.000267717 -0.000437008 0.000248031 -0.000452756 0.000228346 -0.00046063 0.000204724 -0.000472441 0.000185039 -0.000484252 0.000161417 -0.000496063 0.000137795 -0.000503937 0.000114173 -0.000515748 9.05512e-005 -0.000519685 6.69291e-005 -0.000531496 3.93701e-005 -0.000535433 1.1811e-005 -0.000535433 -1.1811e-005 -0.000531496 -3.93701e-005 -0.000519685 -6.69291e-005 -0.000515748 -9.05512e-005 -0.000503937 -0.000114173 -0.000496063 -0.000137795 -0.000484252 -0.000161417 -0.000472441 -0.000185039 -0.00046063 -0.000204724 -0.000452756 -0.000228346 -0.000437008 -0.000248031 -0.00042126 -0.000267717 -0.000409449 -0.000287402 -0.000393701 -0.00030315 -0.000377953 -0.000322835 -0.000362205 -0.00034252 -0.000346457 -0.000354331 -0.000326772 -0.000374016 -0.000311024 -0.000389764 -0.000291339 -0.000401575 -0.000267717 -0.000417323 -0.000251969 -0.000429134 -0.000232283 -0.000444882 -0.000208661 -0.000452756 -0.000185039 -0.000468504 -0.000165354 -0.000476378 -0.000141732 -0.000488189 -0.000114173 -0.000496063 -9.05512e-005 -0.000507874 -6.69291e-005 -0.000511811 -4.33071e-005 -0.000523622 -1.1811e-005 -0.000527559z"/>
  </g>
  <g>
   <path class="fil0" d="M0.152091 0.130953l-0.0143937 0.0148268 -0.000377953 -0.000374016 -0.000354331 -0.000389764 -0.000330709 -0.000401575 -0.000307087 -0.000413386 -0.000283465 -0.000425197 -0.000259843 -0.000437008 -0.00023622 -0.000444882 -0.000212598 -0.000456693 -0.000188976 -0.00046063 -0.000165354 -0.000472441 -0.000141732 -0.000472441 -0.00011811 -0.000484252 -9.44882e-005 -0.000484252 -7.08661e-005 -0.000488189 -4.72441e-005 -0.000488189 -2.3622e-005 -0.000492126 3.93701e-006 -0.000492126 2.3622e-005 -0.000492126 4.72441e-005 -0.000492126 7.48031e-005 -0.000488189 9.44882e-005 -0.000484252 0.000122047 -0.000480315 0.000141732 -0.000476378 0.000169291 -0.000472441 0.000192913 -0.000464567 0.000216535 -0.000452756 0.000240157 -0.000448819 0.00026378 -0.000437008 0.000287402 -0.000429134 0.000311024 -0.000413386 0.000334646 -0.000405512 0.000362205 -0.000389764 0.00038189 -0.000370079 0.000393701 -0.000350394 0.000405512 -0.000326772 0.00042126 -0.00030315 0.000433071 -0.000279528 0.000440945 -0.000255906 0.000452756 -0.000232283 0.000464567 -0.000208661 0.000468504 -0.000185039 0.000476378 -0.000165354 0.000480315 -0.000137795 0.000488189 -0.00011811 0.000492126 -9.05512e-005 0.000496063 -7.08661e-005 0.000496063 -4.72441e-005 0.0005 -1.9685e-005 0.0005 0 0.0005 2.3622e-005 0.000496063 4.72441e-005 0.000496063 7.08661e-005 0.000492126 9.44882e-005 0.000492126 0.00011811 0.000480315 0.000141732 0.000480315 0.000165354 0.000468504 0.000188976 0.000464567 0.000212598 0.000452756 0.00023622 0.000444882 0.00026378 0.000433071 0.000283465 0.00042126 0.000307087 0.000409449 0.000330709 0.000397638 0.000354331zm0.00953937 0.037378l-0.0239331 -0.0225512 0.0143937 -0.0148268 0.0239331 0.0225512 -0.0143937 0.0148268zm0 0l0.0143937 -0.0148268 0.000377953 0.000374016 0.000354331 0.000389764 0.000330709 0.000401575 0.000307087 0.000413386 0.000283465 0.000425197 0.000259843 0.000437008 0.00023622 0.000444882 0.000212598 0.000456693 0.000188976 0.00046063 0.000165354 0.000472441 0.000141732 0.000472441 0.00011811 0.000484252 9.44882e-005 0.000484252 7.08661e-005 0.000488189 4.72441e-005 0.000488189 1.9685e-005 0.000492126 0 0.000492126 -2.3622e-005 0.000492126 -4.72441e-005 0.000492126 -7.48031e-005 0.000488189 -9.44882e-005 0.000484252 -0.000122047 0.000480315 -0.000141732 0.000476378 -0.000169291 0.000472441 -0.000192913 0.000464567 -0.000216535 0.000452756 -0.000240157 0.000448819 -0.00026378 0.000437008 -0.000287402 0.000429134 -0.000311024 0.000413386 -0.000334646 0.000405512 -0.000362205 0.000389764 -0.00038189 0.000370079 -0.000393701 0.000350394 -0.000405512 0.000326772 -0.00042126 0.00030315 -0.000433071 0.000279528 -0.000440945 0.000255906 -0.000452756 0.000232283 -0.000464567 0.000208661 -0.000468504 0.000185039 -0.000476378 0.000165354 -0.000480315 0.000137795 -0.000488189 0.00011811 -0.000492126 9.05512e-005 -0.000496063 7.08661e-005 -0.000496063 4.72441e-005 -0.0005 1.9685e-005 -0.0005 0 -0.0005 -2.3622e-005 -0.000496063 -4.72441e-005 -0.000496063 -7.08661e-005 -0.000492126 -9.44882e-005 -0.000492126 -0.00011811 -0.000480315 -0.000141732 -0.000480315 -0.000165354 -0.000468504 -0.000188976 -0.000464567 -0.000212598 -0.000452756 -0.00023622 -0.000444882 -0.00026378 -0.000433071 -0.000283465 -0.00042126 -0.000307087 -0.000409449 -0.000330709 -0.000397638 -0.000354331z"/>
  </g>
  <g>
   <path class="fil0" d="M0.324571 0.163488l-0.0208583 0 1.1811e-005 -0.000527559 4.33071e-005 -0.000523622 6.69291e-005 -0.000511811 9.05512e-005 -0.000507874 0.000114173 -0.000496063 0.000141732 -0.000488189 0.000165354 -0.000476378 0.000185039 -0.000468504 0.000208661 -0.000452756 0.000232283 -0.000444882 0.000251969 -0.000429134 0.000267717 -0.000417323 0.000291339 -0.000401575 0.000311024 -0.000389764 0.000326772 -0.000374016 0.000346457 -0.000354331 0.000362205 -0.00034252 0.000377953 -0.000322835 0.000393701 -0.00030315 0.000409449 -0.000287402 0.00042126 -0.000267717 0.000437008 -0.000248031 0.000452756 -0.000228346 0.00046063 -0.000204724 0.000472441 -0.000185039 0.000484252 -0.000161417 0.000496063 -0.000137795 0.000503937 -0.000114173 0.000515748 -9.05512e-005 0.000519685 -6.69291e-005 0.000531496 -3.93701e-005 0.000535433 -1.1811e-005 0.000535433 1.1811e-005 0.000531496 3.93701e-005 0.000519685 6.69291e-005 0.000515748 9.05512e-005 0.000503937 0.000114173 0.000496063 0.000137795 0.000484252 0.000161417 0.000472441 0.000185039 0.00046063 0.000204724 0.000452756 0.000228346 0.000437008 0.000248031 0.00042126 0.000267717 0.000409449 0.000287402 0.000393701 0.00030315 0.000377953 0.000322835 0.000362205 0.00034252 0.000346457 0.000354331 0.000326772 0.000374016 0.000311024 0.000389764 0.000291339 0.000401575 0.000267717 0.000417323 0.000251969 0.000429134 0.000232283 0.000444882 0.000208661 0.000452756 0.000185039 0.000468504 0.000165354 0.000476378 0.000141732 0.000488189 0.000114173 0.000496063 9.05512e-005 0.000507874 6.69291e-005 0.000511811 4.33071e-005 0.000523622 1.1811e-005 0.000527559zm-0.0179488 0.146598l-0.00294488 -0.00717323 3.54331e-005 -0.139425 0.0208583 0 -3.54331e-005 0.139425 -0.0179134 0.00717323zm-0.00294488 -0.00717323l0.0208583 0 -1.1811e-005 0.000527559 -4.33071e-005 0.000523622 -6.69291e-005 0.000511811 -9.05512e-005 0.000507874 -0.000114173 0.000496063 -0.000141732 0.000488189 -0.000165354 0.000476378 -0.000185039 0.000468504 -0.000208661 0.000452756 -0.000232283 0.000444882 -0.000251969 0.000429134 -0.000267717 0.000417323 -0.000291339 0.000401575 -0.000311024 0.000389764 -0.000326772 0.000374016 -0.000346457 0.000354331 -0.000362205 0.00034252 -0.000377953 0.000322835 -0.000393701 0.00030315 -0.000409449 0.000287402 -0.00042126 0.000267717 -0.000437008 0.000248031 -0.000452756 0.000228346 -0.00046063 0.000204724 -0.000472441 0.000185039 -0.000484252 0.000161417 -0.000496063 0.000137795 -0.000503937 0.000114173 -0.000515748 9.05512e-005 -0.000519685 6.69291e-005 -0.000531496 3.93701e-005 -0.000535433 1.1811e-005 -0.000535433 -1.1811e-005 -0.000531496 -3.93701e-005 -0.000519685 -6.69291e-005 -0.000515748 -9.05512e-005 -0.000503937 -0.000114173 -0.000496063 -0.000137795 -0.000484252 -0.000161417 -0.000472441 -0.000185039 -0.00046063 -0.000204724 -0.000452756 -0.000228346 -0.000437008 -0.000248031 -0.00042126 -0.000267717 -0.000409449 -0.000287402 -0.000393701 -0.00030315 -0.000377953 -0.000322835 -0.000362205 -0.00034252 -0.000346457 -0.000354331 -0.000326772 -0.000374016 -0.000311024 -0.000389764 -0.000291339 -0.000401575 -0.000267717 -0.000417323 -0.000251969 -0.000429134 -0.000232283 -0.000444882 -0.000208661 -0.000452756 -0.000185039 -0.000468504 -0.000165354 -0.000476378 -0.000141732 -0.000488189 -0.000114173 -0.000496063 -9.05512e-005 -0.000507874 -6.69291e-005 -0.000511811 -4.33071e-005 -0.000523622 -1.1811e-005 -0.000527559zm0.0811417 0.0865394l-0.0781969 -0.0793661 0.0149685 -0.0143465 0.0781969 0.0793661 -0.0149685 0.0143465zm0 0l0.0149685 -0.0143465 0.000366142 0.000389764 0.000338583 0.000401575 0.000318898 0.000413386 0.000291339 0.000425197 0.000267717 0.000437008 0.000244094 0.000448819 0.000220472 0.000452756 0.00019685 0.000464567 0.000173228 0.000472441 0.000149606 0.000476378 0.000122047 0.000480315 0.000102362 0.000484252 7.48031e-005 0.000492126 5.51181e-005 0.000488189 2.75591e-005 0.000496063 3.93701e-006 0.000492126 -1.9685e-005 0.000492126 -3.93701e-005 0.000492126 -6.69291e-005 0.000492126 -9.05512e-005 0.000484252 -0.000114173 0.000484252 -0.000137795 0.000476378 -0.000165354 0.000472441 -0.000185039 0.000468504 -0.000208661 0.000456693 -0.000232283 0.000448819 -0.000255906 0.000440945 -0.000283465 0.000429134 -0.00030315 0.000417323 -0.000326772 0.000405512 -0.000354331 0.000393701 -0.000374016 0.000377953 -0.000393701 0.000358268 -0.000409449 0.000338583 -0.00042126 0.000311024 -0.000429134 0.000287402 -0.000444882 0.00026378 -0.000452756 0.000240157 -0.00046063 0.000220472 -0.000472441 0.000192913 -0.000476378 0.000169291 -0.000484252 0.000145669 -0.000488189 0.000122047 -0.000492126 0.000102362 -0.000496063 7.48031e-005 -0.0005 5.11811e-005 -0.0005 2.75591e-005 -0.0005 3.93701e-006 -0.000503937 -1.5748e-005 -0.0005 -4.33071e-005 -0.000496063 -6.69291e-005 -0.000492126 -8.66142e-005 -0.000492126 -0.000114173 -0.000484252 -0.000133858 -0.000480315 -0.000161417 -0.000472441 -0.000181102 -0.000464567 -0.000208661 -0.000456693 -0.000228346 -0.000444882 -0.000251969 -0.000437008 -0.000279528 -0.000425197 -0.000299213 -0.000409449 -0.000322835 -0.000397638 -0.000346457 -0.000385827 -0.000370079z"/>
  </g>
  <ellipse class="fil1 str0" cx="0.308697" cy="0.304244" rx="0.298973" ry="0.29452"/>
  <g>
   <path class="fil0" d="M0.093315 0.313177l-0.000574803 -0.0205512 0.000535433 0 0.000531496 2.3622e-005 0.000523622 5.11811e-005 0.000515748 7.87402e-005 0.000507874 9.84252e-005 0.0005 0.000125984 0.000488189 0.000149606 0.000480315 0.000169291 0.000468504 0.00019685 0.000456693 0.000212598 0.000440945 0.00023622 0.000433071 0.000255906 0.000417323 0.000275591 0.000401575 0.000295276 0.000385827 0.000311024 0.000374016 0.000330709 0.000354331 0.000346457 0.000338583 0.000366142 0.000318898 0.000377953 0.00030315 0.000393701 0.000283465 0.000409449 0.00026378 0.000425197 0.000240157 0.000437008 0.000224409 0.000448819 0.00019685 0.00046063 0.000177165 0.000472441 0.000153543 0.000484252 0.000133858 0.000496063 0.000102362 0.0005 8.26772e-005 0.000515748 5.51181e-005 0.000519685 2.75591e-005 0.000527559 0 0.000527559 -2.3622e-005 0.000523622 -5.11811e-005 0.000515748 -7.87402e-005 0.000507874 -0.000102362 0.0005 -0.000129921 0.000492126 -0.000149606 0.000484252 -0.000173228 0.000472441 -0.00019685 0.00046063 -0.000216535 0.000448819 -0.000240157 0.000437008 -0.000259843 0.000425197 -0.000279528 0.000409449 -0.000299213 0.000397638 -0.000314961 0.00038189 -0.000334646 0.000366142 -0.000354331 0.000350394 -0.000370079 0.000330709 -0.000385827 0.000318898 -0.000397638 0.000295276 -0.000417323 0.000279528 -0.000429134 0.000259843 -0.000444882 0.000240157 -0.000456693 0.000216535 -0.000468504 0.00019685 -0.000480315 0.000173228 -0.000488189 0.000153543 -0.000503937 0.000129921 -0.000507874 0.000102362 -0.000523622 7.87402e-005 -0.000527559 5.51181e-005 -0.000535433 2.75591e-005zm-0.0327559 -0.0196457l0.0321811 -0.000905512 0.000574803 0.0205512 -0.0321811 0.000905512 -0.000574803 -0.0205512zm0 0l0.000574803 0.0205512 -0.000535433 0 -0.000531496 -2.3622e-005 -0.000523622 -5.11811e-005 -0.000515748 -7.87402e-005 -0.000507874 -9.84252e-005 -0.0005 -0.000125984 -0.000488189 -0.000149606 -0.000480315 -0.000169291 -0.000468504 -0.00019685 -0.000456693 -0.000212598 -0.000440945 -0.00023622 -0.000433071 -0.000255906 -0.000417323 -0.000275591 -0.000401575 -0.000295276 -0.000385827 -0.000311024 -0.000374016 -0.000330709 -0.000354331 -0.000346457 -0.000338583 -0.000366142 -0.000318898 -0.000377953 -0.00030315 -0.000393701 -0.000283465 -0.000409449 -0.00026378 -0.000425197 -0.000240157 -0.000437008 -0.000224409 -0.000448819 -0.00019685 -0.00046063 -0.000177165 -0.000472441 -0.000153543 -0.000484252 -0.000133858 -0.000496063 -0.000102362 -0.0005 -8.26772e-005 -0.000515748 -5.51181e-005 -0.000519685 -2.75591e-005 -0.000527559 0 -0.000527559 2.3622e-005 -0.000523622 5.11811e-005 -0.000515748 7.87402e-005 -0.000507874 0.000102362 -0.0005 0.000129921 -0.000492126 0.000149606 -0.000484252 0.000173228 -0.000472441 0.00019685 -0.00046063 0.000216535 -0.000448819 0.000240157 -0.000437008 0.000259843 -0.000425197 0.000279528 -0.000409449 0.000299213 -0.000397638 0.000314961 -0.00038189 0.000334646 -0.000366142 0.000354331 -0.000350394 0.000370079 -0.000330709 0.000385827 -0.000318898 0.000397638 -0.000295276 0.000417323 -0.000279528 0.000429134 -0.000259843 0.000444882 -0.000240157 0.000456693 -0.000216535 0.000468504 -0.00019685 0.000480315 -0.000173228 0.000488189 -0.000153543 0.000503937 -0.000129921 0.000507874 -0.000102362 0.000523622 -7.87402e-005 0.000527559 -5.51181e-005 0.000535433 -2.75591e-005z"/>
  </g>
  <g>
   <path class="fil0" d="M0.159209 0.448213l-0.0155433 -0.0137008 0.000366142 -0.000385827 0.000385827 -0.000362205 0.000397638 -0.000338583 0.000409449 -0.000314961 0.00042126 -0.000295276 0.000437008 -0.000271654 0.000444882 -0.000244094 0.000452756 -0.000228346 0.000464567 -0.000200787 0.000472441 -0.000177165 0.000476378 -0.00015748 0.000484252 -0.000129921 0.000492126 -0.000110236 0.000492126 -8.66142e-005 0.000496063 -5.90551e-005 0.0005 -3.93701e-005 0.0005 -1.5748e-005 0.0005 7.87402e-006 0.0005 3.14961e-005 0.0005 5.51181e-005 0.000496063 7.87402e-005 0.000492126 0.000102362 0.000488189 0.000125984 0.000484252 0.000149606 0.000476378 0.000173228 0.000472441 0.00019685 0.00046063 0.000224409 0.000452756 0.000244094 0.000444882 0.000271654 0.000433071 0.000291339 0.00042126 0.000318898 0.000409449 0.00034252 0.000389764 0.000362205 0.000370079 0.000377953 0.00034252 0.000389764 0.000322835 0.000405512 0.000299213 0.000417323 0.000275591 0.000429134 0.000248031 0.000437008 0.000228346 0.000448819 0.000208661 0.000456693 0.000181102 0.000464567 0.00015748 0.000468504 0.000133858 0.000480315 0.000110236 0.000480315 8.66142e-005 0.000488189 6.29921e-005 0.000488189 3.93701e-005 0.000492126 1.5748e-005 0.000492126 -7.87402e-006 0.000492126 -3.14961e-005 0.000492126 -5.51181e-005 0.000492126 -7.87402e-005 0.000488189 -0.000106299 0.000484252 -0.000125984 0.000484252 -0.000153543 0.000476378 -0.000177165 0.000468504 -0.000200787 0.000464567 -0.000224409 0.000456693 -0.000248031 0.000444882 -0.000275591 0.000437008 -0.000299213 0.000425197 -0.000322835 0.000417323 -0.000346457 0.000401575zm-0.0363583 0.00923622l0.020815 -0.022937 0.0155433 0.0137008 -0.020815 0.022937 -0.0155433 -0.0137008zm0 0l0.0155433 0.0137008 -0.000366142 0.000385827 -0.000385827 0.000362205 -0.000397638 0.000338583 -0.000409449 0.000314961 -0.00042126 0.000295276 -0.000437008 0.000271654 -0.000444882 0.000244094 -0.000452756 0.000228346 -0.000464567 0.000200787 -0.000472441 0.000177165 -0.000476378 0.00015748 -0.000484252 0.000129921 -0.000492126 0.000110236 -0.000492126 8.66142e-005 -0.000496063 5.90551e-005 -0.0005 3.93701e-005 -0.0005 1.5748e-005 -0.0005 -7.87402e-006 -0.0005 -3.14961e-005 -0.0005 -5.51181e-005 -0.000496063 -7.87402e-005 -0.000492126 -0.000102362 -0.000488189 -0.000125984 -0.000484252 -0.000149606 -0.000476378 -0.000173228 -0.000472441 -0.00019685 -0.00046063 -0.000224409 -0.000452756 -0.000244094 -0.000444882 -0.000271654 -0.000433071 -0.000291339 -0.00042126 -0.000318898 -0.000409449 -0.00034252 -0.000389764 -0.000362205 -0.000370079 -0.000377953 -0.00034252 -0.000389764 -0.000322835 -0.000405512 -0.000299213 -0.000417323 -0.000275591 -0.000429134 -0.000248031 -0.000437008 -0.000228346 -0.000448819 -0.000208661 -0.000456693 -0.000181102 -0.000464567 -0.00015748 -0.000468504 -0.000133858 -0.000480315 -0.000110236 -0.000480315 -8.66142e-005 -0.000488189 -6.29921e-005 -0.000488189 -3.93701e-005 -0.000492126 -1.5748e-005 -0.000492126 7.87402e-006 -0.000492126 3.14961e-005 -0.000492126 5.51181e-005 -0.000492126 7.87402e-005 -0.000488189 0.000106299 -0.000484252 0.000125984 -0.000484252 0.000153543 -0.000476378 0.000177165 -0.000468504 0.000200787 -0.000464567 0.000224409 -0.000456693 0.000248031 -0.000444882 0.000275591 -0.000437008 0.000299213 -0.000425197 0.000322835 -0.000417323 0.000346457 -0.000401575z"/>
  </g>
 </g>
</svg>
