<?xml version="1.0" encoding="UTF-8"?>
<!DOCTYPE svg PUBLIC "-//W3C//DTD SVG 1.1//EN" "http://www.w3.org/Graphics/SVG/1.1/DTD/svg11.dtd">
<!-- Creator: CorelDRAW -->
<svg xmlns="http://www.w3.org/2000/svg" xml:space="preserve" width="100%" height="100%" style="shape-rendering:geometricPrecision; text-rendering:geometricPrecision; image-rendering:optimizeQuality; fill-rule:evenodd; clip-rule:evenodd"
viewBox="0 0 0.985717 1.04248"
 xmlns:xlink="http://www.w3.org/1999/xlink">
 <defs>
  <style type="text/css">
   <![CDATA[
    .str0 {stroke:#0A0B0C;stroke-width:0.0208346}
    .fil2 {fill:none}
    .fil1 {fill:white}
    .fil0 {fill:#FCD12A}
   ]]>
  </style>
 </defs>
 <g id="Layer_x0020_1">
  <metadata id="CorelCorpID_0Corel-Layer"/>
  <circle class="fil0" cx="0.493283" cy="0.550049" r="0.492431"/>
  <path class="fil1 str0" d="M0.551098 0.188843l0.108205 0.0674094 7.87402e-005 0.0449606c0,0.0210079 -0.017185,0.0381969 -0.0381969,0.0381969l-0.246189 0c-0.0210079,0 -0.0381929,-0.017189 -0.0381929,-0.0381969l-0.00155906 -0.0437402 0.107724 -0.0659094m0.0581457 -0.180898c0.0732244,0.000685039 0.0785472,0.0481575 0.0758268,0.100988 0,0.0535157 -0.034563,0.0969094 -0.077185,0.0969094 -0.042622,0 -0.0819488,-0.0454331 -0.0819488,-0.0989488 0,-0.0535157 0.012122,-0.103705 0.0833071,-0.0989488z"/>
  <path class="fil2 str0" d="M0.493768 0.421173l0.00111417 0.129528 -0.129465 0.0994803m0.134913 -0.0994803l0.126736 0.0994803"/>
  <path class="fil1 str0" d="M0.856654 0.737201l0.108205 0.0674094 7.48031e-005 0.0449646c0,0.0210039 -0.017185,0.0381929 -0.0381929,0.0381929l-0.246189 0c-0.0210118,0 -0.0381969,-0.017189 -0.0381969,-0.0381929l-0.00155512 -0.0437441 0.107724 -0.0659094m0.0581457 -0.180894c0.0732244,0.000681102 0.0785472,0.0481535 0.0758268,0.100984 0,0.0535157 -0.0345669,0.0969134 -0.077185,0.0969134 -0.042626,0 -0.0819528,-0.045437 -0.0819528,-0.0989488 0,-0.0535157 0.012126,-0.103709 0.083311,-0.0989488z"/>
  <path class="fil1 str0" d="M0.226449 0.739929l0.108205 0.0674094 7.48031e-005 0.0449646c0,0.0210039 -0.017185,0.0381929 -0.0381929,0.0381929l-0.246189 0c-0.0210118,0 -0.0381969,-0.017189 -0.0381969,-0.0381929l-0.00155512 -0.0437441 0.107724 -0.0659094m0.0581457 -0.180894c0.0732244,0.000681102 0.0785472,0.0481535 0.0758268,0.100984 0,0.0535157 -0.034563,0.0969134 -0.077185,0.0969134 -0.042626,0 -0.0819528,-0.045437 -0.0819528,-0.0989488 0,-0.0535157 0.012126,-0.103709 0.083311,-0.0989488z"/>
 </g>
</svg>
