<?xml version="1.0" encoding="UTF-8"?>
<!DOCTYPE svg PUBLIC "-//W3C//DTD SVG 1.1//EN" "http://www.w3.org/Graphics/SVG/1.1/DTD/svg11.dtd">
<!-- Creator: CorelDRAW -->
<svg xmlns="http://www.w3.org/2000/svg" xml:space="preserve" width="100%" height="100%" style="shape-rendering:geometricPrecision; text-rendering:geometricPrecision; image-rendering:optimizeQuality; fill-rule:evenodd; clip-rule:evenodd"
viewBox="0 0 0.843492 0.842736"
 xmlns:xlink="http://www.w3.org/1999/xlink">
 <defs>
  <style type="text/css">
   <![CDATA[
    .fil2 {fill:white}
    .fil1 {fill:#5A76B1}
    .fil0 {fill:#5A76B1;fill-rule:nonzero}
   ]]>
  </style>
 </defs>
 <g id="Layer_x0020_1">
  <metadata id="CorelCorpID_0Corel-Layer"/>
  <g id="_146612408">
   <path id="_107619168" class="fil0" d="M0.030748 0.657799l0.155437 0.154181 0.0599882 -0.0604764 -0.155429 -0.154181 -0.0599961 0.0604764zm0.147831 0.177264l-0.170874 -0.169492 -0.00770472 -0.00764567 0.00766535 -0.00773228 0.0753071 -0.0759094 0.00764567 -0.00770472 0.00772835 0.00766142 0.17087 0.169492 0.00770866 0.00764961 -0.00766929 0.00772835 -0.0752992 0.0759134 -0.00764173 0.0077126 -0.00773622 -0.00767323z"/>
   <path id="_109994024" class="fil0" d="M0.258327 0l0.57263 0 0.0125354 0 0 0.0125394 0 0.70735 0 0.0125394 -0.0125354 0 -0.57263 0 -0.0125394 0 0 -0.0125394 0 -0.70735 0 -0.0125394 0.0125394 0zm0.560091 0.0250787l-0.547555 0 0 0.682276 0.547555 0 0 -0.682276z"/>
   <path id="_145483816" class="fil0" d="M0.31765 0.0513268l0.460965 0 0.0125394 0 0 0.0125394 0 0.139547 0 0.0125354 -0.0125394 0 -0.460965 0 -0.0125394 0 0 -0.0125354 0 -0.139547 0 -0.0125394 0.0125394 0zm0.448425 0.0250787l-0.435886 0 0 0.114469 0.435886 0 0 -0.114469z"/>
   <polygon id="_145481320" class="fil1" points="0.35611,0.106563 0.384134,0.106563 0.384134,0.134134 0.35611,0.134134 "/>
   <polygon id="_145483528" class="fil1" points="0.41113,0.106563 0.43915,0.106563 0.43915,0.134134 0.41113,0.134134 "/>
   <polygon id="_145482376" class="fil1" points="0.46535,0.106563 0.49337,0.106563 0.49337,0.134134 0.46535,0.134134 "/>
   <polygon id="_145483696" class="fil1" points="0.30248,0.241839 0.330504,0.241839 0.330504,0.269409 0.30248,0.269409 "/>
   <polygon id="_145481968" class="fil1" points="0.3575,0.241839 0.38552,0.241839 0.38552,0.269409 0.3575,0.269409 "/>
   <polygon id="_145484248" class="fil1" points="0.41172,0.241839 0.43974,0.241839 0.43974,0.269409 0.41172,0.269409 "/>
   <polygon id="_145484296" class="fil1" points="0.67026,0.242638 0.792358,0.242638 0.792358,0.270209 0.67026,0.270209 "/>
   <polygon id="_146612912" class="fil1" points="0.67026,0.295469 0.792358,0.295469 0.792358,0.323039 0.67026,0.323039 "/>
   <polygon id="_146612840" class="fil1" points="0.669461,0.352299 0.791559,0.352299 0.791559,0.37987 0.669461,0.37987 "/>
   <polygon id="_146612768" class="fil1" points="0.710709,0.406728 0.792358,0.406728 0.792358,0.434299 0.710709,0.434299 "/>
   <path id="_146612576" class="fil0" d="M0.679878 0.44537l0.0220394 0.0767992 0.0799213 -0.00273622c0.00599606,-0.000188976 0.0110157,0.00452362 0.0112008,0.0105197 0.00011811,0.00386614 -0.00179921,0.00732677 -0.0047874,0.00934252l1.5748e-005 2.75591e-005 -0.0662323 0.0447008 0.0272953 0.0751417c0.00204331,0.00564173 -0.000877953,0.0118819 -0.00651969,0.0139291 -0.00381102,0.00138189 -0.0078937,0.000496063 -0.0107717,-0.00196063l-0.0626063 -0.0488898 -0.0630472 0.049189c-0.00472441,0.00369291 -0.0115551,0.00285039 -0.015248,-0.00187402 -0.00238976,-0.00305512 -0.00287795,-0.00699213 -0.00165354,-0.0103898l-7.87402e-006 -3.93701e-006 0.027315 -0.0750866 -0.0662559 -0.0447559c-0.00498425,-0.0033622 -0.00630315,-0.0101378 -0.00294094,-0.015122 0.00233071,-0.00345276 0.00629528,-0.00514173 0.0101732,-0.00474016l0.0790669 0.00274409 0.0220906 -0.0768346c0.00164567,-0.00578346 0.00767323,-0.0091378 0.0134606,-0.00749213 0.00375984,0.00106693 0.00649213,0.00398819 0.00749213,0.00749213zm0.00342913 0.0909331l-0.0139134 -0.0484921 -0.0139528 0.0485276 -2.75591e-005 -3.93701e-006c-0.00132677,0.00467717 -0.00570866,0.00803937 -0.0107913,0.00788189l-0.0505157 -0.00175197 0.0419016 0.0283071 -7.87402e-006 1.5748e-005c0.00403937,0.00272047 0.00587402,0.00793307 0.00414173,0.0127205l-0.0172874 0.0475197 0.0397756 -0.0310315c0.00384252,-0.00309449 0.00944094,-0.00326378 0.0134961,-9.44882e-005l0.0398425 0.0311142 -0.0170551 -0.0469528c-0.00204724,-0.00471654 -0.000511811,-0.010374 0.00390551,-0.0133543l0.041878 -0.0282638 -0.0497441 0.00170866c-0.00518504,0.000562992 -0.0101772,-0.00266929 -0.0116457,-0.00785039z"/>
   <path id="_146612480" class="fil2" d="M0.2515 0.740421c0.0188543,-0.0234134 0.0551063,-0.0449606 0.0943189,-0.0555866 0.0227165,-0.00615748 0.0419055,-0.0113465 0.0630866,-0.0221299 0.0308425,-0.0157047 0.0593346,-0.0328583 0.088815,-0.0501299 0.0534409,-0.0313071 0.0200669,-0.0918701 -0.0352598,-0.0597795 -0.0344016,0.0199488 -0.0683858,0.0356811 -0.104748,0.0588465l0.260012 -0.275331c0.0124213,-0.0131496 0.013811,-0.0333268 0.00140945,-0.0465l0 0c-0.0123976,-0.0131772 -0.0264528,-0.0101181 -0.0392913,0.00259055l-0.264354 0.261701 0.127406 -0.126366c0.0128425,-0.0127441 0.0138071,-0.0333268 0.00140945,-0.0465l0 0c-0.0124016,-0.0131732 -0.0266417,-0.0103031 -0.0392953,0.00259449l-0.128713 0.131835 0.112063 -0.111988c0.0127598,-0.0128268 0.0138071,-0.0333268 0.00140945,-0.0465l0 0c-0.0124016,-0.0131772 -0.0262441,-0.00990157 -0.0392913,0.00259055l-0.118161 0.113516 0.0854685 -0.082437c0.0129921,-0.0125906 0.0138071,-0.0333268 0.00140945,-0.0465l0 0c-0.0124016,-0.0131772 -0.026311,-0.00998819 -0.0392913,0.00259055 -0.0286614,0.0277717 -0.0573307,0.0555433 -0.0859921,0.083315 -0.0481732,0.0444724 -0.0411811,0.140469 -0.0862205,0.160299l0.143811 0.14987z"/>
   <path id="_146612432" class="fil0" d="M0.251264 0.724472c0.00938976,-0.00940157 0.0211614,-0.0182874 0.0344488,-0.0261181 0.017126,-0.0100945 0.0368583,-0.0185 0.0572953,-0.0240394l0.000114173 -3.14961e-005c0.0220394,-0.00597244 0.0406772,-0.0110276 0.0608425,-0.0212913 0.0266811,-0.0135827 0.0510827,-0.0279331 0.0758465,-0.0424961l0.0124173 -0.00729134c0.0154409,-0.00904331 0.0218386,-0.0204331 0.0216181,-0.0300709 -7.08661e-005,-0.00322835 -0.000937008,-0.00628346 -0.00247638,-0.00894094 -0.00150787,-0.00260236 -0.00370866,-0.00484252 -0.00647244,-0.00648031 -0.00812598,-0.00482283 -0.0210945,-0.00472441 -0.0369882,0.00449606 -0.0132677,0.00768898 -0.0270315,0.0150472 -0.0408937,0.0224528 -0.0207717,0.0110945 -0.0417953,0.0223307 -0.0634685,0.0361378l-0.0137559 -0.0166102 0.260012 -0.275335c0.00446063,-0.00472047 0.00691339,-0.0106378 0.00708661,-0.0164724 0.000165354,-0.00543307 -0.00165748,-0.0108504 -0.00567717,-0.0151181l-0.000594488 -0.000622047c-0.00340157,-0.00338189 -0.00667717,-0.00473622 -0.00972835,-0.00444488 -0.00379528,0.000362205 -0.00805906,0.00288976 -0.0124803,0.00705118l-0.00102756 0.000992126 -0.264224 0.261567 -0.0153346 -0.0154134 0.127402 -0.126366c0.00443701,-0.00440157 0.00681102,-0.010126 0.00698425,-0.0158425 0.000169291,-0.00556299 -0.00174016,-0.0111457 -0.00582677,-0.0154961l-4.33071e-005 -4.33071e-005 -0.000685039 -0.000704724 -4.33071e-005 -4.33071e-005c-0.0033189,-0.00325591 -0.0065748,-0.00457874 -0.0096378,-0.00431102 -0.00365748,0.000326772 -0.00769685,0.00264567 -0.0118386,0.00652756l-0.00133071 0.00129528 -0.00856299 0.00877559c-0.00209843,0.00402362 -0.00483071,0.00779528 -0.00817323,0.0111575l-4.33071e-005 4.33071e-005 -0.112059 0.111984 -0.0154646 -0.0152874 0.117606 -0.120457c0.000944882,-0.00245276 0.00146063,-0.00501575 0.00153937,-0.0075748 0.000165354,-0.00551969 -0.0017126,-0.0110551 -0.00576378,-0.0153819l-0.000232283 -0.000244094 3.93701e-006 0c-0.0035315,-0.00367323 -0.00690551,-0.00510236 -0.0100512,-0.00477165 -0.00399606,0.000425197 -0.00849606,0.00317717 -0.0132087,0.00759843l-0.00042126 0.000397638 -3.93701e-006 -3.93701e-006 -0.118114 0.113476 -0.0150787 -0.0156772 0.0854685 -0.082437c0.00440157,-0.00428346 0.00674016,-0.00992913 0.00690945,-0.0155827 0.000165354,-0.00558661 -0.00175197,-0.0112165 -0.00584646,-0.0155906l-0.000389764 -0.000405512 0 -3.93701e-006c-0.00348031,-0.00355512 -0.00682677,-0.00495669 -0.00994488,-0.00464173 -0.00388583,0.000393701 -0.00828346,0.00305512 -0.0128898,0.00738189l-0.000685039 0.000653543 -3.93701e-006 -3.93701e-006 -0.0859016 0.0832323 -0.000216535 0.000212598c-0.0211929,0.0195669 -0.0311339,0.0517717 -0.0403504,0.0816417 -0.00914173,0.0296299 -0.0176614,0.0572283 -0.0361772,0.0727244l0.126516 0.131846zm0.0454409 -0.00737795c-0.0152677,0.009 -0.0280827,0.0194055 -0.0367283,0.0301417l-0.00775984 0.00963386 -0.00855118 -0.00890945 -0.143815 -0.14987 -0.0107835 -0.0112362 0.0142362 -0.00626772c0.0186693,-0.00821654 0.0273622,-0.036378 0.0368346,-0.0670748 0.0100551,-0.0325866 0.0209055,-0.0677244 0.0464055,-0.0912677l0 3.93701e-006 0.0857756 -0.0831063 8.26772e-005 -8.26772e-005 0.000685039 -0.00065748 4.33071e-005 -3.93701e-005c0.00801969,-0.00755118 0.016689,-0.0122953 0.0257087,-0.0132126 0.00976378,-0.000996063 0.0191811,0.00235827 0.027752,0.0112008l8.66142e-005 8.26772e-005 0.000397638 0.000413386 3.93701e-005 4.33071e-005c0.00547244,0.0058189 0.00901575,0.0127323 0.0106732,0.0199921l0.00514961 -0.00494882 3.93701e-005 -4.33071e-005 0.00042126 -0.000397638 4.33071e-005 -4.33071e-005c0.00811024,-0.00762992 0.0168189,-0.0124685 0.0258622,-0.0134252 0.00988976,-0.00105118 0.0194134,0.00233071 0.0280669,0.0113701l4.33071e-005 3.93701e-005 0.00023622 0.000248031 3.93701e-005 3.93701e-005c0.00495669,0.00526772 0.00830709,0.0114094 0.0101063,0.0178858 0.00523622,-0.00326378 0.0107087,-0.00524409 0.0163031,-0.00573622 0.00934646,-0.000822835 0.0184449,0.00238583 0.0267205,0.0104843l4.33071e-005 4.33071e-005c0.000519685,0.000507874 0.000992126,0.000988189 0.00140551,0.00142913l-3.93701e-006 0c0.00527953,0.00562598 0.00874016,0.0122598 0.0104409,0.0192362l0.109469 -0.108366 0.000129921 -0.000129921 0.00111417 -0.00107874 8.26772e-005 -8.26772e-005c0.00787402,-0.00740945 0.0164409,-0.0119961 0.0253425,-0.0128425 0.00961024,-0.00092126 0.0188976,0.00237008 0.0273189,0.010874l0.000129921 0.000129921 0.000681102 0.000704724 8.26772e-005 8.26772e-005c0.00818504,0.00869291 0.0118898,0.0196496 0.0115551,0.030622 -0.000330709,0.0110906 -0.00481496,0.0221575 -0.0129646,0.0307874l-0.209941 0.222311 0.00108661 -0.00057874c0.0132638,-0.00708661 0.026437,-0.014126 0.0402165,-0.0221181 0.023685,-0.0137323 0.044689,-0.012878 0.0589646,-0.00440551 0.00603543,0.00357874 0.0108622,0.00851181 0.0142244,0.0143189 0.00333465,0.00575591 0.00520866,0.0123858 0.00537008,0.0194134 0.000385827,0.0167717 -0.00917323,0.0356654 -0.0323504,0.0492402l-0.0124134 0.00729134c-0.0255118,0.0150039 -0.0506457,0.0297795 -0.0769567,0.0431772 -0.0221181,0.0112598 -0.041811,0.0165984 -0.0650984,0.0229094l-0.000114173 3.14961e-005c-0.018626,0.00504724 -0.0365079,0.0126496 -0.0519291,0.0217402zm0.0146024 -0.36526l-3.54331e-005 -3.54331e-005m3.93701e-005 4.33071e-005l-3.93701e-006 -7.87402e-006"/>
  </g>
 </g>
</svg>
