<?xml version="1.0" encoding="UTF-8"?>
<!DOCTYPE svg PUBLIC "-//W3C//DTD SVG 1.1//EN" "http://www.w3.org/Graphics/SVG/1.1/DTD/svg11.dtd">
<!-- Creator: CorelDRAW -->
<svg xmlns="http://www.w3.org/2000/svg" xml:space="preserve" width="100%" height="100%" style="shape-rendering:geometricPrecision; text-rendering:geometricPrecision; image-rendering:optimizeQuality; fill-rule:evenodd; clip-rule:evenodd"
viewBox="0 0 0.942382 0.942386"
 xmlns:xlink="http://www.w3.org/1999/xlink"
 version="1.1">
 <defs>
  <style type="text/css">
   <![CDATA[
    .fil0 {fill:#1CABA4}
   ]]>
  </style>
 </defs>
 <g id="Layer_x0020_1">
  <metadata id="CorelCorpID_0Corel-Layer"/>
  <g id="cleaning-mop-svgrepo-com.png">
   <g>
    <g>
     <g>
      <path id="_146611040" class="fil0" d="M0.391831 0.912622l-0.317433 0c-0.0246142,0 -0.0446378,-0.0200236 -0.0446378,-0.0446378 0,-0.0246142 0.0200236,-0.0446417 0.0446378,-0.0446417l0.0998898 0c0.00906299,0 0.0175748,-0.00353543 0.0239685,-0.00995276 0.00651969,-0.00654331 0.0100945,-0.0152835 0.010063,-0.0245591l0 -0.000204724c0,-0.0246142 0.0200236,-0.0446417 0.0446378,-0.0446417l0.0595197 0c0.00822047,0 0.0148819,-0.00665748 0.0148819,-0.014878 0,-0.00822047 -0.00666535,-0.0148819 -0.0148819,-0.0148819l-0.0595197 0c-0.0410236,0 -0.0743976,0.033374 -0.0743976,0.0744016l0 0.000259843c7.87402e-006,0.00183071 -0.000862205,0.00297638 -0.00138189,0.0035 -0.000795276,0.000795276 -0.00176378,0.00120079 -0.00288583,0.00120079l-0.0998937 0c-0.0410236,0 -0.0743976,0.033374 -0.0743976,0.0743976 0,0.0410236 0.033374,0.0743976 0.0743976,0.0743976l0.317433 0c0.00822047,0 0.0148819,-0.00665748 0.0148819,-0.014878 0,-0.00822047 -0.00666142,-0.0148819 -0.0148819,-0.0148819z"/>
      <path id="_146610752" class="fil0" d="M0.887823 0.218236l-0.0678307 0c-0.00558268,-0.0117205 -0.0175433,-0.0198425 -0.0313661,-0.0198425l-0.0992008 0c-0.0138228,0 -0.0257835,0.00812205 -0.0313661,0.0198425l-0.0678307 0c-0.00822047,0 -0.0148819,0.00666142 -0.0148819,0.014878 0,0.00822047 0.00666535,0.014878 0.0148819,0.014878l0.0644803 0 0 0.00405906c0,0.0287362 0.0211496,0.0524685 0.0492047,0.0552008 0.00346063,0.000334646 0.00690551,0.000346457 0.010311,3.54331e-005l0 0.063752c0,0.0300551 0.0230984,0.0544252 0.0525866,0.0554724 0.0149291,0.0005 0.0291102,-0.00488976 0.0398622,-0.0152598 0.010748,-0.010378 0.0166732,-0.0243228 0.0166732,-0.0392598l0 -0.00496063 0.048248 0 -0.0261969 0.301268c-0.000712598,0.00818504 0.00535039,0.0154016 0.0135354,0.0161102 0.000437008,3.93701e-005 0.000874016,5.51181e-005 0.00130709,5.51181e-005 0.00763386,0 0.0141339,-0.00584252 0.0148031,-0.0135906l0.0265748 -0.305614c0.0234252,-0.00612205 0.0407638,-0.0274646 0.0407638,-0.0527874l0 -0.0396772c0,-0.0300827 -0.0244764,-0.0545591 -0.0545591,-0.0545591zm-0.0942402 0.0148819l0 0.138878c0,0.00679134 -0.00269291,0.0131299 -0.00758268,0.0178465 -0.00488189,0.00471654 -0.011315,0.00713386 -0.0181339,0.00693701 -0.0131693,-0.000468504 -0.0238819,-0.0120157 -0.0238819,-0.0257362l0 -0.0837598c0,-0.0053189 -0.00283858,-0.0102323 -0.00744882,-0.0128898 -0.00229921,-0.00132677 -0.00486614,-0.00198819 -0.00743307,-0.00198819 -0.0025748,0 -0.00514961,0.000669291 -0.00745669,0.00200394 -0.00451575,0.00261811 -0.00965354,0.00373622 -0.0148504,0.00322835 -0.0125197,-0.00122047 -0.0223307,-0.0124567 -0.0223307,-0.0255827l0 -0.018937c0,-0.00273622 0.00222835,-0.00496063 0.00496063,-0.00496063l0.0992008 0c0.00273228,0 0.00495669,0.00222441 0.00495669,0.00496063l0 0 0 0zm0.119039 0.0793543c0,0.0136378 -0.0110591,0.0247402 -0.024685,0.0247992 -9.44882e-005,0 -0.000188976,0 -0.000283465,0l-0.0643071 0 0 -0.0892756 0.0644803 0c0.0136732,0 0.0247992,0.011126 0.0247992,0.0247992l0 0.0396772 -3.93701e-006 0z"/>
      <path id="_146334960" class="fil0" d="M0.669587 0.367035c0.00821654,0 0.014878,-0.00666142 0.014878,-0.0148819 0,-0.00822047 -0.00666142,-0.014878 -0.014878,-0.014878l-0.0793583 0c-0.00822047,0 -0.0148819,0.00665748 -0.0148819,0.014878 0,0.00822047 0.00666535,0.0148819 0.0148819,0.0148819l0.0793583 0z"/>
      <path id="_146334816" class="fil0" d="M0.918697 0.760685c-0.0301496,-0.0514843 -0.0860591,-0.0861378 -0.149913,-0.0861378l-0.119035 0c-0.0136772,0 -0.0248031,-0.011126 -0.0248031,-0.0247992l0 -0.0198425c0,-0.00532677 -0.000779528,-0.0106024 -0.00229134,-0.0156654 0.0134173,-0.00994882 0.0221339,-0.0259016 0.0221339,-0.0438504 0,-0.0300827 -0.0244764,-0.0545591 -0.0545591,-0.0545591l-0.0247992 0 0 -0.00496063c0,-0.0138268 -0.00811811,-0.0257874 -0.0198386,-0.0313701l0 -0.424941c0,-0.0300827 -0.0244764,-0.0545591 -0.0545591,-0.0545591 -0.0300866,0 -0.0545591,0.0244764 -0.0545591,0.0545591l0 0.163677 -0.183516 0c-0.0300866,0 -0.0545591,0.0244764 -0.0545591,0.0545591l0 0.0396772c0,0.0253189 0.0173386,0.0466654 0.0407598,0.0527953l0.0265748 0.30561c0.000712598,0.00818898 0.00792126,0.0142795 0.0161142,0.0135315 0.00818898,-0.000708661 0.014248,-0.0079252 0.0135354,-0.0161102l-0.0261969 -0.301264 0.167287 0 0 0.112469c-0.0117205,0.00558268 -0.0198386,0.0175433 -0.0198386,0.0313701l0 0.00495669 -0.0248031 0c-0.0300827,0 -0.0545591,0.0244764 -0.0545591,0.0545591 0,0.0179528 0.00871654,0.0339055 0.0221339,0.0438543 -0.00151181,0.00505906 -0.00229134,0.0103386 -0.00229134,0.0156654l0 0.138878c0,0.0957244 0.077874,0.173598 0.173594,0.173598l0.376953 0c0.0191457,0 0.0347205,-0.0155787 0.0347205,-0.0347205l0 -0.0595197c0,-0.0313307 -0.00834252,-0.0607441 -0.0229213,-0.0861457 -0.000228346,-0.000452756 -0.000484252,-0.000889764 -0.00076378,-0.00131496zm-0.452465 -0.706126c0,-0.0136772 0.011122,-0.0247992 0.0247992,-0.0247992 0.0136732,0 0.0247992,0.011122 0.0247992,0.0247992l0 0.421591 -0.0495984 0 0 -0.421591 0 0zm-0.213106 0.282713c-9.44882e-005,3.93701e-006 -0.000192913,3.93701e-006 -0.000283465,0 -0.013622,-5.90551e-005 -0.024689,-0.0111614 -0.024689,-0.0247992l3.93701e-006 -0.0396772c0,-0.0136772 0.011122,-0.0248031 0.0247992,-0.0248031l0.183516 0 0 0.0892795 -0.183346 0 0 0zm0.659496 0.57039c0,0.00273622 -0.00222441,0.00496063 -0.00496063,0.00496063l-0.218236 0c-0.079311,0 -0.143835,-0.0645236 -0.143835,-0.143835l0 -0.0992008c0,-0.00821654 -0.00666535,-0.014878 -0.0148819,-0.014878 -0.00821654,0 -0.014878,0.00665748 -0.014878,0.014878l0 0.0992008c0,0.0589331 0.0295157,0.111098 0.0745433,0.142496 -0.0700236,-0.00962992 -0.124142,-0.0698661 -0.124142,-0.142496l0 -0.0992008c0,-0.00821654 -0.00666142,-0.014878 -0.014878,-0.014878 -0.00822047,0 -0.0148819,0.00665748 -0.0148819,0.014878l0 0.0992008c0,0.0589331 0.0295197,0.111098 0.0745433,0.142496 -0.0700236,-0.00962992 -0.124142,-0.0698622 -0.124142,-0.142492l0 -0.138878c0,-0.00173622 0.000181102,-0.00345669 0.000535433,-0.00514173 0.00145669,0.000122047 0.00293701,0.000181102 0.0044252,0.000181102l0.119039 0c0.00821654,0 0.014878,-0.00666142 0.014878,-0.0148819 0,-0.00821654 -0.00666142,-0.014878 -0.014878,-0.014878l-0.119039 0c-0.0136732,0 -0.0247992,-0.011122 -0.0247992,-0.0247992 0,-0.0136772 0.011126,-0.0247992 0.0247992,-0.0247992l0.0396811 0c0.00821654,0 0.014878,-0.00666142 0.014878,-0.0148819l0 -0.0198386c0,-0.00273622 0.00222441,-0.00496063 0.00496063,-0.00496063l0.0793583 0c0.00273622,0 0.00496063,0.00222441 0.00496063,0.00496063l0 0.0198386c0,0.00822047 0.00666535,0.0148819 0.0148819,0.0148819l0.0396772 0c0.0136772,0 0.0247992,0.011122 0.0247992,0.0247992 0,0.0136772 -0.011122,0.0247992 -0.0247992,0.0247992l-0.0198386 0c-0.00822047,0 -0.0148819,0.00666142 -0.0148819,0.0148819 0,0.00821654 0.00666535,0.014878 0.0148819,0.014878l0.0198386 0c0.00148819,0 0.00296457,-5.90551e-005 0.0044252,-0.000181102 0.000354331,0.00168504 0.000535433,0.00340551 0.000535433,0.00514173l0 0.0198386c0,0.0300827 0.0244764,0.0545591 0.0545591,0.0545591l0.119039 0c0.0432953,0 0.082185,0.0192323 0.108579,0.0495984l-0.187945 0c-0.0243976,0 -0.0484921,-0.00621654 -0.0696811,-0.0179724 -0.00718504,-0.00398425 -0.016248,-0.00139764 -0.0202323,0.0057874 -0.00398819,0.00718504 -0.0013937,0.0162441 0.00579134,0.0202283 0.0255945,0.0142047 0.054685,0.0217126 0.084122,0.0217126l0.207921 0c0.00764961,0.0151929 0.012689,0.0319291 0.0145118,0.0495984l-0.222429 0c-0.0243976,0 -0.0484921,-0.00621654 -0.0696772,-0.0179724 -0.00718898,-0.00399213 -0.0162441,-0.0013937 -0.0202323,0.00579134 -0.00398819,0.00718504 -0.0013937,0.0162441 0.00579134,0.0202283 0.0255906,0.0142008 0.0546772,0.0217047 0.0841142,0.0217047l0.223197 0 0 0.0446457 0 0z"/>
     </g>
    </g>
   </g>
   <g>
   </g>
   <g>
   </g>
   <g>
   </g>
   <g>
   </g>
   <g>
   </g>
   <g>
   </g>
   <g>
   </g>
   <g>
   </g>
   <g>
   </g>
   <g>
   </g>
   <g>
   </g>
   <g>
   </g>
   <g>
   </g>
   <g>
   </g>
   <g>
   </g>
  </g>
 </g>
</svg>
