<?xml version="1.0" encoding="UTF-8"?>
<!DOCTYPE svg PUBLIC "-//W3C//DTD SVG 1.1//EN" "http://www.w3.org/Graphics/SVG/1.1/DTD/svg11.dtd">
<!-- Creator: CorelDRAW -->
<svg xmlns="http://www.w3.org/2000/svg" xml:space="preserve" width="100%" height="100%" style="shape-rendering:geometricPrecision; text-rendering:geometricPrecision; image-rendering:optimizeQuality; fill-rule:evenodd; clip-rule:evenodd"
viewBox="0 0 0.605118 0.605118"
 xmlns:xlink="http://www.w3.org/1999/xlink">
 <defs>
  <style type="text/css">
   <![CDATA[
    .str3 {stroke:#5A76B1;stroke-width:0.0180551}
    .str2 {stroke:#5A76B1;stroke-width:0.00887795;stroke-linecap:round;stroke-linejoin:round}
    .str1 {stroke:#5A76B1;stroke-width:0.0124252}
    .str0 {stroke:#5A76B1;stroke-width:0.0124252;stroke-linecap:round;stroke-linejoin:round}
    .fil0 {fill:none}
    .fil1 {fill:#5A76B1;fill-rule:nonzero}
   ]]>
  </style>
 </defs>
 <g id="Layer_x0020_1">
  <metadata id="CorelCorpID_0Corel-Layer"/>
  <g id="_104267672">
   <path id="_104745264" class="fil0 str0" d="M0.205638 0.275819c0.00164567,0.0444528 -0.0260197,0.0502205 -0.0575079,0.0579803 -0.0088189,0.00217717 -0.017937,0.00450787 -0.0267953,0.00788583 -0.0184094,0.00702362 -0.0356969,0.0185827 -0.0468504,0.042689 -0.0103622,0.0223898 -0.0107205,0.0565945 -0.0096063,0.0868307"/>
   <polyline id="_104745192" class="fil0 str0" points="0.151614,0.503354 0.150925,0.440665 0.120614,0.344217 "/>
   <polyline id="_104745120" class="fil0 str0" points="0.367933,0.33526 0.345201,0.422752 0.177106,0.42413 0.148858,0.333882 "/>
   <path id="_104745048" class="fil0 str1" d="M0.186744 0.322528c0.00909055,0.0678583 0.13526,0.0740551 0.1495,-0.00173622"/>
   <polyline id="_104744976" class="fil0 str0" points="0.370004,0.501976 0.370004,0.436531 0.396181,0.34215 "/>
   <path id="_104744904" class="fil0 str0" d="M0.315287 0.277197c0.00118898,0.0578268 0.0375118,0.0460512 0.0843031,0.0648386 0.0173228,0.00695276 0.0363819,0.0178937 0.049252,0.0447441"/>
   <line id="_104744832" class="fil0 str0" x1="0.449913" y1="0.549626" x2="0.449224" y2= "0.335953" />
   <line id="_104744760" class="fil0 str0" x1="0.469547" y1="0.537386" x2="0.468858" y2= "0.335953" />
   <g>
    <path id="_104744688" class="fil1" d="M0.356449 0.248705l0 0.012378 -0.000318898 -7.87402e-006 -0.000314961 -2.3622e-005 -0.000311024 -3.93701e-005 -0.000307087 -5.51181e-005 -0.000299213 -7.08661e-005 -0.000295276 -8.26772e-005 -0.000287402 -9.44882e-005 -0.000283465 -0.000114173 -0.000275591 -0.000122047 -0.000267717 -0.000137795 -0.000259843 -0.000149606 -0.000251969 -0.000161417 -0.000244094 -0.000169291 -0.00023622 -0.000185039 -0.000224409 -0.000192913 -0.000216535 -0.000208661 -0.000204724 -0.000212598 -0.000192913 -0.000224409 -0.000185039 -0.00023622 -0.000173228 -0.000240157 -0.000161417 -0.000251969 -0.000149606 -0.000259843 -0.000137795 -0.000267717 -0.000125984 -0.000271654 -0.000110236 -0.000283465 -9.84252e-005 -0.000287402 -8.26772e-005 -0.000291339 -7.08661e-005 -0.000299213 -5.51181e-005 -0.000307087 -3.93701e-005 -0.000307087 -2.3622e-005 -0.000314961 -7.87402e-006 -0.000318898 7.87402e-006 -0.000318898 2.3622e-005 -0.000314961 3.93701e-005 -0.000307087 5.51181e-005 -0.000307087 7.08661e-005 -0.000299213 8.26772e-005 -0.000291339 9.84252e-005 -0.000287402 0.000110236 -0.000283465 0.000125984 -0.000271654 0.000137795 -0.000267717 0.000149606 -0.000259843 0.000161417 -0.000251969 0.000173228 -0.000240157 0.000185039 -0.00023622 0.000192913 -0.000224409 0.000204724 -0.000212598 0.000216535 -0.000208661 0.000224409 -0.000192913 0.00023622 -0.000185039 0.000244094 -0.000169291 0.000251969 -0.000161417 0.000259843 -0.000149606 0.000267717 -0.000137795 0.000275591 -0.000122047 0.000283465 -0.000114173 0.000287402 -9.44882e-005 0.000295276 -8.26772e-005 0.000299213 -7.08661e-005 0.000307087 -5.51181e-005 0.000311024 -3.93701e-005 0.000314961 -2.3622e-005 0.000318898 -7.87402e-006zm0.205878 0.012378l-0.205878 0 0 -0.012378 0.205878 0 0 0.012378zm0 0l0 -0.012378 0.000318898 7.87402e-006 0.000314961 2.3622e-005 0.000311024 3.93701e-005 0.000307087 5.51181e-005 0.000299213 7.08661e-005 0.000295276 8.26772e-005 0.000287402 9.44882e-005 0.000283465 0.000114173 0.000275591 0.000122047 0.000267717 0.000137795 0.000259843 0.000149606 0.000251969 0.000161417 0.000244094 0.000169291 0.00023622 0.000185039 0.000224409 0.000192913 0.000216535 0.000208661 0.000204724 0.000212598 0.000192913 0.000224409 0.000185039 0.00023622 0.000173228 0.000240157 0.000161417 0.000251969 0.000149606 0.000259843 0.000137795 0.000267717 0.000125984 0.000271654 0.000110236 0.000283465 9.84252e-005 0.000287402 8.26772e-005 0.000291339 7.08661e-005 0.000299213 5.51181e-005 0.000307087 3.93701e-005 0.000307087 2.3622e-005 0.000314961 7.87402e-006 0.000318898 -7.87402e-006 0.000318898 -2.3622e-005 0.000314961 -3.93701e-005 0.000307087 -5.51181e-005 0.000307087 -7.08661e-005 0.000299213 -8.26772e-005 0.000291339 -9.84252e-005 0.000287402 -0.000110236 0.000283465 -0.000125984 0.000271654 -0.000137795 0.000267717 -0.000149606 0.000259843 -0.000161417 0.000251969 -0.000173228 0.000240157 -0.000185039 0.00023622 -0.000192913 0.000224409 -0.000204724 0.000212598 -0.000216535 0.000208661 -0.000224409 0.000192913 -0.00023622 0.000185039 -0.000244094 0.000169291 -0.000251969 0.000161417 -0.000259843 0.000149606 -0.000267717 0.000137795 -0.000275591 0.000122047 -0.000283465 0.000114173 -0.000287402 9.44882e-005 -0.000295276 8.26772e-005 -0.000299213 7.08661e-005 -0.000307087 5.51181e-005 -0.000311024 3.93701e-005 -0.000314961 2.3622e-005 -0.000318898 7.87402e-006z"/>
   </g>
   <g>
    <path class="fil1" d="M0.366083 0.304945l0 0.00880315 -0.000228346 -3.93701e-006 -0.000224409 -1.9685e-005 -0.000220472 -2.75591e-005 -0.000216535 -3.93701e-005 -0.000216535 -4.72441e-005 -0.000208661 -5.90551e-005 -0.000204724 -7.08661e-005 -0.000200787 -7.87402e-005 -0.00019685 -8.66142e-005 -0.000188976 -9.84252e-005 -0.000185039 -0.000106299 -0.000181102 -0.000114173 -0.000173228 -0.000122047 -0.000165354 -0.000129921 -0.000161417 -0.000141732 -0.000153543 -0.000145669 -0.000145669 -0.000149606 -0.000137795 -0.000161417 -0.000133858 -0.000165354 -0.000122047 -0.000173228 -0.000114173 -0.000177165 -0.000106299 -0.000185039 -9.84252e-005 -0.000188976 -9.05512e-005 -0.00019685 -7.87402e-005 -0.000200787 -6.69291e-005 -0.000204724 -6.29921e-005 -0.000208661 -4.72441e-005 -0.000212598 -3.93701e-005 -0.000216535 -2.75591e-005 -0.000220472 -1.9685e-005 -0.000224409 -3.93701e-006 -0.000224409 3.93701e-006 -0.000224409 1.9685e-005 -0.000224409 2.75591e-005 -0.000220472 3.93701e-005 -0.000216535 4.72441e-005 -0.000212598 6.29921e-005 -0.000208661 6.69291e-005 -0.000204724 7.87402e-005 -0.000200787 9.05512e-005 -0.00019685 9.84252e-005 -0.000188976 0.000106299 -0.000185039 0.000114173 -0.000177165 0.000122047 -0.000173228 0.000133858 -0.000165354 0.000137795 -0.000161417 0.000145669 -0.000149606 0.000153543 -0.000145669 0.000161417 -0.000141732 0.000165354 -0.000129921 0.000173228 -0.000122047 0.000181102 -0.000114173 0.000185039 -0.000106299 0.000188976 -9.84252e-005 0.00019685 -8.66142e-005 0.000200787 -7.87402e-005 0.000204724 -7.08661e-005 0.000208661 -5.90551e-005 0.000216535 -4.72441e-005 0.000216535 -3.93701e-005 0.000220472 -2.75591e-005 0.000224409 -1.9685e-005 0.000228346 -3.93701e-006zm0.18698 0.00924803l-0.18698 -0.000444882 0 -0.00880315 0.18698 0.000444882 0 0.00880315zm0 0l0 -0.00880315 0.000228346 3.93701e-006 0.000224409 1.9685e-005 0.000220472 2.75591e-005 0.000216535 3.93701e-005 0.000216535 4.72441e-005 0.000208661 5.90551e-005 0.000204724 7.08661e-005 0.000200787 7.87402e-005 0.00019685 8.66142e-005 0.000188976 9.84252e-005 0.000185039 0.000106299 0.000181102 0.000114173 0.000173228 0.000122047 0.000165354 0.000129921 0.000161417 0.000141732 0.000153543 0.000145669 0.000145669 0.000149606 0.000137795 0.000161417 0.000133858 0.000165354 0.000122047 0.000173228 0.000114173 0.000177165 0.000106299 0.000185039 9.84252e-005 0.000188976 9.05512e-005 0.00019685 7.87402e-005 0.000200787 6.69291e-005 0.000204724 6.29921e-005 0.000208661 4.72441e-005 0.000212598 3.93701e-005 0.000216535 2.75591e-005 0.000220472 1.9685e-005 0.000224409 3.93701e-006 0.000224409 -3.93701e-006 0.000224409 -1.9685e-005 0.000224409 -2.75591e-005 0.000220472 -3.93701e-005 0.000216535 -4.72441e-005 0.000212598 -6.29921e-005 0.000208661 -6.69291e-005 0.000204724 -7.87402e-005 0.000200787 -9.05512e-005 0.00019685 -9.84252e-005 0.000188976 -0.000106299 0.000185039 -0.000114173 0.000177165 -0.000122047 0.000173228 -0.000133858 0.000165354 -0.000137795 0.000161417 -0.000145669 0.000149606 -0.000153543 0.000145669 -0.000161417 0.000141732 -0.000165354 0.000129921 -0.000173228 0.000122047 -0.000181102 0.000114173 -0.000185039 0.000106299 -0.000188976 9.84252e-005 -0.00019685 8.66142e-005 -0.000200787 7.87402e-005 -0.000204724 7.08661e-005 -0.000208661 5.90551e-005 -0.000216535 4.72441e-005 -0.000216535 3.93701e-005 -0.000220472 2.75591e-005 -0.000224409 1.9685e-005 -0.000228346 3.93701e-006z"/>
   </g>
   <g>
    <path class="fil1" d="M0.37122 0.309398l-0.0123228 0.00125984 -2.3622e-005 -0.000314961 -7.87402e-006 -0.000314961 7.87402e-006 -0.000311024 2.3622e-005 -0.000307087 3.54331e-005 -0.000307087 5.51181e-005 -0.000299213 6.69291e-005 -0.000295276 8.26772e-005 -0.000287402 9.44882e-005 -0.000287402 0.000110236 -0.000275591 0.000122047 -0.000275591 0.000133858 -0.00026378 0.000145669 -0.000259843 0.000161417 -0.000248031 0.000169291 -0.000244094 0.000181102 -0.000232283 0.00019685 -0.000228346 0.000200787 -0.000212598 0.000216535 -0.000208661 0.000224409 -0.000192913 0.000232283 -0.000185039 0.000244094 -0.000177165 0.000248031 -0.000161417 0.00026378 -0.000149606 0.000267717 -0.000141732 0.000275591 -0.000122047 0.000283465 -0.000114173 0.000291339 -9.84252e-005 0.000299213 -8.66142e-005 0.00030315 -7.08661e-005 0.000311024 -5.51181e-005 0.000314961 -3.93701e-005 0.000318898 -2.3622e-005 0.000314961 -7.87402e-006 0.000311024 7.87402e-006 0.000311024 2.3622e-005 0.00030315 3.54331e-005 0.000299213 5.51181e-005 0.000299213 6.69291e-005 0.000291339 7.87402e-005 0.000283465 9.84252e-005 0.000279528 0.000106299 0.000275591 0.000122047 0.00026378 0.000133858 0.000259843 0.000145669 0.000251969 0.00015748 0.000244094 0.000173228 0.00023622 0.000181102 0.000224409 0.000188976 0.000216535 0.000204724 0.000204724 0.000212598 0.00019685 0.000224409 0.000188976 0.000232283 0.000173228 0.000240157 0.000161417 0.000251969 0.000153543 0.000259843 0.000137795 0.000267717 0.000125984 0.000275591 0.000114173 0.000279528 9.84252e-005 0.000291339 8.66142e-005 0.000295276 7.08661e-005 0.00030315 5.51181e-005 0.000311024 3.93701e-005 0.000314961zm0.00717323 0.014748l-0.00756693 0.00976378 0 0 -0.000716535 -0.000566929 -0.000712598 -0.000594488 -0.000692913 -0.000633858 -0.000665354 -0.00061811 -0.000649606 -0.000653543 -0.000598425 -0.00065748 -0.00057874 -0.000669291 -0.000559055 -0.000681102 -0.000535433 -0.000688976 -0.000519685 -0.00069685 -0.000476378 -0.000728346 -0.000452756 -0.000712598 -0.000437008 -0.000744094 -0.000417323 -0.000724409 -0.000377953 -0.000759843 -0.000358268 -0.000767717 -0.000318898 -0.000728346 -0.000330709 -0.000779528 -0.000307087 -0.00076378 -0.000271654 -0.000744094 -0.000259843 -0.00080315 -0.000216535 -0.000759843 -0.000228346 -0.000791339 -0.000188976 -0.000771654 -0.000181102 -0.000775591 -0.000165354 -0.000759843 -0.000153543 -0.000787402 -0.000141732 -0.000767717 -0.000133858 -0.000775591 -9.44882e-005 -0.000799213 -0.000110236 -0.000759843 -7.87402e-005 -0.000787402 0.0123228 -0.00125984 7.87402e-005 0.000598425 6.29921e-005 0.000610236 9.44882e-005 0.000562992 8.66142e-005 0.00057874 9.44882e-005 0.00057874 0.000106299 0.000543307 0.00011811 0.000562992 0.000125984 0.00053937 0.000141732 0.000527559 0.000133858 0.0005 0.000169291 0.000515748 0.00015748 0.000464567 0.000177165 0.000507874 0.000165354 0.000472441 0.000181102 0.000440945 0.000224409 0.000484252 0.000208661 0.000429134 0.00023622 0.00042126 0.000220472 0.000440945 0.000248031 0.000405512 0.000255906 0.00042126 0.000279528 0.000389764 0.000275591 0.000405512 0.000299213 0.000397638 0.000314961 0.000389764 0.000334646 0.000377953 0.000354331 0.000374016 0.000358268 0.000362205 0.000374016 0.000374016 0.000401575 0.00034252 0.00042126 0.000358268 0.000472441 0.000370079 0 0zm0.022063 0.00417323l0 0.0123228 0 0 -0.000905512 -3.93701e-006 -0.000901575 0 -0.00092126 -3.93701e-006 -0.000913386 -3.93701e-006 -0.000909449 -1.1811e-005 -0.000909449 -1.1811e-005 -0.00092126 -1.9685e-005 -0.000917323 -2.3622e-005 -0.000937008 -3.54331e-005 -0.000901575 -3.93701e-005 -0.000948819 -5.11811e-005 -0.000917323 -6.29921e-005 -0.000937008 -9.84252e-005 -0.000952756 -8.66142e-005 -0.000917323 -0.000125984 -0.000940945 -0.000114173 -0.000956693 -0.00015748 -0.000948819 -0.00019685 -0.000940945 -0.000192913 -0.000956693 -0.000216535 -0.000925197 -0.000255906 -0.000940945 -0.000275591 -0.000964567 -0.000326772 -0.000948819 -0.000350394 -0.000917323 -0.000370079 -0.000933071 -0.000401575 -0.000952756 -0.000472441 -0.000913386 -0.000484252 -0.000885827 -0.000507874 -0.000925197 -0.000559055 -0.000889764 -0.000622047 -0.000877953 -0.000649606 0.00756693 -0.00976378 0.000492126 0.000358268 0.000503937 0.000330709 0.000484252 0.000322835 0.000547244 0.000311024 0.000527559 0.000287402 0.000511811 0.00023622 0.000547244 0.000251969 0.00057874 0.000228346 0.000562992 0.000208661 0.000570866 0.000177165 0.000602362 0.000181102 0.000633858 0.000161417 0.00061811 0.000161417 0.000649606 0.000145669 0.00065748 0.000102362 0.000665354 0.000110236 0.00069685 0.000114173 0.000728346 7.87402e-005 0.000708661 8.66142e-005 0.000740157 5.11811e-005 0.000775591 6.29921e-005 0.000751969 5.11811e-005 0.000807087 3.93701e-005 0.000787402 3.54331e-005 0.000822835 2.3622e-005 0.000826772 1.9685e-005 0.000854331 1.1811e-005 0.000862205 1.1811e-005 0.000866142 3.93701e-006 0.000874016 3.93701e-006 0.000901575 0 0.000905512 3.93701e-006 0 0zm0 0.0123228l0 -0.0123228 0.000318898 7.87402e-006 0.000314961 2.3622e-005 0.000307087 3.93701e-005 0.000307087 5.51181e-005 0.000299213 6.69291e-005 0.000291339 8.26772e-005 0.000287402 9.84252e-005 0.000283465 0.000110236 0.000271654 0.000122047 0.000267717 0.000137795 0.000259843 0.000149606 0.000251969 0.00015748 0.000240157 0.000173228 0.00023622 0.000181102 0.000224409 0.00019685 0.000212598 0.000204724 0.000208661 0.000212598 0.000192913 0.000224409 0.000185039 0.000232283 0.000169291 0.000240157 0.000161417 0.000251969 0.000149606 0.000255906 0.000137795 0.000267717 0.000122047 0.000271654 0.000114173 0.000279528 9.44882e-005 0.000287402 8.26772e-005 0.000291339 7.08661e-005 0.000299213 5.51181e-005 0.00030315 3.93701e-005 0.000307087 2.3622e-005 0.000311024 7.87402e-006 0.000318898 -7.87402e-006 0.000318898 -2.3622e-005 0.000311024 -3.93701e-005 0.000307087 -5.51181e-005 0.00030315 -7.08661e-005 0.000299213 -8.26772e-005 0.000291339 -9.44882e-005 0.000287402 -0.000114173 0.000279528 -0.000122047 0.000271654 -0.000137795 0.000267717 -0.000149606 0.000255906 -0.000161417 0.000251969 -0.000169291 0.000240157 -0.000185039 0.000232283 -0.000192913 0.000224409 -0.000208661 0.000212598 -0.000212598 0.000204724 -0.000224409 0.00019685 -0.00023622 0.000181102 -0.000240157 0.000173228 -0.000251969 0.00015748 -0.000259843 0.000149606 -0.000267717 0.000137795 -0.000271654 0.000122047 -0.000283465 0.000110236 -0.000287402 9.84252e-005 -0.000291339 8.26772e-005 -0.000299213 6.69291e-005 -0.000307087 5.51181e-005 -0.000307087 3.93701e-005 -0.000314961 2.3622e-005 -0.000318898 7.87402e-006zm0.117579 -0.0120433l0 0.0123228 0 0 -0.00367323 -7.87402e-006 -0.00367717 -7.87402e-006 -0.00367323 -1.1811e-005 -0.00367323 -7.87402e-006 -0.00367717 -7.87402e-006 -0.00367323 -7.87402e-006 -0.00367323 -1.1811e-005 -0.00367717 -7.87402e-006 -0.00367323 -7.87402e-006 -0.00367323 -7.87402e-006 -0.00367717 -1.1811e-005 -0.00367323 -7.87402e-006 -0.00367323 -7.87402e-006 -0.00367717 -7.87402e-006 -0.00367323 -1.1811e-005 -0.00367323 -7.87402e-006 -0.00367717 -7.87402e-006 -0.00367323 -7.87402e-006 -0.00367323 -1.1811e-005 -0.00367323 -7.87402e-006 -0.00367717 -7.87402e-006 -0.00367323 -7.87402e-006 -0.00367323 -7.87402e-006 -0.00367323 -1.1811e-005 -0.00367717 -7.87402e-006 -0.00367323 -7.87402e-006 -0.00367323 -7.87402e-006 -0.00367323 -7.87402e-006 -0.00367323 -1.1811e-005 -0.00367717 -7.87402e-006 -0.00367323 -7.87402e-006 -0.00367323 -7.87402e-006 0 -0.0123228 0.00367323 7.87402e-006 0.00367323 7.87402e-006 0.00367717 7.87402e-006 0.00367323 1.1811e-005 0.00367323 7.87402e-006 0.00367323 7.87402e-006 0.00367323 7.87402e-006 0.00367717 7.87402e-006 0.00367323 1.1811e-005 0.00367323 7.87402e-006 0.00367323 7.87402e-006 0.00367717 7.87402e-006 0.00367323 7.87402e-006 0.00367323 1.1811e-005 0.00367323 7.87402e-006 0.00367717 7.87402e-006 0.00367323 7.87402e-006 0.00367323 1.1811e-005 0.00367717 7.87402e-006 0.00367323 7.87402e-006 0.00367323 7.87402e-006 0.00367717 1.1811e-005 0.00367323 7.87402e-006 0.00367323 7.87402e-006 0.00367717 7.87402e-006 0.00367323 1.1811e-005 0.00367323 7.87402e-006 0.00367717 7.87402e-006 0.00367323 7.87402e-006 0.00367323 1.1811e-005 0.00367717 7.87402e-006 0.00367323 7.87402e-006 0 0zm0 0.0123228l0 -0.0123228 0.000318898 7.87402e-006 0.000314961 2.3622e-005 0.000307087 3.93701e-005 0.000307087 5.51181e-005 0.000299213 6.69291e-005 0.000291339 8.26772e-005 0.000287402 9.84252e-005 0.000283465 0.000110236 0.000271654 0.000122047 0.000267717 0.000137795 0.000259843 0.000149606 0.000251969 0.00015748 0.000240157 0.000173228 0.00023622 0.000181102 0.000224409 0.00019685 0.000216535 0.000200787 0.000204724 0.000216535 0.000192913 0.000224409 0.000185039 0.000232283 0.000169291 0.000240157 0.000161417 0.000251969 0.000149606 0.000255906 0.000137795 0.000267717 0.000122047 0.000271654 0.000114173 0.000279528 9.44882e-005 0.000287402 8.26772e-005 0.000291339 7.08661e-005 0.000299213 5.51181e-005 0.00030315 3.93701e-005 0.000307087 2.3622e-005 0.000311024 7.87402e-006 0.000318898 -7.87402e-006 0.000318898 -2.3622e-005 0.000311024 -3.93701e-005 0.000307087 -5.51181e-005 0.00030315 -7.08661e-005 0.000299213 -8.26772e-005 0.000291339 -9.44882e-005 0.000287402 -0.000114173 0.000279528 -0.000122047 0.000271654 -0.000137795 0.000267717 -0.000149606 0.000255906 -0.000161417 0.000251969 -0.000169291 0.000240157 -0.000185039 0.000232283 -0.000192913 0.000224409 -0.000204724 0.000216535 -0.000216535 0.000200787 -0.000224409 0.00019685 -0.00023622 0.000181102 -0.000240157 0.000173228 -0.000251969 0.00015748 -0.000259843 0.000149606 -0.000267717 0.000137795 -0.000271654 0.000122047 -0.000283465 0.000110236 -0.000287402 9.84252e-005 -0.000291339 8.26772e-005 -0.000299213 6.69291e-005 -0.000307087 5.51181e-005 -0.000307087 3.93701e-005 -0.000314961 2.3622e-005 -0.000318898 7.87402e-006zm0.0295197 -0.0314252l0.012378 -9.44882e-005 -2.75591e-005 0.00242913 -0.00015748 0.00237795 -0.000255906 0.00225591 -0.000393701 0.0021811 -0.000519685 0.00207087 -0.000653543 0.00198031 -0.000759843 0.00189764 -0.000893701 0.00179528 -0.001 0.00166929 -0.00112598 0.00157874 -0.00124409 0.00145669 -0.0013189 0.00134252 -0.00138189 0.00118898 -0.00149606 0.0011063 -0.0015315 0.000956693 -0.00156299 0.000858268 -0.00162205 0.000740157 -0.00164567 0.000673228 -0.00166929 0.000566929 -0.00168504 0.000480315 -0.00170866 0.000405512 -0.00171654 0.000350394 -0.00173622 0.00030315 -0.00173622 0.00023622 -0.00176772 0.000173228 -0.00174409 0.000161417 -0.00176378 0.000106299 -0.00175984 7.48031e-005 -0.00177559 5.51181e-005 -0.00176772 3.14961e-005 -0.00174803 1.1811e-005 -0.00172835 3.93701e-006 0 -0.0123228 0.0016811 -3.93701e-006 0.00165354 -1.1811e-005 0.00161811 -3.14961e-005 0.00157874 -5.51181e-005 0.00157087 -7.48031e-005 0.00151969 -0.000106299 0.0015 -0.000114173 0.00142913 -0.000173228 0.00139764 -0.000188976 0.00134252 -0.000208661 0.00128346 -0.000255906 0.00122047 -0.00030315 0.00115748 -0.000338583 0.00108661 -0.000370079 0.00101575 -0.00038189 0.000937008 -0.000456693 0.000885827 -0.000472441 0.000807087 -0.000515748 0.000716535 -0.000531496 0.000704724 -0.000606299 0.000633858 -0.00061811 0.000566929 -0.000685039 0.000543307 -0.000751969 0.000511811 -0.000850394 0.00046063 -0.00092126 0.00042126 -0.0010315 0.000362205 -0.00116142 0.000322835 -0.00129134 0.000251969 -0.00140945 0.000208661 -0.00157874 0.000102362 -0.00170079 2.75591e-005 -0.00190157zm0.012378 -9.44882e-005l-0.012378 9.44882e-005 3.93701e-006 -0.000318898 2.3622e-005 -0.000311024 3.54331e-005 -0.000307087 5.51181e-005 -0.000307087 6.69291e-005 -0.000295276 7.87402e-005 -0.000295276 9.84252e-005 -0.000287402 0.000106299 -0.000279528 0.000122047 -0.000275591 0.000133858 -0.00026378 0.000149606 -0.000259843 0.00015748 -0.000251969 0.000169291 -0.000244094 0.000185039 -0.000232283 0.000192913 -0.000224409 0.000200787 -0.000216535 0.000212598 -0.000208661 0.000224409 -0.000192913 0.000232283 -0.000185039 0.000240157 -0.000173228 0.000251969 -0.000161417 0.000255906 -0.000153543 0.000267717 -0.000137795 0.000271654 -0.000125984 0.000279528 -0.000110236 0.000287402 -9.84252e-005 0.000295276 -8.66142e-005 0.000299213 -7.08661e-005 0.00030315 -5.51181e-005 0.000307087 -4.33071e-005 0.000314961 -2.3622e-005 0.000318898 -1.1811e-005 0.000318898 3.93701e-006 0.000314961 2.3622e-005 0.000311024 3.54331e-005 0.00030315 5.51181e-005 0.000299213 6.69291e-005 0.000295276 7.87402e-005 0.000287402 9.44882e-005 0.000283465 0.000110236 0.000275591 0.00011811 0.000267717 0.000137795 0.000259843 0.000145669 0.000251969 0.00015748 0.000244094 0.000169291 0.00023622 0.000181102 0.000224409 0.000192913 0.000216535 0.000200787 0.000208661 0.000212598 0.00019685 0.000224409 0.000185039 0.000228346 0.000173228 0.000240157 0.000161417 0.000251969 0.000153543 0.000255906 0.000137795 0.00026378 0.000125984 0.000271654 0.000114173 0.000279528 9.84252e-005 0.000283465 8.66142e-005 0.000291339 7.08661e-005 0.000299213 5.51181e-005 0.00030315 4.33071e-005 0.000307087 2.3622e-005 0.000314961 1.1811e-005 0.000314961z"/>
   </g>
   <line class="fil0 str0" x1="0.370957" y1="0.306988" x2="0.356311" y2= "0.254972" />
   <line class="fil0 str0" x1="0.54778" y1="0.306988" x2="0.562421" y2= "0.254972" />
   <line class="fil0 str2" x1="0.528031" y1="0.3075" x2="0.539272" y2= "0.254972" />
   <line class="fil0 str2" x1="0.508287" y1="0.307669" x2="0.516461" y2= "0.254803" />
   <line class="fil0 str2" x1="0.389484" y1="0.307331" x2="0.378961" y2= "0.254287" />
   <line class="fil0 str2" x1="0.410071" y1="0.307331" x2="0.402634" y2= "0.255661" />
   <line class="fil0 str2" x1="0.42963" y1="0.306988" x2="0.42528" y2= "0.25463" />
   <line class="fil0 str2" x1="0.4485" y1="0.308362" x2="0.447925" y2= "0.254972" />
   <line class="fil0 str2" x1="0.469417" y1="0.308642" x2="0.470917" y2= "0.25463" />
   <line class="fil0 str2" x1="0.488287" y1="0.309327" x2="0.49322" y2= "0.25463" />
   <path class="fil0 str1" d="M0.217063 0.291169c0.0262913,0.0265315 0.0543071,0.0341063 0.0861142,0 0.0296496,-0.0361378 0.0369409,-0.0899291 0.031689,-0.153626 -0.000153543,-0.0501732 -0.0362402,-0.058626 -0.0730236,-0.0620039 -0.0441496,0.00406693 -0.0752795,0.0188858 -0.0771614,0.0578701 -0.000984252,0.0421496 0.000476378,0.0811378 0.00999213,0.113319 0.00498425,0.0168543 0.0121811,0.0318465 0.0223898,0.0444409z"/>
   <path class="fil0 str1" d="M0.183965 0.189524c-0.0243898,0.0103858 -0.0114173,0.0510591 0.0100197,0.0565354"/>
   <path class="fil0 str1" d="M0.33828 0.189524c0.0243898,0.0103858 0.0114134,0.0510591 -0.0100197,0.0565354"/>
   <line class="fil0 str0" x1="0.225811" y1="0.159102" x2="0.229012" y2= "0.0810079" />
   <line class="fil0 str0" x1="0.296496" y1="0.159445" x2="0.292835" y2= "0.0810079" />
   <path class="fil0 str0" d="M0.335272 0.175913c-0.0510394,-0.0264606 -0.100516,-0.0231496 -0.148807,-0.000200787"/>
   <path class="fil0 str0" d="M0.33424 0.206795c-0.054752,-0.043189 -0.102055,-0.0383307 -0.146744,0.000826772"/>
  </g>
  <circle class="fil0 str3" cx="0.302557" cy="0.302557" r="0.293529"/>
 </g>
</svg>
