<?xml version="1.0" encoding="UTF-8"?>
<!DOCTYPE svg PUBLIC "-//W3C//DTD SVG 1.1//EN" "http://www.w3.org/Graphics/SVG/1.1/DTD/svg11.dtd">
<!-- Creator: CorelDRAW -->
<svg xmlns="http://www.w3.org/2000/svg" xml:space="preserve" width="100%" height="100%" style="shape-rendering:geometricPrecision; text-rendering:geometricPrecision; image-rendering:optimizeQuality; fill-rule:evenodd; clip-rule:evenodd"
viewBox="0 0 0.540157 0.53702"
 xmlns:xlink="http://www.w3.org/1999/xlink">
 <defs>
  <style type="text/css">
   <![CDATA[
    .str0 {stroke:#DF5C5D;stroke-width:0.0194449}
    .fil0 {fill:none}
   ]]>
  </style>
 </defs>
 <g id="Layer_x0020_1">
  <metadata id="CorelCorpID_0Corel-Layer"/>
  <line class="fil0 str0" x1="0.135366" y1="0.0331378" x2="0.167996" y2= "0.0892205" />
  <line class="fil0 str0" x1="0.0364567" y1="0.133067" x2="0.0915197" y2= "0.164677" />
  <line class="fil0 str0" x1="-0" y1="0.265843" x2="0.0624528" y2= "0.265626" />
  <line class="fil0 str0" x1="0.0346693" y1="0.401461" x2="0.0905709" y2= "0.369496" />
  <line class="fil0 str0" x1="0.134449" y1="0.500988" x2="0.168429" y2= "0.446598" />
  <line class="fil0 str0" x1="0.271772" y1="0.53702" x2="0.271736" y2= "0.475071" />
  <line class="fil0 str0" x1="0.406866" y1="0.501469" x2="0.37585" y2= "0.444598" />
  <line class="fil0 str0" x1="0.505394" y1="0.401417" x2="0.451524" y2= "0.368417" />
  <line class="fil0 str0" x1="0.497764" y1="0.138047" x2="0.448465" y2= "0.161421" />
  <line class="fil0 str0" x1="0.401776" y1="0.0374882" x2="0.372283" y2= "0.0867638" />
  <path class="fil0 str0" d="M0.268945 0.00968504c0,0.085311 0,0.170626 0,0.255941 0.0870118,0 0.174024,0 0.261039,0 -0.00802362,-0.16711 -0.14526,-0.258799 -0.261039,-0.255941z"/>
 </g>
</svg>
