<?xml version="1.0" encoding="UTF-8"?>
<!DOCTYPE svg PUBLIC "-//W3C//DTD SVG 1.1//EN" "http://www.w3.org/Graphics/SVG/1.1/DTD/svg11.dtd">
<!-- Creator: CorelDRAW -->
<svg xmlns="http://www.w3.org/2000/svg" xml:space="preserve" width="100%" height="100%" shape-rendering="geometricPrecision" text-rendering="geometricPrecision" image-rendering="optimizeQuality" fill-rule="evenodd" clip-rule="evenodd"
viewBox="0 0 8.15034 8.15037"
 xmlns:xlink="http://www.w3.org/1999/xlink">
 <g id="Layer_x0020_1">
  <metadata id="CorelCorpID_0Corel-Layer"/>
  <g id="_121187776">
   <path id="_146611040" fill="#DF5C5D" d="M3.38881 7.89295l-2.74537 0c-0.212878,0 -0.386055,-0.173177 -0.386055,-0.386055 0,-0.212878 0.173177,-0.386091 0.386055,-0.386091l0.863913 0c0.0783819,0 0.152,-0.0305787 0.207295,-0.0860787 0.0563898,-0.0565906 0.0873071,-0.132181 0.0870315,-0.212402l0 -0.00177165c0,-0.212878 0.173177,-0.386091 0.386055,-0.386091l0.514768 0c0.0710945,0 0.128705,-0.0575748 0.128705,-0.128677 0,-0.0710945 -0.0576457,-0.128705 -0.128705,-0.128705l-0.514768 0c-0.354799,0 -0.643437,0.288642 -0.643437,0.643472l0 0.00224803c6.69291e-005,0.0158307 -0.00745669,0.0257402 -0.0119528,0.0302717 -0.00687795,0.00687795 -0.0152559,0.0103819 -0.0249567,0.0103819l-0.863949 0c-0.354795,0 -0.643437,0.288642 -0.643437,0.643441 0,0.354799 0.288642,0.643437 0.643437,0.643437l2.74537 0c0.0710945,0 0.128705,-0.0575748 0.128705,-0.128677 0,-0.0710945 -0.0576102,-0.128705 -0.128705,-0.128705z"/>
   <path id="_146610752" fill="#DF5C5D" d="M7.67847 1.88744l-0.586642 0c-0.0482835,-0.101366 -0.151728,-0.171606 -0.271276,-0.171606l-0.857953 0c-0.119547,0 -0.222992,0.0702441 -0.271276,0.171606l-0.586642 0c-0.0710945,0 -0.128709,0.0576142 -0.128709,0.128677 0,0.0710984 0.0576457,0.128677 0.128709,0.128677l0.557669 0 0 0.0351063c0,0.248528 0.182917,0.45378 0.425555,0.477409 0.0299252,0.00289764 0.0597244,0.00299606 0.0891772,0.000307087l0 0.551366c0,0.259937 0.199772,0.470705 0.454803,0.479764 0.129118,0.00432283 0.251764,-0.0422913 0.344752,-0.131976 0.0929567,-0.0897559 0.144201,-0.210362 0.144201,-0.339543l0 -0.0429055 0.417276 0 -0.226567 2.60556c-0.00616142,0.0707913 0.0462756,0.133205 0.117067,0.139335 0.00377953,0.000338583 0.00755512,0.000476378 0.0113031,0.000476378 0.0660236,0 0.12224,-0.0505315 0.128028,-0.117543l0.229839 -2.64315c0.202594,-0.0529488 0.352551,-0.237528 0.352551,-0.456539l0 -0.343154c0,-0.260177 -0.211689,-0.471866 -0.471862,-0.471866l-3.93701e-006 -3.93701e-006zm-0.815047 0.128709l0 1.20111c0,0.0587362 -0.0232913,0.113559 -0.0655827,0.154346 -0.0422205,0.0407953 -0.0978583,0.0617008 -0.156835,0.06 -0.113898,-0.00405118 -0.206547,-0.103921 -0.206547,-0.222587l0 -0.724409c0,-0.0460039 -0.0245472,-0.0884961 -0.0644213,-0.11148 -0.0198819,-0.0114764 -0.0420827,-0.0171969 -0.0642835,-0.0171969 -0.0222717,0 -0.0445394,0.0057874 -0.0644921,0.0173307 -0.0390551,0.0226457 -0.0834882,0.032315 -0.128433,0.0279213 -0.10828,-0.0105551 -0.19313,-0.107732 -0.19313,-0.221256l0 -0.16378c0,-0.0236654 0.0192717,-0.0429016 0.0429016,-0.0429016l0.857953 0c0.0236299,0 0.0428701,0.0192362 0.0428701,0.0429016l0 0 0 0 0 3.93701e-006zm1.02952 0.686307c0,0.117949 -0.0956457,0.213972 -0.213492,0.21448 -0.000814961,0 -0.00163386,0 -0.00244882,0l-0.556169 0 0 -0.772114 0.557669 0c0.118252,0 0.214476,0.0962244 0.214476,0.21448l0 0.343154 -3.14961e-005 0 -3.93701e-006 0z"/>
   <path id="_146334960" fill="#DF5C5D" d="M5.79102 3.17436c0.0710591,0 0.128673,-0.0576102 0.128673,-0.128709 0,-0.0710945 -0.0576102,-0.128673 -0.128673,-0.128673l-0.686343 0c-0.0710945,0 -0.128709,0.0575748 -0.128709,0.128673 0,0.0710984 0.0576457,0.128709 0.128709,0.128709l0.686343 0z"/>
   <path id="_146334816" fill="#DF5C5D" d="M7.94549 6.5789c-0.260752,-0.445272 -0.744295,-0.744976 -1.29654,-0.744976l-1.0295 0c-0.118291,0 -0.214512,-0.0962244 -0.214512,-0.214476l0 -0.17161c0,-0.0460709 -0.00674409,-0.0916969 -0.019815,-0.135484 0.116039,-0.0860433 0.191429,-0.224016 0.191429,-0.379244 0,-0.260177 -0.211689,-0.471862 -0.471862,-0.471862l-0.21448 0 0 -0.0429055c0,-0.119583 -0.0702126,-0.223028 -0.171575,-0.271307l0 -3.67517c0,-0.260177 -0.211693,-0.471862 -0.471862,-0.471862 -0.260209,0 -0.471866,0.211689 -0.471866,0.471862l0 1.41559 -1.58717 0c-0.260209,0 -0.471862,0.211693 -0.471862,0.471866l0 0.343154c0,0.218976 0.149957,0.403594 0.352516,0.456606l0.229839 2.64311c0.00616535,0.0708228 0.0685079,0.123496 0.139366,0.117031 0.0708228,-0.00612992 0.123224,-0.0685433 0.117067,-0.139335l-0.226567 -2.60553 1.44681 0 0 0.972705c-0.10137,0.0482835 -0.171579,0.151728 -0.171579,0.271311l0 0.0428701 -0.214512 0c-0.260177,0 -0.471862,0.211689 -0.471862,0.471862 0,0.155268 0.0753858,0.293236 0.191429,0.37928 -0.0130787,0.043752 -0.019815,0.0894134 -0.019815,0.13548l0 1.20111c0,0.827886 0.673504,1.50139 1.50135,1.50139l3.26013 0c0.165587,0 0.300287,-0.134736 0.300287,-0.300287l0 -0.514764c0,-0.270972 -0.0721535,-0.525358 -0.19824,-0.745047 -0.00197244,-0.00391339 -0.00418504,-0.00769291 -0.0066063,-0.011374l-3.93701e-006 3.93701e-006zm-3.91321 -6.10704c0,-0.118291 0.0961929,-0.21448 0.21448,-0.21448 0.118252,0 0.214476,0.0961929 0.214476,0.21448l0 3.64619 -0.428957 0 0 -3.64619 0 0zm-1.84308 2.44509c-0.000814961,3.54331e-005 -0.00166929,3.54331e-005 -0.00244882,0 -0.117811,-0.000511811 -0.213528,-0.0965315 -0.213528,-0.21448l3.14961e-005 -0.343154c0,-0.118291 0.0961929,-0.214516 0.21448,-0.214516l1.58717 0 0 0.77215 -1.5857 0 0 0 -7.87402e-006 0zm5.70376 4.9331c0,0.0236693 -0.0192402,0.0429055 -0.0429055,0.0429055l-1.88744 0c-0.685933,0 -1.24398,-0.558043 -1.24398,-1.24398l0 -0.857953c0,-0.071063 -0.0576457,-0.128677 -0.128709,-0.128677 -0.0710591,0 -0.128677,0.0575787 -0.128677,0.128677l0 0.857953c0,0.509689 0.255276,0.960846 0.644701,1.2324 -0.60561,-0.0832835 -1.07366,-0.604244 -1.07366,-1.2324l0 -0.857953c0,-0.071063 -0.0576102,-0.128677 -0.128677,-0.128677 -0.0710945,0 -0.128705,0.0575787 -0.128705,0.128677l0 0.857953c0,0.509689 0.255307,0.960846 0.644697,1.2324 -0.605606,-0.0832835 -1.07366,-0.604217 -1.07366,-1.23237l0 -1.20111c0,-0.0150197 0.00156693,-0.0298937 0.00463386,-0.0444724 0.0125945,0.00105906 0.0254016,0.00156693 0.0382717,0.00156693l1.02953 0c0.0710591,0 0.128673,-0.0576102 0.128673,-0.128705 0,-0.071063 -0.0576102,-0.128677 -0.128673,-0.128677l-1.02953 0c-0.118256,0 -0.21448,-0.0961929 -0.21448,-0.21448 0,-0.118291 0.0962244,-0.21448 0.21448,-0.21448l0.343189 0c0.0710591,0 0.128677,-0.0576102 0.128677,-0.128705l0 -0.171575c0,-0.0236654 0.0192362,-0.0429055 0.0429016,-0.0429055l0.686343 0c0.0236654,0 0.0429016,0.0192402 0.0429016,0.0429055l0 0.171575c0,0.0710945 0.0576457,0.128705 0.128709,0.128705l0.343154 0c0.118291,0 0.21448,0.0961929 0.21448,0.21448 0,0.118291 -0.0961929,0.21448 -0.21448,0.21448l-0.171575 0c-0.0710945,0 -0.128705,0.0576102 -0.128705,0.128709 0,0.0710591 0.0576457,0.128673 0.128705,0.128673l0.171575 0c0.0128701,0 0.0256417,-0.000507874 0.0382717,-0.00156693 0.00306693,0.0145748 0.00463386,0.0294528 0.00463386,0.0444724l0 0.171575c0,0.260177 0.211689,0.471862 0.471862,0.471862l1.02953 0c0.374449,0 0.710791,0.166335 0.939063,0.428961l-1.62547 0c-0.211008,0 -0.419394,-0.0537638 -0.60265,-0.155437 -0.0621417,-0.0344606 -0.140524,-0.0120906 -0.17498,0.0500512 -0.0344921,0.0621417 -0.0120551,0.140488 0.0500866,0.174949 0.221358,0.12285 0.472953,0.187783 0.727543,0.187783l1.79824 0c0.0661614,0.131402 0.109748,0.276146 0.125512,0.428961l-1.92371 0c-0.211008,0 -0.419394,-0.0537638 -0.602618,-0.155437 -0.0621732,-0.0345276 -0.140488,-0.0120551 -0.17498,0.0500866 -0.0344921,0.0621417 -0.0120512,0.140488 0.0500866,0.174949 0.221327,0.122815 0.472886,0.187717 0.727476,0.187717l1.93035 0 0 0.386122 0 0 0 3.93701e-006z"/>
  </g>
 </g>
</svg>
