<?xml version="1.0" encoding="UTF-8"?>
<!DOCTYPE svg PUBLIC "-//W3C//DTD SVG 1.1//EN" "http://www.w3.org/Graphics/SVG/1.1/DTD/svg11.dtd">
<!-- Creator: CorelDRAW -->
<svg xmlns="http://www.w3.org/2000/svg" xml:space="preserve" width="100%" height="100%" style="shape-rendering:geometricPrecision; text-rendering:geometricPrecision; image-rendering:optimizeQuality; fill-rule:evenodd; clip-rule:evenodd"
viewBox="0 0 0.615772 0.608488"
 xmlns:xlink="http://www.w3.org/1999/xlink">
 <defs>
  <style type="text/css">
   <![CDATA[
    .str1 {stroke:#1CABA4;stroke-width:0.0111102}
    .str2 {stroke:#1CABA4;stroke-width:0.0194449}
    .str0 {stroke:#1CABA4;stroke-width:0.0208346;stroke-linecap:round;stroke-linejoin:round}
    .fil0 {fill:none}
   ]]>
  </style>
 </defs>
 <g id="Layer_x0020_1">
  <metadata id="CorelCorpID_0Corel-Layer"/>
  <polyline class="fil0 str0" points="0.308035,0.110362 0.308035,0.293425 0.185224,0.416256 "/>
  <g id="_98354632">
   <circle id="_138296192" class="fil0 str1" cx="0.447102" cy="0.369474" r="0.0387771"/>
   <path id="_138296264" class="fil0 str1" d="M0.410819 0.422469c-0.0344843,0.00474803 -0.0441535,0.0369803 -0.0425433,0.0817047 0.0533425,0 0.106681,0 0.160024,0 0.0053189,-0.0485118 -0.00870472,-0.0763898 -0.042063,-0.0836378 -0.0305,0.0320709 -0.0539488,0.0227913 -0.0754173,0.00193307z"/>
   <line id="_139061072" class="fil0 str1" x1="0.493488" y1="0.477098" x2="0.367311" y2= "0.477098" />
   <path id="_139060760" class="fil0 str1" d="M0.408866 0.380866c-0.00549213,0.00298031 -0.0117913,0.0046811 -0.0184843,0.0046811 -0.0214134,0 -0.0387756,-0.0173622 -0.0387756,-0.0387835 0,-0.0214134 0.0173622,-0.0387756 0.0387756,-0.0387756 0.0168583,0 0.0312126,0.0107559 0.0365512,0.0257795"/>
   <path id="_139062440" class="fil0 str1" d="M0.418571 0.398358c-0.0245906,0.0180669 -0.0475433,0.0109724 -0.0659882,-0.00694882 -0.0344882,0.00474803 -0.0441575,0.0369764 -0.0425433,0.0817008 0.02,0 0.0400039,0 0.0600039,0"/>
   <line id="_139063040" class="fil0 str1" x1="0.376756" y1="0.446039" x2="0.309071" y2= "0.446039" />
   <path id="_137854256" class="fil0 str1" d="M0.488217 0.379898c0.00548819,0.00298031 0.0117874,0.0046811 0.0184803,0.0046811 0.0214173,0 0.0387795,-0.0173622 0.0387795,-0.0387795 0,-0.0214134 -0.0173622,-0.0387795 -0.0387795,-0.0387795 -0.0168543,0 -0.0312087,0.0107559 -0.0365512,0.0257835"/>
   <path id="_100733040" class="fil0 str1" d="M0.477748 0.39663c0.0245906,0.0180669 0.0467874,0.0117323 0.0652323,-0.00618898 0.0344882,0.00474803 0.0441535,0.0369803 0.0425433,0.0817047 -0.02,0 -0.0400039,0 -0.0600079,0"/>
   <line id="_139059608" class="fil0 str1" x1="0.518807" y1="0.445071" x2="0.586492" y2= "0.445071" />
   <line id="_139060256" class="fil0 str1" x1="0.436409" y1="0.406972" x2="0.426772" y2= "0.434799" />
   <line id="_139060040" class="fil0 str1" x1="0.460874" y1="0.406051" x2="0.469752" y2= "0.433122" />
  </g>
  <path class="fil0 str2" d="M0.308697 0.598764c-0.165091,0 -0.298972,-0.13189 -0.298972,-0.29452 0,-0.16263 0.133882,-0.29452 0.298972,-0.29452 0.154772,0 0.282118,0.115917 0.297429,0.264413"/>
 </g>
</svg>
