<?xml version="1.0" encoding="UTF-8"?>
<!DOCTYPE svg PUBLIC "-//W3C//DTD SVG 1.1//EN" "http://www.w3.org/Graphics/SVG/1.1/DTD/svg11.dtd">
<!-- Creator: CorelDRAW -->
<svg xmlns="http://www.w3.org/2000/svg" xml:space="preserve" width="100%" height="100%" style="shape-rendering:geometricPrecision; text-rendering:geometricPrecision; image-rendering:optimizeQuality; fill-rule:evenodd; clip-rule:evenodd"
viewBox="0 0 0.59476 0.598724"
 xmlns:xlink="http://www.w3.org/1999/xlink">
 <defs>
  <style type="text/css">
   <![CDATA[
    .str0 {stroke:#E97E55;stroke-width:0.0208346}
    .str1 {stroke:#E97E55;stroke-width:0.0208346;stroke-linecap:round;stroke-linejoin:round}
    .fil0 {fill:none}
   ]]>
  </style>
 </defs>
 <g id="Layer_x0020_1">
  <metadata id="CorelCorpID_0Corel-Layer"/>
  <g id="_104744832">
   <path id="_104676048" class="fil0 str0" d="M0.292461 0.0104173l0.103118 0c0.00970079,0 0.0176378,0.00757087 0.0176378,0.0168307l0 0.0218465c0,0.00926378 -0.00793701,0.0168307 -0.0176378,0.0168307l-0.103118 0c-0.00970079,0 -0.0176378,-0.00756693 -0.0176378,-0.0168307l0 -0.0218465c0,-0.00925984 0.00793701,-0.0168307 0.0176378,-0.0168307z"/>
   <path id="_104675976" class="fil0 str1" d="M0.165705 0.177909c0.0442283,-0.0463858 0.106642,-0.0753071 0.17578,-0.0753071 0.134106,0 0.242858,0.108752 0.242858,0.24285 0,0.134102 -0.108752,0.242854 -0.242858,0.242854 -0.134094,0 -0.242846,-0.108752 -0.242846,-0.242854 0,-0.0159488 0.00169685,-0.0322756 0.00437402,-0.0463622m0.0120748 -0.0411535c0.00597244,-0.0147244 0.013563,-0.0288346 0.022689,-0.0425197"/>
   <line id="_104675904" class="fil0 str1" x1="0.0104173" y1="0.177937" x2="0.259217" y2= "0.177937" />
   <line id="_104675832" class="fil0 str1" x1="0.0538622" y1="0.25989" x2="0.302661" y2= "0.25989" />
   <line id="_104675760" class="fil0 str1" x1="0.513965" y1="0.111524" x2="0.554606" y2= "0.148201" />
   <path id="_104675688" class="fil0 str1" d="M0.341488 0.175953c0.0935984,0 0.169504,0.0759055 0.169504,0.1695 0,0.0935984 -0.0780709,0.16735 -0.169504,0.169504 -0.0221457,0.000519685 -0.0434685,-0.00362205 -0.0630709,-0.0115394"/>
   <line id="_104675616" class="fil0 str1" x1="0.230315" y1="0.472008" x2="0.32298" y2= "0.368425" />
   <path id="_104675544" class="fil0 str0" d="M0.343126 0.316913c0.0159449,0 0.028878,0.0129331 0.028878,0.0288819 0,0.0159488 -0.0129331,0.0288819 -0.028878,0.0288819 -0.0159488,0 -0.0288858,-0.0129331 -0.0288858,-0.0288819 0,-0.0159488 0.012937,-0.0288819 0.0288858,-0.0288819z"/>
  </g>
 </g>
</svg>
