<?xml version="1.0" encoding="UTF-8"?>
<!DOCTYPE svg PUBLIC "-//W3C//DTD SVG 1.1//EN" "http://www.w3.org/Graphics/SVG/1.1/DTD/svg11.dtd">
<!-- Creator: CorelDRAW -->
<svg xmlns="http://www.w3.org/2000/svg" xml:space="preserve" width="100%" height="100%" shape-rendering="geometricPrecision" text-rendering="geometricPrecision" image-rendering="optimizeQuality" fill-rule="evenodd" clip-rule="evenodd"
viewBox="0 0 0.554417 0.554417"
 xmlns:xlink="http://www.w3.org/1999/xlink">
 <g id="Layer_x0020_1">
  <metadata id="CorelCorpID_0Corel-Layer"/>
  <rect fill="#D8D7D7" width="0.554417" height="0.554417"/>
  <polygon fill="#646466" points="0.125858,0.150866 0.222984,0.0895748 0.227638,0.11537 0.153913,0.166693 "/>
  <path fill="#646466" d="M0.247449 0.129252l-0.0158465 0.0117598c0.00861417,0.0078189 0.0140236,0.0191024 0.0140236,0.0316496 0,0.0236024 -0.0191378,0.0427441 -0.0427402,0.0427441 -0.0235354,0 -0.0426339,-0.0190354 -0.0427402,-0.0425512 0.0248858,-0.017063 0.049748,-0.0340157 0.0746378,-0.0509331l0.0126654 0.00733071z"/>
  <path fill="#646466" fill-rule="nonzero" d="M0.10828 0.258504c-0.00274803,-0.0124567 0.00511811,-0.0247874 0.0175748,-0.0275394 0.0124567,-0.00275197 0.0247874,0.00511811 0.0275394,0.0175748l0.0377402 0.170701 0.0925591 0.000535433c0.012752,5.11811e-005 0.0230551,0.010437 0.0230079,0.023189 -5.11811e-005,0.0127559 -0.010437,0.0230551 -0.023189,0.0230079l-0.110591 -0.000637795c-0.010752,0.000177165 -0.0205118,-0.0072126 -0.0229173,-0.018122l-0.0417244 -0.188709z"/>
  <path fill="#646466" fill-rule="nonzero" d="M0.407146 0.223693c0.00368504,-0.00374803 0.00972047,-0.00379528 0.0134685,-0.000110236 0.00374803,0.0036811 0.00379528,0.00971654 0.000110236,0.0134646l-0.0866496 0.087937c-0.00368504,0.00374803 -0.00972047,0.00379921 -0.0134685,0.000114173 -0.00374803,-0.00368504 -0.00379528,-0.00972047 -0.000110236,-0.0134685l0.0866496 -0.087937z"/>
  <path fill="#646466" d="M0.252669 0.317854c-0.0171811,0.0139803 -0.0343622,0.0279606 -0.0515433,0.0419409 -0.00885827,-0.0345748 -0.0177165,-0.0691535 -0.0265748,-0.103732 -0.0053622,-0.0248386 0.0230787,-0.0477283 0.0505866,-0.0275315 0.0142992,0.00853543 0.0285984,0.0170748 0.0429016,0.0256102 0.0168622,-0.00213386 0.0337244,-0.00426772 0.0505866,-0.00640157 0.0338543,-0.00555118 0.0405236,0.0431142 0.00544094,0.0464252 -0.0229449,0.00459449 -0.0462087,0.00788976 -0.0659528,0.00832283 -0.00373622,-0.00202756 -0.00747244,-0.00405512 -0.0112047,-0.00608268 0.00192126,0.00714961 0.00383858,0.0142992 0.00575984,0.0214488z"/>
  <path fill="#646466" d="M0.312846 0.402717c0.0267441,0.0250315 0.0534882,0.050063 0.0802323,0.0750984 0.0126614,0.0140394 0.0465197,-0.00924409 0.0340197,-0.0301693 -0.0303819,-0.0327362 -0.0607638,-0.0654685 -0.0911457,-0.0982047 -0.00481496,-0.00511811 -0.0115472,-0.00858268 -0.0215,-0.00817717 -0.0188268,-0.00106693 -0.0373386,-0.00102362 -0.0561654,-0.00209449 -0.015189,0.0119843 -0.0303819,0.0239646 -0.0455748,0.0359449 -0.00437402,0.00368504 -0.00738976,0.00874409 -0.000641732,0.0160472 0.00537402,0.00576772 0.0121299,0.00877165 0.0256772,0.00962992 0.0250315,0.000641732 0.050063,0.00128346 0.0750984,0.0019252z"/>
 </g>
</svg>
