<?xml version="1.0" encoding="UTF-8"?>
<!DOCTYPE svg PUBLIC "-//W3C//DTD SVG 1.1//EN" "http://www.w3.org/Graphics/SVG/1.1/DTD/svg11.dtd">
<!-- Creator: CorelDRAW -->
<svg xmlns="http://www.w3.org/2000/svg" xml:space="preserve" width="100%" height="100%" shape-rendering="geometricPrecision" text-rendering="geometricPrecision" image-rendering="optimizeQuality" fill-rule="evenodd" clip-rule="evenodd"
viewBox="0 0 1.51863 1.51863"
 xmlns:xlink="http://www.w3.org/1999/xlink">
 <g id="Layer_x0020_1">
  <metadata id="CorelCorpID_0Corel-Layer"/>
  <circle fill="#78C4E8" cx="0.759318" cy="0.759315" r="0.759316"/>
  <path fill="white" fill-rule="nonzero" d="M0.715717 0.363705c0,-0.0312244 0.025315,-0.0565394 0.0565394,-0.0565394 0.0312205,0 0.0565354,0.025315 0.0565354,0.0565394l0 0.397146 0.143689 -0.154122c0.0212244,-0.0228071 0.0569213,-0.0240945 0.0797283,-0.00287008 0.0228071,0.0212205 0.0240945,0.0569213 0.00287402,0.0797283l-0.233169 0.250102c-0.00697638,0.0127835 -0.018752,0.0225787 -0.0329094,0.0269685 -0.0194843,0.00748425 -0.0423898,0.0038189 -0.0586969,-0.0113543 -0.00212205,-0.00197638 -0.00405118,-0.00407087 -0.00579921,-0.00626772l-0.228634 -0.249906c-0.0209803,-0.0229291 -0.0193937,-0.0585315 0.00353543,-0.0795079 0.0229291,-0.0209803 0.0585276,-0.0193976 0.0795079,0.0035315l0.136799 0.149524 0 -0.402972z"/>
  <path fill="white" fill-rule="nonzero" d="M0.4325 0.883311l0 0.149941 0.686205 0 0 -0.169921c0,-0.0312205 0.025315,-0.0565354 0.0565394,-0.0565354 0.0312205,0 0.0565354,0.025315 0.0565354,0.0565354l0 0.226457c0,0.0312244 -0.025315,0.0565394 -0.0565354,0.0565394l-0.799283 0c-0.0312205,0 -0.0565354,-0.025315 -0.0565354,-0.0565394l0 -0.206476 0.113075 0z"/>
 </g>
</svg>
