<?xml version="1.0" encoding="UTF-8"?>
<!DOCTYPE svg PUBLIC "-//W3C//DTD SVG 1.1//EN" "http://www.w3.org/Graphics/SVG/1.1/DTD/svg11.dtd">
<!-- Creator: CorelDRAW -->
<svg xmlns="http://www.w3.org/2000/svg" xml:space="preserve" width="100%" height="100%" style="shape-rendering:geometricPrecision; text-rendering:geometricPrecision; image-rendering:optimizeQuality; fill-rule:evenodd; clip-rule:evenodd"
viewBox="0 0 0.547303 0.50922"
 xmlns:xlink="http://www.w3.org/1999/xlink">
 <defs>
  <style type="text/css">
   <![CDATA[
    .str1 {stroke:#0A0B0C;stroke-width:0.00694488}
    .str2 {stroke:#0A0B0C;stroke-width:0.00972047;stroke-linecap:round;stroke-linejoin:round}
    .str0 {stroke:#0A0B0C;stroke-width:0.0138898;stroke-linecap:round;stroke-linejoin:round}
    .fil1 {fill:none}
    .fil0 {fill:#0A0B0C}
    .fil2 {fill:white}
   ]]>
  </style>
 </defs>
 <g id="Layer_x0020_1">
  <metadata id="CorelCorpID_0Corel-Layer"/>
  <g id="_138072768">
   <polygon id="_101480736" class="fil0" points="0.513031,0.256346 0.547303,0.318331 0.478768,0.318331 "/>
   <polygon id="_101480664" class="fil0" points="0.0342638,0.256571 0.0685354,0.194587 -0,0.194587 "/>
   <path id="_101480592" class="fil1 str0" d="M0.513799 0.307531c-0.0242402,0.111343 -0.123402,0.194744 -0.241996,0.194744 -0.113256,0 -0.208783,-0.076063 -0.238268,-0.17987m-0.004 -0.119457c0.0237638,-0.111972 0.123224,-0.196004 0.242268,-0.196004 0.118594,0 0.217756,0.0834016 0.241996,0.194744"/>
   <g>
    <path id="_101480520" class="fil0" d="M0.354846 0.0928307l-0.248965 0.0584764c-0.0103307,0.0024252 -0.0167992,0.0128622 -0.0143701,0.0231969l0.00441339 0.0187835 0.286528 -0.0672992 -0.00441339 -0.0187835c-0.0024252,-0.0103346 -0.0128622,-0.0167992 -0.0231929,-0.014374z"/>
    <path id="_101480448" class="fil0" d="M0.151189 0.338362l0.248965 -0.0584764c0.0103307,-0.0024252 0.0168031,-0.0128661 0.0143701,-0.0231969l-0.026252 -0.111217 -0.286528 0.0672992 0.026252 0.111217c0.00243701,0.0103228 0.0128622,0.0167992 0.0231929,0.014374z"/>
    <path id="_101480376" class="fil2 str1" d="M0.187539 0.185575l0.238854 0c0.0158819,0 0.0288701,0.0130236 0.0288701,0.0289488l0 0.136618c0,0.0148071 -0.0120787,0.0269173 -0.0268425,0.0269173l-0.240882 0c-0.0147638,0 -0.0268425,-0.0121102 -0.0268425,-0.0269173l0 -0.13865c0,-0.0148071 0.0120787,-0.0269173 0.0268425,-0.0269173z"/>
    <path id="_101480304" class="fil0" d="M0.198984 0.214858l0.0221732 0 0 0.0128504 -0.0320197 0 0 -0.00303543c0,-0.00540157 0.00442913,-0.00981496 0.00984646,-0.00981496zm0.0342677 0l0.0222205 0c0.00541732,0 0.00984646,0.00441339 0.00984646,0.00981496l0 0.00303543 -0.0320669 0 0 -0.0128504zm0.0320669 0.0214173l0 0.0123465 -0.023752 0 0 -0.0123465 0.023752 0zm0 0.0209134l0 0.00454724c0,0.00540157 -0.00442913,0.00981496 -0.00984646,0.00981496l-0.0222205 0 0 -0.0143622 0.0320669 0zm-0.0441614 0.0143622l-0.0221732 0c-0.00541732,0 -0.00984646,-0.00441339 -0.00984646,-0.00981496l0 -0.00454724 0.0320197 0 0 0.0143622zm-0.0320197 -0.0229291l0 -0.0123465 0.0239567 0 0 0.0123465 -0.0239567 0z"/>
    <line id="_101480232" class="fil1 str2" x1="0.195709" y1="0.302543" x2="0.243079" y2= "0.302543" />
    <line id="_138073248" class="fil1 str2" x1="0.270291" y1="0.302543" x2="0.317661" y2= "0.302543" />
    <line id="_138073176" class="fil1 str2" x1="0.195457" y1="0.338575" x2="0.292969" y2= "0.338575" />
    <line id="_138073104" class="fil1 str2" x1="0.305835" y1="0.217909" x2="0.353205" y2= "0.217909" />
    <line id="_138073032" class="fil1 str2" x1="0.380417" y1="0.217909" x2="0.427787" y2= "0.217909" />
    <line id="_138072960" class="fil1 str2" x1="0.305583" y1="0.253941" x2="0.403094" y2= "0.253941" />
    <line id="_138072888" class="fil1 str2" x1="0.326996" y1="0.338575" x2="0.424508" y2= "0.338575" />
    <line id="_138072816" class="fil1 str2" x1="0.351866" y1="0.302543" x2="0.399236" y2= "0.302543" />
   </g>
  </g>
 </g>
</svg>
