<?xml version="1.0" encoding="UTF-8"?>
<!DOCTYPE svg PUBLIC "-//W3C//DTD SVG 1.1//EN" "http://www.w3.org/Graphics/SVG/1.1/DTD/svg11.dtd">
<!-- Creator: CorelDRAW -->
<svg xmlns="http://www.w3.org/2000/svg" xml:space="preserve" width="100%" height="100%" style="shape-rendering:geometricPrecision; text-rendering:geometricPrecision; image-rendering:optimizeQuality; fill-rule:evenodd; clip-rule:evenodd"
viewBox="0 0 8.49999 2.23242"
 xmlns:xlink="http://www.w3.org/1999/xlink">
 <defs>
  <style type="text/css">
   <![CDATA[
    .fil0 {fill:white}
    .fil1 {fill:white;fill-rule:nonzero}
   ]]>
  </style>
 </defs>
 <g id="Layer_x0020_1">
  <metadata id="CorelCorpID_0Corel-Layer"/>
  <path class="fil0" d="M0.848315 2.23242l0.26789 -0.147335 0 -0.647413 0.754555 0.00446457 0.21878 0.0892953 0.00446457 0.625083 -1.24569 0.0759016 3.93701e-006 3.93701e-006zm2.30833 -2.2235c0.040189,0.0282795 0.0803661,0.056563 0.120555,0.0848307 0.0863189,0 0.172638,0 0.258957,0 0,0.156276 0,0.312539 0,0.468819 -0.0967402,0 -0.193476,0 -0.290217,0 -0.247866,0.370618 -0.164512,1.06563 0.147346,1.4466 -0.00892913,0.0342362 -0.0178622,0.0684685 -0.0267913,0.102693 -0.294539,-0.387697 -0.504673,-0.734465 -0.602756,-1.02691 -0.0863189,-0.0312559 -0.172638,-0.0625039 -0.258957,-0.0937598 0.0803661,-0.0833425 0.160732,-0.166685 0.241094,-0.250028 0.126508,-0.0491181 0.253016,-0.0982283 0.379512,-0.147346 0.0104173,-0.194965 0.0208386,-0.389929 0.0312559,-0.584894l0 -3.93701e-006zm-2.25474 2.12974c0.0476181,-0.038689 0.0952402,-0.0773898 0.14287,-0.116087 0,-0.232165 0,-0.464343 0,-0.696508 0.279795,0.00892913 0.559591,0.0178622 0.839386,0.0267795 0.248551,-0.220256 0.497087,-0.440528 0.745626,-0.660795 0.135437,-0.0446417 0.270878,-0.0892953 0.406303,-0.133937 0.00892913,-0.186035 0.0178622,-0.372067 0.0267913,-0.558114 -0.654843,0.023815 -1.30968,0.0476299 -1.96452,0.0714449 -0.366126,0.424154 -0.73224,0.848315 -1.09835,1.27247 0.280539,0.0349803 0.842362,0.0587953 0.888508,0.258969 0.00446457,0.178591 0.00892913,0.357181 0.0133976,0.535776l-3.93701e-006 0z"/>
  <path class="fil1" d="M3.55692 1.48982l0 -0.719602 0.270087 0c0.0549567,0 0.0990197,0.00737008 0.132189,0.0217717 0.0333504,0.0145787 0.059315,0.0370354 0.0780748,0.0673583 0.0187717,0.0301575 0.028315,0.0618189 0.028315,0.095 0,0.0306535 -0.00837402,0.0596457 -0.025126,0.0867795 -0.0165866,0.0271457 -0.0418898,0.0490945 -0.0755709,0.0658465 0.0435669,0.0127362 0.0769055,0.0345197 0.100366,0.0651732 0.0234606,0.0308307 0.0351811,0.0671929 0.0351811,0.109071 0,0.0336811 -0.00719291,0.0650079 -0.0214409,0.0939961 -0.014248,0.0289882 -0.0318346,0.0512677 -0.0527835,0.0670157 -0.0209331,0.015748 -0.0472402,0.0274764 -0.078748,0.0355236 -0.0314961,0.00804331 -0.0701929,0.012063 -0.116098,0.012063l-0.274445 0 0 3.93701e-006zm0.0953307 -0.417181l0.15565 0c0.0420551,0 0.072378,-0.00284646 0.0908071,-0.00837402 0.0241339,-0.00720472 0.0423976,-0.0191024 0.054626,-0.0358661 0.0122283,-0.016752 0.0184291,-0.0376969 0.0184291,-0.0628228 0,-0.0237913 -0.00569291,-0.0449016 -0.0170945,-0.063 -0.0115551,-0.0182638 -0.0279724,-0.0306535 -0.0490827,-0.0373661 -0.0212756,-0.00669685 -0.0578031,-0.0100512 -0.109579,-0.0100512l-0.143756 0 0 0.21748zm0 0.332232l0.17911 0c0.0308189,0 0.052437,-0.00116929 0.0648425,-0.00334252 0.021937,-0.00402756 0.0402008,-0.0105591 0.0549449,-0.0197756 0.0147559,-0.00904724 0.026815,-0.0224449 0.0363622,-0.0398701 0.00937795,-0.0176024 0.014248,-0.0377087 0.014248,-0.0606614 0,-0.0268031 -0.00687402,-0.0500866 -0.0206142,-0.0700276 -0.0137402,-0.0197756 -0.0328425,-0.0336811 -0.0572953,-0.0417244 -0.0242992,-0.00786614 -0.0594803,-0.0118976 -0.10522,-0.0118976l-0.166378 0 0 0.247299z"/>
  <polygon id="_1" class="fil1" points="4.21821,1.48982 4.21821,0.770217 4.30652,0.770217 4.30652,1.48982 "/>
  <path id="_12" class="fil1" d="M4.80029 1.32194l0.0913031 0.0112244c-0.0144016,0.0534409 -0.0410394,0.0948346 -0.0799173,0.124323 -0.0390433,0.0293189 -0.0887992,0.044063 -0.149283,0.044063 -0.0762323,0 -0.136713,-0.0234606 -0.181283,-0.0703701 -0.0447244,-0.0469094 -0.0670157,-0.112756 -0.0670157,-0.197539 0,-0.0877835 0.022622,-0.155815 0.067689,-0.204228 0.0452323,-0.0484213 0.103709,-0.0727205 0.175756,-0.0727205 0.0696969,0 0.126661,0.0237913 0.170724,0.0712087 0.0442283,0.0474173 0.0663543,0.114268 0.0663543,0.200209 0,0.0053622 -0.000177165,0.0132441 -0.000507874,0.023626l-0.388701 0c0.00317717,0.0573071 0.0194331,0.101205 0.0485866,0.131528 0.0291535,0.0304882 0.0653386,0.0457402 0.108906,0.0457402 0.0323346,0 0.0599764,-0.00855118 0.0829291,-0.0256339 0.0229528,-0.0169291 0.0410512,-0.044063 0.0544606,-0.0814291zm-0.290028 -0.142917l0.291031 0c-0.00385039,-0.0437323 -0.0150866,-0.0767402 -0.0333504,-0.0985236 -0.0281378,-0.0340118 -0.0646654,-0.0510906 -0.109402,-0.0510906 -0.0405433,0 -0.0747283,0.013563 -0.102374,0.0407087 -0.0276417,0.0271457 -0.0428937,0.0634961 -0.0459055,0.108906z"/>
  <path id="_123" class="fil1" d="M5.34279 1.42548c-0.0328425,0.0278071 -0.0643465,0.0474173 -0.0945039,0.0589724 -0.0303228,0.0114016 -0.0628228,0.0170945 -0.0975079,0.0170945 -0.0573071,0 -0.101193,-0.0139055 -0.132024,-0.0418898 -0.0306654,-0.0279724 -0.0460709,-0.0638386 -0.0460709,-0.107228 0,-0.0256339 0.00569291,-0.0489173 0.0174252,-0.0700276 0.0115551,-0.0211102 0.0268031,-0.0380394 0.045563,-0.0507717 0.018937,-0.0127362 0.0400472,-0.0224449 0.0636732,-0.0289764 0.0172598,-0.00452362 0.0433898,-0.00904724 0.0784055,-0.0132441 0.071374,-0.00853937 0.123992,-0.0185945 0.157669,-0.0304882 0.000330709,-0.012063 0.000496063,-0.0197756 0.000496063,-0.0229528 0,-0.0360197 -0.00837402,-0.0614882 -0.025126,-0.0760669 -0.0224567,-0.0201063 -0.0561378,-0.0299921 -0.100531,-0.0299921 -0.0415472,0 -0.0722126,0.00720472 -0.0921535,0.0217835 -0.0197638,0.0145787 -0.0343425,0.040378 -0.0438976,0.0774016l-0.0862835 -0.0118976c0.00787795,-0.0368583 0.0207795,-0.0668504 0.0387126,-0.0894606 0.0179213,-0.0227874 0.044063,-0.040378 0.0780748,-0.0526142 0.0340118,-0.0122283 0.0733819,-0.0184291 0.118287,-0.0184291 0.0445591,0 0.0805906,0.0053622 0.108398,0.015748 0.0278071,0.0105591 0.0482559,0.023626 0.0614882,0.0395512 0.0130669,0.0159134 0.0221142,0.0358543 0.0274764,0.0601417 0.00284646,0.0150866 0.00435827,0.0422205 0.00435827,0.0814291l0 0.117791c0,0.0822559 0.00184252,0.134197 0.00569291,0.155815 0.00368504,0.0217717 0.0112244,0.0427165 0.0222795,0.0626575l-0.0923071 0c-0.00904724,-0.0182638 -0.0150866,-0.0397047 -0.0175906,-0.0643346l-3.93701e-006 -1.1811e-005zm-0.00737008 -0.197374c-0.0321811,0.0132441 -0.0802598,0.0242992 -0.144264,0.0335157 -0.0363622,0.00519685 -0.0621614,0.0110591 -0.0770709,0.0175906 -0.0150748,0.0065315 -0.0268031,0.0160906 -0.0348504,0.0288228 -0.00820866,0.0125591 -0.0124055,0.0264724 -0.0124055,0.041878 0,0.023626 0.00904724,0.0432362 0.026815,0.0589843 0.0177559,0.0155827 0.0438976,0.0234488 0.0782402,0.0234488 0.0340118,0 0.0643346,-0.00737008 0.0908071,-0.0222795 0.0264724,-0.0149094 0.0460709,-0.0353583 0.0584764,-0.0611575 0.00954331,-0.0199409 0.014248,-0.0494252 0.014248,-0.0882913l0 -0.0325079 3.93701e-006 -3.93701e-006z"/>
  <path id="_1234" class="fil1" d="M5.90188 1.29882l0.0867795 0.0113898c-0.00937795,0.059811 -0.0336693,0.10672 -0.072874,0.140567 -0.0390433,0.0338465 -0.087122,0.0507717 -0.144098,0.0507717 -0.0711969,0 -0.128669,-0.0232953 -0.171894,-0.0698622 -0.0433898,-0.0465787 -0.0651732,-0.113429 -0.0651732,-0.200551 0,-0.0563031 0.00937795,-0.105551 0.0279724,-0.147783 0.0187717,-0.0422205 0.0470866,-0.073878 0.0852795,-0.0949882 0.0380394,-0.0211102 0.0795866,-0.0316693 0.124323,-0.0316693 0.0566339,0 0.103035,0.0144134 0.138898,0.0430591 0.0360197,0.0286457 0.0591378,0.0692008 0.0693543,0.121972l-0.0859409 0.0132441c-0.00820866,-0.0350157 -0.022622,-0.0613228 -0.0434016,-0.0790906 -0.0207795,-0.0175906 -0.0459055,-0.0264606 -0.0753937,-0.0264606 -0.0445709,0 -0.0807559,0.0159134 -0.108575,0.0479134 -0.0278071,0.0318346 -0.0417126,0.0822677 -0.0417126,0.151291 0,0.0700276 0.0134094,0.120969 0.040378,0.152803 0.0268031,0.0316575 0.0618189,0.0475827 0.105055,0.0475827 0.0346732,0 0.0634961,-0.0107283 0.0867795,-0.0320039 0.0232953,-0.0212874 0.0380394,-0.0539528 0.0442402,-0.0981811l3.93701e-006 -3.93701e-006z"/>
  <path id="_12345" class="fil1" d="M6.06439 1.48982l0 -0.719602 0.0883031 0 0 0.258177c0.0412165,-0.047748 0.0933228,-0.0717047 0.156146,-0.0717047 0.0385354,0 0.0720472,0.0077126 0.100531,0.0229528 0.0284803,0.0150866 0.0489173,0.0361969 0.0611575,0.063 0.0122283,0.0268031 0.0184291,0.0658465 0.0184291,0.116772l0 0.330402 -0.0884685 0 0 -0.330402c0,-0.044063 -0.00954331,-0.0762323 -0.0286457,-0.0963386 -0.0191024,-0.0201063 -0.046248,-0.0303228 -0.0812638,-0.0303228 -0.0261299,0 -0.0507598,0.00687402 -0.073878,0.0204488 -0.0231299,0.013563 -0.0395512,0.0319882 -0.0492598,0.0552874 -0.00988583,0.0231181 -0.0147441,0.0552874 -0.0147441,0.0961732l0 0.285157 -0.0883031 0 -3.93701e-006 0z"/>
  <polygon id="_123456" class="fil1" points="6.58901,1.27385 6.58901,1.18505 6.86059,1.18505 6.86059,1.27385 "/>
  <polygon id="_1234567" class="fil1" points="6.96546,1.48982 6.96546,0.770217 7.06078,0.770217 7.06078,1.12708 7.41815,0.770217 7.54717,0.770217 7.24526,1.06174 7.56041,1.48982 7.43474,1.48982 7.17859,1.12558 7.06078,1.24051 7.06078,1.48982 "/>
  <path id="_12345678" class="fil1" d="M7.76565 1.48982l-0.191008 -0.719602 0.097685 0 0.109579 0.47163c0.0117205,0.0494252 0.0217717,0.0985236 0.0303228,0.147276 0.0184291,-0.0769055 0.0291417,-0.121134 0.0325,-0.133028l0.136878 -0.485878 0.114941 0 0.103035 0.364236c0.0257992,0.090311 0.0444055,0.175248 0.0559606,0.254669 0.00904724,-0.0453976 0.0211102,-0.0976732 0.0358661,-0.156488l0.112756 -0.462417 0.0958268 0 -0.197362 0.719602 -0.091811 0 -0.151634 -0.548205c-0.0127362,-0.0459055 -0.0202717,-0.0740551 -0.022622,-0.0844409 -0.00753543,0.0330079 -0.0145669,0.0611457 -0.0211102,0.0844409l-0.152626 0.548205 -0.0971772 0z"/>
 </g>
</svg>
