<?xml version="1.0" encoding="UTF-8"?>
<!DOCTYPE svg PUBLIC "-//W3C//DTD SVG 1.1//EN" "http://www.w3.org/Graphics/SVG/1.1/DTD/svg11.dtd">
<!-- Creator: CorelDRAW -->
<svg xmlns="http://www.w3.org/2000/svg" xml:space="preserve" width="100%" height="100%" shape-rendering="geometricPrecision" text-rendering="geometricPrecision" image-rendering="optimizeQuality" fill-rule="evenodd" clip-rule="evenodd"
viewBox="0 0 1.12537 1.33928"
 xmlns:xlink="http://www.w3.org/1999/xlink">
 <g id="Layer_x0020_1">
  <metadata id="CorelCorpID_0Corel-Layer"/>
  <path fill="#969594" fill-rule="nonzero" d="M0.483154 0.96685c-0.013811,0 -0.0250157,-0.00933071 -0.0250157,-0.0208346 0,-0.0115039 0.0112047,-0.0208346 0.0250157,-0.0208346l0.170268 0c0.013811,0 0.0250157,0.00933071 0.0250157,0.0208346 0,0.0115039 -0.0112047,0.0208346 -0.0250157,0.0208346l-0.170268 0z"/>
  <rect fill="none" stroke="#969594" stroke-width="0.0416654" x="0.0208346" y="0.184547" width="0.834272" height="0.978224" rx="0.0621614" ry="0.0621614"/>
  <path fill="#969594" d="M0.256484 0.0961654l0.079437 0c0.00455118,-0.0538543 0.0497126,-0.0961654 0.104744,-0.0961654 0.0550315,0 0.100193,0.042311 0.104744,0.0961654l0.079437 0c0.0098622,0 0.0179291,0.00806693 0.0179291,0.0179291l0 0.143433c0,0.0098622 -0.00806693,0.0179291 -0.0179291,0.0179291l-0.368362 0c-0.0098622,0 -0.0179291,-0.00806693 -0.0179291,-0.0179291l0 -0.143433c0,-0.0098622 0.00806693,-0.0179291 0.0179291,-0.0179291zm0.226539 0l3.93701e-006 -9.84252e-005 1.5748e-005 -0.00112598c0,-0.0240748 -0.0195236,-0.0435984 -0.0436024,-0.0435984 -0.0240748,0 -0.0435984,0.0195236 -0.0435984,0.0435984l1.5748e-005 0.00112598 3.93701e-006 9.84252e-005c0.000645669,0.0235118 0.0199134,0.042378 0.0435787,0.042378 0.0236693,0 0.042937,-0.0188661 0.0435827,-0.042378z"/>
  <circle fill="#F8C300" cx="0.863138" cy="1.07704" r="0.262232"/>
  <path fill="white" fill-rule="nonzero" d="M0.930705 0.956413c0.0106654,-0.0109646 0.0282087,-0.0112087 0.0391732,-0.000543307 0.0109646,0.0106654 0.0112087,0.0282087 0.000543307,0.0391732l-0.0721929 0.0744724 0.0737244 0.0747205c0.0107244,0.0109055 0.0105787,0.0284449 -0.000326772,0.0391693 -0.0109055,0.0107244 -0.0284449,0.0105787 -0.0391693,-0.000326772l-0.0727953 -0.0737795 -0.0706417 0.0728701c-0.0106654,0.0109646 -0.0282087,0.0112087 -0.0391732,0.000543307 -0.0109646,-0.0106654 -0.0112087,-0.0282087 -0.000543307,-0.0391732l0.0714331 -0.073689 -0.0704961 -0.0714488c-0.0107244,-0.0109055 -0.0105787,-0.0284449 0.000326772,-0.0391693 0.0109055,-0.0107244 0.0284449,-0.0105787 0.0391693,0.000326772l0.0695669 0.0705079 0.0714016 -0.0736535z"/>
  <path fill="#F8C300" fill-rule="nonzero" d="M0.29274 0.407004c0.00679134,-0.00698425 0.0179685,-0.0071378 0.0249528,-0.000346457 0.00698031,0.00679528 0.0071378,0.0179685 0.00034252,0.0249528l-0.0459843 0.047437 0.0469606 0.0475945c0.00683071,0.00694882 0.00674016,0.018122 -0.000208661,0.0249528 -0.00694488,0.00683071 -0.0181181,0.00673622 -0.0249488,-0.000208661l-0.0463701 -0.0469961 -0.0449961 0.0464173c-0.00679528,0.00698425 -0.0179685,0.0071378 -0.0249528,0.000346457 -0.00698425,-0.00679528 -0.0071378,-0.0179685 -0.000346457,-0.0249528l0.0455039 -0.0469409 -0.0449055 -0.0455118c-0.00683071,-0.00694488 -0.00674016,-0.0181181 0.000208661,-0.0249488 0.00694488,-0.00683071 0.0181181,-0.00673622 0.0249488,0.000208661l0.044311 0.0449134 0.0454843 -0.0469173z"/>
  <path fill="#F8C300" fill-rule="nonzero" d="M0.29274 0.640646c0.00679134,-0.00698425 0.0179685,-0.0071378 0.0249528,-0.000346457 0.00698031,0.00679528 0.0071378,0.0179685 0.00034252,0.0249528l-0.0459843 0.047437 0.0469606 0.0475945c0.00683071,0.00694882 0.00674016,0.018122 -0.000208661,0.0249528 -0.00694488,0.00683071 -0.0181181,0.00673622 -0.0249488,-0.000208661l-0.0463701 -0.0469961 -0.0449961 0.0464173c-0.00679528,0.00698425 -0.0179685,0.0071378 -0.0249528,0.000346457 -0.00698425,-0.00679528 -0.0071378,-0.0179685 -0.000346457,-0.0249528l0.0455039 -0.0469409 -0.0449055 -0.0455118c-0.00683071,-0.00694488 -0.00674016,-0.0181181 0.000208661,-0.0249488 0.00694488,-0.00683071 0.0181181,-0.00673622 0.0249488,0.000208661l0.044311 0.0449134 0.0454843 -0.0469173z"/>
  <path fill="#F8C300" fill-rule="nonzero" d="M0.29274 0.875587c0.00679134,-0.00698425 0.0179685,-0.0071378 0.0249528,-0.000346457 0.00698031,0.00679528 0.0071378,0.0179685 0.00034252,0.0249528l-0.0459843 0.047437 0.0469606 0.0475945c0.00683071,0.00694882 0.00674016,0.018122 -0.000208661,0.0249528 -0.00694488,0.00683071 -0.0181181,0.00673622 -0.0249488,-0.000208661l-0.0463701 -0.0469961 -0.0449961 0.0464173c-0.00679528,0.00698425 -0.0179685,0.0071378 -0.0249528,0.000346457 -0.00698425,-0.00679528 -0.0071378,-0.0179685 -0.000346457,-0.0249528l0.0455039 -0.0469409 -0.0449055 -0.0455118c-0.00683071,-0.00694488 -0.00674016,-0.0181181 0.000208661,-0.0249488 0.00694488,-0.00683071 0.0181181,-0.00673622 0.0249488,0.000208661l0.044311 0.0449134 0.0454843 -0.0469173z"/>
  <path fill="#969594" fill-rule="nonzero" d="M0.478972 0.499067c-0.0115039,0 -0.0208346,-0.00933071 -0.0208346,-0.0208346 0,-0.0115039 0.00933071,-0.0208346 0.0208346,-0.0208346l0.237937 0c0.0115039,0 0.0208346,0.00933071 0.0208346,0.0208346 0,0.0115039 -0.00933071,0.0208346 -0.0208346,0.0208346l-0.237937 0z"/>
  <path fill="#969594" fill-rule="nonzero" d="M0.478972 0.731327c-0.0115039,0 -0.0208346,-0.00933071 -0.0208346,-0.0208346 0,-0.0115039 0.00933071,-0.0208346 0.0208346,-0.0208346l0.237937 0c0.0115039,0 0.0208346,0.00933071 0.0208346,0.0208346 0,0.0115039 -0.00933071,0.0208346 -0.0208346,0.0208346l-0.237937 0z"/>
 </g>
</svg>
