<?xml version="1.0" encoding="UTF-8"?>
<!DOCTYPE svg PUBLIC "-//W3C//DTD SVG 1.1//EN" "http://www.w3.org/Graphics/SVG/1.1/DTD/svg11.dtd">
<!-- Creator: CorelDRAW -->
<svg xmlns="http://www.w3.org/2000/svg" xml:space="preserve" width="100%" height="100%" shape-rendering="geometricPrecision" text-rendering="geometricPrecision" image-rendering="optimizeQuality" fill-rule="evenodd" clip-rule="evenodd"
viewBox="0 0 0.552224 0.552224"
 xmlns:xlink="http://www.w3.org/1999/xlink">
 <g id="Layer_x0020_1">
  <metadata id="CorelCorpID_0Corel-Layer"/>
  <circle fill="#00A439" cx="0.27611" cy="0.27611" r="0.276112"/>
  <circle fill="none" stroke="white" stroke-width="0.0138898" cx="0.280672" cy="0.207417" r="0.041524"/>
  <path fill="none" stroke="white" stroke-width="0.0138898" d="M0.241819 0.264165c-0.0369291,0.00508661 -0.0472835,0.0395984 -0.0455551,0.0874921 0.0571181,0 0.114236,0 0.171354,0 0.00570079,-0.0519449 -0.0093189,-0.0817992 -0.0450394,-0.089563 -0.0326614,0.0343425 -0.0577717,0.0244055 -0.0807598,0.00207087z"/>
  <line fill="none" stroke="white" stroke-width="0.0138898" x1="0.330346" y1="0.322665" x2="0.195228" y2= "0.322665" />
  <path fill="none" stroke="white" stroke-width="0.0138898" d="M0.239728 0.219614c-0.00588189,0.00319291 -0.012626,0.00501181 -0.0197953,0.00501181 -0.0229291,0 -0.0415236,-0.0185906 -0.0415236,-0.0415276 0,-0.0229291 0.0185945,-0.0415236 0.0415236,-0.0415236 0.0180512,0 0.0334213,0.0115197 0.0391417,0.0276063"/>
  <path fill="none" stroke="white" stroke-width="0.0138898" d="M0.250118 0.238346c-0.0263307,0.0193465 -0.0509094,0.011752 -0.0706614,-0.00744094 -0.0369291,0.00508661 -0.0472835,0.0395984 -0.0455591,0.0874921 0.0214173,0 0.0428425,0 0.0642598,0"/>
  <line fill="none" stroke="white" stroke-width="0.0138898" x1="0.205343" y1="0.289406" x2="0.132862" y2= "0.289406" />
  <path fill="none" stroke="white" stroke-width="0.0138898" d="M0.324697 0.218579c0.00587795,0.00319291 0.012626,0.00501181 0.0197913,0.00501181 0.0229331,0 0.0415276,-0.0185906 0.0415276,-0.0415276 0,-0.0229291 -0.0185945,-0.0415236 -0.0415276,-0.0415236 -0.0180512,0 -0.0334213,0.0115197 -0.0391378,0.0276063"/>
  <path fill="none" stroke="white" stroke-width="0.0138898" d="M0.313488 0.236496c0.0263307,0.0193465 0.0501024,0.0125669 0.0698543,-0.00662598 0.0369291,0.00508661 0.0472835,0.0395984 0.0455591,0.0874921 -0.0214213,0 -0.0428425,0 -0.0642598,0"/>
  <line fill="none" stroke="white" stroke-width="0.0138898" x1="0.357457" y1="0.28837" x2="0.429937" y2= "0.28837" />
  <line fill="none" stroke="white" stroke-width="0.0138898" x1="0.26922" y1="0.247571" x2="0.258902" y2= "0.27737" />
  <line fill="none" stroke="white" stroke-width="0.0138898" x1="0.295417" y1="0.246587" x2="0.304925" y2= "0.275571" />
  <path fill="none" stroke="white" stroke-width="0.0180551" d="M0.462937 0.32337c-0.0241102,0.0774961 -0.0964213,0.133791 -0.181846,0.133791 -0.0887087,0 -0.163276,-0.0607047 -0.184409,-0.142827"/>
 </g>
</svg>
