<?xml version="1.0" encoding="UTF-8"?>
<!DOCTYPE svg PUBLIC "-//W3C//DTD SVG 1.1//EN" "http://www.w3.org/Graphics/SVG/1.1/DTD/svg11.dtd">
<!-- Creator: CorelDRAW -->
<svg xmlns="http://www.w3.org/2000/svg" xml:space="preserve" width="100%" height="100%" shape-rendering="geometricPrecision" text-rendering="geometricPrecision" image-rendering="optimizeQuality" fill-rule="evenodd" clip-rule="evenodd"
viewBox="0 0 0.552224 0.552224"
 xmlns:xlink="http://www.w3.org/1999/xlink">
 <g id="Layer_x0020_1">
  <metadata id="CorelCorpID_0Corel-Layer"/>
  <circle fill="#A9ACAF" cx="0.27611" cy="0.27611" r="0.276112"/>
  <path fill="none" stroke="white" stroke-width="0.0138898" stroke-linecap="round" stroke-linejoin="round" d="M0.208366 0.360913c0,-0.0695433 0,-0.139091 0,-0.208638 -0.000649606,-0.0151732 0.00919291,-0.0254291 0.021185,-0.030752 0.00649606,-0.00287795 0.0116142,-0.00289764 0.0185433,-0.00289764 0.0256378,0 0.0512835,0 0.0769213,0 0.0325276,0.0332756 0.0650551,0.0665512 0.0975827,0.0998268 0,0.0497244 0,0.0994528 0,0.149181 -0.00161417,0.0121929 -0.00844488,0.0209173 -0.0183307,0.0275945 -0.00948819,0.00640551 -0.0160669,0.00605118 -0.0269331,0.00605118 -0.0927795,0 -0.180264,0 -0.273043,0"/>
  <path fill="none" stroke="white" stroke-width="0.0138898" d="M0.315969 0.121524c0,0.0160551 0,0.0413543 0,0.0611654 0,0.0234685 0.00715354,0.044063 0.035685,0.044063 0.0228583,0 0.0537441,0 0.0734646,0"/>
  <line fill="none" stroke="white" stroke-width="0.0138898" stroke-linecap="round" stroke-linejoin="round" x1="0.255516" y1="0.267614" x2="0.378661" y2= "0.267614" />
  <line fill="none" stroke="white" stroke-width="0.0138898" stroke-linecap="round" stroke-linejoin="round" x1="0.255516" y1="0.308472" x2="0.378661" y2= "0.308472" />
  <line fill="none" stroke="white" stroke-width="0.0138898" stroke-linecap="round" stroke-linejoin="round" x1="0.255516" y1="0.350449" x2="0.378661" y2= "0.350449" />
  <polyline fill="none" stroke="white" stroke-width="0.0138898" stroke-linecap="round" stroke-linejoin="round" points="0.14665,0.363331 0.102969,0.39972 0.147201,0.437791 "/>
 </g>
</svg>
