<?xml version="1.0" encoding="UTF-8"?>
<!DOCTYPE svg PUBLIC "-//W3C//DTD SVG 1.1//EN" "http://www.w3.org/Graphics/SVG/1.1/DTD/svg11.dtd">
<!-- Creator: CorelDRAW -->
<svg xmlns="http://www.w3.org/2000/svg" xml:space="preserve" width="100%" height="100%" shape-rendering="geometricPrecision" text-rendering="geometricPrecision" image-rendering="optimizeQuality" fill-rule="evenodd" clip-rule="evenodd"
viewBox="0 0 0.554417 0.554417"
 xmlns:xlink="http://www.w3.org/1999/xlink">
 <g id="Layer_x0020_1">
  <metadata id="CorelCorpID_0Corel-Layer"/>
  <rect fill="#D8D7D7" width="0.554417" height="0.554417"/>
  <g id="_86969152">
   <path id="_86969288" fill="#414143" d="M0.339559 0.133398c0.0173898,0 0.0314882,0.0140984 0.0314882,0.0314843 0,0.0173858 -0.0140984,0.0314882 -0.0314882,0.0314882 -0.0173819,0 -0.0314843,-0.0141024 -0.0314843,-0.0314882 0,-0.0173858 0.0141024,-0.0314843 0.0314843,-0.0314843zm-0.0492559 0.0761102c-0.00213386,-0.00121654 -0.00220079,-0.00388976 0,-0.00576378 0.00398031,-0.00311417 0.00796457,-0.00622441 0.0119449,-0.00933858 0.00352756,-0.00331496 0.00672441,-0.00342913 0.0105709,0 0.0182283,0.0146417 0.037185,0.0133189 0.0531339,0 0.00245276,-0.00235433 0.00603543,-0.00262598 0.0108465,0 0.00791732,0.00411811 0.0138228,0.010252 0.0177126,0.0183976 0.00161417,0.0029252 0.00205906,0.00568504 0,0.00672835 -0.0163189,0.00714567 -0.0241654,0.0176063 -0.0282835,0.0308937 -0.000535433,0.00311417 -0.00243307,0.00444882 -0.00507874,0.00384252 -0.00831496,-0.00237795 -0.0172756,-0.0028189 -0.0265,-0.00247244 -0.00255512,0.000244094 -0.00427165,-0.00148819 -0.00494094,-0.00398031 -0.00671654,-0.0179724 -0.0192638,-0.0321457 -0.0394055,-0.0383071z"/>
   <path id="_118949232" fill="#414143" d="M0.199256 0.133398c0.0173858,0 0.0314843,0.0140984 0.0314843,0.0314843 0,0.0173858 -0.0140984,0.0314882 -0.0314843,0.0314882 -0.0173858,0 -0.0314882,-0.0141024 -0.0314882,-0.0314882 0,-0.0173858 0.0141024,-0.0314843 0.0314882,-0.0314843zm-0.0516063 0.0820315c-0.00194882,-0.00111417 -0.00118504,-0.00300394 0,-0.00527165 0.0023937,-0.00476772 0.0100787,-0.0117992 0.0155984,-0.0152795 0.00432283,-0.00234252 0.00724016,-0.00230709 0.00993307,0.000137795 0.0166535,0.013374 0.0392087,0.0116142 0.0537795,-0.000551181 0.00224016,-0.00214961 0.00551181,-0.00239764 0.00990945,0 0.00637402,0.00461811 0.00932677,0.00604331 0.0150748,0.0112913 0.00215748,0.00239764 0.00188189,0.00519291 0,0.00614567 -0.0178031,0.00570079 -0.0323228,0.0239882 -0.0338307,0.0367677 -0.000488189,0.00284646 -0.00222441,0.00406693 -0.00464173,0.00351181 -0.00824803,-0.00151969 -0.0142992,-0.000751969 -0.0222756,-0.000877953 -0.00233465,0.000220472 -0.00390551,-0.0013622 -0.00451575,-0.0036378 -0.00554331,-0.016811 -0.020126,-0.0269488 -0.0390315,-0.0322362z"/>
   <path id="_118949160" fill="#414143" d="M0.140425 0.225646c0.0215039,0 0.0389449,0.0174409 0.0389449,0.0389449 0,0.0215039 -0.0174409,0.0389409 -0.0389449,0.0389409 -0.0215039,0 -0.0389409,-0.017437 -0.0389409,-0.0389409 0,-0.0215039 0.017437,-0.0389449 0.0389409,-0.0389449zm-0.0338543 0.0755315c-0.0034252,-0.00248031 -0.00714567,-0.00278346 -0.0144016,0.00240551 -0.0128819,0.00844488 -0.019248,0.0175315 -0.0224094,0.0286063 -0.0018189,0.00637402 -0.00185039,0.0119803 -0.00185039,0.0185315 0,0.0114882 0,0.0229724 0,0.0344567 0.000984252,0.0108819 0.0129961,0.00160236 0.0184291,-0.000755906 0.0248937,-0.0108071 0.0508268,-0.0129134 0.0775,-0.00888976 0.00413386,0.00088189 0.00752756,0.000787402 0.00799606,-0.00496063 -0.000519685,-0.0244291 0.00740945,-0.0428307 0.0223268,-0.0562362 0.00322441,-0.00291339 0.00307874,-0.00616142 -8.66142e-005,-0.00877559 -0.00455512,-0.00375984 -0.0120709,-0.00829921 -0.0172638,-0.00475591 -0.0275118,0.0187638 -0.0443386,0.0191339 -0.0702402,0.000374016z"/>
   <path id="_118949088" fill="#414143" d="M0.412091 0.224539c-0.0220669,0 -0.0399646,0.0178976 -0.0399646,0.0399685 0,0.0220669 0.0178976,0.0399646 0.0399646,0.0399646 0.0220709,0 0.0399646,-0.0178976 0.0399646,-0.0399646 0,-0.0220709 -0.0178937,-0.0399685 -0.0399646,-0.0399685zm0.0347441 0.0775157c0.00351575,-0.00254724 0.00733465,-0.00285433 0.0147835,0.0024685 0.0132165,0.00866929 0.019748,0.0179921 0.0229961,0.0293583 0.00186614,0.00653937 0.00189764,0.0122953 0.00189764,0.0190197 0,0.0117874 0,0.0235748 0,0.0353622 -0.00101181,0.0111654 -0.0133346,0.00164173 -0.0189134,-0.000779528 -0.0255472,-0.0110906 -0.0521614,-0.013252 -0.0795354,-0.00912205 -0.00424016,0.000901575 -0.00772441,0.000807087 -0.00820472,-0.00509449 0.000531496,-0.0250709 -0.00760236,-0.0439528 -0.0229134,-0.0577087 -0.00330709,-0.00299213 -0.00316142,-0.00632677 9.05512e-005,-0.00900787 0.00467323,-0.00385827 0.0123858,-0.00851575 0.0177165,-0.00488189 0.0282323,0.0192559 0.0455,0.0196378 0.0720827,0.000385827z"/>
   <path id="_86969176" fill="#00A79D" d="M0.233307 0.31213c-0.00969291,-0.00697244 -0.014937,-0.0013937 -0.022122,0.00312205 -0.0149016,0.00935827 -0.0232677,0.020185 -0.0270748,0.0353228 -0.0047126,0.0187323 -0.00180315,0.041063 -0.00180315,0.0602402 -0.00101181,0.0130984 0.00808661,0.0122677 0.0184724,0.00496457 0.0377638,-0.0150236 0.0884291,-0.0294961 0.150232,0.00192913 0.00672835,0.00317323 0.0132677,0.00588189 0.0140591,-0.00579134 0,-0.0165394 0,-0.0330787 0,-0.0496181 -0.00244488,-0.0176693 -0.00908268,-0.0338425 -0.026374,-0.0462126 -0.00748425,-0.00535039 -0.0153898,-0.0121417 -0.0240709,-0.00505906 -0.0281693,0.0254528 -0.0619646,0.015126 -0.0813189,0.00110236zm0.0413465 -0.095874c0.0269961,0 0.0488898,0.0218937 0.0488898,0.0488819 0,0.0269961 -0.0218937,0.0488898 -0.0488898,0.0488898 -0.0269921,0 -0.0488858,-0.0218937 -0.0488858,-0.0488898 0,-0.0269882 0.0218937,-0.0488819 0.0488858,-0.0488819z"/>
  </g>
 </g>
</svg>
