<?xml version="1.0" encoding="UTF-8"?>
<!DOCTYPE svg PUBLIC "-//W3C//DTD SVG 1.1//EN" "http://www.w3.org/Graphics/SVG/1.1/DTD/svg11.dtd">
<!-- Creator: CorelDRAW -->
<svg xmlns="http://www.w3.org/2000/svg" xml:space="preserve" width="100%" height="100%" shape-rendering="geometricPrecision" text-rendering="geometricPrecision" image-rendering="optimizeQuality" fill-rule="evenodd" clip-rule="evenodd"
viewBox="0 0 0.552224 0.552224"
 xmlns:xlink="http://www.w3.org/1999/xlink">
 <g id="Layer_x0020_1">
  <metadata id="CorelCorpID_0Corel-Layer"/>
  <circle fill="#F8C300" cx="0.27611" cy="0.27611" r="0.276112"/>
  <g id="_255132896">
   <path id="_254787112" fill="none" stroke="white" stroke-width="0.0138898" d="M0.293677 0.113685c-0.0035315,-0.0105276 -0.0150354,-0.016252 -0.025563,-0.0127205l-0.182732 0.0612795c-0.0105276,0.0035315 -0.016252,0.0150354 -0.0127205,0.025563l0.0834567 0.248862c0.0035315,0.0105276 0.0150354,0.016252 0.025563,0.0127244"/>
   <path id="_255661872" fill="white" d="M0.174201 0.158469l0.198252 0c0.0098937,0 0.0179094,0.00805906 0.0179921,0.0178819l0.000893701 0.105929 -0.0365472 0.0443898 -0.00157087 0.00702362 0.000476378 0.00405512 -0.00426378 -0.00325591c-0.0492756,0 -0.0983386,-0.000216535 -0.147598,-0.000232283 -0.0117402,0 -0.0114921,0.0131614 0.00030315,0.0131457 0.0366614,-8.26772e-005 0.0733346,-0.000165354 0.110004,-0.000244094 -0.00320472,0.00367717 -0.00492126,0.00825197 -0.0051378,0.0137283 -0.034752,-1.5748e-005 -0.0695039,-2.75591e-005 -0.104252,-3.14961e-005 -0.0117795,-0.000897638 -0.0112323,0.0135 -0.00126378,0.0130472l0.100685 -2.3622e-005c-0.000775591,0.00424409 -0.00155118,0.00849213 -0.00232677,0.0127402 -0.033752,0.000125984 -0.0675039,0.000251969 -0.10126,0.000377953 -0.00884646,-0.000314961 -0.00875591,0.0127008 -7.87402e-006,0.0130157 0.0317717,-0.000161417 0.0635433,-0.000326772 0.095315,-0.000484252l-0.0145118 0.0512835 -0.105181 0c-0.0098937,0 -0.0179921,-0.00804724 -0.0179921,-0.0178819l0 -0.256583c0,-0.00983465 0.00809843,-0.0178819 0.0179921,-0.0178819z"/>
   <rect id="_255657984" fill="#F8C300" x="0.204487" y="0.258601" width="0.136785" height="0.0402309" rx="0.00817323" ry="0.00817323"/>
   <path id="_255661848" fill="white" d="M0.143083 0.233098c-0.0130512,0.00224016 -0.017748,0.00927165 -0.0140984,0.0210906 0.00477165,0.0145551 0.00955118,0.0291457 0.0143228,0.0412756 0.000153543,-0.0130118 0.00030315,-0.0260236 0.000452756,-0.0390354 -0.00349606,-0.00351969 -0.00456299,-0.0100984 -0.000291339,-0.0100945 -0.000129921,-0.00441339 -0.000255906,-0.00882677 -0.000385827,-0.0132362z"/>
   <path id="_255660336" fill="white" d="M0.348098 0.1465c-0.0150669,0 -0.0301378,0 -0.0452087,0 -0.00775984,-0.00283858 -0.0155197,-0.0056811 -0.0232795,-0.00852362 -0.00744488,-0.00263386 -0.010626,0.00188189 -0.0129803,0.00852362 -0.00447638,0 -0.00895276,0 -0.0134291,0 0.0041378,-0.0125984 0.00926378,-0.0272441 0.0295433,-0.0206417 0.0217874,0.00688189 0.0435709,0.0137638 0.0653543,0.0206417z"/>
   <path id="_255655872" fill="white" d="M0.398681 0.162878c0.00208661,0.00493701 0.00417323,0.0109921 0.00626378,0.0159291 0.0208898,0.00657874 0.0417795,0.0131614 0.0626693,0.0197402 0.00588583,-0.00161811 0.0100748,-0.000173228 0.0129843,0.00359055 -0.000149606,-0.00904724 -0.005,-0.0146575 -0.012311,-0.0177244 -0.0231299,-0.00702756 -0.0464803,-0.0145079 -0.0696063,-0.0215354z"/>
   <polyline id="_255655656" fill="none" stroke="white" stroke-width="0.0138898" stroke-linecap="round" stroke-linejoin="round" points="0.47448,0.213898 0.370776,0.339063 0.379941,0.348681 0.406535,0.37661 0.47448,0.316713 "/>
   <line id="_255656640" fill="none" stroke="white" stroke-width="0.0138898" stroke-linecap="round" stroke-linejoin="round" x1="0.451236" y1="0.290783" x2="0.409669" y2= "0.331465" />
   <path id="_255654648" fill="none" stroke="white" stroke-width="0.0138898" stroke-linecap="round" stroke-linejoin="round" d="M0.397602 0.371654c-0.00746063,0.0107205 -0.013126,0.0344567 -0.00984252,0.0487638 -0.0297992,0.0101339 -0.0587008,0.0189173 -0.0885039,0.0290512 0.00938583,-0.0301024 0.0196693,-0.0606496 0.0290551,-0.090752 0.0152008,0.00076378 0.0305512,-0.000720472 0.0433622,-0.00714173"/>
   <line id="_255657816" fill="none" stroke="white" stroke-width="0.0138898" stroke-linecap="round" stroke-linejoin="round" x1="0.35813" y1="0.392189" x2="0.303134" y2= "0.444984" />
   <circle id="_255662592" fill="white" cx="0.357701" cy="0.392569" r="0.0114029"/>
   <path id="_255661752" fill="white" d="M0.352791 0.450937c0.0184961,-0.00401969 0.0344646,-0.0100827 0.0355866,-0.0121142 -0.0105,0.0168819 -0.0150591,0.0137835 -0.0355866,0.0121142z"/>
  </g>
 </g>
</svg>
