<svg id="employee" xmlns="http://www.w3.org/2000/svg" width="78.583" height="73.603" viewBox="0 0 78.583 73.603">
  <g id="Group_82" data-name="Group 82" transform="translate(0 0)">
    <path id="Path_30" data-name="Path 30" d="M77.432,78.488a1.151,1.151,0,0,0-1.151,1.151V87.33a.194.194,0,0,1-.194.194H71.713V70.706a1.151,1.151,0,1,0-2.3,0V87.524H60.958l2.288-2.517a1.841,1.841,0,0,0,.446-1.477c0-.012,0-.023-.005-.034L61.115,68.3l.473-.712.123.087a1.8,1.8,0,0,0,2.656-.664h0l2.617-5.245,5.977,2.315a5.729,5.729,0,0,1,3.319,5.195v4.989a1.151,1.151,0,0,0,2.3,0V69.278a8.027,8.027,0,0,0-4.75-7.326l-.022-.009L63.632,58v-2.1a8.406,8.406,0,0,0,3.04-5.221,4.017,4.017,0,0,0,2.138-.941,3.964,3.964,0,0,0,.483-5.511V41.126A11.015,11.015,0,0,0,51.113,32.75a3.957,3.957,0,0,0-.891-2.4V27.248a11.024,11.024,0,1,0-22.048,0v3.187a3.755,3.755,0,0,0-.89,2.3,10.975,10.975,0,0,0-4.342-2.274,1.151,1.151,0,0,0-.586,2.227,8.724,8.724,0,0,1,6.494,8.434v1.722c-.05-.01-.209-.038-.215-.039a1.326,1.326,0,0,0-.275-.778c-.295-.423-.824-.951-2.526-2.78a1.82,1.82,0,0,0-2.332-.284,16.449,16.449,0,0,1-9.744,2.682,1.84,1.84,0,0,0-2.024,1.179l-.326.065V41.126a8.778,8.778,0,0,1,6.2-8.351,1.151,1.151,0,1,0-.664-2.2,11.112,11.112,0,0,0-5.621,3.921A10.925,10.925,0,0,0,9.1,41.126v3.187a3.751,3.751,0,0,0-.893,2.426,3.975,3.975,0,0,0,3.521,3.946,8.5,8.5,0,0,0,3.208,5.355V58L4.772,61.944l-.022.009A8.026,8.026,0,0,0,0,69.278V87.33a2.5,2.5,0,0,0,2.5,2.5h35.45a2.48,2.48,0,0,0,1.345-.4,2.479,2.479,0,0,0,1.345.4h35.45a2.5,2.5,0,0,0,2.5-2.5V79.639A1.151,1.151,0,0,0,77.432,78.488ZM11.619,48.307a1.662,1.662,0,0,1-1.106-1.568,1.7,1.7,0,0,1,1.106-1.5ZM64.827,60.933l-2.26,4.529-2.545-1.808,2.825-3.487ZM58.358,62.05l-2.977-3.675v-1.1a9.284,9.284,0,0,0,2.991.489h0a8.511,8.511,0,0,0,2.956-.537v1.159Zm1.352,4.206-.423.637H57.431l-.423-.637,1.351-.96ZM39.288,48.172,36.311,44.5v-1.1a9.283,9.283,0,0,0,2.991.489h0a8.509,8.509,0,0,0,2.956-.537V44.5Zm1.351,4.206-.423.637H38.361l-.423-.637,1.351-.96ZM30.223,36.7a4.118,4.118,0,0,0,.578.11,8.5,8.5,0,0,0,3.208,5.355v1.962l-2.348.91a3.945,3.945,0,0,0-.508-.8V41.126A11,11,0,0,0,30.223,36.7Zm15.182-1.219a6.208,6.208,0,0,1-12.414,0V30.086a18.851,18.851,0,0,0,10.5-2.853c1.038,1.113,1.656,1.76,1.916,2.06C45.405,32.158,45.405,33.265,45.405,35.478Zm2.2,1.329a4.141,4.141,0,0,0,.575-.111,10.957,10.957,0,0,0-.933,4.43v3.187a3.928,3.928,0,0,0-.455.673l-2.227-.862v-2.1A8.407,8.407,0,0,0,47.6,36.807ZM34.8,46.29l2.826,3.488-1.927,1.369,0,0-.612.435-2.26-4.528Zm7.143,2.269,1.84-2.271,1.98.767L43.5,51.584l-.613-.435,0,0-1.931-1.371Zm.58,5.153.123.087a1.8,1.8,0,0,0,2.656-.664h0l1.943-3.894a4.041,4.041,0,0,0,2.627,1.447,8.368,8.368,0,0,0,3.212,5.352V58L43.292,61.8l-1.248-7.372Zm11.347,6.456,2.826,3.488-2.542,1.806-2.26-4.528Zm10.61-10.812a6.208,6.208,0,0,1-12.414,0V43.964a18.86,18.86,0,0,0,10.5-2.853c1.038,1.113,1.656,1.76,1.916,2.06C64.475,46.036,64.475,47.143,64.475,49.356Zm3.409-2.617a1.662,1.662,0,0,1-1.106,1.567V45.175A1.659,1.659,0,0,1,67.884,46.74ZM49.547,41.126a8.722,8.722,0,1,1,17.443,0v1.722c-.052-.011-.2-.036-.215-.039a1.326,1.326,0,0,0-.275-.778c-.3-.435-.826-.953-2.526-2.78a1.821,1.821,0,0,0-2.332-.284,16.48,16.48,0,0,1-9.83,2.678,1.811,1.811,0,0,0-1.939,1.183l-.326.065V41.126Zm.213,4.116v3.064a1.658,1.658,0,0,1-1.106-1.566A1.7,1.7,0,0,1,49.759,45.242Zm-.945-12.38a1.656,1.656,0,0,1-.576,1.258,1.7,1.7,0,0,1-.53.31V31.3A1.66,1.66,0,0,1,48.814,32.862ZM39.2,18.526a8.732,8.732,0,0,1,8.722,8.722V28.97c-.052-.011-.2-.036-.215-.039a1.4,1.4,0,0,0-.326-.85c-.308-.417-.876-.991-2.475-2.709a1.82,1.82,0,0,0-2.332-.284,16.443,16.443,0,0,1-9.923,2.673A1.829,1.829,0,0,0,30.8,28.949l-.326.065V27.248h0A8.732,8.732,0,0,1,39.2,18.526ZM30.689,31.363v3.065a1.662,1.662,0,0,1-1.106-1.568A1.7,1.7,0,0,1,30.689,31.363ZM28.638,45.175a1.662,1.662,0,0,1,0,3.13Zm-.107,5.513A4.037,4.037,0,0,0,31.267,49.1l2.013,4.035h0a1.8,1.8,0,0,0,2.656.664l.123-.087.473.712-1.247,7.37L25.492,58v-2.1h0A8.414,8.414,0,0,0,28.531,50.688ZM20.218,62.05l-2.977-3.675v-1.1a9.279,9.279,0,0,0,2.992.489h0a8.506,8.506,0,0,0,2.956-.537v1.159Zm1.352,4.206-.423.637H19.291l-.423-.637,1.351-.96Zm3.138-6.09,1.98.767-2.26,4.528-.613-.435,0,0-1.931-1.371ZM13.921,49.356V43.964a18.867,18.867,0,0,0,10.5-2.853c1.028,1.1,1.655,1.759,1.916,2.06v6.186a6.208,6.208,0,0,1-12.414,0Zm1.8,10.812,2.826,3.488-1.927,1.369,0,0-.612.434-2.26-4.528ZM9.173,87.525V70.706a1.151,1.151,0,1,0-2.3,0V87.524H2.5a.194.194,0,0,1-.194-.194V69.278a5.73,5.73,0,0,1,3.317-5.194l5.974-2.316,2.617,5.245h0a1.8,1.8,0,0,0,2.656.664l.123-.087.473.712L14.891,83.5c0,.011,0,.023-.005.034a1.842,1.842,0,0,0,.446,1.477l2.287,2.516H9.173ZM17.2,83.642,19.646,69.2h1.145l2.445,14.446-3.017,3.319ZM38.14,87.33a.194.194,0,0,1-.194.194H33.573V70.706a1.151,1.151,0,0,0-2.3,0V87.524H22.818l2.288-2.517a1.841,1.841,0,0,0,.446-1.477c0-.012,0-.023-.005-.034L22.975,68.3l.473-.712.123.087a1.8,1.8,0,0,0,2.656-.664h0l2.617-5.244,5.977,2.315a5.717,5.717,0,0,1,3.319,5.194V87.33ZM39.291,65.1a8.2,8.2,0,0,0-1.877-2.086l1.3-7.691h1.145l1.3,7.695A8.2,8.2,0,0,0,39.291,65.1Zm8.021,22.43h0V70.706a1.151,1.151,0,1,0-2.3,0V87.524H40.637a.194.194,0,0,1-.194-.194V69.278a5.5,5.5,0,0,1,1.343-3.688,6.2,6.2,0,0,1,1.974-1.506l5.974-2.316,2.617,5.245h0a1.8,1.8,0,0,0,2.656.664l.123-.087.473.712L53.031,83.5c0,.011,0,.023-.005.034a1.842,1.842,0,0,0,.446,1.477l2.287,2.516H47.313Zm8.029-3.882L57.786,69.2h1.145l2.445,14.446-3.017,3.319Z" transform="translate(0 -16.224)" fill="#fff"/>
  </g>
</svg>
