<?xml version="1.0" encoding="utf-8"?>
<!-- Generator: Adobe Illustrator 25.2.1, SVG Export Plug-In . SVG Version: 6.00 Build 0)  -->
<svg version="1.1" id="Capa_1" xmlns="http://www.w3.org/2000/svg" xmlns:xlink="http://www.w3.org/1999/xlink" x="0px" y="0px"
	 viewBox="0 0 512 512" style="enable-background:new 0 0 512 512;" xml:space="preserve">
<style type="text/css">
	.st0{fill:none;stroke:#000000;stroke-width:6;stroke-linecap:round;stroke-miterlimit:10;}
	.st1{fill:none;stroke:#000000;stroke-width:6;stroke-linecap:round;stroke-miterlimit:10;stroke-dasharray:10.2024,10.2024;}
	.st2{fill:none;stroke:#000000;stroke-width:6;stroke-linecap:round;stroke-miterlimit:10;stroke-dasharray:10.5454,10.5454;}
	.st3{fill:none;stroke:#000000;stroke-width:6;stroke-linecap:round;stroke-miterlimit:10;stroke-dasharray:9.8106,9.8106;}
</style>
<g>
	<path class="st0" d="M325.2,169h-33.2c-19.1,0-29.1-22.7-16.3-36.8l7.9-8.7L309,95.8c8.7-9.6,23.8-9.6,32.5,0l25.2,27.7l7.9,8.7
		c12.9,14.1,2.9,36.8-16.3,36.8H325.2z"/>
	<polyline class="st0" points="142,173.8 163.8,152.1 295.4,283.5 	"/>
	<path class="st0" d="M342.8,341.9l-54.5-34.2c-3.2-2-4.2-6.2-2.2-9.4l13.7-21.9c6.8-10.8,21.1-14.1,31.9-7.3l40.3,25.2
		c3.2,2,4.1,6.1,2.1,9.3l-22.8,36.4C349.6,342.8,345.7,343.7,342.8,341.9z"/>
	<path class="st0" d="M380.4,175.9l35,21.1c7.7,4.6,13.5,11.9,16.3,20.4l37.1,111.5c11.4,34.3-22.3,66.3-56,53.1l-61.3-24
		c-5.2-2-7.2-8.2-4.4-12.9l25.8-42.4c3.5-5.7,10.7-7.8,16.7-4.8l25.3,12.8"/>
	<path class="st0" d="M270,175.9l-20.4,10.6c-23.8,12.4-40.1,35.7-43.6,62.3l-0.1,0.7"/>
	<line class="st0" x1="325.2" y1="200" x2="325.2" y2="264.8"/>
	<line class="st0" x1="343" y1="232.4" x2="384.3" y2="232.4"/>
	<line class="st0" x1="325.2" y1="358" x2="325.2" y2="489.4"/>
	<line class="st0" x1="414.7" y1="407.5" x2="414.7" y2="489.4"/>
	<path class="st0" d="M280.7,385.1l-25.5-40.2v-17.3c0-3.1-2.3-5.6-5.1-5.6h-9.4l-1.8-2.9h-42.5l-1.8,2.9h-9.3
		c-2.8,0-5.1,2.5-5.1,5.6v17.1l-25.6,40.4H152v101.8h131.4V385.1H280.7z"/>
	<path class="st0" d="M231.5,318.8h-27.1c-2.5,0-4.5-0.2-4.5-2.7v-17.3l-18.6-23.1c0-2.5,2-4.5,4.5-4.5h64.3c2.5,0,4.5,2,4.5,4.5
		L236,297.8v18.3C236,318.7,234,318.8,231.5,318.8z"/>
	<path class="st0" d="M372.3,127.6c1.9-4,2.9-8.4,2.9-13.1V63c0-17.2-14-31.2-31.2-31.2h-37.6c-17.2,0-31.2,14-31.2,31.2v51.4
		c0,4.7,1.1,9.1,2.9,13.1"/>
	<g>
		<g>
			<g>
				<line class="st0" x1="130.9" y1="175.1" x2="124.9" y2="174.7"/>
				<line class="st1" x1="114.7" y1="174" x2="79.1" y2="171.7"/>
				<line class="st0" x1="74" y1="171.3" x2="68" y2="170.9"/>
			</g>
		</g>
		<g>
			<g>
				<line class="st0" x1="135.9" y1="180.9" x2="131.4" y2="184.8"/>
				<line class="st2" x1="123.4" y1="191.7" x2="95.5" y2="215.9"/>
				<line class="st0" x1="91.5" y1="219.3" x2="87" y2="223.3"/>
			</g>
		</g>
		<g>
			<g>
				<line class="st0" x1="140.9" y1="186.6" x2="140.6" y2="192.6"/>
				<line class="st3" x1="140.1" y1="202.4" x2="138.3" y2="236.7"/>
				<line class="st0" x1="138" y1="241.6" x2="137.7" y2="247.6"/>
			</g>
		</g>
	</g>
	<line class="st0" x1="154.7" y1="385.1" x2="280.7" y2="385.1"/>
	<line class="st0" x1="278.6" y1="79.7" x2="375.2" y2="79.7"/>
</g>
</svg>
