<?xml version="1.0" encoding="utf-8"?>
<!-- Generator: Adobe Illustrator 25.2.1, SVG Export Plug-In . SVG Version: 6.00 Build 0)  -->
<svg version="1.1" id="Capa_1" xmlns="http://www.w3.org/2000/svg" xmlns:xlink="http://www.w3.org/1999/xlink" x="0px" y="0px"
	 viewBox="0 0 496.2 496.2" style="enable-background:new 0 0 496.2 496.2;" xml:space="preserve">
<g>
	<g>
		<g>
			<rect x="440.1" y="440" width="16" height="16"/>
			<rect x="280.1" y="448" width="16" height="16"/>
			<path d="M495.5,440.3c-1.1-6.7-3.6-13.1-7.4-18.8V280c-0.1-36.2-22.3-68.7-56-81.9V168c0-4.4-3.6-8-8-8h-44.7l24-24h22.3
				c21.6,0,42.3-8.6,57.5-23.8l0,0c8.2-8.2,12.9-19.4,12.9-31.1v0c0-18.2-7.2-35.7-20.1-48.5l-14.2-14.2c-1.5-1.5-3.5-2.3-5.7-2.3
				h-32V8c0-4.4-3.6-8-8-8h-112c-2.1,0-4.2,0.8-5.7,2.3l-64,64L76.2,224.5l-45.5,7.6v0.1c-1.6,0.2-3.2,1-4.4,2.1l-24,24
				c-3.1,3.1-3.1,8.2,0,11.3l72,72c3.1,3.1,8.2,3.1,11.3,0l24-24c1.1-1.2,1.9-2.7,2.1-4.4h0.1l7.6-45.5l158.2-158.2L339.4,48h76.7
				c4.4,0,8-3.6,8-8v-8h28.7l12.6,12.6c9.4,9.4,14.7,22.2,14.7,35.5v0c0,8-3.2,15.8-8.9,21.4l0,0c-11.8,11.8-27.8,18.4-44.5,18.4
				h-26.6c-2.1,0-4.2,0.8-5.7,2.3L356.7,160h-44.7c-4.4,0-8,3.6-8,8v30.1c-33.7,13.2-55.9,45.7-56,81.9v175.2
				c0,22.4,18.4,41.2,40.8,40.8c21.7-0.4,39.2-18.2,39.2-40h72.7c4.3,26.2,29,43.9,55.2,39.5C482.1,491.2,499.8,466.5,495.5,440.3z
				 M80.1,324.7L19.4,264l12.7-12.7L92.7,312L80.1,324.7z M106.4,258.3c-1.2,1.2-2,2.7-2.2,4.3l-5.4,32.7l-50-50l32.7-5.4
				c1.6-0.3,3.2-1.1,4.3-2.2L240.1,83.3l20.7,20.7L106.4,258.3z M272.1,92.7L251.4,72l52.7-52.7L324.7,40L272.1,92.7z M408.1,32
				h-68.7l-16-16h84.7V32z M320.1,176h96v17.5c-5.3-1-10.6-1.5-16-1.5h-64c-5.4,0-10.7,0.5-16,1.5V176z M336.1,208h64
				c36.7,0,67.4,27.6,71.6,64H264.5C268.6,235.6,299.4,208,336.1,208z M264.1,288h208v16h-208V288z M472.1,320v32h-48v-32H472.1z
				 M264.1,320h144v16h-144V320z M264.1,352h144v8c0,4.4,3.6,8,8,8h56v38.5c-4.9-2.9-10.4-4.8-16-5.8V392c0-4.4-3.6-8-8-8h-160
				c-4.4,0-8,3.6-8,8v24.8c-5.8,1.2-11.3,3.8-16,7.4V352z M288.1,480c-13.3,0-24-10.7-24-24s10.7-24,24-24s24,10.7,24,24
				S301.3,480,288.1,480z M400.8,440h-76.1c-5.2-11.9-15.9-20.6-28.6-23.2V400h144v0.7C420,404.2,404.2,419.9,400.8,440z M448.1,480
				c-17.7,0-32-14.3-32-32s14.3-32,32-32s32,14.3,32,32S465.7,480,448.1,480z"/>
			<path d="M48.1,344c0-13.3-10.7-24-24-24s-24,10.7-24,24s10.7,24,24,24S48.1,357.3,48.1,344z M16.1,344c0-4.4,3.6-8,8-8s8,3.6,8,8
				s-3.6,8-8,8S16.1,348.4,16.1,344z"/>
			<path d="M32.1,432c-17.7,0-32,14.3-32,32s14.3,32,32,32s32-14.3,32-32S49.7,432,32.1,432z M32.1,480c-8.8,0-16-7.2-16-16
				s7.2-16,16-16s16,7.2,16,16S40.9,480,32.1,480z"/>
			<path d="M72.1,368c-13.3,0-24,10.7-24,24s10.7,24,24,24s24-10.7,24-24S85.3,368,72.1,368z M72.1,400c-4.4,0-8-3.6-8-8s3.6-8,8-8
				s8,3.6,8,8S76.5,400,72.1,400z"/>
			<path d="M144.1,392c-13.3,0-24,10.7-24,24s10.7,24,24,24s24-10.7,24-24S157.3,392,144.1,392z M144.1,424c-4.4,0-8-3.6-8-8
				s3.6-8,8-8s8,3.6,8,8S148.5,424,144.1,424z"/>
			<path d="M152.1,304c-17.7,0-32,14.3-32,32s14.3,32,32,32s32-14.3,32-32S169.7,304,152.1,304z M152.1,352c-8.8,0-16-7.2-16-16
				s7.2-16,16-16s16,7.2,16,16S160.9,352,152.1,352z"/>
			<rect x="80.1" y="432" width="16" height="16"/>
			<rect x="112.1" y="456" width="16" height="16"/>
		</g>
	</g>
</g>
</svg>
