<?xml version="1.0" encoding="UTF-8"?>
<!DOCTYPE svg PUBLIC "-//W3C//DTD SVG 1.1//EN" "http://www.w3.org/Graphics/SVG/1.1/DTD/svg11.dtd">
<!-- Creator: CorelDRAW -->
<svg xmlns="http://www.w3.org/2000/svg" xml:space="preserve" width="100%" height="100%" style="shape-rendering:geometricPrecision; text-rendering:geometricPrecision; image-rendering:optimizeQuality; fill-rule:evenodd; clip-rule:evenodd"
viewBox="0 0 1.18646 1.11952"
 xmlns:xlink="http://www.w3.org/1999/xlink">
 <defs>
  <style type="text/css">
   <![CDATA[
    .fil0 {fill:white}
    .fil1 {fill:#DF5C5D}
   ]]>
  </style>
 </defs>
 <g id="Layer_x0020_1">
  <metadata id="CorelCorpID_0Corel-Layer"/>
  <g id="_146075296">
   <path id="_146074696" class="fil0" d="M0.39128 0.86176c0.134437,0.00649606 0.266854,0.00691339 0.396823,0 0.0429094,0 0.0780039,0.0350945 0.0780039,0.0780079 0,0.0149685 0,0.029937 0,0.0449173 -0.0655669,0.0821575 -0.166539,0.134839 -0.279799,0.134839 -0.109437,0 -0.207402,-0.0491575 -0.273031,-0.126591 0,-0.0177283 0,-0.0354488 0,-0.0531654 0,-0.0429134 0.0350945,-0.0780079 0.0780039,-0.0780079zm0.189933 -0.301854c0.0749173,0 0.135665,0.060748 0.135665,0.135665 0,0.0749173 -0.060748,0.135665 -0.135665,0.135665 -0.0749173,0 -0.135665,-0.060748 -0.135665,-0.135665 0,-0.0749173 0.060748,-0.135665 0.135665,-0.135665z"/>
   <path id="_146075128" class="fil1" d="M0.225823 0.472886c-0.00134646,-0.00413386 -0.00488189,-0.00717717 -0.00917717,-0.00788189l-0.0635512 -0.010437 -0.029563 -0.0572205c-0.00199213,-0.00385827 -0.00598031,-0.00629134 -0.0103346,-0.00629134 -0.00435039,0 -0.00833465,0.0024252 -0.0103346,0.00629134l-0.029563 0.0572205 -0.0635512 0.010437c-0.00429528,0.000704724 -0.00783465,0.00374803 -0.0091811,0.00788189 -0.00134252,0.0041378 -0.000267717,0.0086811 0.00279134,0.0117756l0.0452835 0.0457953 -0.00972047 0.0636654c-0.000653543,0.00429921 0.00114173,0.00861024 0.00466535,0.0111693 0.00351969,0.00255512 0.00817717,0.00294094 0.0120591,0.000980315l0.0575472 -0.0289134 0.0575472 0.0289134c0.00165354,0.000830709 0.00344094,0.00124409 0.00522047,0.00124409 0.00241339,0 0.00481496,-0.000751969 0.00683858,-0.00222441 0.00352362,-0.00255906 0.0053189,-0.00687008 0.00466142,-0.0111693l-0.00971654 -0.0636654 0.0452795 -0.0457953c0.00307087,-0.00309449 0.00414567,-0.0076378 0.00279921,-0.0117756z"/>
   <path id="_146075488" class="fil1" d="M0.411835 0.234957c-0.00158268,-0.00485827 -0.00573228,-0.00842913 -0.0107756,-0.00925591l-0.0746142 -0.012252 -0.0347087 -0.0671811c-0.00233858,-0.0045315 -0.00702362,-0.00738583 -0.0121339,-0.00738583 -0.0051063,0 -0.0097874,0.00284646 -0.0121299,0.00738583l-0.0347126 0.0671811 -0.0746102 0.012252c-0.00504331,0.000826772 -0.00920079,0.00439764 -0.0107835,0.00925591 -0.0015748,0.00485827 -0.000311024,0.0101929 0.00327953,0.0138228l0.0531654 0.0537677 -0.0114094 0.0747441c-0.000771654,0.00505118 0.00133858,0.0101142 0.00547244,0.0131142 0.00413386,0.00300394 0.00960236,0.00345276 0.0141614,0.00115354l0.067563 -0.0339488 0.067563 0.0339488c0.00194094,0.000972441 0.00403937,0.00145669 0.00612992,0.00145669 0.00283465,0 0.00564961,-0.00088189 0.00802756,-0.00261024 0.0041378,-0.003 0.00624409,-0.00806299 0.00547638,-0.0131142l-0.0114134 -0.0747441 0.0531654 -0.0537677c0.0036063,-0.00362992 0.0048622,-0.00896457 0.0032874,-0.0138228z"/>
   <path id="_146075344" class="fil1" d="M0.753295 0.124201c-0.00204724,-0.00627953 -0.00740945,-0.0108937 -0.0139291,-0.0119646l-0.0964567 -0.0158386 -0.0448661 -0.0868465c-0.00302756,-0.00585827 -0.00908268,-0.00955118 -0.015685,-0.00955118 -0.0066063,0 -0.0126535,0.00368504 -0.015685,0.00955118l-0.0448701 0.0868465 -0.0964567 0.0158386c-0.00651969,0.00107087 -0.0118898,0.00568504 -0.013937,0.0119646 -0.00203937,0.00627953 -0.000401575,0.0131772 0.00424016,0.0178701l0.0687283 0.0695079 -0.014752 0.096626c-0.000992126,0.00652756 0.00173228,0.0130709 0.0070748,0.0169528 0.00534646,0.00387795 0.0124134,0.00446063 0.0183071,0.00148819l0.0873386 -0.0438858 0.0873425 0.0438858c0.00251181,0.00125984 0.00522441,0.00188583 0.0079252,0.00188583 0.00366535,0 0.00730709,-0.00114173 0.0103819,-0.00337402 0.00534252,-0.00388189 0.00806693,-0.0104252 0.0070748,-0.0169528l-0.014752 -0.096626 0.0687283 -0.0695079c0.00465748,-0.00469291 0.0062874,-0.0115906 0.00424803,-0.0178701z"/>
   <path id="_146075608" class="fil1" d="M1.03485 0.231551c-0.00158268,-0.00485433 -0.00573228,-0.00842913 -0.0107717,-0.00925591l-0.0746142 -0.012252 -0.0347087 -0.0671811c-0.00234252,-0.0045315 -0.00702756,-0.00738583 -0.0121339,-0.00738583 -0.00511024,0 -0.0097874,0.00285039 -0.0121339,0.00738583l-0.0347087 0.0671811 -0.0746142 0.012252c-0.00504331,0.000826772 -0.00919685,0.00440157 -0.0107795,0.00925591 -0.00157874,0.00485827 -0.000314961,0.0101929 0.00327953,0.0138228l0.0531614 0.0537677 -0.0114094 0.0747441c-0.000767717,0.00505118 0.00133858,0.0101142 0.00547244,0.0131142 0.0041378,0.00300394 0.00960236,0.00345276 0.0141614,0.00115354l0.067563 -0.0339449 0.067563 0.0339449c0.00194094,0.000976378 0.00404331,0.00146063 0.00612992,0.00146063 0.00283465,0 0.00565354,-0.00088189 0.0080315,-0.00261417 0.00413386,-0.003 0.00624016,-0.00806299 0.00547244,-0.0131142l-0.0114094 -0.0747441 0.0531614 -0.0537677c0.0036063,-0.00362992 0.00486614,-0.00896457 0.0032874,-0.0138228z"/>
   <path id="_146072608" class="fil1" d="M1.18589 0.474591c-0.00134646,-0.0041378 -0.00488189,-0.0071811 -0.00917717,-0.00788583l-0.0635512 -0.010437 -0.029563 -0.0572165c-0.00199213,-0.0038622 -0.00598425,-0.00629528 -0.0103346,-0.00629528 -0.00435039,0 -0.00833465,0.00242913 -0.0103346,0.00629528l-0.029563 0.0572165 -0.0635512 0.010437c-0.00429528,0.000704724 -0.00783465,0.00374803 -0.00918504,0.00788583 -0.00134252,0.0041378 -0.00026378,0.0086811 0.00279528,0.0117717l0.0452835 0.0457953 -0.00972047 0.0636654c-0.000653543,0.00429921 0.00114173,0.00861417 0.00466142,0.0111693 0.00352362,0.00255906 0.0081811,0.00294094 0.012063,0.000984252l0.0575472 -0.0289173 0.0575433 0.0289173c0.00165354,0.000826772 0.00344488,0.00124016 0.00522047,0.00124016 0.00241732,0 0.00481496,-0.000751969 0.00684252,-0.00222441 0.00352362,-0.00255512 0.00531496,-0.00687008 0.00466142,-0.0111693l-0.00972047 -0.0636654 0.0452835 -0.0457953c0.00307087,-0.00309055 0.00414173,-0.00763386 0.00279921,-0.0117717z"/>
   <g>
    <ellipse id="_146074576" class="fil1" cx="0.5863" cy="0.761708" rx="0.364631" ry="0.357816"/>
    <path id="_146074720" class="fil0" d="M0.859709 0.998406c-0.0248307,0.0275984 -0.053937,0.0514094 -0.0862953,0.0704409l0 -0.0992598c0,-0.00327559 -0.00322047,-0.00594882 -0.00716929,-0.00594882l0 0c-0.00394882,0 -0.00717323,0.00267323 -0.00717323,0.00594882l0 0.10728c-0.0514213,0.0272126 -0.110256,0.0426575 -0.172772,0.0426575 -0.0598937,0 -0.116413,-0.0141772 -0.166272,-0.0392953l0 -0.110642c0,-0.00327559 -0.00322441,-0.00594882 -0.00716929,-0.00594882l0 0c-0.00394882,0 -0.00717323,0.00267323 -0.00717323,0.00594882l0 0.100906 0 0.00209843c-0.032189,-0.0180512 -0.0612992,-0.0407835 -0.0863819,-0.0672402 -0.00762598,-0.17348 0.0941181,-0.152913 0.164929,-0.18724 0.0266142,0.0370945 0.0532283,0.074189 0.0798504,0.11128 -0.00877953,-0.0181181 -0.00368898,-0.0342598 0.00339764,-0.0501181 0.0108858,-0.0183268 0.0099252,-0.0292205 0.00169685,-0.037378 -0.00254724,-0.00424803 -0.00509449,-0.00849606 -0.00764567,-0.0127441 0.0184055,0 0.036811,0 0.0552165,0 -0.016937,0.0130354 -0.0209055,0.0283268 -0.0118898,0.045874 0.00509449,0.00962992 0.0101929,0.0192559 0.0152874,0.0288819 -0.000566929,0.00339764 -0.00113386,0.00679528 -0.00169685,0.0101929 0.0243504,-0.0319921 0.0487008,-0.0639921 0.0730551,-0.0959882 0.058063,0.0236417 0.106154,0.0288425 0.141862,0.0688071 0.023185,0.0321772 0.0282559,0.070626 0.0263425,0.111488zm-0.268268 -0.466012c0.0728504,0 0.131925,0.0590748 0.131925,0.131925 0,0.0728465 -0.0590748,0.131921 -0.131925,0.131921 -0.0728425,0 -0.131921,-0.0590748 -0.131921,-0.131921 0,-0.0728504 0.0590787,-0.131925 0.131921,-0.131925z"/>
   </g>
  </g>
 </g>
</svg>
