<?xml version="1.0" encoding="UTF-8"?>
<!DOCTYPE svg PUBLIC "-//W3C//DTD SVG 1.1//EN" "http://www.w3.org/Graphics/SVG/1.1/DTD/svg11.dtd">
<!-- Creator: CorelDRAW -->
<svg xmlns="http://www.w3.org/2000/svg" xml:space="preserve" width="100%" height="100%" shape-rendering="geometricPrecision" text-rendering="geometricPrecision" image-rendering="optimizeQuality" fill-rule="evenodd" clip-rule="evenodd"
viewBox="0 0 0.614606 0.605701"
 xmlns:xlink="http://www.w3.org/1999/xlink">
 <g id="Layer_x0020_1">
  <metadata id="CorelCorpID_0Corel-Layer"/>
  <path fill="#E97E55" fill-rule="nonzero" d="M0.307303 0c0.0847953,0 0.161606,0.0338937 0.21722,0.0886772 0.0556496,0.0548228 0.0900827,0.130555 0.0900827,0.214173 0,0.0836181 -0.0344331,0.15935 -0.0900827,0.214173 -0.0556142,0.0547835 -0.132425,0.0886772 -0.21722,0.0886772 -0.0847953,0 -0.161606,-0.0338937 -0.21722,-0.0886772 -0.0556496,-0.0548228 -0.0900827,-0.130555 -0.0900827,-0.214173 0,-0.0836181 0.0344331,-0.15935 0.0900827,-0.214173 0.0556142,-0.0547835 0.132425,-0.0886772 0.21722,-0.0886772zm0.205567 0.100528c-0.0525945,-0.051811 -0.125283,-0.0838661 -0.205567,-0.0838661 -0.0802835,0 -0.152972,0.0320551 -0.205567,0.0838661 -0.0525551,0.0517756 -0.0850748,0.123315 -0.0850748,0.202323 0,0.0790039 0.0325197,0.150547 0.0850748,0.202323 0.0525945,0.051811 0.125283,0.0838661 0.205567,0.0838661 0.0802835,0 0.152972,-0.0320551 0.205567,-0.0838661 0.0525551,-0.0517756 0.0850748,-0.123319 0.0850748,-0.202323 0,-0.0790079 -0.0325197,-0.150547 -0.0850748,-0.202323z"/>
  <path fill="#E97E55" fill-rule="nonzero" d="M0.418142 0.12128l0.0327047 0c0.00468504,0 0.00895669,0.00191732 0.0120354,0.00499606 0.00307874,0.00307874 0.00499606,0.00734252 0.00499606,0.0120315l0 0.0640669c0,0.00468504 -0.00191732,0.00895669 -0.00499606,0.0120354 -0.00307874,0.00307874 -0.00735039,0.00499606 -0.0120354,0.00499606l-0.0327047 0c-0.00468504,0 -0.00895669,-0.00191732 -0.0120354,-0.00499606 -0.00307874,-0.00307874 -0.00499606,-0.00735039 -0.00499606,-0.0120354l0 -0.0640669c0,-0.00468898 0.00191732,-0.00895276 0.00499606,-0.0120315 0.00307874,-0.00307874 0.00735039,-0.00499606 0.0120354,-0.00499606zm0.0327047 0.0123465l-0.0327047 0c-0.00127953,0 -0.00245276,0.000531496 -0.00330315,0.00138189 -0.000850394,0.000850394 -0.00138189,0.00202362 -0.00138189,0.00329921l0 0.0640669c0,0.00127953 0.000531496,0.00245276 0.00138189,0.00330315 0.000850394,0.000850394 0.00202362,0.00138189 0.00330315,0.00138189l0.0327047 0c0.00127953,0 0.00245276,-0.000531496 0.00330315,-0.00138189 0.000850394,-0.000850394 0.00138189,-0.00202362 0.00138189,-0.00330315l0 -0.0640669c0,-0.00127559 -0.000531496,-0.00244882 -0.00138189,-0.00329921 -0.000850394,-0.000850394 -0.00202362,-0.00138189 -0.00330315,-0.00138189zm0.0440591 0.27576l-0.0403583 0 0 0.0355748 0.0403583 -0.0355748zm-0.0465315 -0.0123465l0.0569213 0 0 -0.199811 -0.0180827 8.66142e-005 0 0.0137126c0,0.0108307 -0.00455512,0.0206772 -0.0118858,0.0277992 -0.0072874,0.00708661 -0.0173307,0.0114882 -0.0283504,0.0114882l-0.0285394 0c-0.0110197,0 -0.021063,-0.00440157 -0.0283543,-0.0114882 -0.00733071,-0.00712598 -0.0118819,-0.0169724 -0.0118819,-0.0277992l0 -0.0132165 -0.121906 0.000559055 0 0.0126575c0,0.0108307 -0.00455512,0.0206772 -0.0118858,0.0277992 -0.0072874,0.00708661 -0.0173307,0.0114882 -0.0283504,0.0114882l-0.0285394 0c-0.0110197,0 -0.021063,-0.00440157 -0.0283543,-0.0114882 -0.00733071,-0.00712598 -0.0118819,-0.0169724 -0.0118819,-0.0277992l0 -0.0121575 -0.0234528 0.000106299c1.5748e-005,0.0431339 0.000169291,0.078622 0.000322835,0.114102 0.000145669,0.034378 0.000299213,0.0687717 0.000338583,0.103606 1.1811e-005,0.0154606 0.00233858,0.024626 0.00816142,0.0295394 0.00605512,0.00511417 0.0166969,0.00664961 0.0329921,0.00664173l0.276555 -0.000169291 0 -0.0494843 0 -0.00617323 0.00617323 0zm-0.33652 -0.0839134c-0.000181102,-0.0425787 -0.000370079,-0.0851693 -0.000370079,-0.120272l0 -0.00612205 0.00614961 -2.75591e-005 0.0357992 -0.000161417 0.00619685 -3.14961e-005 0 0.0061811 0 0.0183346c0,0.00737795 0.00311417,0.0141024 0.00812598,0.0189724 0.00505906,0.00491339 0.0120551,0.0079685 0.0197638,0.0079685l0.0285394 0c0.00770472,0 0.0147087,-0.00305512 0.0197598,-0.0079685 0.00501181,-0.00487008 0.00812992,-0.0115906 0.00812992,-0.0189724l0 -0.0187795 0 -0.00612205 0.00614961 -2.75591e-005 0.134252 -0.000614173 0.00619685 -3.14961e-005 0 0.0061811 0 0.0193937c0,0.00737795 0.00311417,0.0141024 0.00812598,0.0189724 0.00505906,0.00491339 0.0120551,0.0079685 0.0197638,0.0079685l0.0285394 0c0.00770472,0 0.0147087,-0.00305512 0.0197598,-0.0079685 0.00501181,-0.00487008 0.00812992,-0.0115906 0.00812992,-0.0189724l0 -0.0198346 0 -0.00612205 0.00614961 -2.75591e-005 0.0304291 -0.000141732 0.00619685 -3.14961e-005 0 0.0061811 0 0.211957 0 0.00277953 -0.00209843 0.00185039 -0.0633425 0.0558346 -0.0040748 0.00151969 -0.28248 0.000173228c-0.0192441,1.1811e-005 -0.0322598,-0.00219291 -0.0409528,-0.0095315 -0.0089252,-0.0075315 -0.0124843,-0.019563 -0.0125,-0.0389488 -3.54331e-005,-0.0347677 -0.000188976,-0.0691693 -0.000338583,-0.103559zm0.0744724 -0.191846l0.0327047 0c0.00468504,0 0.00895669,0.00191732 0.0120354,0.00499606 0.00307874,0.00307874 0.00499606,0.00734252 0.00499606,0.0120315l0 0.0640669c0,0.00468898 -0.00192126,0.00895669 -0.005,0.0120354 -0.00307874,0.00307874 -0.00734252,0.00499606 -0.0120315,0.00499606l-0.0327047 0c-0.00468898,0 -0.00895276,-0.00191732 -0.0120315,-0.00499606 -0.00307874,-0.00307874 -0.00499606,-0.00735039 -0.00499606,-0.0120354l0 -0.0640669c0,-0.00468898 0.00191732,-0.00895276 0.00499606,-0.0120315 0.00307874,-0.00307874 0.00734252,-0.00499606 0.0120315,-0.00499606zm0.0327047 0.0123465l-0.0327047 0c-0.00127559,0 -0.00244882,0.000531496 -0.00329921,0.00138189 -0.000850394,0.000850394 -0.00138189,0.00202362 -0.00138189,0.00329921l0 0.0640669c0,0.00127953 0.000531496,0.00245276 0.00138189,0.00330315 0.000850394,0.000850394 0.00202362,0.00138189 0.00329921,0.00138189l0.0327047 0c0.00127559,0 0.00244882,-0.000531496 0.00329921,-0.00138189 0.000850394,-0.000850394 0.00138583,-0.00202756 0.00138583,-0.00330315l0 -0.0640669c0,-0.00127559 -0.000531496,-0.00244882 -0.00138189,-0.00329921 -0.000850394,-0.000850394 -0.00202362,-0.00138189 -0.00330315,-0.00138189z"/>
  <path fill="#E97E55" fill-rule="nonzero" d="M0.21522 0.259469l0.0411575 0c0.00367717,0 0.00701575,0.00149606 0.00942913,0.00390945l-1.1811e-005 1.1811e-005c0.00241732,0.00241732 0.0039252,0.00575197 0.0039252,0.00940551l0 0.0241063c0,0.00365748 -0.00150787,0.00698819 -0.0039252,0.00940551l1.1811e-005 1.1811e-005c-0.00241339,0.00241339 -0.00575197,0.00390945 -0.00942913,0.00390945l-0.0411575 0c-0.00366929,0 -0.00701181,-0.00149606 -0.0094252,-0.00390945l1.1811e-005 -1.1811e-005c-0.00241732,-0.00241732 -0.0039252,-0.00574803 -0.0039252,-0.00940551l0 -0.0241063c0,-0.00365354 0.00150787,-0.00698819 0.0039252,-0.00940551l-1.1811e-005 -1.1811e-005c0.00241339,-0.00241339 0.00575591,-0.00390945 0.0094252,-0.00390945zm0.0411575 0.0123465l-0.0411575 0c-0.00026378,0 -0.000515748,0.00011811 -0.000692913,0.000295276l-2.3622e-005 0c-0.000165354,0.000165354 -0.000275591,0.000409449 -0.000275591,0.000685039l0 0.0241063c0,0.000271654 0.000106299,0.000515748 0.000275591,0.000685039l2.3622e-005 0c0.000177165,0.000177165 0.000429134,0.000295276 0.000692913,0.000295276l0.0411575 0c0.00026378,0 0.000519685,-0.00011811 0.00069685,-0.000295276l2.3622e-005 0c0.000169291,-0.000169291 0.000275591,-0.000413386 0.000275591,-0.000685039l0 -0.0241063c0,-0.000275591 -0.000110236,-0.000519685 -0.000275591,-0.000685039l-2.3622e-005 0c-0.000177165,-0.000177165 -0.000433071,-0.000295276 -0.00069685,-0.000295276zm0.131252 -0.0123465l0.0411575 0c0.00366929,0 0.00701181,0.00149606 0.0094252,0.00390945l-1.1811e-005 1.1811e-005c0.00241732,0.00241732 0.0039252,0.00575197 0.0039252,0.00940551l0 0.0241063c0,0.00365748 -0.00150787,0.00698819 -0.0039252,0.00940551l1.1811e-005 1.1811e-005c-0.00241339,0.00241339 -0.00575591,0.00390945 -0.0094252,0.00390945l-0.0411575 0c-0.00367717,0 -0.00701575,-0.00149606 -0.00942913,-0.00390945l1.1811e-005 -1.1811e-005c-0.00241732,-0.00241732 -0.0039252,-0.00574803 -0.0039252,-0.00940551l0 -0.0241063c0,-0.00365354 0.00150787,-0.00698819 0.0039252,-0.00940551l-1.1811e-005 -1.1811e-005c0.00241339,-0.00241339 0.00575197,-0.00390945 0.00942913,-0.00390945zm0.0411575 0.0123465l-0.0411575 0c-0.00026378,0 -0.000519685,0.00011811 -0.00069685,0.000295276l-2.3622e-005 0c-0.000165354,0.000165354 -0.000275591,0.000409449 -0.000275591,0.000685039l0 0.0241063c0,0.000271654 0.000106299,0.000515748 0.000275591,0.000685039l2.3622e-005 0c0.000177165,0.000177165 0.000433071,0.000295276 0.00069685,0.000295276l0.0411575 0c0.00026378,0 0.000515748,-0.00011811 0.000692913,-0.000295276l2.3622e-005 0c0.000169291,-0.000169291 0.000275591,-0.000413386 0.000275591,-0.000685039l0 -0.0241063c0,-0.000275591 -0.000110236,-0.000519685 -0.000275591,-0.000685039l-2.3622e-005 0c-0.000177165,-0.000177165 -0.000429134,-0.000295276 -0.000692913,-0.000295276zm-0.126917 0.111374l0.0411575 0c0.00367717,0 0.00701575,0.00149606 0.00942913,0.00390945l-1.1811e-005 1.1811e-005c0.00241732,0.00241732 0.0039252,0.00575197 0.0039252,0.00940551l0 0.0241063c0,0.00365748 -0.00150787,0.00698819 -0.0039252,0.00940551l1.1811e-005 1.1811e-005c-0.00241339,0.00241339 -0.00575197,0.00390945 -0.00942913,0.00390945l-0.0411575 0c-0.00366929,0 -0.00701181,-0.00149606 -0.0094252,-0.00390945l1.1811e-005 -1.1811e-005c-0.00241732,-0.00241732 -0.0039252,-0.00574803 -0.0039252,-0.00940551l0 -0.0241063c0,-0.00365354 0.00150787,-0.00698819 0.0039252,-0.00940551l-1.1811e-005 -1.1811e-005c0.00241339,-0.00241339 0.00575591,-0.00390945 0.0094252,-0.00390945zm0.0411575 0.0123465l-0.0411575 0c-0.00026378,0 -0.000515748,0.00011811 -0.000692913,0.000295276l-2.3622e-005 0c-0.000165354,0.000165354 -0.000275591,0.000409449 -0.000275591,0.000685039l0 0.0241063c0,0.000271654 0.000106299,0.000515748 0.000275591,0.000685039l2.3622e-005 0c0.000177165,0.000177165 0.000429134,0.000295276 0.000692913,0.000295276l0.0411575 0c0.00026378,0 0.000519685,-0.00011811 0.00069685,-0.000295276l2.3622e-005 0c0.000169291,-0.000169291 0.000275591,-0.000413386 0.000275591,-0.000685039l0 -0.0241063c0,-0.000275591 -0.000110236,-0.000519685 -0.000275591,-0.000685039l-2.3622e-005 0c-0.000177165,-0.000177165 -0.000433071,-0.000295276 -0.00069685,-0.000295276zm-0.0411575 -0.0739843l0.0411575 0c0.00367717,0 0.00701575,0.00149606 0.00942913,0.00390945l-1.1811e-005 1.1811e-005c0.00241732,0.00241732 0.0039252,0.00575197 0.0039252,0.00940551l0 0.0241063c0,0.00365748 -0.00150787,0.00698819 -0.0039252,0.00940551l1.1811e-005 1.1811e-005c-0.00241339,0.00241339 -0.00575197,0.00390945 -0.00942913,0.00390945l-0.0411575 0c-0.00366929,0 -0.00701181,-0.00149606 -0.0094252,-0.00390945l1.1811e-005 -1.1811e-005c-0.00241732,-0.00241732 -0.0039252,-0.00574803 -0.0039252,-0.00940551l0 -0.0241063c0,-0.00365354 0.00150787,-0.00698819 0.0039252,-0.00940551l-1.1811e-005 -1.1811e-005c0.00241339,-0.00241339 0.00575591,-0.00390945 0.0094252,-0.00390945zm0.0411575 0.0123465l-0.0411575 0c-0.00026378,0 -0.000515748,0.00011811 -0.000692913,0.000295276l-2.3622e-005 0c-0.000165354,0.000165354 -0.000275591,0.000409449 -0.000275591,0.000685039l0 0.0241063c0,0.000271654 0.000106299,0.000515748 0.000275591,0.000685039l2.3622e-005 0c0.000177165,0.000177165 0.000429134,0.000295276 0.000692913,0.000295276l0.0411575 0c0.00026378,0 0.000519685,-0.00011811 0.00069685,-0.000295276l2.3622e-005 0c0.000169291,-0.000169291 0.000275591,-0.000413386 0.000275591,-0.000685039l0 -0.0241063c0,-0.000275591 -0.000110236,-0.000519685 -0.000275591,-0.000685039l-2.3622e-005 0c-0.000177165,-0.000177165 -0.000433071,-0.000295276 -0.00069685,-0.000295276zm-0.0411575 -0.0744291l0.0411575 0c0.00367717,0 0.00701575,0.00149606 0.00942913,0.00390945l-1.1811e-005 1.1811e-005c0.00241732,0.00241732 0.0039252,0.00575197 0.0039252,0.00940551l0 0.0241063c0,0.00365748 -0.00150787,0.00698819 -0.0039252,0.00940551l1.1811e-005 1.1811e-005c-0.00241339,0.00241339 -0.00575197,0.00390945 -0.00942913,0.00390945l-0.0411575 0c-0.00366929,0 -0.00701181,-0.00149606 -0.0094252,-0.00390945l1.1811e-005 -1.1811e-005c-0.00241732,-0.00241732 -0.0039252,-0.00574803 -0.0039252,-0.00940551l0 -0.0241063c0,-0.00365354 0.00150787,-0.00698819 0.0039252,-0.00940551l-1.1811e-005 -1.1811e-005c0.00241339,-0.00241339 0.00575591,-0.00390945 0.0094252,-0.00390945zm0.0411575 0.0123465l-0.0411575 0c-0.00026378,0 -0.000515748,0.00011811 -0.000692913,0.000295276l-2.3622e-005 0c-0.000165354,0.000165354 -0.000275591,0.000409449 -0.000275591,0.000685039l0 0.0241063c0,0.000271654 0.000106299,0.000515748 0.000275591,0.000685039l2.3622e-005 0c0.000177165,0.000177165 0.000429134,0.000295276 0.000692913,0.000295276l0.0411575 0c0.00026378,0 0.000519685,-0.00011811 0.00069685,-0.000295276l2.3622e-005 0c0.000169291,-0.000169291 0.000275591,-0.000413386 0.000275591,-0.000685039l0 -0.0241063c0,-0.000275591 -0.000110236,-0.000519685 -0.000275591,-0.000685039l-2.3622e-005 0c-0.000177165,-0.000177165 -0.000433071,-0.000295276 -0.00069685,-0.000295276zm-0.127807 0.111374l0.0411575 0c0.00367717,0 0.00701575,0.00149606 0.00942913,0.00390945l-1.1811e-005 1.1811e-005c0.00241732,0.00241732 0.0039252,0.00575197 0.0039252,0.00940551l0 0.0241063c0,0.00365748 -0.00150787,0.00698819 -0.0039252,0.00940551l1.1811e-005 1.1811e-005c-0.00241339,0.00241339 -0.00575197,0.00390945 -0.00942913,0.00390945l-0.0411575 0c-0.00366929,0 -0.00701181,-0.00149606 -0.0094252,-0.00390945l1.1811e-005 -1.1811e-005c-0.00241732,-0.00241732 -0.0039252,-0.00574803 -0.0039252,-0.00940551l0 -0.0241063c0,-0.00365354 0.00150787,-0.00698819 0.0039252,-0.00940551l-1.1811e-005 -1.1811e-005c0.00241339,-0.00241339 0.00575591,-0.00390945 0.0094252,-0.00390945zm0.0411575 0.0123465l-0.0411575 0c-0.00026378,0 -0.000515748,0.00011811 -0.000692913,0.000295276l-2.3622e-005 0c-0.000165354,0.000165354 -0.000275591,0.000409449 -0.000275591,0.000685039l0 0.0241063c0,0.000271654 0.000106299,0.000515748 0.000275591,0.000685039l2.3622e-005 0c0.000177165,0.000177165 0.000429134,0.000295276 0.000692913,0.000295276l0.0411575 0c0.00026378,0 0.000519685,-0.00011811 0.00069685,-0.000295276l2.3622e-005 0c0.000169291,-0.000169291 0.000275591,-0.000413386 0.000275591,-0.000685039l0 -0.0241063c0,-0.000275591 -0.000110236,-0.000519685 -0.000275591,-0.000685039l-2.3622e-005 0c-0.000177165,-0.000177165 -0.000433071,-0.000295276 -0.00069685,-0.000295276zm-0.0411575 -0.0739843l0.0411575 0c0.00367717,0 0.00701575,0.00149606 0.00942913,0.00390945l-1.1811e-005 1.1811e-005c0.00241732,0.00241732 0.0039252,0.00575197 0.0039252,0.00940551l0 0.0241063c0,0.00365748 -0.00150787,0.00698819 -0.0039252,0.00940551l1.1811e-005 1.1811e-005c-0.00241339,0.00241339 -0.00575197,0.00390945 -0.00942913,0.00390945l-0.0411575 0c-0.00366929,0 -0.00701181,-0.00149606 -0.0094252,-0.00390945l1.1811e-005 -1.1811e-005c-0.00241732,-0.00241732 -0.0039252,-0.00574803 -0.0039252,-0.00940551l0 -0.0241063c0,-0.00365354 0.00150787,-0.00698819 0.0039252,-0.00940551l-1.1811e-005 -1.1811e-005c0.00241339,-0.00241339 0.00575591,-0.00390945 0.0094252,-0.00390945zm0.0411575 0.0123465l-0.0411575 0c-0.00026378,0 -0.000515748,0.00011811 -0.000692913,0.000295276l-2.3622e-005 0c-0.000165354,0.000165354 -0.000275591,0.000409449 -0.000275591,0.000685039l0 0.0241063c0,0.000271654 0.000106299,0.000515748 0.000275591,0.000685039l2.3622e-005 0c0.000177165,0.000177165 0.000429134,0.000295276 0.000692913,0.000295276l0.0411575 0c0.00026378,0 0.000519685,-0.00011811 0.00069685,-0.000295276l2.3622e-005 0c0.000169291,-0.000169291 0.000275591,-0.000413386 0.000275591,-0.000685039l0 -0.0241063c0,-0.000275591 -0.000110236,-0.000519685 -0.000275591,-0.000685039l-2.3622e-005 0c-0.000177165,-0.000177165 -0.000433071,-0.000295276 -0.00069685,-0.000295276z"/>
 </g>
</svg>
