<?xml version="1.0" encoding="UTF-8"?>
<!DOCTYPE svg PUBLIC "-//W3C//DTD SVG 1.1//EN" "http://www.w3.org/Graphics/SVG/1.1/DTD/svg11.dtd">
<!-- Creator: CorelDRAW -->
<svg xmlns="http://www.w3.org/2000/svg" xml:space="preserve" width="100%" height="100%" shape-rendering="geometricPrecision" text-rendering="geometricPrecision" image-rendering="optimizeQuality" fill-rule="evenodd" clip-rule="evenodd"
viewBox="0 0 0.5 0.5"
 xmlns:xlink="http://www.w3.org/1999/xlink">
 <g id="Layer_x0020_1">
  <metadata id="CorelCorpID_0Corel-Layer"/>
  <path fill="white" d="M0.25 0l0 0c0.138051,0 0.25,0.111949 0.25,0.25l0 0c0,0.138051 -0.111949,0.25 -0.25,0.25l0 0c-0.138051,0 -0.25,-0.111949 -0.25,-0.25l0 0c0,-0.138051 0.111949,-0.25 0.25,-0.25z"/>
  <path fill="#605D5C" d="M0.192 0.377c0.117902,0 0.182449,-0.0977008 0.182449,-0.182449 0,-0.00275197 0,-0.00555118 -0.000200787,-0.00829921 0.0125512,-0.00910236 0.0234016,-0.0203031 0.032,-0.0332008 -0.0116969,0.00520079 -0.0240984,0.00859843 -0.0367992,0.0100984 0.0134016,-0.008 0.0234016,-0.0205984 0.0282008,-0.0354488 -0.0125984,0.00744882 -0.0263504,0.012748 -0.0407008,0.0155512 -0.0242992,-0.0258031 -0.0648976,-0.0270512 -0.0907008,-0.00280315 -0.0166496,0.0156496 -0.0236969,0.039 -0.0185472,0.061252 -0.0515512,-0.00260236 -0.0996024,-0.0269488 -0.13215,-0.067 -0.017,0.0292992 -0.00835039,0.066748 0.0198504,0.0855984 -0.0102008,-0.000299213 -0.0202008,-0.00304724 -0.0291024,-0.008 0,0.000251969 0,0.000551181 0,0.000799213 0,0.0305 0.0215,0.0568031 0.0514488,0.0628504 -0.00944882,0.00255118 -0.0193465,0.00295276 -0.0289488,0.00110236 0.00840157,0.0260984 0.0324488,0.044 0.0599016,0.0445472 -0.0227008,0.0178504 -0.050752,0.0275512 -0.0796024,0.0275 -0.00509843,0 -0.0102008,-0.000299213 -0.015248,-0.000948819 0.0292008,0.0188504 0.0633504,0.0288504 0.0981496,0.0287992m0 5.11811e-005l0 0 0 0z"/>
 </g>
</svg>
