<?xml version="1.0" encoding="UTF-8"?>
<!DOCTYPE svg PUBLIC "-//W3C//DTD SVG 1.1//EN" "http://www.w3.org/Graphics/SVG/1.1/DTD/svg11.dtd">
<!-- Creator: CorelDRAW -->
<svg xmlns="http://www.w3.org/2000/svg" xml:space="preserve" width="100%" height="100%" shape-rendering="geometricPrecision" text-rendering="geometricPrecision" image-rendering="optimizeQuality" fill-rule="evenodd" clip-rule="evenodd"
viewBox="0 0 0.5 0.5"
 xmlns:xlink="http://www.w3.org/1999/xlink">
 <g id="Layer_x0020_1">
  <metadata id="CorelCorpID_0Corel-Layer"/>
  <path fill="white" d="M0.25 0.500004l0 0c-0.138051,0 -0.250004,-0.111953 -0.250004,-0.250004l0 0c0,-0.138051 0.111953,-0.250004 0.250004,-0.250004l0 0c0.138051,0 0.250004,0.111953 0.250004,0.250004l0 0c0,0.138051 -0.111953,0.250004 -0.250004,0.250004z"/>
  <path fill="#605D5C" d="M0.409102 0.169551c-0.00379921,-0.0144016 -0.0150512,-0.0257008 -0.0293504,-0.0295512 -0.0259016,-0.007 -0.129701,-0.007 -0.129701,-0.007 0,0 -0.10385,0 -0.129701,0.007 -0.0143031,0.00385039 -0.0255512,0.0151496 -0.0293504,0.0295512 -0.007,0.0260472 -0.007,0.0804488 -0.007,0.0804488 0,0 0,0.0544016 0.00694882,0.0804488 0.00379921,0.0144016 0.0150512,0.0257008 0.0293504,0.0295512 0.0259016,0.007 0.129701,0.007 0.129701,0.007 0,0 0.10385,0 0.129701,-0.007 0.0142992,-0.00385039 0.0255512,-0.0151496 0.0293504,-0.0295512 0.00694882,-0.0260472 0.00694882,-0.0804488 0.00694882,-0.0804488 0,0 0,-0.0544016 -0.00689764,-0.0804488zm-0.193051 0.129799l0 -0.0987008 0.086748 0.0493504 -0.086748 0.0493504z"/>
 </g>
</svg>
