<?xml version="1.0" encoding="UTF-8"?>
<!DOCTYPE svg PUBLIC "-//W3C//DTD SVG 1.1//EN" "http://www.w3.org/Graphics/SVG/1.1/DTD/svg11.dtd">
<!-- Creator: CorelDRAW -->
<svg xmlns="http://www.w3.org/2000/svg" xml:space="preserve" width="100%" height="100%" style="shape-rendering:geometricPrecision; text-rendering:geometricPrecision; image-rendering:optimizeQuality; fill-rule:evenodd; clip-rule:evenodd"
viewBox="0 0 0.539823 0.494555"
 xmlns:xlink="http://www.w3.org/1999/xlink"
 version="1.1">
 <defs>
  <style type="text/css">
   <![CDATA[
    .fil0 {fill:#1F1A17}
   ]]>
  </style>
 </defs>
 <g id="Layer_x0020_1">
  <metadata id="CorelCorpID_0Corel-Layer"/>
  <g id="client.svg">
   <g>
    <g>
     <path id="_120842872" class="fil0" d="M0.493591 0.143803l-0.0227283 0 0 -0.0146181 0.0141811 -0.0156181c0.0073622,-0.0081063 0.0114173,-0.0186024 0.0114173,-0.0295551l0 -0.0370394c0,-0.0259016 -0.0210748,-0.0469724 -0.0469724,-0.0469724l-0.0216063 0c-0.0259016,0 -0.0469724,0.0210709 -0.0469724,0.0469724l0 0.0370394c0,0.0109528 0.00405512,0.0214488 0.0114173,0.0295551l0.014185 0.015622 0 0.0146142 -0.0227323 0c-0.0220827,0 -0.0405866,0.0155669 -0.0451457,0.0362992 -0.00232283,-0.000322835 -0.00468898,-0.000503937 -0.00709449,-0.000503937l-0.026626 0 0 -0.017878 0.0162402 -0.0178858c0.00812205,-0.00894094 0.0125945,-0.0205197 0.0125945,-0.0325984l0 -0.0417205c0,-0.0286063 -0.0232717,-0.051878 -0.051878,-0.051878 -0.00448425,0 -0.00811811,0.00363386 -0.00811811,0.00811811 0,0.00448031 0.00363386,0.00811417 0.00811811,0.00811417 0.0196535,0 0.0356457,0.0159882 0.0356457,0.0356457l0 0.0417205c0,0.00803543 -0.00297638,0.0157362 -0.00837795,0.021689l-0.0167205 0.0184173c-0.00224409,0.00144094 -0.00373228,0.00396063 -0.00373228,0.00683071l0 0.0295433c0,0.00448425 0.00363386,0.00811417 0.00811417,0.00811417l0.0347402 0c0.0191969,0 0.034815,0.0156181 0.034815,0.034815l0 0.0509252 -0.193303 0 0 -0.0509252c0,-0.0149646 0.00949213,-0.0277559 0.0227756,-0.0326654 0.000622047,-0.000129921 0.00121654,-0.000338583 0.00177953,-0.000606299 0.00324409,-0.001 0.00668898,-0.00154331 0.0102559,-0.00154331l0.0347402 0c0.00448425,0 0.00811811,-0.00363386 0.00811811,-0.00811417l0 -0.0295472c0,-0.00286614 -0.00148819,-0.00538583 -0.00373228,-0.00683071l-0.0167244 -0.0184173c-0.00540157,-0.00594882 -0.00837795,-0.0136535 -0.00837795,-0.021689l0 -0.0417165c0,-0.0196535 0.0159882,-0.0356457 0.0356457,-0.0356457 0.00448425,0 0.00811811,-0.00363386 0.00811811,-0.00811417 0,-0.00448425 -0.00363386,-0.00811811 -0.00811811,-0.00811811 -0.0286063,0 -0.051878,0.0232717 -0.051878,0.051878l0 0.0417165c0,0.0120787 0.00447244,0.0236575 0.0125945,0.0326024l0.0162362 0.0178819 0 0.0178819 -0.026622 0c-0.00226772,0 -0.00449606,0.000165354 -0.00668898,0.000452756 -0.0045748,-0.0207087 -0.0230669,-0.036248 -0.0451339,-0.036248l-0.0227283 0 0 -0.0146181 0.0141811 -0.0156181c0.0073622,-0.0081063 0.0114173,-0.0186024 0.0114173,-0.0295551l0 -0.0370394c0,-0.0259016 -0.0210709,-0.0469724 -0.0469724,-0.0469724l-0.0216024 0c-0.0259016,0 -0.0469724,0.0210709 -0.0469724,0.0469724l0 0.0370394c0,0.0109528 0.00405512,0.0214488 0.0114173,0.0295551l0.0141811 0.015622 0 0.0146142 -0.0227283 0c-0.0254921,0 -0.0462323,0.0207402 -0.0462323,0.0462323l0 0.0524173c0,0.00448425 0.00363386,0.00811417 0.00811417,0.00811417l0.126268 0c0.00448031,0 0.00811417,-0.00362992 0.00811417,-0.00811417 0,-0.00448425 -0.00363386,-0.00811417 -0.00811417,-0.00811417l-0.11815 0 0 -0.0443031c0,-0.0165433 0.0134567,-0.0300039 0.03,-0.0300039l0.0308465 0c0.00448031,0 0.00811417,-0.00362992 0.00811417,-0.00811417l0 -0.0262323c0,-0.00282283 -0.00144094,-0.00530709 -0.00362598,-0.00675984l-0.0147717 -0.0162677c-0.00464567,-0.00511417 -0.00720079,-0.0117362 -0.00720079,-0.0186457l0 -0.0370394c0,-0.0169528 0.0137874,-0.0307402 0.0307402,-0.0307402l0.0216024 0c0.0169528,0 0.0307441,0.0137874 0.0307441,0.0307402l0 0.0370394c0,0.00690945 -0.00255906,0.0135315 -0.00720472,0.0186457l-0.0147717 0.0162677c-0.00218504,0.00145276 -0.00362598,0.00393701 -0.00362598,0.00675984l0 0.0262323c0,0.00448425 0.00363386,0.00811417 0.00811811,0.00811417l0.0308425 0c0.0147362,0 0.0270157,0.0106811 0.0295236,0.0247047 -0.017,0.00829134 -0.0287441,0.025752 -0.0287441,0.0459094l0 0.0590354c0,0.00448425 0.00363386,0.00811417 0.00811417,0.00811417l0.209535 0c0.00448425,0 0.00811417,-0.00362992 0.00811417,-0.00811417l0 -0.0590394c0,-0.02 -0.0115669,-0.0373425 -0.0283622,-0.0457087 0.00243307,-0.014122 0.0147559,-0.0249016 0.0295591,-0.0249016l0.0308465 0c0.00448425,0 0.00811417,-0.00362992 0.00811417,-0.00811417l0 -0.0262323c0,-0.00282283 -0.00144094,-0.00531102 -0.00362598,-0.00676378l-0.0147717 -0.0162638c-0.00464567,-0.00511417 -0.00720079,-0.0117362 -0.00720079,-0.0186457l0 -0.0370394c0,-0.0169528 0.0137913,-0.0307402 0.0307402,-0.0307402l0.0216063 0c0.0169488,0 0.0307402,0.0137874 0.0307402,0.0307402l0 0.0370394c0,0.00690945 -0.00255906,0.0135315 -0.00720079,0.0186457l-0.0147717 0.0162677c-0.00218504,0.00145276 -0.00362598,0.00393701 -0.00362598,0.00675984l0 0.0262323c0,0.00448425 0.00363386,0.00811417 0.00811417,0.00811417l0.0308465 0c0.0165433,0 0.03,0.0134606 0.03,0.0300039l0 0.0443031 -0.116752 0c-0.00448425,0 -0.00811811,0.00362992 -0.00811811,0.00811417 0,0.00448425 0.00363386,0.00811417 0.00811811,0.00811417l0.12487 0c0.00448031,0 0.00811417,-0.00362992 0.00811417,-0.00811417l0 -0.0524173c0,-0.0254921 -0.0207402,-0.0462323 -0.0462323,-0.0462323z"/>
    </g>
   </g>
   <g>
    <g>
     <path id="_120943472" class="fil0" d="M0.351524 0.40065c-0.000937008,-0.00288583 -0.00340551,-0.00500787 -0.00640157,-0.0055l-0.0443307 -0.00727953 -0.020622 -0.0399134c-0.00138976,-0.00269291 -0.00417323,-0.00438976 -0.00720866,-0.00438976 -0.00303543,0 -0.00581496,0.00169291 -0.00720866,0.00438976l-0.020622 0.0399134 -0.0443307 0.00727953c-0.00299606,0.000492126 -0.00546457,0.00261024 -0.00640157,0.0055 -0.000940945,0.00288583 -0.000188976,0.00605512 0.00194488,0.0082126l0.0315866 0.0319449 -0.00677953 0.0444094c-0.000456693,0.003 0.000799213,0.00600787 0.00325591,0.0077874 0.00140945,0.00102756 0.00308661,0.00155118 0.00476772,0.00155118 0.00124409,0 0.00249213,-0.000283465 0.00364173,-0.000862205l0.0401417 -0.0201693 0.0401417 0.0201693c0.00271654,0.0013622 0.00596063,0.00109843 0.00841339,-0.000688976 0.00245669,-0.00177953 0.0037126,-0.0047874 0.00325197,-0.0077874l-0.00677953 -0.0444094 0.0315866 -0.0319449c0.00214173,-0.00215748 0.0028937,-0.00532677 0.00195276,-0.0082126zm-0.0479409 0.0316457c-0.00180315,0.00182283 -0.0026378,0.0043937 -0.00225197,0.00692913l0.00502362 0.0329094 -0.029748 -0.0149449c-0.00229528,-0.00115354 -0.00499606,-0.00115354 -0.0072874,0l-0.029748 0.0149449 0.00502362 -0.0329094c0.000385827,-0.00253937 -0.000448819,-0.0051063 -0.00225197,-0.00692913l-0.0234134 -0.0236772 0.0328543 -0.00538976c0.0025315,-0.000417323 0.00472047,-0.00200787 0.0058937,-0.00428346l0.0152835 -0.0295827 0.0152795 0.0295827c0.00117717,0.00227559 0.00336614,0.00386614 0.0058937,0.00428346l0.0328543 0.00538976 -0.0234055 0.0236772z"/>
    </g>
   </g>
   <g>
    <g>
     <path id="_120843184" class="fil0" d="M0.529169 0.340976c-0.000940945,-0.00288583 -0.00340551,-0.00500787 -0.00640157,-0.0055l-0.0443307 -0.00727953 -0.020622 -0.0399134c-0.00138976,-0.00269291 -0.00417323,-0.00438976 -0.00720866,-0.00438976 -0.00303543,0 -0.00581496,0.00169291 -0.00720866,0.00438976l-0.020622 0.0399134 -0.0443307 0.00727953c-0.00299606,0.000492126 -0.00546457,0.00261417 -0.00640551,0.0055 -0.000937008,0.00288583 -0.000185039,0.00605512 0.00194882,0.0082126l0.0315866 0.0319449 -0.00677953 0.0444094c-0.000456693,0.003 0.000795276,0.00600787 0.00325197,0.00779134 0.00245669,0.00178346 0.00570472,0.00205118 0.00841339,0.000685039l0.0401417 -0.0201693 0.0401417 0.0201693c0.00115354,0.00057874 0.00240157,0.000866142 0.00364173,0.000866142 0.00168504,0 0.00335827,-0.000523622 0.00477165,-0.00155118 0.00245669,-0.00178346 0.00370866,-0.00479134 0.00325197,-0.00779134l-0.00677953 -0.0444094 0.0315866 -0.0319449c0.00214173,-0.00215748 0.00288976,-0.00532677 0.00195276,-0.0082126zm-0.0479409 0.0316457c-0.00180315,0.00182283 -0.0026378,0.0043937 -0.00225197,0.00692913l0.00502362 0.0329134 -0.029748 -0.0149488c-0.00114961,-0.000574803 -0.00239764,-0.000862205 -0.00364567,-0.000862205 -0.00124803,0 -0.00249606,0.000287402 -0.00364173,0.000862205l-0.029752 0.0149488 0.00502362 -0.0329134c0.000385827,-0.00253543 -0.000444882,-0.0051063 -0.00225197,-0.00692913l-0.0234094 -0.0236732 0.0328543 -0.0053937c0.0025315,-0.000413386 0.00471654,-0.00200394 0.0058937,-0.00428346l0.0152835 -0.0295787 0.0152795 0.0295787c0.00117717,0.00227953 0.0033622,0.00387008 0.0058937,0.00428346l0.0328543 0.0053937 -0.0234055 0.0236732z"/>
    </g>
   </g>
   <g>
    <g>
     <path id="_120943520" class="fil0" d="M0.173882 0.340976c-0.000937008,-0.00288583 -0.00340945,-0.00500787 -0.00640551,-0.0055l-0.0443307 -0.00727953 -0.0206181 -0.0399134c-0.0013937,-0.00269291 -0.00417717,-0.00438976 -0.0072126,-0.00438976 -0.00303543,0 -0.00581496,0.00169291 -0.00720866,0.00438976l-0.0206181 0.0399173 -0.0443307 0.00727559c-0.00299606,0.000492126 -0.0054685,0.00261417 -0.00640551,0.0055 -0.000937008,0.00288976 -0.000185039,0.00605906 0.00194882,0.00821654l0.0315866 0.0319409 -0.00677953 0.0444134c-0.000456693,0.003 0.000795276,0.00600394 0.00325197,0.0077874 0.00245669,0.00178346 0.00570079,0.00205118 0.00841339,0.000685039l0.0401417 -0.0201693 0.0401417 0.0201693c0.00114961,0.000582677 0.00239764,0.000866142 0.00364173,0.000866142 0.00168504,0 0.00335827,-0.000523622 0.00477165,-0.00155118 0.00245669,-0.00178346 0.00370866,-0.0047874 0.00325197,-0.0077874l-0.00677953 -0.0444134 0.0315866 -0.0319409c0.0021378,-0.00216142 0.00288976,-0.00532677 0.00195276,-0.00821654zm-0.0479449 0.0316457c-0.00180315,0.00182283 -0.0026378,0.0043937 -0.00225197,0.00692913l0.00502362 0.0329134 -0.029748 -0.0149488c-0.00114567,-0.000574803 -0.0023937,-0.000862205 -0.00364173,-0.000862205 -0.00125197,0 -0.0025,0.000287402 -0.00364567,0.000862205l-0.029748 0.0149488 0.00502362 -0.0329134c0.000385827,-0.00253543 -0.000448819,-0.0051063 -0.00225197,-0.00692913l-0.0234094 -0.0236732 0.0328543 -0.0053937c0.0025315,-0.000413386 0.00472047,-0.00200394 0.00589764,-0.00428346l0.0152795 -0.0295787 0.0152795 0.0295787c0.00117717,0.00227953 0.00336614,0.00387008 0.00589764,0.00428346l0.0328543 0.0053937 -0.0234134 0.0236732z"/>
    </g>
   </g>
   <g>
   </g>
   <g>
   </g>
   <g>
   </g>
   <g>
   </g>
   <g>
   </g>
   <g>
   </g>
   <g>
   </g>
   <g>
   </g>
   <g>
   </g>
   <g>
   </g>
   <g>
   </g>
   <g>
   </g>
   <g>
   </g>
   <g>
   </g>
   <g>
   </g>
  </g>
 </g>
</svg>
