<?xml version="1.0"?>
<svg xmlns="http://www.w3.org/2000/svg" xmlns:xlink="http://www.w3.org/1999/xlink" xmlns:svgjs="http://svgjs.com/svgjs" version="1.1" width="512" height="512" x="0" y="0" viewBox="0 0 512 512" style="enable-background:new 0 0 512 512" xml:space="preserve" class=""><g><path xmlns="http://www.w3.org/2000/svg" d="m40 72h448v416h-448z" fill="#c3c6c7" data-original="#c3c6c7" style="" class=""/><path xmlns="http://www.w3.org/2000/svg" d="m24 56h432v400h-432z" fill="#e9eef2" data-original="#e9eef2" style="" class=""/><path xmlns="http://www.w3.org/2000/svg" d="m240 416a112 112 0 1 1 112-112 112.127 112.127 0 0 1 -112 112zm0-208a96 96 0 1 0 66.461 26.726 96.108 96.108 0 0 0 -66.461-26.726z" fill="#319f61" data-original="#8f9e46" style="" class=""/><path xmlns="http://www.w3.org/2000/svg" d="m24 56h432v96h-432z" fill="#ec6262" data-original="#eb423f" style="" class=""/><g xmlns="http://www.w3.org/2000/svg" fill="#6a7073"><path d="m112 56v-8a8 8 0 0 0 -16 0v32a8.009 8.009 0 0 0 8 8 8 8 0 0 1 0 16 24.028 24.028 0 0 1 -24-24v-32a24 24 0 0 1 48 0v8z" fill="#6a6a6a" data-original="#6a7073" style="" class=""/><path d="m176 56v-8a8 8 0 0 0 -16 0v32a8.009 8.009 0 0 0 8 8 8 8 0 0 1 0 16 24.028 24.028 0 0 1 -24-24v-32a24 24 0 0 1 48 0v8z" fill="#6a6a6a" data-original="#6a7073" style="" class=""/><path d="m320 56v-8a8 8 0 0 0 -16 0v32a8.009 8.009 0 0 0 8 8 8 8 0 0 1 0 16 24.028 24.028 0 0 1 -24-24v-32a24 24 0 0 1 48 0v8z" fill="#6a6a6a" data-original="#6a7073" style="" class=""/><path d="m384 56v-8a8 8 0 0 0 -16 0v32a8.009 8.009 0 0 0 8 8 8 8 0 0 1 0 16 24.028 24.028 0 0 1 -24-24v-32a24 24 0 0 1 48 0v8z" fill="#6a6a6a" data-original="#6a7073" style="" class=""/></g><path xmlns="http://www.w3.org/2000/svg" d="m292.438 257.344a8 8 0 0 0 -11.094 2.218l-58.587 87.881-25.1-25.1a8 8 0 0 0 -11.314 11.314l32 32a8 8 0 0 0 5.657 2.343c.261 0 .525-.013.788-.039a8 8 0 0 0 5.868-3.523l64-96a8 8 0 0 0 -2.218-11.094z" fill="#319f61" data-original="#8f9e46" style="" class=""/></g></svg>
