<?xml version="1.0" encoding="UTF-8"?>
<!DOCTYPE svg PUBLIC "-//W3C//DTD SVG 1.1//EN" "http://www.w3.org/Graphics/SVG/1.1/DTD/svg11.dtd">
<!-- Creator: CorelDRAW -->
<svg xmlns="http://www.w3.org/2000/svg" xml:space="preserve" width="100%" height="100%" shape-rendering="geometricPrecision" text-rendering="geometricPrecision" image-rendering="optimizeQuality" fill-rule="evenodd" clip-rule="evenodd"
viewBox="0 0 1.69361 1.67585"
 xmlns:xlink="http://www.w3.org/1999/xlink">
 <g id="Layer_x0020_1">
  <metadata id="CorelCorpID_0Corel-Layer"/>
  <g id="_1" data-name="1">
   <path id="_137535896" fill="#969594" d="M1.28869 0.566953l-0.88378 0c-0.0345276,0 -0.0625315,-0.0280039 -0.0625315,-0.0625315l0 -0.44189c0,-0.0345315 0.0280039,-0.0625315 0.0625315,-0.0625315l0.88378 0c0.0345276,0 0.0625315,0.028 0.0625315,0.0625315l0 0.44189c0,0.0345276 -0.0280039,0.0625315 -0.0625315,0.0625315zm-0.821248 -0.125063l0.758717 0 0 -0.316827 -0.758717 0 0 0.316827z"/>
   <path id="_137814616" fill="#969594" d="M1.28869 1.67585l-0.88378 0c-0.0345276,0 -0.0625315,-0.0280039 -0.0625315,-0.0625315l0 -0.679134c0,-0.0345315 0.0280039,-0.0625354 0.0625315,-0.0625354l0.88378 0c0.0345276,0 0.0625315,0.0280039 0.0625315,0.0625315l0 0.679138c0,0.0345276 -0.0280039,0.0625315 -0.0625315,0.0625315l0 0zm-0.821248 -0.125063l0.758717 0 0 -0.554071 -0.758717 0 0 0.554071z"/>
   <path id="_137988776" fill="#969594" d="M1.48984 1.37986l-0.201146 0c-0.0345276,0 -0.0625315,-0.0280039 -0.0625315,-0.0625315 0,-0.0345276 0.0280039,-0.0625315 0.0625315,-0.0625315l0.201146 0c0.0434409,-3.93701e-005 0.0786654,-0.0352638 0.0787047,-0.0787047l0 -0.530394c-1.9685e-005,-0.0434567 -0.0352441,-0.0787087 -0.0787047,-0.078748l-1.28607 0c-0.0434606,3.93701e-005 -0.078685,0.0352913 -0.0787047,0.078752l0 0.53039c3.93701e-005,0.0434409 0.0352638,0.0786654 0.0787047,0.0787047l0.201146 0c0.0345276,0 0.0625315,0.0280039 0.0625315,0.0625315 0,0.0345276 -0.0280039,0.0625315 -0.0625315,0.0625315l-0.201146 0c-0.112453,-0.000125984 -0.203642,-0.091311 -0.203768,-0.203772l0 -0.53039c0.000102362,-0.112476 0.0912874,-0.203689 0.203772,-0.203811l1.28607 0c0.11248,0.000122047 0.203669,0.0913346 0.203768,0.203819l0 0.530386c-0.000125984,0.112457 -0.091311,0.203642 -0.203772,0.203768l3.93701e-006 0z"/>
   <path id="_136877008" fill="#969594" d="M0.338213 0.783728c-5.90551e-005,0 -0.000141732,0 -0.000200787,0 -0.00199213,0 -0.00399213,-9.84252e-005 -0.0059685,-0.000291339 -0.002,-0.000208661 -0.00416929,-0.00053937 -0.00604331,-0.000917323 -0.00187795,-0.000374016 -0.00416929,-0.000917323 -0.00596457,-0.0015 -0.00179134,-0.000582677 -0.00387402,-0.00129134 -0.00575197,-0.00208268 -0.00187402,-0.000795276 -0.00370866,-0.00166929 -0.0055,-0.00262992 -0.0018189,-0.000933071 -0.0036063,-0.00198425 -0.00529921,-0.00312598 -0.00166535,-0.00112598 -0.00333465,-0.00233465 -0.00491732,-0.00362598 -0.00158661,-0.00129528 -0.00312992,-0.00270866 -0.00458661,-0.00416929 -0.00145669,-0.00146063 -0.00283465,-0.003 -0.00416929,-0.00458661 -0.00128346,-0.00157087 -0.00250787,-0.00322835 -0.00362598,-0.00492126 -0.0011378,-0.00172047 -0.0021811,-0.00347244 -0.00312598,-0.00524803 -0.00096063,-0.00179528 -0.00183465,-0.00366929 -0.00262598,-0.00554724 -0.000795276,-0.00187402 -0.00146063,-0.00383465 -0.00208268,-0.00575197 -0.000625984,-0.00191732 -0.00108661,-0.00416929 -0.00150394,-0.00596063 -0.000417323,-0.00179134 -0.000708661,-0.00416929 -0.000917323,-0.00604331 -0.000185039,-0.00206299 -0.000295276,-0.00417323 -0.000295276,-0.00625591 0,-0.00208268 0.000110236,-0.00418898 0.00030315,-0.00625591 0.000208661,-0.002 0.00053937,-0.00416929 0.000917323,-0.00604331 0.000374016,-0.00187795 0.000917323,-0.00416929 0.0015,-0.00596063 0.000582677,-0.00179528 0.00129134,-0.00387795 0.00208268,-0.00575591 0.000795276,-0.00187402 0.00166929,-0.00375197 0.00262992,-0.00554331 0.000956693,-0.00179134 0.002,-0.00354331 0.00312598,-0.00525197 0.00111024,-0.00168898 0.00233465,-0.00334252 0.00361811,-0.00491339 0.00129134,-0.00158268 0.00270866,-0.00312598 0.00416929,-0.00458661 0.00146063,-0.00145669 0.003,-0.00283071 0.00458661,-0.00416535 0.00158268,-0.00133465 0.00325197,-0.00250394 0.00491732,-0.00362992 0.00169291,-0.00114567 0.00348031,-0.00219685 0.00529921,-0.00312598 0.00180315,-0.000948819 0.0036378,-0.00182283 0.0055,-0.00262992 0.00187795,-0.000791339 0.00383465,-0.00146063 0.00575197,-0.00208268 0.00191732,-0.000625984 0.00416929,-0.00108661 0.00596063,-0.00150394 0.00179528,-0.000413386 0.00416929,-0.000708661 0.00604724,-0.000917323 0.0020315,-0.000181102 0.00410236,-0.000279528 0.00614961,-0.000279528 0.00204724,0 0.00411811,9.84252e-005 0.00614567,0.000279528 0.00204331,0.000208661 0.00416929,0.000543307 0.00609055,0.000917323 0.00191732,0.000377953 0.00416535,0.000917323 0.00591732,0.0015 0.00175197,0.000586614 0.00392126,0.00129528 0.00579528,0.00208661 0.00187402,0.000791339 0.00370866,0.00166535 0.00550394,0.00262598 0.00180709,0.000944882 0.00359449,0.00199606 0.00529528,0.00312992 0.00166929,0.00112598 0.00333465,0.00233465 0.00492126,0.00362598 0.00158268,0.00129134 0.00312598,0.00270866 0.00458268,0.00416929 0.00146063,0.00146063 0.00279528,0.003 0.00416929,0.00458661 0.00137795,0.00158268 0.00250394,0.00324803 0.00362992,0.00491732 0.00112598,0.00166929 0.00216535,0.00346063 0.00312598,0.00525197 0.000956693,0.00179134 0.00183465,0.00366929 0.00262598,0.00554331 0.000791339,0.00187795 0.00146063,0.00383465 0.00208268,0.00575591 0.000625984,0.00191732 0.00108661,0.00416929 0.00150394,0.00596063 0.000417323,0.00179134 0.000708661,0.00416929 0.000917323,0.00604331 0.000181102,0.00206299 0.000295276,0.00416929 0.000295276,0.00625197 0,0.00208268 -0.000114173,0.00419291 -0.00030315,0.00625984 -0.000208661,0.002 -0.000543307,0.00416535 -0.000917323,0.00604331 -0.000377953,0.00187402 -0.000917323,0.00416929 -0.00150394,0.00596063 -0.000582677,0.00179134 -0.00129134,0.00387795 -0.00208268,0.00575197 -0.000791339,0.00187795 -0.00166929,0.00375197 -0.00262598,0.00554331 -0.00096063,0.00179528 -0.002,0.00354331 -0.00312598,0.00525591 -0.00112598,0.00170866 -0.00237795,0.00333465 -0.00362992,0.00491732 -0.00124803,0.00158661 -0.00270866,0.00312598 -0.00416929,0.00458661 -0.00145669,0.00145669 -0.003,0.00283465 -0.00458268,0.00416929 -0.00158661,0.00133465 -0.00325197,0.0025 -0.00492126,0.00362598 -0.00169291,0.00112598 -0.00348031,0.0021811 -0.00529134,0.00312205 -0.00180315,0.000944882 -0.0036378,0.0018189 -0.0055,0.00262598 -0.00187795,0.000795276 -0.00383465,0.00146063 -0.00579528,0.00208661 -0.00196063,0.000622047 -0.00391732,0.00108268 -0.00591732,0.0015 -0.00200394,0.000417323 -0.00416929,0.000708661 -0.00609055,0.000917323 -0.00196063,0.000188976 -0.00395276,0.000291339 -0.0059252,0.000291339 -6.69291e-005,0 -0.000133858,0 -0.00019685,0l-3.93701e-006 0z"/>
   <path id="_136877104" fill="#969594" d="M0.521638 0.783728c-0.00204331,0 -0.00416929,0 -0.00616929,-0.000291339 -0.002,-0.000291339 -0.00416929,-0.000543307 -0.00604331,-0.000917323 -0.00187795,-0.000377953 -0.00416929,-0.000917323 -0.00596457,-0.0015 -0.00179134,-0.000582677 -0.00387402,-0.00129134 -0.00575197,-0.00208661 -0.00187402,-0.000791339 -0.00375197,-0.00166535 -0.00554331,-0.00262598 -0.00179134,-0.000956693 -0.00354331,-0.002 -0.00525197,-0.00312598 -0.00168898,-0.00111417 -0.00334646,-0.00233858 -0.00491732,-0.00362598 -0.00158268,-0.00129134 -0.00312598,-0.00270866 -0.00458268,-0.00416929 -0.00146063,-0.00145669 -0.00283465,-0.003 -0.00416929,-0.00458268 -0.00133465,-0.00158268 -0.0025,-0.00325197 -0.00362598,-0.00492126 -0.00114173,-0.00170472 -0.0022126,-0.00348425 -0.00317717,-0.00529134 -0.000917323,-0.00179528 -0.00179134,-0.00362992 -0.00258268,-0.00550394 -0.000791339,-0.00187402 -0.00146063,-0.00383465 -0.00208661,-0.00575197 -0.000622047,-0.00191732 -0.00108268,-0.00416929 -0.0015,-0.00596063 -0.000417323,-0.00179528 -0.000708661,-0.00416929 -0.000917323,-0.00604724 -0.000185039,-0.00206299 -0.000295276,-0.00417323 -0.000295276,-0.00625591 0,-0.00208268 0.000110236,-0.00418898 0.00030315,-0.00625591 0.000208661,-0.002 0.000543307,-0.00416929 0.000917323,-0.00604331 0.000374016,-0.00187795 0.000917323,-0.00416929 0.0015,-0.00596063 0.000582677,-0.00179528 0.00129134,-0.00387795 0.00208661,-0.00575591 0.000791339,-0.00187402 0.00166535,-0.00370866 0.00258268,-0.0055 0.000956693,-0.00181102 0.00202756,-0.00359055 0.00316142,-0.00529528 0.00112598,-0.00166929 0.00233465,-0.00333465 0.00362992,-0.00491732 0.00129134,-0.00158661 0.00270866,-0.00312992 0.00416535,-0.00458661 0.00146063,-0.00145669 0.00300394,-0.00283465 0.00458661,-0.00416929 0.0015748,-0.00128346 0.00323228,-0.00251181 0.0049252,-0.00362598 0.00172047,-0.0011378 0.0034685,-0.0021811 0.00524803,-0.00312598 0.00179134,-0.000956693 0.00366929,-0.00183465 0.00554331,-0.00262598 0.00187795,-0.000791339 0.00383465,-0.00146063 0.00575197,-0.00208268 0.00192126,-0.000625984 0.00416929,-0.00108661 0.00596457,-0.00150394 0.00179134,-0.000413386 0.00416929,-0.000708661 0.00604331,-0.000917323 0.00206693,-0.000188976 0.00416929,-0.000287402 0.00625591,-0.000287402 0.00208268,0 0.00418504,9.84252e-005 0.00625591,0.000291339 0.002,0.000208661 0.00416929,0.00053937 0.00604331,0.000917323 0.00187402,0.000374016 0.00416929,0.000917323 0.00596063,0.0015 0.00179134,0.000582677 0.00387795,0.00129134 0.00575197,0.00208268 0.00187795,0.000791339 0.0037126,0.00166929 0.00550394,0.00262598 0.00179134,0.00096063 0.00358268,0.00200394 0.00529528,0.00312992 0.00170866,0.00112598 0.00333465,0.00233465 0.00491732,0.00362598 0.00158661,0.00129134 0.00312598,0.00270866 0.00458661,0.00416929 0.00145669,0.00146063 0.00279134,0.003 0.00416929,0.00458661 0.00137402,0.00158268 0.0025,0.00324803 0.00362598,0.00491732 0.00112992,0.00170866 0.00216929,0.00347638 0.00312205,0.00529134 0.000944882,0.00180709 0.00182283,0.00364173 0.00262598,0.00550394 0.000795276,0.00187795 0.00146063,0.00383465 0.00208661,0.00575197 0.000622047,0.00192126 0.00108268,0.00416929 0.0015,0.00596457 0.000417323,0.00179134 0.000708661,0.00416535 0.000917323,0.00604331 0.000188976,0.00206299 0.000299213,0.00416929 0.000299213,0.00625197 0,0.00208268 -0.000110236,0.00419291 -0.00030315,0.00625984 -0.000208661,0.002 -0.00053937,0.00416535 -0.000917323,0.00604331 -0.000374016,0.00187402 -0.000917323,0.00416929 -0.0015,0.00596063 -0.000582677,0.00179134 -0.00129134,0.00387795 -0.00208268,0.00575197 -0.000791339,0.00187795 -0.00166929,0.0037126 -0.00262992,0.00550394 -0.000948819,0.00181102 -0.00198819,0.00357874 -0.00311811,0.00529134 -0.00112598,0.00166535 -0.00237402,0.00333465 -0.00362598,0.00491732 -0.00125197,0.00158661 -0.00270866,0.00312598 -0.00416929,0.00458661 -0.00146063,0.00145669 -0.003,0.00283465 -0.00458661,0.00416929 -0.00158268,0.00133465 -0.00325197,0.0025 -0.00491732,0.00362598 -0.00166929,0.00112598 -0.00350394,0.00216929 -0.00529528,0.00312598 -0.00179134,0.00096063 -0.00362598,0.00183465 -0.0055,0.00262598 -0.00187795,0.000795276 -0.00383858,0.00146063 -0.00575591,0.00208661 -0.00191732,0.000622047 -0.00416929,0.00108268 -0.00596063,0.0015 -0.00179134,0.000417323 -0.00416929,0.000708661 -0.00604331,0.000917323 -0.00187402,0.000208661 -0.00429921,0.000291339 -0.00634252,0.000291339z"/>
   <path id="_136877200" fill="#969594" d="M1.09276 1.23396l-0.491913 0c-0.0345276,0 -0.0625315,-0.0280039 -0.0625315,-0.0625354 0,-0.0345276 0.0280039,-0.0625315 0.0625315,-0.0625315l0.491913 3.93701e-006c0.0345315,-3.93701e-006 0.0625315,0.028 0.0625315,0.0625276 0,0.0345315 -0.028,0.0625354 -0.0625315,0.0625354l0 0z"/>
   <path id="_136877296" fill="#969594" d="M1.09276 1.4549l-0.491913 0c-0.0345276,0 -0.0625315,-0.0280039 -0.0625315,-0.0625354 0,-0.0345276 0.0280039,-0.0625315 0.0625315,-0.0625315l0.491913 3.93701e-006c0.0345315,-3.93701e-006 0.0625315,0.028 0.0625315,0.0625276 0,0.0345315 -0.028,0.0625354 -0.0625315,0.0625354l0 0z"/>
  </g>
 </g>
</svg>
