<?xml version="1.0" encoding="UTF-8"?>
<!DOCTYPE svg PUBLIC "-//W3C//DTD SVG 1.1//EN" "http://www.w3.org/Graphics/SVG/1.1/DTD/svg11.dtd">
<!-- Creator: CorelDRAW -->
<svg xmlns="http://www.w3.org/2000/svg" xml:space="preserve" width="100%" height="100%" shape-rendering="geometricPrecision" text-rendering="geometricPrecision" image-rendering="optimizeQuality" fill-rule="evenodd" clip-rule="evenodd"
viewBox="0 0 0.778453 0.778453"
 xmlns:xlink="http://www.w3.org/1999/xlink">
 <g id="Layer_x0020_1">
  <metadata id="CorelCorpID_0Corel-Layer"/>
  <circle fill="#84C225" cx="0.389227" cy="0.389226" r="0.389226"/>
  <g id="_135609928">
   <path id="_133884768" fill="white" fill-rule="nonzero" d="M0.510575 0.329484c-0.00538583,-0.00415748 -0.00637795,-0.0118898 -0.00222047,-0.0172756 0.00415748,-0.00538189 0.0118898,-0.00637795 0.0172756,-0.00222047 0.0194764,0.0149843 0.0340669,0.0272126 0.0482126,0.0402283 0.0140433,0.0129173 0.027752,0.0267165 0.0454843,0.0448701 0.00435827,0.00448031 0.00462205,0.0114252 0.000858268,0.0162047l1.1811e-005 1.1811e-005c-0.0509606,0.0647126 -0.101799,0.106358 -0.154079,0.127417 -0.0530787,0.0213819 -0.107154,0.0215079 -0.163858,0.00293307 -0.00647638,-0.0021063 -0.0100197,-0.00906299 -0.00791339,-0.0155394 0.0021063,-0.00647638 0.00906299,-0.0100197 0.0155394,-0.00791339 0.0511417,0.016752 0.099685,0.0167323 0.147063,-0.00235433 0.0459213,-0.0185 0.091189,-0.054937 0.137098,-0.111358 -0.0137402,-0.0139882 -0.0251535,-0.0253189 -0.0369016,-0.036126 -0.0137441,-0.0126457 -0.0278386,-0.0244646 -0.0465709,-0.038878z"/>
   <path id="_133884912" fill="white" fill-rule="nonzero" d="M0.308114 0.441756c0.00279921,0.00620866 3.54331e-005,0.0135118 -0.00617717,0.016311 -0.00620866,0.00279921 -0.0135118,3.14961e-005 -0.016311,-0.00617717 -0.00330709,-0.0073189 -0.00604331,-0.0151102 -0.00791732,-0.0232835 -0.00174409,-0.00761417 -0.00273228,-0.0154528 -0.00273228,-0.0234213 0,-0.0313425 0.0127087,-0.0597244 0.0332559,-0.0802717 0.0205472,-0.0205472 0.0489291,-0.0332559 0.0802756,-0.0332559 0.00997244,0 0.0174488,0.000362205 0.0248583,0.00197638 0.00756299,0.00164567 0.0145079,0.00451181 0.0231496,0.00948425 0.00588976,0.00338189 0.00792126,0.0109016 0.00453543,0.0167913 -0.00338189,0.00588976 -0.0109016,0.00792126 -0.0167913,0.00453937 -0.00618504,-0.00355906 -0.0110157,-0.00557874 -0.0161063,-0.00668504 -0.00524016,-0.00114173 -0.0112874,-0.00140157 -0.0196457,-0.00140157 -0.0245236,0 -0.0467323,0.00994488 -0.0628071,0.0260197 -0.0160748,0.0160748 -0.0260157,0.0382795 -0.0260157,0.0628031 0,0.00619685 0.000744094,0.012189 0.00205512,0.0179173 0.00148031,0.00644882 0.00368504,0.0127008 0.00637402,0.0186535z"/>
   <path id="_133885392" fill="white" fill-rule="nonzero" d="M0.468024 0.363669c-0.00383858,-0.00562598 -0.0023937,-0.0132953 0.00323228,-0.0171339 0.00562205,-0.00383465 0.0132913,-0.00238976 0.0171299,0.00323622 0.00657874,0.00964173 0.0100118,0.017874 0.0118228,0.0269331 0.0017126,0.00857874 0.00183071,0.0172244 0.00183071,0.0284803 0,0.0313465 -0.0127087,0.0597323 -0.0332559,0.0802795 -0.0205472,0.0205472 -0.0489331,0.0332559 -0.0802756,0.0332559 -0.0111732,0 -0.0204134,-0.00101575 -0.0292638,-0.00350787 -0.00888583,-0.0025 -0.0170079,-0.00641732 -0.0258976,-0.0122126 -0.00570472,-0.00370472 -0.00732283,-0.0113307 -0.00361811,-0.0170354 0.00370472,-0.00570472 0.0113307,-0.00732283 0.0170315,-0.00361811 0.00675197,0.00439764 0.0127638,0.00732677 0.0191417,0.00912598 0.00641732,0.00180315 0.0135827,0.00253937 0.0226063,0.00253937 0.0245236,0 0.0467323,-0.00994488 0.0628071,-0.0260197 0.0160748,-0.0160748 0.0260197,-0.0382795 0.0260197,-0.0628071 0,-0.00985039 -9.05512e-005,-0.0173307 -0.00135433,-0.0236535 -0.00116535,-0.00584252 -0.00347244,-0.0112874 -0.00795669,-0.0178622z"/>
   <path id="_133943688" fill="white" fill-rule="nonzero" d="M0.458803 0.270295c0.00661024,0.00162598 0.0106496,0.00830315 0.00902362,0.0149134 -0.00162205,0.0066063 -0.00829921,0.0106496 -0.0149094,0.00902362 -0.15089,-0.0375394 -0.218882,0.0375669 -0.28274,0.10811 -0.0011811,0.00130315 -0.00235827,0.00260236 -0.00355906,0.00392913 0.012,0.0120827 0.0230433,0.0233701 0.0340866,0.0346614 0.0135472,0.0138465 0.0270906,0.0276969 0.0422008,0.0428071 0.00482677,0.00482283 0.00482677,0.0126457 0,0.0174685 -0.00482283,0.00482283 -0.0126417,0.00482283 -0.0174685,0 -0.0153031,-0.0153031 -0.0288465,-0.0291496 -0.0423937,-0.043 -0.0135354,-0.0138346 -0.0270709,-0.0276772 -0.0421732,-0.0427756l3.93701e-005 -3.93701e-005c-0.00462992,-0.00462598 -0.00483858,-0.012122 -0.000377953,-0.0169961 0.00334646,-0.00365748 0.00736614,-0.00810236 0.0114055,-0.0125591 0.0686654,-0.0758543 0.141776,-0.156614 0.306866,-0.115543z"/>
  </g>
 </g>
</svg>
