<svg id="hospital" xmlns="http://www.w3.org/2000/svg" width="83.118" height="83.118" viewBox="0 0 83.118 83.118">
  <g id="Group_84" data-name="Group 84">
    <g id="Group_83" data-name="Group 83">
      <path id="Path_31" data-name="Path 31" d="M41.559,0A41.559,41.559,0,1,0,83.118,41.559,41.584,41.584,0,0,0,41.559,0Zm0,79.513A37.954,37.954,0,1,1,79.513,41.559,37.994,37.994,0,0,1,41.559,79.513Z" fill="#fff"/>
    </g>
  </g>
  <g id="Group_86" data-name="Group 86" transform="translate(18.126 18.126)">
    <g id="Group_85" data-name="Group 85">
      <path id="Path_32" data-name="Path 32" d="M117.464,86.82H104.846V74.2a1.8,1.8,0,0,0-1.8-1.8H88.623a1.8,1.8,0,0,0-1.8,1.8V86.82H74.2a1.8,1.8,0,0,0-1.8,1.8v14.42a1.8,1.8,0,0,0,1.8,1.8H86.82v12.618a1.8,1.8,0,0,0,1.8,1.8h14.42a1.8,1.8,0,0,0,1.8-1.8V104.846h12.618a1.8,1.8,0,0,0,1.8-1.8V88.623A1.936,1.936,0,0,0,117.464,86.82Zm-1.7,14.42H103.043a1.8,1.8,0,0,0-1.8,1.8v12.618H90.426V103.043a1.8,1.8,0,0,0-1.8-1.8H76.005V90.426H88.623a1.8,1.8,0,0,0,1.8-1.8V76.005h10.915V88.623a1.8,1.8,0,0,0,1.8,1.8h12.618Z" transform="translate(-72.4 -72.4)" fill="#fff"/>
    </g>
  </g>
</svg>
