<svg id="Layer_1" data-name="Layer 1" xmlns="http://www.w3.org/2000/svg" viewBox="0 0 400 400"><defs><style>.cls-1,.cls-2,.cls-3{fill:none;stroke:#348695;stroke-linecap:round;stroke-miterlimit:10;}.cls-1,.cls-3{stroke-width:4px;}.cls-2{stroke-width:3px;}.cls-3{stroke-dasharray:6;}</style></defs><rect class="cls-1" x="239.4" y="224.74" width="15.91" height="15.91"/><rect class="cls-1" x="239.4" y="257.27" width="15.91" height="15.91"/><rect class="cls-1" x="239.4" y="289.79" width="15.91" height="15.91"/><polyline class="cls-1" points="244.21 230.67 248.87 235.33 264.63 219.57"/><polyline class="cls-1" points="244.21 263.87 248.87 268.52 264.63 252.76"/><polyline class="cls-1" points="244.21 295.91 248.87 300.57 264.63 284.8"/><polyline class="cls-1" points="315.03 353.87 227.46 353.87 227.46 206.3 345.8 206.3 345.8 321.44"/><path class="cls-1" d="M344.18,324.62h0a5.71,5.71,0,0,0-.92,6.79,3.24,3.24,0,0,0,.21.35l-.48-.47a5.71,5.71,0,0,0-8,8.13l-1-1a5.71,5.71,0,1,0-8,8.13l-18.48-18.24a5.72,5.72,0,0,0-8.08,0h0a5.71,5.71,0,0,0,.05,8.08l23.48,23.18,1.48,1.46,5,4.9-5.93-1.85a6.86,6.86,0,0,0-8.6,4.51l-.5,1.58a2.92,2.92,0,0,0,1.91,3.64l32.16,10a9.22,9.22,0,0,0,10.19-2l19.09-19.35a9.2,9.2,0,0,0-.08-13l-1.8-1.78-20.86-20.58-2.62-2.59A5.72,5.72,0,0,0,344.18,324.62Z"/><polyline class="cls-1" points="298.69 337.94 255.69 337.94 255.69 323.49 317.57 323.49 317.57 335.85"/><line class="cls-1" x1="264.63" y1="224.74" x2="333.92" y2="224.74"/><line class="cls-1" x1="264.63" y1="233.1" x2="333.92" y2="233.1"/><line class="cls-1" x1="264.63" y1="240.65" x2="296.62" y2="240.65"/><line class="cls-1" x1="264.63" y1="257.27" x2="333.92" y2="257.27"/><line class="cls-1" x1="264.63" y1="265.62" x2="333.92" y2="265.62"/><line class="cls-1" x1="264.63" y1="273.18" x2="296.62" y2="273.18"/><line class="cls-1" x1="264.63" y1="289.79" x2="333.92" y2="289.79"/><line class="cls-1" x1="264.63" y1="298.15" x2="333.92" y2="298.15"/><line class="cls-1" x1="264.63" y1="305.71" x2="296.62" y2="305.71"/><rect class="cls-2" x="29.7" y="27.7" width="15.91" height="15.91"/><polyline class="cls-2" points="34.51 33.64 39.16 38.3 54.93 22.53"/><rect class="cls-2" x="203.01" y="27.7" width="15.91" height="15.91"/><polyline class="cls-2" points="207.82 33.64 212.48 38.3 228.25 22.53"/><rect class="cls-1" x="30.5" y="206.8" width="15.91" height="15.91"/><polyline class="cls-1" points="35.31 212.73 39.97 217.39 55.73 201.63"/><path class="cls-3" d="M54.55,197c0-.48,0-1,0-1.45a135.1,135.1,0,0,1,3.2-27.92"/><path class="cls-3" d="M223.07,327.78a136.08,136.08,0,0,1-48.19,3.41"/><path class="cls-3" d="M322.07,171.44A135.51,135.51,0,0,1,324.49,197q0,3.51-.18,7"/><path class="cls-3" d="M153.24,68.15c3.84-3,20.77-6.11,36.28-6.11a134.34,134.34,0,0,1,74.31,22.28"/><path class="cls-1" d="M321.07,83.22v27.45a7.5,7.5,0,0,1-7.23,7.74H281.16"/><path class="cls-1" d="M345.12,167.64h.68v0C345.57,167.61,345.35,167.64,345.12,167.64Z"/><path class="cls-1" d="M324.15,146.67a21,21,0,0,1,21-21c.23,0,.45,0,.68,0V91a9.39,9.39,0,0,0-8-9.27V72.59a3.41,3.41,0,0,0-3.41-3.41h-9.94a3.41,3.41,0,0,0-3.41,3.41v10a52.17,52.17,0,0,0-42.38,51.24v11.35a22.51,22.51,0,0,0,22.51,22.51h43.92A21,21,0,0,1,324.15,146.67Z"/><circle class="cls-1" cx="345.12" cy="146.67" r="8.68"/><circle class="cls-1" cx="345.12" cy="146.66" r="20.97"/><path class="cls-1" d="M253.67,146.66,313.8,36a5.58,5.58,0,0,1,10.49,2.6l.19,30.54"/><path class="cls-1" d="M240.9,146.66,305.15,30.9c7.83-14.12,29.31-8.61,29.38,7.53l.15,30.75"/><path class="cls-1" d="M239.06,146.67h16.8a3.77,3.77,0,0,1,3.77,3.77V157a0,0,0,0,1,0,0H235.29a0,0,0,0,1,0,0v-6.57A3.77,3.77,0,0,1,239.06,146.67Z"/><path class="cls-1" d="M219,157h49.28A11.49,11.49,0,0,1,279.8,168.5v0a0,0,0,0,1,0,0H207.54a0,0,0,0,1,0,0v0A11.49,11.49,0,0,1,219,157Z"/><path class="cls-1" d="M81.88,27.7h0a5,5,0,0,1,5,5V133a0,0,0,0,1,0,0h-10a0,0,0,0,1,0,0V32.68a5,5,0,0,1,5-5Z"/><path class="cls-1" d="M53.73,133h56.55a3.89,3.89,0,0,1,3.89,3.89v7.34a0,0,0,0,1,0,0H49.84a0,0,0,0,1,0,0V136.9A3.89,3.89,0,0,1,53.73,133Z"/><polygon class="cls-1" points="49.84 144.25 114.18 144.25 120.82 162.75 42.95 162.75 49.84 144.25"/><path class="cls-1" d="M117.2,152.67l3.62,10.09h31a1.43,1.43,0,0,0,1.43-1.43v-8.66Z"/><path class="cls-1" d="M126.88,68.15h1.66A20.87,20.87,0,0,1,149.41,89v9a0,0,0,0,1,0,0H106a0,0,0,0,1,0,0V89A20.87,20.87,0,0,1,126.88,68.15Z"/><path class="cls-1" d="M95.54,98.8,100.05,133h10.24a3.89,3.89,0,0,1,3.89,3.89v7.34l3,8.43h36.43l6.25-53.87Z"/><rect class="cls-1" x="54.55" y="206.8" width="94.86" height="31.4" rx="2.92"/><rect class="cls-1" x="30.5" y="294.57" width="141.98" height="54.61" rx="2.97"/><path class="cls-1" d="M50.05,273.17H82.89a.9.9,0,0,1,.9.9v11.66a6.6,6.6,0,0,1-6.6,6.6H55.74a6.6,6.6,0,0,1-6.6-6.6V274.07A.9.9,0,0,1,50.05,273.17Z"/><rect class="cls-1" x="75.12" y="305.71" width="54.13" height="22.07" rx="2.33"/><line class="cls-1" x1="67.8" y1="294.57" x2="67.8" y2="349.18"/><line class="cls-1" x1="136.05" y1="294.57" x2="136.05" y2="349.18"/><line class="cls-1" x1="30.5" y1="316.74" x2="67.8" y2="316.74"/><line class="cls-1" x1="42.44" y1="297.75" x2="57.24" y2="297.75"/><line class="cls-1" x1="69.63" y1="224.03" x2="84.44" y2="224.03"/><line class="cls-1" x1="119.67" y1="224.03" x2="134.48" y2="224.03"/><line class="cls-1" x1="146.86" y1="297.75" x2="161.67" y2="297.75"/><line class="cls-1" x1="136.05" y1="316.74" x2="172.48" y2="316.74"/><path class="cls-1" d="M124.73,294.57V281.18a11.66,11.66,0,0,1,11.66-11.66h0a11.66,11.66,0,0,1,11.66,11.66"/><path class="cls-1" d="M55.73,244.65a4.6,4.6,0,0,0-.71,8.42c4.16,2.18,3.54,6.4,0,8.3-3.05,1.66-2.16,5.49.67,7.19"/><path class="cls-1" d="M65.61,244.65a4.6,4.6,0,0,0-.71,8.42c4.16,2.18,3.54,6.4,0,8.3-3.06,1.66-2.16,5.49.66,7.19"/><path class="cls-1" d="M75.6,244.65a4.6,4.6,0,0,0-.72,8.42c4.16,2.18,3.54,6.4.05,8.3-3.06,1.66-2.16,5.49.67,7.19"/></svg>