<svg id="XMLID_1_" xmlns="http://www.w3.org/2000/svg" width="76.647" height="76.071" viewBox="0 0 76.647 76.071">
  <path id="Path_33" data-name="Path 33" d="M15.1,9.09l28.136,5.589a4.718,4.718,0,0,1,3.8,4.663V51.917a4.784,4.784,0,0,1-4.79,4.79H13.5a1.581,1.581,0,0,0,1.6-1.6v-1.6H42.243a1.6,1.6,0,0,0,1.6-1.6V19.342a1.6,1.6,0,0,0-1.246-1.565L15.1,12.348Z" transform="translate(29.614 19.364)" fill="#fff"/>
  <path id="Path_34" data-name="Path 34" d="M24.984,14a1.6,1.6,0,0,1,0,3.194H18.6A1.6,1.6,0,1,1,18.6,14Z" transform="translate(37.292 30.134)" fill="#fff"/>
  <path id="Path_35" data-name="Path 35" d="M24.984,17a1.6,1.6,0,0,1,0,3.194H18.6A1.6,1.6,0,1,1,18.6,17Z" transform="translate(37.292 36.715)" fill="#fff"/>
  <path id="Path_36" data-name="Path 36" d="M24.984,20a1.6,1.6,0,0,1,0,3.194H18.6A1.6,1.6,0,0,1,18.6,20Z" transform="translate(37.292 43.296)" fill="#fff"/>
  <path id="Path_37" data-name="Path 37" d="M16.194,55.307a1.6,1.6,0,1,1-3.194,0V10.6a1.7,1.7,0,0,1,.575-1.246,1.678,1.678,0,0,1,1.341-.319l1.277.255v46.02Z" transform="translate(28.517 19.167)" fill="#fff"/>
  <path id="Path_38" data-name="Path 38" d="M20.678,23v1.6a1.581,1.581,0,0,0,1.6,1.6H9.5a1.581,1.581,0,0,0,1.6-1.6V23Z" transform="translate(20.84 49.877)" fill="#fff"/>
  <path id="Path_39" data-name="Path 39" d="M15.984,5a1.6,1.6,0,1,1,0,3.194H9.6A1.6,1.6,0,0,1,9.6,5Z" transform="translate(17.549 10.392)" fill="#fff"/>
  <path id="Path_40" data-name="Path 40" d="M17.581,9.6a1.581,1.581,0,0,1-1.6,1.6H9.6A1.6,1.6,0,0,1,9.6,8h6.387A1.581,1.581,0,0,1,17.581,9.6Z" transform="translate(17.549 16.973)" fill="#fff"/>
  <path id="Path_41" data-name="Path 41" d="M15.984,11a1.6,1.6,0,1,1,0,3.194H9.6A1.6,1.6,0,0,1,9.6,11Z" transform="translate(17.549 23.553)" fill="#fff"/>
  <path id="Path_42" data-name="Path 42" d="M15.984,14a1.6,1.6,0,1,1,0,3.194H9.6A1.6,1.6,0,0,1,9.6,14Z" transform="translate(17.549 30.134)" fill="#fff"/>
  <path id="Path_43" data-name="Path 43" d="M12.581,15.6a1.581,1.581,0,0,1-1.6,1.6H4.6A1.6,1.6,0,1,1,4.6,14h6.387A1.581,1.581,0,0,1,12.581,15.6Z" transform="translate(6.581 30.134)" fill="#fff"/>
  <path id="Path_44" data-name="Path 44" d="M10.984,5a1.6,1.6,0,0,1,0,3.194H4.6A1.6,1.6,0,1,1,4.6,5Z" transform="translate(6.581 10.392)" fill="#fff"/>
  <path id="Path_45" data-name="Path 45" d="M10.984,8a1.6,1.6,0,0,1,0,3.194H4.6A1.6,1.6,0,1,1,4.6,8Z" transform="translate(6.581 16.973)" fill="#fff"/>
  <path id="Path_46" data-name="Path 46" d="M10.984,11a1.6,1.6,0,1,1,0,3.194H4.6A1.6,1.6,0,1,1,4.6,11Z" transform="translate(6.581 23.553)" fill="#fff"/>
  <path id="Path_47" data-name="Path 47" d="M19.968,21.79a1.6,1.6,0,0,0-1.6-1.6H8.79a1.581,1.581,0,0,0-1.6,1.6V36.162H4V21.79A4.784,4.784,0,0,1,8.79,17h9.581a4.784,4.784,0,0,1,4.79,4.79V36.162H19.968Z" transform="translate(8.775 36.715)" fill="#fff"/>
  <path id="Path_48" data-name="Path 48" d="M7.194,23H23.162v1.6a1.581,1.581,0,0,1-1.6,1.6H5.6A1.581,1.581,0,0,1,4,24.6V23Z" transform="translate(8.775 49.877)" fill="#fff"/>
  <path id="Path_49" data-name="Path 49" d="M5.589.243l35.1,5.333A4.773,4.773,0,0,1,44.711,10.3V28.634l-1.277-.255a1.678,1.678,0,0,0-1.341.319,1.7,1.7,0,0,0-.575,1.246V10.3a1.615,1.615,0,0,0-1.341-1.6L5.078,3.4a.884.884,0,0,0-.287-.032,1.506,1.506,0,0,0-1.022.383,1.527,1.527,0,0,0-.575,1.214V71.461a1.6,1.6,0,0,0,1.6,1.6h7.984v1.6a1.581,1.581,0,0,0,1.6,1.6H4.79A4.784,4.784,0,0,1,0,71.461V4.969A4.7,4.7,0,0,1,1.693,1.329,4.794,4.794,0,0,1,5.589.243Z" transform="translate(0 -0.181)" fill="#fff"/>
</svg>
