<svg id="Layer_1" data-name="Layer 1" xmlns="http://www.w3.org/2000/svg" viewBox="0 0 400 400"><defs><style>.cls-1,.cls-2,.cls-3,.cls-4,.cls-5,.cls-6,.cls-7{fill:none;stroke:#348695;stroke-linecap:round;stroke-width:4px;}.cls-1,.cls-2,.cls-3,.cls-4,.cls-5,.cls-6{stroke-miterlimit:10;}.cls-2{stroke-dasharray:5.87 5.87;}.cls-3{stroke-dasharray:5.76 5.76;}.cls-4{stroke-dasharray:5.43 5.43;}.cls-5{stroke-dasharray:5.83 5.83;}.cls-6{stroke-dasharray:6.54 6.54;}.cls-7{stroke-linejoin:round;}</style></defs><path class="cls-1" d="M219.07,135.41a28.28,28.28,0,1,1-56.55,0c0-22,6.62-21.47,27-21.47C213.89,113.94,219.07,113.94,219.07,135.41Z"/><path class="cls-1" d="M161.26,130.84V105.76A12.84,12.84,0,0,1,174.1,92.92h46.23v37.92"/><path class="cls-1" d="M214.45,168.9h3.87c8.23,0,14.89,7.42,14.89,16.56v77.41c0,9.16-6.68,16.59-14.92,16.59"/><path class="cls-1" d="M161.82,279.46c-8.24,0-14.92-7.43-14.92-16.59V185.46c0-9.14,6.66-16.56,14.88-16.56h6.53"/><polyline class="cls-1" points="165.18 371.95 165.18 245.41 214.93 245.41 214.93 371.07"/><path class="cls-1" d="M173.93,370.07c-7.49,0-13.56,5.43-13.56,12.14h27.12C187.49,375.5,181.42,370.07,173.93,370.07Z"/><path class="cls-1" d="M206.77,370.07c-7.48,0-13.55,5.43-13.55,12.14h27.11C220.33,375.5,214.26,370.07,206.77,370.07Z"/><line class="cls-1" x1="190.35" y1="382.21" x2="190.35" y2="290.93"/><line class="cls-1" x1="165.18" y1="195.22" x2="165.18" y2="245.41"/><line class="cls-1" x1="214.93" y1="195.22" x2="214.93" y2="245.41"/><line class="cls-1" x1="146.9" y1="257.96" x2="165.18" y2="257.96"/><line class="cls-1" x1="214.93" y1="257.96" x2="233.21" y2="257.96"/><line class="cls-1" x1="146.9" y1="248.41" x2="165.18" y2="248.41"/><line class="cls-1" x1="214.93" y1="248.41" x2="233.21" y2="248.41"/><rect class="cls-1" x="167.94" y="167.47" width="22.5" height="10.49" transform="translate(185.83 -76.07) rotate(47.58)"/><rect class="cls-1" x="191.04" y="167.47" width="22.5" height="10.49" transform="translate(466.26 139.87) rotate(132.42)"/><polygon class="cls-1" points="196.71 183.68 193.91 186.41 191.14 186.41 188.29 186.41 185.56 183.68 191.14 178.11 196.71 183.68"/><polygon class="cls-1" points="196.71 224.5 190.72 230.53 184.73 224.5 190.06 187.82 192.28 187.82 196.71 224.5"/><line class="cls-1" x1="175.03" y1="127.38" x2="183.91" y2="127.38"/><line class="cls-1" x1="179.47" y1="134.93" x2="179.47" y2="134.93"/><line class="cls-1" x1="198.57" y1="127.38" x2="207.45" y2="127.38"/><line class="cls-1" x1="203.01" y1="134.93" x2="203.01" y2="134.93"/><path class="cls-1" d="M183.13,149.58a10.84,10.84,0,0,0,7.22,2.34c5.29,0,7.23-2.34,7.23-2.34"/><path class="cls-1" d="M123.43,48.67c.86-.52,1.73-1,2.6-1.51"/><path class="cls-2" d="M131.2,44.39A131.6,131.6,0,0,1,272.26,58.54"/><path class="cls-1" d="M274.55,60.39c.77.64,1.53,1.29,2.29,1.94"/><path class="cls-1" d="M77.21,228.22c-.5-.86-1-1.73-1.49-2.61"/><path class="cls-3" d="M73,220.53a131,131,0,0,1-13.85-58.82,134,134,0,0,1,1-16.74"/><path class="cls-1" d="M60.63,142.11c.15-1,.3-2,.47-3"/><path class="cls-1" d="M165.18,290.75c-1-.2-2-.4-2.93-.62"/><path class="cls-4" d="M157,288.85A130.72,130.72,0,0,1,129.19,278"/><path class="cls-1" d="M126.8,276.69l-2.6-1.49"/><path class="cls-1" d="M277.51,260.49c-.75.66-1.51,1.32-2.28,2"/><path class="cls-5" d="M270.69,266.1A131.07,131.07,0,0,1,221,289.71"/><path class="cls-1" d="M218.16,290.35l-2.94.59"/><path class="cls-1" d="M320.18,138.57c.17,1,.33,2,.49,3"/><path class="cls-6" d="M321.5,148a132.92,132.92,0,0,1-4,48.62"/><path class="cls-1" d="M316.61,199.78c-.29,1-.59,1.92-.9,2.86"/><rect class="cls-1" x="43.94" y="31.84" width="12.46" height="12.46"/><rect class="cls-1" x="43.94" y="57.31" width="12.46" height="12.46"/><rect class="cls-1" x="43.94" y="82.79" width="12.46" height="12.46"/><polyline class="cls-1" points="47.7 36.48 51.35 40.13 63.7 27.79"/><polyline class="cls-1" points="47.7 62.48 51.35 66.13 63.7 53.78"/><polyline class="cls-1" points="47.7 87.58 51.35 91.22 63.7 78.88"/><line class="cls-7" x1="66.44" y1="31.84" x2="110.74" y2="31.84"/><line class="cls-7" x1="66.44" y1="38.38" x2="110.74" y2="38.38"/><line class="cls-7" x1="66.44" y1="44.3" x2="86.89" y2="44.3"/><line class="cls-7" x1="66.44" y1="57.31" x2="110.74" y2="57.31"/><line class="cls-7" x1="66.44" y1="63.86" x2="110.74" y2="63.86"/><line class="cls-7" x1="66.44" y1="69.78" x2="86.89" y2="69.78"/><line class="cls-7" x1="66.44" y1="82.79" x2="110.74" y2="82.79"/><line class="cls-7" x1="66.44" y1="89.33" x2="110.74" y2="89.33"/><line class="cls-7" x1="66.44" y1="95.25" x2="86.89" y2="95.25"/><rect class="cls-1" x="32.15" y="17.79" width="91.28" height="120.78"/><line class="cls-7" x1="334.65" y1="30.19" x2="355.85" y2="30.19"/><line class="cls-7" x1="334.65" y1="40.35" x2="345.25" y2="40.35"/><line class="cls-7" x1="334.65" y1="46.28" x2="355.85" y2="46.28"/><line class="cls-7" x1="286.89" y1="107.64" x2="355.85" y2="107.64"/><line class="cls-7" x1="286.89" y1="117" x2="355.85" y2="117"/><line class="cls-7" x1="286.89" y1="126.94" x2="355.85" y2="126.94"/><line class="cls-7" x1="334.65" y1="52.39" x2="355.85" y2="52.39"/><line class="cls-7" x1="334.65" y1="58.32" x2="355.85" y2="58.32"/><line class="cls-7" x1="286.89" y1="96.58" x2="286.89" y2="71.53"/><line class="cls-7" x1="300.07" y1="96.58" x2="300.07" y2="85.02"/><line class="cls-7" x1="313.25" y1="96.58" x2="313.25" y2="71.53"/><line class="cls-7" x1="326.43" y1="96.58" x2="326.43" y2="71.53"/><line class="cls-7" x1="339.61" y1="96.58" x2="339.61" y2="85.02"/><line class="cls-7" x1="352.79" y1="96.58" x2="352.79" y2="85.02"/><rect class="cls-1" x="276.56" y="17.79" width="91.28" height="120.78"/><rect class="cls-7" x="285.34" y="30.19" width="41.45" height="29.76"/><polygon class="cls-7" points="123.44 283.51 71.6 283.51 78.71 300.76 51.53 283.51 32.15 283.51 32.15 228.22 123.44 228.22 123.44 283.51"/><line class="cls-7" x1="43.32" y1="241.26" x2="112.27" y2="241.26"/><line class="cls-7" x1="43.32" y1="250.56" x2="112.27" y2="250.56"/><line class="cls-7" x1="43.32" y1="259.86" x2="112.27" y2="259.86"/><line class="cls-7" x1="43.32" y1="269.17" x2="87.27" y2="269.17"/><circle class="cls-7" cx="322.2" cy="248.93" r="45.64"/><polyline class="cls-1" points="301.2 257.19 310.78 266.77 343.21 234.35"/></svg>