<svg xmlns="http://www.w3.org/2000/svg" width="414" height="35.41" viewBox="0 0 414 35.41">
  <g id="Group_70" data-name="Group 70" transform="translate(-738 -5816.129)">
    <path id="Icon_awesome-facebook-f" data-name="Icon awesome-facebook-f" d="M18.693,19.2l.948-6.177H13.713V9.014c0-1.69.828-3.337,3.483-3.337h2.695V.417A32.861,32.861,0,0,0,15.107,0C10.226,0,7.035,2.959,7.035,8.315v4.708H1.609V19.2H7.035V34.133h6.678V19.2Z" transform="translate(736.391 5816.13)" fill="#2a8ea2"/>
    <path id="Icon_awesome-twitter" data-name="Icon awesome-twitter" d="M36.3,11.569c.026.359.026.719.026,1.078,0,10.961-8.342,23.59-23.59,23.59A23.43,23.43,0,0,1,0,32.515a17.151,17.151,0,0,0,2,.1A16.6,16.6,0,0,0,12.3,29.076a8.306,8.306,0,0,1-7.752-5.75,10.456,10.456,0,0,0,1.566.128,8.769,8.769,0,0,0,2.182-.282,8.292,8.292,0,0,1-6.648-8.137v-.1A8.35,8.35,0,0,0,5.39,15.984,8.3,8.3,0,0,1,2.824,4.9a23.567,23.567,0,0,0,17.1,8.676,9.36,9.36,0,0,1-.205-1.9A8.3,8.3,0,0,1,34.063,6a16.324,16.324,0,0,0,5.262-2A8.269,8.269,0,0,1,35.68,8.566a16.621,16.621,0,0,0,4.774-1.283A17.823,17.823,0,0,1,36.3,11.569Z" transform="translate(816.906 5814.026)" fill="#2a8ea2"/>
    <path id="Icon_awesome-instagram" data-name="Icon awesome-instagram" d="M17.707,10.864a9.079,9.079,0,1,0,9.079,9.079A9.064,9.064,0,0,0,17.707,10.864Zm0,14.981a5.9,5.9,0,1,1,5.9-5.9,5.913,5.913,0,0,1-5.9,5.9ZM29.275,10.493a2.118,2.118,0,1,1-2.118-2.118A2.113,2.113,0,0,1,29.275,10.493Zm6.013,2.149c-.134-2.837-.782-5.349-2.86-7.419S27.845,2.5,25.008,2.362C22.085,2.2,13.322,2.2,10.4,2.362,7.57,2.5,5.057,3.144,2.979,5.214S.261,9.8.119,12.634c-.166,2.923-.166,11.686,0,14.609.134,2.837.782,5.349,2.86,7.419s4.583,2.718,7.419,2.86c2.923.166,11.686.166,14.609,0,2.837-.134,5.349-.782,7.419-2.86s2.718-4.583,2.86-7.419c.166-2.923.166-11.678,0-14.6ZM31.511,30.38a5.976,5.976,0,0,1-3.366,3.366c-2.331.924-7.862.711-10.438.711s-8.115.205-10.438-.711A5.976,5.976,0,0,1,3.9,30.38c-.924-2.331-.711-7.862-.711-10.438S2.987,11.828,3.9,9.5A5.976,5.976,0,0,1,7.27,6.139c2.331-.924,7.862-.711,10.438-.711s8.115-.205,10.438.711A5.976,5.976,0,0,1,31.511,9.5c.924,2.331.711,7.862.711,10.438S32.435,28.057,31.511,30.38Z" transform="translate(917.534 5813.892)" fill="#2a8ea2"/>
    <path id="Icon_awesome-youtube" data-name="Icon awesome-youtube" d="M43.3,9.247a5.422,5.422,0,0,0-3.815-3.84C36.12,4.5,22.626,4.5,22.626,4.5s-13.494,0-16.859.908a5.422,5.422,0,0,0-3.815,3.84c-.9,3.387-.9,10.454-.9,10.454s0,7.067.9,10.454a5.341,5.341,0,0,0,3.815,3.778c3.365.908,16.859.908,16.859.908s13.494,0,16.859-.908A5.341,5.341,0,0,0,43.3,30.155c.9-3.387.9-10.454.9-10.454s0-7.067-.9-10.454ZM18.213,26.117V13.285L29.491,19.7,18.213,26.117Z" transform="translate(1012.034 5814.165)" fill="#2a8ea2"/>
    <path id="Icon_awesome-linkedin-in" data-name="Icon awesome-linkedin-in" d="M7.923,35.4H.585V11.765H7.923ZM4.25,8.541A4.27,4.27,0,1,1,8.5,4.251,4.286,4.286,0,0,1,4.25,8.541ZM35.39,35.4H28.067v-11.5c0-2.742-.055-6.258-3.816-6.258-3.816,0-4.4,2.979-4.4,6.06V35.4H12.52V11.765h7.038v3.224h.1a7.711,7.711,0,0,1,6.944-3.816c7.427,0,8.793,4.891,8.793,11.244V35.4Z" transform="translate(1116.603 5816.135)" fill="#2a8ea2"/>
  </g>
</svg>
