<?xml version="1.0" encoding="UTF-8"?>
<!DOCTYPE svg PUBLIC "-//W3C//DTD SVG 1.1//EN" "http://www.w3.org/Graphics/SVG/1.1/DTD/svg11.dtd">
<!-- Creator: CorelDRAW -->
<svg xmlns="http://www.w3.org/2000/svg" xml:space="preserve" width="100%" height="100%" style="shape-rendering:geometricPrecision; text-rendering:geometricPrecision; image-rendering:optimizeQuality; fill-rule:evenodd; clip-rule:evenodd"
viewBox="0 0 0.634614 0.554819"
 xmlns:xlink="http://www.w3.org/1999/xlink">
 <defs>
  <style type="text/css">
   <![CDATA[
    .str3 {stroke:#0A0B0C;stroke-width:0.00694488}
    .str0 {stroke:#0A0B0C;stroke-width:0.0208346}
    .str2 {stroke:#0A0B0C;stroke-width:0.0208346;stroke-linecap:round;stroke-linejoin:round}
    .str1 {stroke:#1F1A17;stroke-width:0.0208346;stroke-linecap:round;stroke-linejoin:round}
    .fil0 {fill:none}
    .fil3 {fill:#0A0B0C}
    .fil1 {fill:#72706F}
    .fil2 {fill:white}
   ]]>
  </style>
 </defs>
 <g id="Layer_x0020_1">
  <metadata id="CorelCorpID_0Corel-Layer"/>
  <g id="_121059208">
   <path id="_120943256" class="fil0 str0" d="M0.34872 0.0313465c-0.00538189,-0.0160433 -0.0229094,-0.0247677 -0.0389528,-0.0193858l-0.278421 0.093374c-0.0160433,0.00537795 -0.0247677,0.0229055 -0.0193858,0.0389488l0.127165 0.379189c0.00537795,0.0160394 0.0229055,0.0247638 0.0389488,0.0193858"/>
   <path id="_120843544" class="fil1" d="M0.166677 0.0995827l0.302071 0c0.0150787,0 0.0272874,0.0122756 0.0274134,0.0272441l0.00136614 0.161402 -0.055689 0.0676339 -0.0023937 0.0107047 0.000724409 0.0061811 -0.00649213 -0.00496063c-0.0750827,-3.93701e-006 -0.149839,-0.000334646 -0.224898,-0.000354331 -0.0178898,0 -0.0175079,0.0200512 0.00046063,0.0200276 0.0558661,-0.000125984 0.11174,-0.000251969 0.167614,-0.000374016 -0.00488583,0.0056063 -0.0075,0.0125748 -0.00782677,0.0209173 -0.0529528,-1.9685e-005 -0.105906,-3.93701e-005 -0.15885,-4.72441e-005 -0.0179488,-0.00136614 -0.0171102,0.0205709 -0.00192126,0.0198819l0.153409 -3.93701e-005c-0.0011811,0.00647244 -0.0023622,0.0129449 -0.00354331,0.0194173 -0.0514291,0.000188976 -0.102858,0.00038189 -0.154287,0.000574803 -0.0134843,-0.000480315 -0.0133465,0.0193504 -1.5748e-005,0.0198307 0.0484094,-0.000248031 0.0968189,-0.000496063 0.145232,-0.000740157l-0.0221142 0.0781417 -0.16026 0c-0.0150748,0 -0.0274134,-0.0122598 -0.0274134,-0.0272441l0 -0.390953c0,-0.0149843 0.0123346,-0.0272441 0.0274134,-0.0272441z"/>
   <rect id="_120943424" class="fil2" x="0.212823" y="0.25215" width="0.208417" height="0.0612992" rx="0.00817323" ry="0.00817323"/>
   <path id="_120943520" class="fil3" d="M0.119264 0.213291c-0.0198898,0.00341339 -0.0270472,0.014126 -0.0214843,0.0321339 0.00727165,0.0221772 0.0145551,0.0444094 0.0218268,0.0628937 0.000228346,-0.0198268 0.000456693,-0.0396535 0.000685039,-0.0594764 -0.00532283,-0.0053622 -0.00694882,-0.0153898 -0.000444882,-0.0153819 -0.00019685,-0.00672441 -0.000389764,-0.0134488 -0.000582677,-0.0201693z"/>
   <path id="_120843424" class="fil3" d="M0.431642 0.0813425c-0.0229606,0 -0.0459213,0 -0.0688858,0 -0.0118228,-0.00432677 -0.0236457,-0.00865748 -0.0354685,-0.0129882 -0.0113465,-0.00401181 -0.0161929,0.00287008 -0.0197795,0.0129882 -0.0068189,0 -0.0136378,0 -0.0204606,0 0.00630709,-0.0191969 0.0141142,-0.0415079 0.0450157,-0.0314488 0.0331929,0.0104843 0.0663858,0.0209685 0.0995787,0.0314488z"/>
   <path id="_120943592" class="fil3" d="M0.508713 0.106299c0.0031811,0.00751969 0.0063622,0.016748 0.00954724,0.0242677 0.0318268,0.0100276 0.0636575,0.0200551 0.0954882,0.0300827 0.0089685,-0.0024685 0.0153504,-0.000267717 0.0197795,0.0054685 -0.000228346,-0.0137874 -0.00761811,-0.0223346 -0.0187559,-0.0270039 -0.0352402,-0.0107126 -0.0708228,-0.0221063 -0.106059,-0.032815z"/>
   <polyline id="_120843184" class="fil0 str1" points="0.624209,0.184039 0.466193,0.374748 0.480157,0.389406 0.520681,0.431961 0.624209,0.340693 "/>
   <line id="_120943568" class="fil0 str2" x1="0.588791" y1="0.301189" x2="0.525453" y2= "0.363169" />
   <path id="_120843304" class="fil0 str2" d="M0.507067 0.424406c-0.0113622,0.0163386 -0.0199961,0.0525 -0.0149921,0.0743031 -0.0454055,0.015437 -0.0894449,0.0288228 -0.134854,0.0442638 0.0143031,-0.0458661 0.0299685,-0.0924134 0.0442717,-0.13828 0.0231575,0.00116535 0.0465512,-0.00109449 0.0660709,-0.0108819"/>
   <line id="_120943472" class="fil0 str2" x1="0.446925" y1="0.455697" x2="0.36313" y2= "0.536138" />
   <circle id="_120713200" class="fil3 str3" cx="0.446272" cy="0.456276" r="0.0173745"/>
   <path id="_120841192" class="fil3" d="M0.438791 0.545213c0.028185,-0.00612598 0.0525118,-0.0153661 0.0542244,-0.0184606 -0.016,0.0257205 -0.0229488,0.0210039 -0.0542244,0.0184606z"/>
  </g>
 </g>
</svg>
