<?xml version="1.0" encoding="UTF-8"?>
<!DOCTYPE svg PUBLIC "-//W3C//DTD SVG 1.1//EN" "http://www.w3.org/Graphics/SVG/1.1/DTD/svg11.dtd">
<!-- Creator: CorelDRAW -->
<svg xmlns="http://www.w3.org/2000/svg" xml:space="preserve" width="100%" height="100%" shape-rendering="geometricPrecision" text-rendering="geometricPrecision" image-rendering="optimizeQuality" fill-rule="evenodd" clip-rule="evenodd"
viewBox="0 0 0.552224 0.552224"
 xmlns:xlink="http://www.w3.org/1999/xlink">
 <g id="Layer_x0020_1">
  <metadata id="CorelCorpID_0Corel-Layer"/>
  <circle fill="#A9ACAF" cx="0.27611" cy="0.27611" r="0.276112"/>
  <g id="_254784832">
   <path id="_254784880" fill="none" stroke="white" stroke-width="0.0138898" stroke-linecap="round" stroke-linejoin="round" d="M0.104972 0.273953c0.0326732,-0.0227008 0.0634882,-0.0443425 0.0958976,-0.0667756 0.00648819,-0.00449213 0.0111142,-0.00481102 0.0162835,-0.00335433"/>
   <path id="_254784976" fill="none" stroke="white" stroke-width="0.0138898" d="M0.217638 0.320724l0 -0.155016c0,-0.00648819 0.00531102,-0.0117992 0.0118031,-0.0117992l0.234933 0c0.00649213,0 0.0117992,0.00531102 0.0117992,0.0117992l0 0.155016c0,0.00648819 -0.00530709,0.0117992 -0.0117992,0.0117992l-0.161484 0"/>
   <path id="_254785072" fill="none" stroke="white" stroke-width="0.0138898" d="M0.348213 0.331457l0 0.0361102c0,0.0135709 0.0110984,0.0246732 0.0246693,0.0246732l0 0c0.0135709,0 0.0246693,-0.0111024 0.0246693,-0.0246732l0 -0.0350433"/>
   <path id="_254785168" fill="none" stroke="white" stroke-width="0.0138898" d="M0.298094 0.335437l0 0.0523937c0,0.0135669 0.0110984,0.0246693 0.0246693,0.0246693l0 0c0.0135709,0 0.0246693,-0.0111024 0.0246693,-0.0246693l0 -0.0553071"/>
   <path id="_254785264" fill="none" stroke="white" stroke-width="0.0138898" d="M0.247976 0.381575l0 0.0174528c0,0.0135669 0.0110984,0.0246693 0.0246693,0.0246693l0 0c0.0135709,0 0.0246693,-0.0111024 0.0246693,-0.0246693l0 -0.0634331"/>
   <rect id="_254785360" fill="white" x="0.218117" y="0.179501" width="0.257523" height="0.0304886"/>
   <rect id="_254785456" fill="white" x="0.242643" y="0.229087" width="0.208471" height="0.0202606"/>
   <path id="_254785552" fill="none" stroke="white" stroke-width="0.0138898" stroke-linecap="round" stroke-linejoin="round" d="M0.105618 0.423697c0.0444685,-0.0013622 0.0849882,0.0110709 0.120028,-0.0213268 0.0349882,-0.0323425 0.0699803,-0.0646929 0.104972,-0.0970394 0.0213268,-0.0243504 -0.00977559,-0.0515394 -0.0303937,-0.0378543 -0.0291457,0.0190157 -0.055626,0.0353661 -0.0847717,0.0543819 -0.00764173,0.00248819 -0.0135118,-0.00461811 -0.0117323,-0.0111969 0.00474803,-0.00817717 0.00732283,-0.0103071 0.0143976,-0.0197244"/>
  </g>
 </g>
</svg>
