<?xml version="1.0" encoding="UTF-8"?>
<!DOCTYPE svg PUBLIC "-//W3C//DTD SVG 1.1//EN" "http://www.w3.org/Graphics/SVG/1.1/DTD/svg11.dtd">
<!-- Creator: CorelDRAW -->
<svg xmlns="http://www.w3.org/2000/svg" xml:space="preserve" width="100%" height="100%" shape-rendering="geometricPrecision" text-rendering="geometricPrecision" image-rendering="optimizeQuality" fill-rule="evenodd" clip-rule="evenodd"
viewBox="0 0 0.661374 0.478827"
 xmlns:xlink="http://www.w3.org/1999/xlink">
 <g id="Layer_x0020_1">
  <metadata id="CorelCorpID_0Corel-Layer"/>
  <path fill="#0DB89A" d="M0.409382 0c0.0966417,0 0.17502,0.078378 0.17502,0.175028 0,0.0649961 -0.0354528,0.121728 -0.0880748,0.151913 -0.00328346,-0.0265866 -0.0129882,-0.0507244 -0.0409252,-0.0626654 -0.0490433,-0.0185945 -0.0973937,-0.0382283 -0.146437,-0.0568228 -0.0133425,-0.00418504 -0.016752,-0.00712992 -0.0383465,-0.00453937l-0.032563 0.0080315c-0.00241732,-0.0115945 -0.00369685,-0.0236063 -0.00369685,-0.0359173 0,-0.0966496 0.078374,-0.175028 0.175024,-0.175028z"/>
  <path fill="#F7A93B" d="M0.190965 0.266063c0,0.0514646 0,0.102929 0,0.154398 0.0223228,0 0.0446417,0 0.0669646,0 0.0566929,0.00839764 0.0922953,0.0307008 0.15128,0.0527402 0.0164528,0.00815354 0.0319213,0.00682283 0.0433701,0 0.0643031,-0.0388622 0.128606,-0.0777205 0.192913,-0.116579 0.038752,-0.0288228 -0.000996063,-0.0871969 -0.0377047,-0.0653071 -0.0600669,0.0352992 -0.12013,0.0705984 -0.180189,0.105902 -0.027185,-0.010874 -0.0543622,-0.0217441 -0.0815394,-0.0326181 -0.00945276,-0.00905906 -0.00132677,-0.0352717 0.0145748,-0.0267126 0.0198898,0.00774409 0.0397795,0.0154921 0.0596772,0.0232441 0.0400669,0.00989764 0.0626142,-0.0449252 0.027063,-0.067311 -0.0490394,-0.0188543 -0.0980787,-0.0377008 -0.147114,-0.0565551 -0.0162795,-0.00798819 -0.030622,-0.00622441 -0.0444094,-0.00173622 -0.0239646,0.00772441 -0.0616142,0.0198543 -0.0648858,0.0305354z"/>
  <path fill="#0F6F88" d="M-0 0.251035l0.167512 0 0 0.203283 -0.167512 0 0 -0.203283zm0.106878 0.0392598c0.0137283,0 0.0248661,0.0111378 0.0248661,0.0248661 0,0.0137283 -0.0111378,0.0248661 -0.0248661,0.0248661 -0.0137283,0 -0.0248661,-0.0111378 -0.0248661,-0.0248661 0,-0.0137283 0.0111378,-0.0248661 0.0248661,-0.0248661z"/>
  <path fill="white" fill-rule="nonzero" d="M0.341697 0.185335l0 -0.0754528 0.0152323 0 0 0.0335 0.0307795 -0.0335 0.0204843 0 -0.0284055 0.0293898 0.0299528 0.046063 -0.0197126 0 -0.0207323 -0.0354173 -0.0123661 0.0126142 0 0.0228031 -0.0152323 0zm0.0758228 0l0 -0.0144606 0.0144606 0 0 0.0144606 -0.0144606 0zm0.0293386 -0.0754528l0.0278465 0c0.00627165,0 0.0110512,0.000472441 0.0143504,0.00144094 0.00442913,0.00129528 0.00822441,0.00361811 0.0113661,0.00695669 0.00316535,0.00331496 0.00557087,0.0073937 0.00722441,0.0122047 0.00163386,0.00483071 0.00245669,0.0107717 0.00245669,0.0178504 0,0.00620472 -0.000771654,0.0115591 -0.00231496,0.0160591 -0.00188189,0.00548031 -0.00457087,0.0099252 -0.00808268,0.013315 -0.0026378,0.00258268 -0.00620079,0.00458661 -0.0106969,0.00602362 -0.00335827,0.0010748 -0.00785827,0.00160236 -0.0134961,0.00160236l-0.0286535 0 0 -0.0754528zm0.0152323 0.0127677l0 0.0499646 0.0113661 0c0.00425197,0 0.00732677,-0.000228346 0.00922441,-0.000720472 0.00245669,-0.000614173 0.00451181,-0.00164961 0.00614567,-0.00312598 0.00163386,-0.00147638 0.00295669,-0.00391732 0.00398819,-0.00729134 0.00102362,-0.00337402 0.00154724,-0.00799213 0.00154724,-0.0138268 0,-0.00583071 -0.000523622,-0.0102953 -0.00154724,-0.0134213 -0.0010315,-0.00312598 -0.00247638,-0.00556693 -0.0043189,-0.00730709 -0.0018622,-0.00175591 -0.00421654,-0.00293307 -0.00706299,-0.00355118 -0.00212598,-0.000492126 -0.0062874,-0.000720472 -0.0125079,-0.000720472l-0.00683465 0zm0.0608386 0.062685l0 -0.0144606 0.0144567 0 0 0.0144606 -0.0144567 0z"/>
 </g>
</svg>
