<?xml version="1.0" encoding="UTF-8"?>
<!DOCTYPE svg PUBLIC "-//W3C//DTD SVG 1.1//EN" "http://www.w3.org/Graphics/SVG/1.1/DTD/svg11.dtd">
<!-- Creator: CorelDRAW -->
<svg xmlns="http://www.w3.org/2000/svg" xml:space="preserve" width="100%" height="100%" shape-rendering="geometricPrecision" text-rendering="geometricPrecision" image-rendering="optimizeQuality" fill-rule="evenodd" clip-rule="evenodd"
viewBox="0 0 0.554417 0.554417"
 xmlns:xlink="http://www.w3.org/1999/xlink">
 <g id="Layer_x0020_1">
  <metadata id="CorelCorpID_0Corel-Layer"/>
  <rect fill="#D8D7D7" width="0.554417" height="0.554417"/>
  <g id="_257094168">
   <path id="_256978544" fill="none" d="M0.135028 0.132933c0.0750197,-0.0912756 0.207976,-0.0956732 0.286067,-0.000846457"/>
   <path id="_258809616" fill="#646466" d="M0.127618 0.163244c0.0194016,0 0.0351378,0.0157323 0.0351378,0.0351378 0,0.0194055 -0.0157362,0.0351378 -0.0351378,0.0351378 -0.0194055,0 -0.0351378,-0.0157323 -0.0351378,-0.0351378 0,-0.0194055 0.0157323,-0.0351378 0.0351378,-0.0351378zm-0.016685 0.0777756c-0.00534252,0 -0.010685,0 -0.0160236,0 -0.0112008,0.0026811 -0.0181614,0.00866142 -0.023126,0.016185 -0.0042126,0.00639764 -0.00470866,0.00961024 -0.00470866,0.0170276 0,0.014878 0,0.0297559 0,0.0446339 0,0.00974803 -0.000275591,0.013685 0.00471654,0.0220512 0.00250787,0.0042126 0.00523622,0.00837402 0.0083189,0.0124488 0.00766535,0.0101339 0.00847244,0.0103858 0.00847244,0.0234409 0,0.0205276 0,0.0410512 0,0.0615787 0.0268504,0 0.0536969,0 0.0805472,0 0,-0.0223898 0,-0.0447756 0,-0.0671575 0,-0.00882677 0.000562992,-0.00999213 0.00546457,-0.0172087 0.00335433,-0.00495669 0.00647638,-0.0101654 0.00915748,-0.0157992 0.00255118,-0.00535827 0.00266929,-0.00829134 0.00266929,-0.0142047 0,-0.0164921 0,-0.0329764 0,-0.0494685 0,-0.0077126 -0.000728346,-0.0117402 -0.00530709,-0.0183701 -0.00595276,-0.00863386 -0.0137205,-0.0130394 -0.0221063,-0.016 -0.00505906,0 -0.0101181,0 -0.0151772,0 -0.0102717,0.0178543 -0.0266772,0.0106024 -0.0328976,0.00084252z"/>
   <path id="_256590696" fill="#646466" d="M0.276642 0.106512c0.0250118,0 0.0452953,0.0202874 0.0452953,0.0453031 0,0.0250118 -0.0202835,0.0452953 -0.0452953,0.0452953 -0.0250157,0 -0.0453031,-0.0202835 -0.0453031,-0.0452953 0,-0.0250157 0.0202874,-0.0453031 0.0453031,-0.0453031zm-0.0105157 0.107094l0.0244606 0 -0.00590551 0.0177126 0 0.0172913 -0.00674803 0.0265669 -0.0113858 -0.0257244 0.00548425 -0.00084252 -0.00168898 -0.0177126 -0.00590157 -0.00969685 0.00168504 -0.00759449zm-0.0585827 0.0169685c-0.0049252,0.00748031 -0.00550787,0.0112441 -0.00550787,0.0199134 0,0.0174055 0,0.0348071 0,0.0522087 0,0.0113937 -0.00411417,0.022752 0.00172047,0.0325354 0.00292913,0.00491732 0.00612992,0.00980315 0.00973228,0.014563 0.0116378,0.0153937 0.0170709,0.0179685 0.0170709,0.0378819 0,0.0275472 0,0.0747008 0,0.0957087 0.0314016,0 0.0628071,0 0.0942047,0 0,-0.026185 0,-0.0827283 0,-0.108906 0,-0.0103228 0.00952362,-0.0116929 0.015248,-0.0201299 0.0039252,-0.0057874 0.00758661,-0.0118898 0.0107126,-0.0184724 0.00298031,-0.00625984 0.00311811,-0.00970472 0.00311811,-0.0166142 0,-0.0192913 0,-0.0491181 0,-0.0684055 0,-0.00901969 -0.000858268,-0.0137323 -0.00620472,-0.0214843 -0.00696063,-0.0100906 -0.0160472,-0.015252 -0.0258543,-0.0187165 -0.0371457,0 -0.0264488,0.0760827 -0.044252,0.0764134 -0.0101063,0.000185039 -0.021252,-0.0712205 -0.0296732,-0.0754567 -0.00842126,-0.00424016 -0.0312598,0.00522835 -0.040315,0.0189606z"/>
   <path id="_258810000" fill="#646466" d="M0.428201 0.163244c0.0194016,0 0.0351378,0.0157323 0.0351378,0.0351378 0,0.0194055 -0.0157362,0.0351378 -0.0351378,0.0351378 -0.0194055,0 -0.0351417,-0.0157323 -0.0351417,-0.0351378 0,-0.0194055 0.0157362,-0.0351378 0.0351417,-0.0351378zm-0.0178465 0.0777756c-0.00534252,0 -0.010685,0 -0.0160236,0 -0.0112008,0.0026811 -0.0181614,0.00866142 -0.023126,0.016185 -0.0042126,0.00639764 -0.00470866,0.00961024 -0.00470866,0.0170276 0,0.014878 0,0.0297559 0,0.0446339 0,0.00974803 -0.000275591,0.013685 0.00471654,0.0220512 0.00250787,0.0042126 0.00523622,0.00837402 0.0083189,0.0124488 0.00766535,0.0101339 0.00847244,0.0103858 0.00847244,0.0234409 0,0.0205276 0,0.0410512 0,0.0615787 0.0268504,0 0.0536969,0 0.0805472,0 0,-0.0223898 0,-0.0447756 0,-0.0671575 0,-0.00882677 0.000562992,-0.00999213 0.00546457,-0.0172087 0.00335827,-0.00495669 0.00648031,-0.0101654 0.00915748,-0.0157992 0.00255118,-0.00535827 0.00266929,-0.00829134 0.00266929,-0.0142047 0,-0.0164921 0,-0.0329764 0,-0.0494685 0,-0.0077126 -0.000728346,-0.0117402 -0.00530709,-0.0183701 -0.00595276,-0.00863386 -0.0137205,-0.0130394 -0.0221063,-0.016 -0.00505906,0 -0.0101181,0 -0.0151772,0 -0.0102717,0.0178543 -0.0266772,0.0106024 -0.0328976,0.00084252z"/>
  </g>
 </g>
</svg>
