<svg id="happy_1_" data-name="happy (1)" xmlns="http://www.w3.org/2000/svg" width="82.232" height="82.232" viewBox="0 0 82.232 82.232">
  <g id="Group_88" data-name="Group 88">
    <g id="Group_87" data-name="Group 87">
      <path id="Path_50" data-name="Path 50" d="M229.363,112a5.363,5.363,0,1,0,5.363,5.363A5.369,5.369,0,0,0,229.363,112Zm0,7.151a1.788,1.788,0,1,1,1.788-1.788A1.789,1.789,0,0,1,229.363,119.151Z" transform="translate(-173.946 -86.973)" fill="#fff"/>
      <path id="Path_51" data-name="Path 51" d="M101.363,122.726A5.363,5.363,0,1,0,96,117.363,5.369,5.369,0,0,0,101.363,122.726Zm0-7.151a1.788,1.788,0,1,1-1.788,1.788A1.789,1.789,0,0,1,101.363,115.575Z" transform="translate(-74.548 -86.973)" fill="#fff"/>
      <path id="Path_52" data-name="Path 52" d="M41.116,0A41.116,41.116,0,1,0,82.232,41.116,41.162,41.162,0,0,0,41.116,0Zm0,78.656A37.541,37.541,0,1,1,78.656,41.116,37.583,37.583,0,0,1,41.116,78.656Z" fill="#fff"/>
      <path id="Path_53" data-name="Path 53" d="M133.541,208H97.788A1.787,1.787,0,0,0,96,209.788a19.664,19.664,0,0,0,39.328,0A1.787,1.787,0,0,0,133.541,208Zm-17.876,17.876a16.11,16.11,0,0,1-15.989-14.3h31.977A16.11,16.11,0,0,1,115.664,225.876Z" transform="translate(-74.548 -161.521)" fill="#fff"/>
    </g>
  </g>
</svg>
