<?xml version="1.0" encoding="UTF-8"?>
<!DOCTYPE svg PUBLIC "-//W3C//DTD SVG 1.1//EN" "http://www.w3.org/Graphics/SVG/1.1/DTD/svg11.dtd">
<!-- Creator: CorelDRAW -->
<svg xmlns="http://www.w3.org/2000/svg" xml:space="preserve" width="100%" height="100%" shape-rendering="geometricPrecision" text-rendering="geometricPrecision" image-rendering="optimizeQuality" fill-rule="evenodd" clip-rule="evenodd"
viewBox="0 0 0.968992 0.84787"
 xmlns:xlink="http://www.w3.org/1999/xlink">
 <g id="Layer_x0020_1">
  <metadata id="CorelCorpID_0Corel-Layer"/>
  <g id="download.png">
   <path id="_137813080" fill="#969594" d="M0.908429 0.4845c-3.93701e-006,-3.93701e-006 -2.3622e-005,-3.93701e-006 -3.14961e-005,-3.93701e-006 -0.0334252,0 -0.0605276,0.0271063 -0.0605276,0.0605276 0,7.87402e-006 0,3.14961e-005 0,3.93701e-005l0 0.181685 -0.726744 0 0 -0.181689c0,-0.0334409 -0.027122,-0.060563 -0.060563,-0.060563 -0.0334409,0 -0.060563,0.027122 -0.060563,0.060563l0 0.242248c0,3.93701e-006 0,2.75591e-005 0,3.54331e-005 0,0.0334213 0.0271063,0.0605276 0.0605276,0.0605276 7.87402e-006,0 3.14961e-005,0 3.93701e-005,0l0.847862 0c7.87402e-006,0 2.75591e-005,0 3.54331e-005,0 0.0334252,0 0.0605276,-0.0271063 0.0605276,-0.0605276 0,-7.87402e-006 0,-3.14961e-005 0,-3.93701e-005l0 -0.242244c0,-3.93701e-006 0,-2.75591e-005 0,-3.54331e-005 0,-0.0334213 -0.0271024,-0.0605276 -0.0605276,-0.0605276 -7.87402e-006,0 -2.75591e-005,0 -3.54331e-005,0l0 3.93701e-006z"/>
   <path id="_137814664" fill="#969594" d="M0.441677 0.587878c0.0113543,0.0113504 0.0267598,0.0177441 0.0428189,0.0177441 0.016063,0 0.0314646,-0.0063937 0.0428189,-0.017748l0.181685 -0.181685c0.0112756,-0.0113346 0.0176181,-0.0266969 0.0176181,-0.0426969 0,-0.033437 -0.0271142,-0.0605551 -0.0605551,-0.0605551 -0.0159961,0 -0.0313622,0.00634252 -0.0427008,0.0176181l-0.0783031 0.0783031 0 -0.338295c0,-0.0334409 -0.027122,-0.060563 -0.060563,-0.060563 -0.0334409,0 -0.060563,0.027122 -0.060563,0.060563l0 0.338295 -0.0783031 -0.0783031c-0.0113386,-0.0112756 -0.0267008,-0.0176181 -0.0427008,-0.0176181 -0.033437,0 -0.0605551,0.0271181 -0.0605551,0.0605551 0,0.016 0.00634252,0.0313622 0.0176181,0.0427047l0.181685 0.181681z"/>
  </g>
 </g>
</svg>
