<?xml version="1.0" encoding="UTF-8"?>
<!DOCTYPE svg PUBLIC "-//W3C//DTD SVG 1.1//EN" "http://www.w3.org/Graphics/SVG/1.1/DTD/svg11.dtd">
<!-- Creator: CorelDRAW -->
<svg xmlns="http://www.w3.org/2000/svg" xml:space="preserve" width="100%" height="100%" style="shape-rendering:geometricPrecision; text-rendering:geometricPrecision; image-rendering:optimizeQuality; fill-rule:evenodd; clip-rule:evenodd"
viewBox="0 0 0.447268 0.447268"
 xmlns:xlink="http://www.w3.org/1999/xlink">
 <defs>
  <style type="text/css">
   <![CDATA[
    .fil1 {fill:#7B7B7B}
    .fil0 {fill:#D4D4D4}
   ]]>
  </style>
 </defs>
 <g id="Layer_x0020_1">
  <metadata id="CorelCorpID_0Corel-Layer"/>
  <g id="_121570920">
   <circle id="_121571016" class="fil0" cx="0.223634" cy="0.223634" r="0.223634"/>
   <path id="_121570944" class="fil1" d="M0.101748 0.286165c0.0840197,0.00405906 0.16678,0.00432283 0.248012,0 0.0268189,0 0.048752,0.021937 0.048752,0.0487559 0,0.00935433 0,0.0187087 0,0.0280709 -0.0409764,0.0513504 -0.104087,0.0842756 -0.174874,0.0842756 -0.0683976,0 -0.129622,-0.0307244 -0.170646,-0.0791181 0,-0.0110827 0,-0.0221535 0,-0.0332283 0,-0.0268189 0.021937,-0.0487559 0.0487559,-0.0487559zm0.118705 -0.188657c0.0468228,0 0.0847913,0.0379685 0.0847913,0.0847913 0,0.0468228 -0.0379685,0.0847913 -0.0847913,0.0847913 -0.0468228,0 -0.0847874,-0.0379685 -0.0847874,-0.0847913 0,-0.0468228 0.0379646,-0.0847913 0.0847874,-0.0847913z"/>
  </g>
 </g>
</svg>
