<?xml version="1.0" encoding="UTF-8"?>
<!DOCTYPE svg PUBLIC "-//W3C//DTD SVG 1.1//EN" "http://www.w3.org/Graphics/SVG/1.1/DTD/svg11.dtd">
<!-- Creator: CorelDRAW -->
<svg xmlns="http://www.w3.org/2000/svg" xml:space="preserve" width="100%" height="100%" style="shape-rendering:geometricPrecision; text-rendering:geometricPrecision; image-rendering:optimizeQuality; fill-rule:evenodd; clip-rule:evenodd"
viewBox="0 0 0.799685 0.791587"
 xmlns:xlink="http://www.w3.org/1999/xlink">
 <defs>
  <style type="text/css">
   <![CDATA[
    .str3 {stroke:#5A76B1;stroke-width:0.0180551}
    .str2 {stroke:#5A76B1;stroke-width:0.0208346;stroke-linecap:round;stroke-linejoin:round}
    .str1 {stroke:#5A76B1;stroke-width:0.0236102;stroke-linecap:round;stroke-linejoin:round}
    .str0 {stroke:#5A76B1;stroke-width:0.0236102;stroke-linecap:round;stroke-linejoin:round;stroke-dasharray:0.047220 0.070831}
    .fil0 {fill:none}
    .fil1 {fill:white}
    .fil2 {fill:#5A76B1;fill-rule:nonzero}
   ]]>
  </style>
 </defs>
 <g id="Layer_x0020_1">
  <metadata id="CorelCorpID_0Corel-Layer"/>
  <circle class="fil0 str0" cx="0.361787" cy="0.42972" r="0.350059"/>
  <circle class="fil0 str1" cx="0.361787" cy="0.429721" r="0.260583"/>
  <circle class="fil1 str1" cx="0.625589" cy="0.174094" r="0.162291"/>
  <g id="_138072240">
   <line id="_138072480" class="fil0 str2" x1="0.561587" y1="0.0881024" x2="0.696181" y2= "0.0881024" />
   <line id="_138072408" class="fil0 str2" x1="0.561587" y1="0.259409" x2="0.696181" y2= "0.259409" />
   <path id="_138072336" class="fil0 str3" d="M0.670307 0.252272c0.000125984,-0.0134528 0.000251969,-0.0269055 0.00038189,-0.0403504 9.05512e-005,-0.0108386 -0.0010315,-0.0101102 -0.00964567,-0.016311 -0.00728346,-0.00524016 -0.0145748,-0.0104843 -0.0218583,-0.0157244 -0.0106181,-0.0076378 -0.00932677,-0.00758268 -0.0200236,-5.11811e-005 -0.00559843,0.00394094 -0.0112008,0.00788976 -0.0167992,0.0118307 -0.0114724,0.0080748 -0.0122244,0.00717323 -0.0122244,0.0215394 0,0.0154016 0,0.0307992 0,0.0462008"/>
   <path id="_138072264" class="fil0 str3" d="M0.670307 0.0966772c0.000125984,0.0134528 0.000251969,0.0269055 0.00038189,0.0403504 9.05512e-005,0.0108386 -0.0010315,0.0101102 -0.00964567,0.016311 -0.00728346,0.00524016 -0.0145748,0.0104843 -0.0218583,0.0157244 -0.0106181,0.0076378 -0.00932677,0.00758268 -0.0200236,5.11811e-005 -0.00559843,-0.00394094 -0.0112008,-0.00788976 -0.0167992,-0.0118307 -0.0114724,-0.0080748 -0.0122244,-0.00717323 -0.0122244,-0.0215394 0,-0.0154016 0,-0.0307992 0,-0.0462008"/>
  </g>
  <path class="fil2" d="M0.345516 0.49063c0,0.000665354 -0.000192913,0.00126772 -0.000511811,0.00181102 -0.000346457,0.000507874 -0.00101575,0.000952756 -0.0019685,0.00130315 -0.000952756,0.000350394 -0.00229134,0.000602362 -0.00397638,0.000795276 -0.00164961,0.000188976 -0.00377953,0.000283465 -0.00632283,0.000283465 -0.00403937,0 -0.00693307,-0.00015748 -0.0087126,-0.000476378 -0.00174803,-0.000318898 -0.00301969,-0.00076378 -0.00381496,-0.00139764 -0.000759843,-0.000637795 -0.00136614,-0.00136614 -0.00181102,-0.00222441l-0.0363976 -0.057189 0 0.057189c0,0.000665354 -0.000188976,0.00127165 -0.000570866,0.00174803 -0.00038189,0.000507874 -0.00101969,0.00092126 -0.00197244,0.00127165 -0.00092126,0.000350394 -0.00216142,0.000602362 -0.00372047,0.000795276 -0.00155512,0.000188976 -0.00352756,0.000283465 -0.00594488,0.000283465 -0.00235039,0 -0.00432283,-9.44882e-005 -0.00590945,-0.000283465 -0.00159055,-0.000192913 -0.0028622,-0.000444882 -0.00378346,-0.000795276 -0.00092126,-0.000350394 -0.00159055,-0.00076378 -0.00200394,-0.00127165 -0.000413386,-0.000476378 -0.000602362,-0.00108268 -0.000602362,-0.00174803l0 -0.113551c0,-0.000665354 0.000188976,-0.00127165 0.000602362,-0.00174803 0.000413386,-0.000507874 0.00108268,-0.00092126 0.00200394,-0.00120866 0.00092126,-0.000314961 0.00219291,-0.000570866 0.00378346,-0.000759843 0.00158661,-0.000192913 0.00355906,-0.000287402 0.00590945,-0.000287402 0.00241732,0 0.00438976,9.44882e-005 0.00594488,0.000287402 0.00155906,0.000188976 0.00279921,0.000444882 0.00372047,0.000759843 0.000952756,0.000287402 0.00159055,0.000700787 0.00197244,0.00120866 0.00038189,0.000476378 0.000570866,0.00108268 0.000570866,0.00174803l0 0.0513386 0.0352874 -0.0512441c0.000444882,-0.000791339 0.000952756,-0.00146063 0.00158661,-0.002 0.000606299,-0.000507874 0.00143307,-0.00092126 0.00241732,-0.00124016 0.000984252,-0.000318898 0.00225591,-0.00053937 0.00381496,-0.000669291 0.00155512,-0.000125984 0.00352756,-0.000188976 0.00597638,-0.000188976 0.00248031,0 0.00451181,9.44882e-005 0.00613386,0.000287402 0.00162205,0.000188976 0.0028937,0.000444882 0.00384646,0.000791339 0.000984252,0.000350394 0.00165354,0.00076378 0.00200394,0.00127165 0.00038189,0.000476378 0.000570866,0.00105118 0.000570866,0.00165354 0,0.00108268 -0.000287402,0.00216142 -0.000826772,0.00327559 -0.000570866,0.00111024 -0.00162205,0.0028937 -0.00317717,0.00530709l-0.033063 0.0432992 0.0360512 0.0544843c0.00136614,0.00254331 0.00219291,0.00422835 0.00244488,0.00508661 0.000287402,0.000826772 0.000448819,0.00149213 0.000448819,0.00200394z"/>
  <path id="1" class="fil2" d="M0.387953 0.480839c0,0.00578346 -0.000984252,0.00966142 -0.00301969,0.0116339 -0.00200394,0.00200394 -0.00562598,0.00298819 -0.0108425,0.00298819 -0.0052126,0 -0.00883465,-0.000984252 -0.0108071,-0.0029252 -0.002,-0.00197244 -0.00298819,-0.00565748 -0.00298819,-0.011126 0,-0.00585039 0.00101969,-0.00975984 0.00301969,-0.0117283 0.00203543,-0.00200394 0.00569291,-0.00298819 0.0109685,-0.00298819 0.00514961,0 0.00870866,0.000984252 0.0107126,0.00292126 0.00197244,0.00197244 0.00295669,0.00569291 0.00295669,0.0112244z"/>
  <path id="12" class="fil2" d="M0.512882 0.432232c0,0.0110315 -0.00146457,0.0205039 -0.00435433,0.0283543 -0.0028937,0.00785433 -0.00702756,0.0142756 -0.0124291,0.0192323 -0.00540551,0.00496063 -0.0119528,0.00861417 -0.0196772,0.010937 -0.00775984,0.0023189 -0.0169449,0.00349606 -0.027626,0.00349606l-0.0287677 0c-0.00206693,0 -0.00378346,-0.000602362 -0.0051811,-0.00181102 -0.00140157,-0.00120866 -0.00209843,-0.0031811 -0.00209843,-0.00591339l0 -0.105063c0,-0.00273228 0.00069685,-0.00470472 0.00209843,-0.00591339 0.00139764,-0.00120472 0.00311417,-0.00181102 0.0051811,-0.00181102l0.0308976 0c0.0107441,0 0.0198661,0.00127165 0.0273386,0.00378346 0.0074685,0.00251181 0.0137953,0.00623228 0.0189134,0.0111575 0.00511811,0.00492913 0.00902756,0.0110315 0.0116969,0.018311 0.00267323,0.00724803 0.00400787,0.0156732 0.00400787,0.0252402zm-0.0253346 0.000826772c0,-0.00572047 -0.000669291,-0.011 -0.00200394,-0.0159252 -0.00133465,-0.00489764 -0.00349606,-0.00915748 -0.00645276,-0.012748 -0.0029252,-0.00359449 -0.00670866,-0.00642126 -0.0113504,-0.0084252 -0.0046063,-0.00203543 -0.0106811,-0.00305118 -0.0182126,-0.00305118l-0.0123661 0 0 0.0819843 0.012748 0c0.00670472,0 0.0123661,-0.000889764 0.0169409,-0.0026063 0.00461024,-0.00174803 0.0084252,-0.00438976 0.0115079,-0.00788583 0.00308268,-0.00349606 0.00537402,-0.00788189 0.00689764,-0.0130945 0.00152756,-0.00521654 0.00229134,-0.0112874 0.00229134,-0.018248z"/>
  <path id="123" class="fil2" d="M0.554937 0.480839c0,0.00578346 -0.000984252,0.00966142 -0.00301969,0.0116339 -0.00200394,0.00200394 -0.00562598,0.00298819 -0.0108425,0.00298819 -0.0052126,0 -0.00883465,-0.000984252 -0.0108071,-0.0029252 -0.002,-0.00197244 -0.00298819,-0.00565748 -0.00298819,-0.011126 0,-0.00585039 0.00101969,-0.00975984 0.00301969,-0.0117283 0.00203543,-0.00200394 0.00569291,-0.00298819 0.0109685,-0.00298819 0.00514961,0 0.00870866,0.000984252 0.0107126,0.00292126 0.00197244,0.00197244 0.00295669,0.00569291 0.00295669,0.0112244z"/>
 </g>
</svg>
