<?xml version="1.0" encoding="UTF-8"?>
<!DOCTYPE svg PUBLIC "-//W3C//DTD SVG 1.1//EN" "http://www.w3.org/Graphics/SVG/1.1/DTD/svg11.dtd">
<!-- Creator: CorelDRAW -->
<svg xmlns="http://www.w3.org/2000/svg" xml:space="preserve" width="100%" height="100%" shape-rendering="geometricPrecision" text-rendering="geometricPrecision" image-rendering="optimizeQuality" fill-rule="evenodd" clip-rule="evenodd"
viewBox="0 0 8.49998 8.50002"
 xmlns:xlink="http://www.w3.org/1999/xlink">
 <g id="Layer_x0020_1">
  <metadata id="CorelCorpID_0Corel-Layer"/>
  <g id="_121187776">
   <path id="_146611040" fill="#5A76B1" d="M3.53419 8.23156l-2.86315 0c-0.222012,0 -0.402618,-0.180606 -0.402618,-0.402618 0,-0.222012 0.180606,-0.402654 0.402618,-0.402654l0.900976 0c0.0817441,0 0.15852,-0.0318898 0.216189,-0.0897717 0.0588071,-0.0590197 0.0910512,-0.13785 0.0907638,-0.221516l0 -0.00184646c0,-0.222012 0.180606,-0.402654 0.402618,-0.402654l0.53685 0c0.0741457,0 0.134228,-0.0600433 0.134228,-0.134197 0,-0.0741457 -0.0601181,-0.134228 -0.134228,-0.134228l-0.53685 0c-0.37002,0 -0.671039,0.301024 -0.671039,0.671079l0 0.00234252c7.08661e-005,0.0165118 -0.00777559,0.0268425 -0.0124646,0.0315709 -0.00717323,0.00717323 -0.0159094,0.0108268 -0.0260276,0.0108268l-0.901012 0c-0.370016,0 -0.671039,0.301024 -0.671039,0.671047 0,0.37002 0.301024,0.671039 0.671039,0.671039l2.86315 0c0.0741457,0 0.134228,-0.0600433 0.134228,-0.134197 0,-0.0741457 -0.0600827,-0.134228 -0.134228,-0.134228l-3.93701e-006 3.93701e-006z"/>
   <path id="_146610752" fill="#5A76B1" d="M8.00787 1.96841l-0.611811 0c-0.0503543,-0.105717 -0.158236,-0.178969 -0.282913,-0.178969l-0.89476 0c-0.124677,0 -0.232559,0.0732559 -0.282913,0.178969l-0.611811 0c-0.0741457,0 -0.134232,0.0600866 -0.134232,0.134197 0,0.0741496 0.0601181,0.134197 0.134232,0.134197l0.581594 0 0 0.0366142c0,0.259189 0.190764,0.473248 0.443811,0.49789 0.0312087,0.00302362 0.0622874,0.00312598 0.0930039,0.000318898l0 0.57502c0,0.271091 0.208343,0.490898 0.474315,0.500346 0.134657,0.00450787 0.262567,-0.0441063 0.359543,-0.137638 0.0969449,-0.0936063 0.150386,-0.219386 0.150386,-0.35411l0 -0.044748 0.435177 0 -0.236287 2.71734c-0.0064252,0.0738268 0.0482598,0.138921 0.122091,0.145311 0.00394094,0.000354331 0.00787795,0.000496063 0.0117874,0.000496063 0.0688543,0 0.127484,-0.0527008 0.13352,-0.122587l0.239701 -2.75654c0.211287,-0.0552205 0.367677,-0.247717 0.367677,-0.476126l0 -0.357874c0,-0.271339 -0.220772,-0.49211 -0.492106,-0.49211l-3.93701e-006 -3.93701e-006 0 7.87402e-006zm-0.850012 0.134232l0 1.25264c0,0.0612559 -0.0242913,0.118429 -0.0683976,0.160969 -0.0440315,0.0425472 -0.102055,0.0643465 -0.163563,0.0625748 -0.118783,-0.00422441 -0.215409,-0.108378 -0.215409,-0.232138l0 -0.755488c0,-0.0479764 -0.0255984,-0.0922913 -0.067185,-0.116264 -0.0207362,-0.0119685 -0.0438898,-0.0179331 -0.0670433,-0.0179331 -0.0232283,0 -0.0464488,0.00603543 -0.0672598,0.0180748 -0.0407323,0.0236181 -0.0870709,0.0337008 -0.133945,0.0291181 -0.112925,-0.0110079 -0.201417,-0.112354 -0.201417,-0.230748l0 -0.170807c0,-0.0246811 0.0200984,-0.0447441 0.0447441,-0.0447441l0.89476 0c0.0246417,0 0.0447087,0.020063 0.0447087,0.0447441l0 0 0 0 0 3.93701e-006 7.87402e-006 0zm1.07369 0.715748c0,0.123008 -0.099748,0.223154 -0.22265,0.223681 -0.000850394,0 -0.00170472,0 -0.00255512,0l-0.580028 0 0 -0.80524 0.581594 0c0.123327,0 0.223677,0.100354 0.223677,0.223681l0 0.357874 -3.14961e-005 0 -3.93701e-006 0 -3.93701e-006 3.93701e-006z"/>
   <path id="_146334960" fill="#5A76B1" d="M6.03945 3.31054c0.0741063,0 0.134193,-0.0600827 0.134193,-0.134232 0,-0.0741457 -0.0600827,-0.134193 -0.134193,-0.134193l-0.715787 0c-0.0741457,0 -0.134232,0.0600433 -0.134232,0.134193 0,0.0741496 0.0601181,0.134232 0.134232,0.134232l0.715787 0z"/>
   <path id="_146334816" fill="#5A76B1" d="M8.28635 6.86114c-0.271937,-0.464374 -0.776224,-0.776937 -1.35216,-0.776937l-1.07367 0c-0.123366,0 -0.223717,-0.100354 -0.223717,-0.223677l0 -0.178972c0,-0.0480472 -0.0070315,-0.0956299 -0.0206654,-0.141295 0.121016,-0.0897362 0.199642,-0.233626 0.199642,-0.395516 0,-0.271339 -0.220772,-0.492106 -0.492106,-0.492106l-0.223681 0 0 -0.044748c0,-0.124713 -0.0732244,-0.232594 -0.178937,-0.282945l0 -3.83283c0,-0.271339 -0.220776,-0.492106 -0.492106,-0.492106 -0.271374,0 -0.492106,0.220772 -0.492106,0.492106l0 1.47632 -1.65526 0c-0.271374,0 -0.492106,0.220776 -0.492106,0.49211l0 0.357874c0,0.22837 0.15639,0.420909 0.367638,0.476197l0.239701 2.7565c0.00642913,0.0738622 0.0714488,0.128795 0.145346,0.122051 0.0738622,-0.0063937 0.128512,-0.0714843 0.122091,-0.145311l-0.236287 -2.71731 1.50888 0 0 1.01443c-0.10572,0.0503543 -0.178941,0.158236 -0.178941,0.282949l0 0.0447087 -0.223717 0c-0.271339,0 -0.492106,0.220772 -0.492106,0.492106 0,0.161929 0.0786181,0.305815 0.199642,0.395551 -0.0136417,0.0456299 -0.0206654,0.093248 -0.0206654,0.141291l0 1.25264c0,0.863402 0.702398,1.5658 1.56576,1.5658l3.39999 0c0.172689,0 0.313169,-0.140516 0.313169,-0.313169l0 -0.536846c0,-0.282598 -0.075248,-0.547898 -0.206744,-0.777012 -0.00205512,-0.00408268 -0.00436614,-0.00802362 -0.00688976,-0.0118622l-3.93701e-006 3.93701e-006 7.87402e-006 3.93701e-006zm-4.08109 -6.36904c0,-0.123366 0.100319,-0.223681 0.223681,-0.223681 0.123327,0 0.223677,0.100319 0.223677,0.223681l0 3.80261 -0.447358 0 0 -3.80261 0 0zm-1.92215 2.54999c-0.000850394,3.54331e-005 -0.00174016,3.54331e-005 -0.00255512,0 -0.122866,-0.000535433 -0.222689,-0.100673 -0.222689,-0.223681l3.14961e-005 -0.357874c0,-0.123366 0.100319,-0.22372 0.223681,-0.22372l1.65526 0 0 0.805276 -1.65373 0 0 0 -7.87402e-006 0 7.87402e-006 0zm5.94846 5.14473c0,0.024685 -0.0200669,0.044748 -0.044748,0.044748l-1.96841 0c-0.715362,0 -1.29735,-0.581984 -1.29735,-1.29735l0 -0.89476c0,-0.0741102 -0.0601181,-0.134197 -0.134232,-0.134197 -0.0741063,0 -0.134197,0.0600472 -0.134197,0.134197l0 0.89476c0,0.531555 0.266228,1.00207 0.672358,1.28527 -0.631591,-0.0868583 -1.11972,-0.630165 -1.11972,-1.28527l0 -0.89476c0,-0.0741102 -0.0600827,-0.134197 -0.134193,-0.134197 -0.0741457,0 -0.134228,0.0600472 -0.134228,0.134197l0 0.89476c0,0.531555 0.266256,1.00207 0.67235,1.28527 -0.631583,-0.0868583 -1.11972,-0.630138 -1.11972,-1.28524l0 -1.25264c0,-0.0156654 0.00163386,-0.0311772 0.00483071,-0.0463819 0.0131339,0.0011063 0.0264921,0.00163386 0.0399134,0.00163386l1.07369 0c0.0741063,0 0.134193,-0.0600827 0.134193,-0.134228 0,-0.0741102 -0.0600827,-0.134197 -0.134193,-0.134197l-1.07369 0c-0.123331,0 -0.223681,-0.100319 -0.223681,-0.223681 0,-0.123366 0.100354,-0.223681 0.223681,-0.223681l0.357913 0c0.0741063,0 0.134197,-0.0600827 0.134197,-0.134228l0 -0.178937c0,-0.0246811 0.020063,-0.044748 0.0447441,-0.044748l0.715783 0c0.0246811,0 0.0447441,0.0200669 0.0447441,0.044748l0 0.178937c0,0.0741457 0.0601181,0.134228 0.134232,0.134228l0.357874 0c0.123366,0 0.223681,0.100319 0.223681,0.223681 0,0.123366 -0.100319,0.223681 -0.223681,0.223681l-0.178937 0c-0.0741457,0 -0.134228,0.0600827 -0.134228,0.134232 0,0.0741063 0.0601181,0.134193 0.134228,0.134193l0.178937 0c0.0134213,0 0.0267402,-0.000531496 0.0399134,-0.00163386 0.00319685,0.0152008 0.00483071,0.0307165 0.00483071,0.0463819l0 0.178937c0,0.271339 0.220772,0.492106 0.492106,0.492106l1.0737 0c0.390512,0 0.741283,0.173472 0.97935,0.447362l-1.6952 0c-0.220059,0 -0.437386,-0.0560709 -0.628504,-0.162106 -0.0648071,-0.0359409 -0.146551,-0.0126102 -0.182488,0.0521969 -0.0359724,0.0648071 -0.0125709,0.146516 0.0522362,0.182453 0.230854,0.128122 0.493244,0.195839 0.758756,0.195839l1.87539 0c0.069,0.137039 0.114457,0.287992 0.130898,0.447362l-2.00624 0c-0.220059,0 -0.437386,-0.0560709 -0.628472,-0.162106 -0.0648386,-0.0360079 -0.146516,-0.0125709 -0.182488,0.0522362 -0.0359724,0.0648071 -0.0125669,0.146516 0.0522362,0.182453 0.230823,0.128083 0.493173,0.195772 0.758685,0.195772l2.01317 0 0 0.402689 0 0 0 3.93701e-006 -7.87402e-006 7.87402e-006z"/>
  </g>
 </g>
</svg>
