<?xml version="1.0" encoding="UTF-8"?>
<!DOCTYPE svg PUBLIC "-//W3C//DTD SVG 1.1//EN" "http://www.w3.org/Graphics/SVG/1.1/DTD/svg11.dtd">
<!-- Creator: CorelDRAW -->
<svg xmlns="http://www.w3.org/2000/svg" xml:space="preserve" width="100%" height="100%" shape-rendering="geometricPrecision" text-rendering="geometricPrecision" image-rendering="optimizeQuality" fill-rule="evenodd" clip-rule="evenodd"
viewBox="0 0 0.606169 0.610366"
 xmlns:xlink="http://www.w3.org/1999/xlink">
 <g id="Layer_x0020_1">
  <metadata id="CorelCorpID_0Corel-Layer"/>
  <g id="_117353784">
   <path id="_117353952" fill="none" stroke="#5A76B1" stroke-width="0.0152795" d="M0.0832756 0.00865748c0.0171378,0 0.0310354,0.0138976 0.0310354,0.0310433 0,0.0171378 -0.0138976,0.0310354 -0.0310354,0.0310354 -0.0171457,0 -0.0310433,-0.0138976 -0.0310433,-0.0310354 0,-0.0171457 0.0138976,-0.0310433 0.0310433,-0.0310433zm-0.0346496 0.0835118c0.0113937,0.0154252 0.0227874,0.0308425 0.0341811,0.0462677 0.0109646,-0.0150157 0.0219291,-0.0300276 0.0328937,-0.0450433 0.00535433,-0.00391732 0.0200827,0.00357874 0.0304567,0.0140276 0.0122244,0.0123071 0.0107992,0.0226929 0.0107992,0.0383543 0,0.0184094 0,0.0368189 0,0.0552323 0,0.0050315 -0.00411024,0.00914173 -0.00914173,0.00914173 -0.0433386,0 -0.0866772,0 -0.130016,0 -0.0050315,0 -0.00914173,-0.00411024 -0.00914173,-0.00914173 0,-0.0198858 0,-0.0397677 0,-0.0596496 0,-0.0148504 -5.51181e-005,-0.022815 0.0106024,-0.0337323 0.00970866,-0.00994488 0.023189,-0.0179528 0.0293661,-0.0154567z"/>
   <line id="_117353880" fill="none" stroke="#5A76B1" stroke-width="0.0152795" stroke-linecap="round" stroke-linejoin="round" x1="0.0442087" y1="0.15215" x2="0.0442087" y2= "0.209535" />
   <line id="_117353808" fill="none" stroke="#5A76B1" stroke-width="0.0152795" stroke-linecap="round" stroke-linejoin="round" x1="0.120898" y1="0.15215" x2="0.120898" y2= "0.209535" />
  </g>
  <g id="_117353544">
   <path id="_117353712" fill="none" stroke="#5A76B1" stroke-width="0.0152795" d="M0.524799 0.0076378c0.0171378,0 0.0310354,0.0138976 0.0310354,0.0310433 0,0.0171378 -0.0138976,0.0310354 -0.0310354,0.0310354 -0.0171457,0 -0.0310433,-0.0138976 -0.0310433,-0.0310354 0,-0.0171457 0.0138976,-0.0310433 0.0310433,-0.0310433zm-0.0346496 0.0835118c0.0113937,0.0154252 0.0227874,0.0308425 0.0341811,0.0462677 0.0109646,-0.0150157 0.0219291,-0.0300276 0.0328937,-0.0450433 0.00535433,-0.00391732 0.0200827,0.00357874 0.0304567,0.0140276 0.0122244,0.0123071 0.0107992,0.0226929 0.0107992,0.0383543 0,0.0184094 0,0.0368189 0,0.0552323 0,0.0050315 -0.00411024,0.00914173 -0.00914173,0.00914173 -0.0433386,0 -0.0866772,0 -0.130016,0 -0.0050315,0 -0.00914173,-0.00411024 -0.00914173,-0.00914173 0,-0.0198858 0,-0.0397677 0,-0.0596496 0,-0.0148504 -5.51181e-005,-0.022815 0.0106024,-0.0337323 0.00970866,-0.00994488 0.023189,-0.0179528 0.0293661,-0.0154567z"/>
   <line id="_117353640" fill="none" stroke="#5A76B1" stroke-width="0.0152795" stroke-linecap="round" stroke-linejoin="round" x1="0.485732" y1="0.15113" x2="0.485732" y2= "0.208516" />
   <line id="_117353568" fill="none" stroke="#5A76B1" stroke-width="0.0152795" stroke-linecap="round" stroke-linejoin="round" x1="0.562421" y1="0.15113" x2="0.562421" y2= "0.208516" />
  </g>
  <g id="_117353304">
   <path id="_117353472" fill="none" stroke="#5A76B1" stroke-width="0.0152795" d="M0.524799 0.401236c0.0171378,0 0.0310354,0.0138976 0.0310354,0.0310433 0,0.0171378 -0.0138976,0.0310354 -0.0310354,0.0310354 -0.0171457,0 -0.0310433,-0.0138976 -0.0310433,-0.0310354 0,-0.0171457 0.0138976,-0.0310433 0.0310433,-0.0310433zm-0.0346496 0.0835118c0.0113937,0.0154252 0.0227874,0.0308425 0.0341811,0.0462677 0.0109646,-0.0150157 0.0219291,-0.0300276 0.0328937,-0.0450433 0.00535433,-0.00391732 0.0200827,0.00357874 0.0304567,0.0140276 0.0122244,0.0123071 0.0107992,0.0226929 0.0107992,0.0383543 0,0.0184094 0,0.0368189 0,0.0552323 0,0.0050315 -0.00411024,0.00914173 -0.00914173,0.00914173 -0.0433386,0 -0.0866772,0 -0.130016,0 -0.0050315,0 -0.00914173,-0.00411024 -0.00914173,-0.00914173 0,-0.0198858 0,-0.0397677 0,-0.0596496 0,-0.0148504 -5.51181e-005,-0.022815 0.0106024,-0.0337323 0.00970866,-0.00994488 0.023189,-0.0179528 0.0293661,-0.0154567z"/>
   <line id="_117353400" fill="none" stroke="#5A76B1" stroke-width="0.0152795" stroke-linecap="round" stroke-linejoin="round" x1="0.485732" y1="0.544728" x2="0.485732" y2= "0.602114" />
   <line id="_117353328" fill="none" stroke="#5A76B1" stroke-width="0.0152795" stroke-linecap="round" stroke-linejoin="round" x1="0.562421" y1="0.544728" x2="0.562421" y2= "0.602114" />
  </g>
  <g id="_117353064">
   <path id="_117353232" fill="none" stroke="#5A76B1" stroke-width="0.0152795" d="M0.0822559 0.401236c0.0171378,0 0.0310354,0.0138976 0.0310354,0.0310433 0,0.0171378 -0.0138976,0.0310354 -0.0310354,0.0310354 -0.0171457,0 -0.0310433,-0.0138976 -0.0310433,-0.0310354 0,-0.0171457 0.0138976,-0.0310433 0.0310433,-0.0310433zm-0.0346496 0.0835118c0.0113937,0.0154252 0.0227874,0.0308425 0.0341811,0.0462677 0.0109646,-0.0150157 0.0219291,-0.0300276 0.0328937,-0.0450433 0.00535433,-0.00391732 0.0200827,0.00357874 0.0304567,0.0140276 0.0122244,0.0123071 0.0107992,0.0226929 0.0107992,0.0383543 0,0.0184094 0,0.0368189 0,0.0552323 0,0.0050315 -0.00411024,0.00914173 -0.00914173,0.00914173 -0.0433386,0 -0.0866772,0 -0.130016,0 -0.0050315,0 -0.00914173,-0.00411024 -0.00914173,-0.00914173 0,-0.0198858 0,-0.0397677 0,-0.0596496 0,-0.0148504 -5.51181e-005,-0.022815 0.0106024,-0.0337323 0.00970866,-0.00994488 0.023189,-0.0179528 0.0293661,-0.0154567z"/>
   <line id="_117353160" fill="none" stroke="#5A76B1" stroke-width="0.0152795" stroke-linecap="round" stroke-linejoin="round" x1="0.043189" y1="0.544728" x2="0.043189" y2= "0.602114" />
   <line id="_117353088" fill="none" stroke="#5A76B1" stroke-width="0.0152795" stroke-linecap="round" stroke-linejoin="round" x1="0.119878" y1="0.544728" x2="0.119878" y2= "0.602114" />
  </g>
  <g id="_117352680">
   <path id="_117352992" fill="none" stroke="#5A76B1" stroke-width="0.0152795" d="M0.310693 0.188122c0.0233228,0 0.0422362,0.0189134 0.0422362,0.042248 0,0.0233228 -0.0189134,0.0422362 -0.0422362,0.0422362 -0.0233346,0 -0.042248,-0.0189134 -0.042248,-0.0422362 0,-0.0233346 0.0189134,-0.042248 0.042248,-0.042248zm-0.0471575 0.113654c0.0155079,0.0209961 0.0310118,0.0419764 0.0465197,0.0629685 0.0149213,-0.0204331 0.0298425,-0.0408661 0.0447677,-0.0612992 0.0072874,-0.00533465 0.0273307,0.00487008 0.0414488,0.0190906 0.0166378,0.016748 0.0146969,0.0308819 0.0146969,0.0521969 0,0.0250551 0,0.0501102 0,0.0751693 0,0.00684646 -0.00559449,0.0124409 -0.0124409,0.0124409 -0.0589803,0 -0.117965,0 -0.176945,0 -0.00684646,0 -0.0124409,-0.00559449 -0.0124409,-0.0124409 0,-0.027063 0,-0.054122 0,-0.0811811 0,-0.0202126 -7.48031e-005,-0.0310512 0.0144291,-0.0459094 0.0132126,-0.0135315 0.0315591,-0.0244291 0.0399646,-0.0210354z"/>
   <line id="_117352920" fill="none" stroke="#5A76B1" stroke-width="0.0152795" stroke-linecap="round" stroke-linejoin="round" x1="0.257524" y1="0.383406" x2="0.257524" y2= "0.461504" />
   <line id="_117352848" fill="none" stroke="#5A76B1" stroke-width="0.0152795" stroke-linecap="round" stroke-linejoin="round" x1="0.361894" y1="0.383406" x2="0.361894" y2= "0.461504" />
   <line id="_117352776" fill="none" stroke="#5A76B1" stroke-width="0.0152795" stroke-linecap="round" stroke-linejoin="round" x1="0.297902" y1="0.301972" x2="0.297902" y2= "0.347193" />
   <line id="_117352704" fill="none" stroke="#5A76B1" stroke-width="0.0152795" stroke-linecap="round" stroke-linejoin="round" x1="0.322787" y1="0.301972" x2="0.322787" y2= "0.346665" />
  </g>
  <path fill="none" stroke="#5A76B1" stroke-width="0.0152795" d="M0.159177 0.143256l0.29163 0m0.0754528 0.0662795l0 0.19272m0 0.0601614l3.93701e-006 0.0693386m-0.0754567 0l-0.29265 0m-0.0754567 0l0 -0.0672992m0 -0.0611811l0 -0.19272"/>
 </g>
</svg>
