<?xml version="1.0" encoding="UTF-8"?>
<!DOCTYPE svg PUBLIC "-//W3C//DTD SVG 1.1//EN" "http://www.w3.org/Graphics/SVG/1.1/DTD/svg11.dtd">
<!-- Creator: CorelDRAW -->
<svg xmlns="http://www.w3.org/2000/svg" xml:space="preserve" width="100%" height="100%" shape-rendering="geometricPrecision" text-rendering="geometricPrecision" image-rendering="optimizeQuality" fill-rule="evenodd" clip-rule="evenodd"
viewBox="0 0 0.552224 0.552224"
 xmlns:xlink="http://www.w3.org/1999/xlink">
 <g id="Layer_x0020_1">
  <metadata id="CorelCorpID_0Corel-Layer"/>
  <circle fill="#A9ACAF" cx="0.27611" cy="0.27611" r="0.276112"/>
  <g id="_255657168">
   <circle id="_255659856" fill="none" stroke="white" stroke-width="0.0138898" cx="0.269571" cy="0.0937656" r="0.0204971"/>
   <polyline id="_256251368" fill="none" stroke="white" stroke-width="0.0138898" points="0.147862,0.272268 0.26048,0.11272 0.280512,0.112157 0.374287,0.227661 "/>
   <rect id="_256247312" fill="none" stroke="white" stroke-width="0.0138898" transform="matrix(-1.1204 0.227921 -0.221933 -1.15063 0.4704 0.362991)" width="0.325362" height="0.130756" rx="0.0288071" ry="0.0288071"/>
   <path id="_256245920" fill="white" fill-rule="nonzero" d="M0.174984 0.380878c0.00284252,0.0145 -0.00292126,0.0231772 -0.0172362,0.0260157 -0.014315,0.0027874 -0.0228819,-0.00309055 -0.0257244,-0.0176417l-0.0123583 -0.0634134c-0.00284252,-0.0145 0.00288583,-0.0231614 0.0172047,-0.0259449 0.0143307,-0.00280315 0.0229173,0.00305118 0.0257362,0.0175709l0.00273228 0.0139449 -0.0149567 0.00291339 -0.0027126 -0.0139449c-0.000925197,-0.00464961 -0.00353543,-0.00655906 -0.00787008,-0.00576772l-0.000110236 3.93701e-005c-0.00429921,0.000830709 -0.00598819,0.00358661 -0.00508661,0.00827165l0.012378 0.0634134c0.00092126,0.00468898 0.0035315,0.00659843 0.00787402,0.00575197 0.00437008,-0.000850394 0.00609449,-0.00361024 0.00517323,-0.00829528l-0.0027126 -0.0139488 0.0149567 -0.00292913 0.0027126 0.0139646z"/>
   <polygon id="_2562459201" fill="white" fill-rule="nonzero" points="0.191079,0.398622 0.170843,0.294965 0.185799,0.292035 0.203157,0.380972 0.226972,0.376323 0.229846,0.391059 "/>
   <path id="_25624592012" fill="white" fill-rule="nonzero" d="M0.276807 0.361012c0.00284252,0.0145 -0.00292126,0.0231772 -0.0172362,0.0260157 -0.014315,0.0027874 -0.0228819,-0.00309055 -0.0257244,-0.0176417l-0.0123583 -0.0634134c-0.00284252,-0.0145 0.00288583,-0.0231614 0.0172047,-0.0259449 0.0143307,-0.00280315 0.0229173,0.00305118 0.0257362,0.0175709l0.012378 0.0634134zm-0.027315 -0.0605c-0.000925197,-0.00464961 -0.00353543,-0.00655906 -0.00787008,-0.00576772l-0.000110236 3.93701e-005c-0.00429921,0.000830709 -0.00598819,0.00358661 -0.00508661,0.00827165l0.012378 0.0634134c0.00092126,0.00468898 0.0035315,0.00659843 0.00787402,0.00575197 0.00437008,-0.000850394 0.00609449,-0.00361024 0.00517323,-0.00829528l-0.0123583 -0.0634134z"/>
   <path id="_256245920123" fill="white" fill-rule="nonzero" d="M0.276071 0.295323c-0.00284252,-0.0145 0.00288583,-0.0231614 0.0172047,-0.0259449 0.0143307,-0.00280315 0.0229173,0.00305118 0.0257362,0.0175709l0.00273228 0.0139449 -0.0149567 0.00291339 -0.0027126 -0.0139449c-0.000925197,-0.00464961 -0.00353543,-0.00655906 -0.00787008,-0.00576772l-0.000110236 3.93701e-005c-0.00429921,0.000830709 -0.00598819,0.00358661 -0.00508661,0.00827165l0.00184252 0.00940945c0.000905512,0.00461417 0.00666535,0.00935039 0.0173071,0.0142323 0.0106457,0.00482677 0.0168622,0.0118976 0.018689,0.0211969l0.00254331 0.0131181c0.00283858,0.0145354 -0.00288583,0.0232126 -0.0171811,0.026 -0.0143543,0.00276378 -0.022937,-0.00311024 -0.0257795,-0.017626l-0.0027126 -0.0139488 0.0149606 -0.00291339 0.00270866 0.0139449c0.00092126,0.00468898 0.00355512,0.00659843 0.0079252,0.00574803 0.00433858,-0.000846457 0.00604331,-0.0036063 0.00512205,-0.00829134l-0.00230709 -0.0118346c-0.000972441,-0.00501575 -0.0067874,-0.00993701 -0.0174134,-0.014815 -0.0106417,-0.00484646 -0.0168976,-0.0120276 -0.0187638,-0.0215827l-0.00187795 -0.00972047z"/>
   <polygon id="_2562459201234" fill="white" fill-rule="nonzero" points="0.327768,0.264346 0.366559,0.256768 0.369437,0.271524 0.345606,0.276169 0.351394,0.305866 0.371902,0.301862 0.37478,0.316654 0.354291,0.320657 0.360083,0.350354 0.383898,0.345705 0.386772,0.360441 0.348004,0.368004 "/>
   <path id="_25624592012345" fill="white" fill-rule="nonzero" d="M0.377661 0.25461l0.0230433 -0.0045c0.0132874,-0.00256299 0.0213386,0.00342126 0.0241772,0.0179409l0.0117126 0.0600669c0.00282677,0.0144803 -0.00270079,0.0231024 -0.0166102,0.0258543l-0.0220866 0.00429528 -0.0202362 -0.103657zm0.0178386 0.0118228l0.0144764 0.074185 0.00654331 -0.00127165c0.00433465,-0.000850394 0.00604331,-0.00362598 0.0051378,-0.00831102l-0.0117283 -0.0600709c-0.000925197,-0.00472441 -0.00355512,-0.00665354 -0.0078937,-0.00582283l-0.00653543 0.00129134z"/>
  </g>
 </g>
</svg>
