<?xml version="1.0" encoding="UTF-8"?>
<!DOCTYPE svg PUBLIC "-//W3C//DTD SVG 1.1//EN" "http://www.w3.org/Graphics/SVG/1.1/DTD/svg11.dtd">
<!-- Creator: CorelDRAW -->
<svg xmlns="http://www.w3.org/2000/svg" xml:space="preserve" width="100%" height="100%" shape-rendering="geometricPrecision" text-rendering="geometricPrecision" image-rendering="optimizeQuality" fill-rule="evenodd" clip-rule="evenodd"
viewBox="0 0 0.5 0.5"
 xmlns:xlink="http://www.w3.org/1999/xlink">
 <g id="Layer_x0020_1">
  <metadata id="CorelCorpID_0Corel-Layer"/>
  <circle fill="white" cx="0.25" cy="0.25" r="0.249999"/>
  <path fill="#4B87C7" d="M0.488098 0.326287c0.000917323,-0.00285827 0.00174803,-0.00575591 0.00256693,-0.00865748 -0.000814961,0.00290945 -0.00166929,0.00579528 -0.00256693,0.00865748z"/>
  <polygon fill="#387BA5" points="0.490685,0.317579 0.490685,0.317579 0.490669,0.317634 "/>
  <path id="LinkedIn_3_" fill="#605D5C" d="M0.378299 0.243142l0 0.0927126 -0.0537441 -3.93701e-006 0 -0.0865039c0,-0.0217244 -0.00777953,-0.0365591 -0.0272283,-0.0365591 -0.0148583,0 -0.0236929,0.01 -0.0275866,0.0196614 -0.00141732,0.00345276 -0.00177953,0.00826378 -0.00177953,0.0131024l0 0.0902953 -0.0537598 3.93701e-006c0,0 0.000724409,-0.146512 0,-0.161685l0.0537559 0 0 0.0229134c-0.000102362,0.000169291 -0.000248031,0.000358268 -0.000346457,0.000523622l0.000346457 0 0 -0.000523622c0.00714173,-0.011 0.0198976,-0.0267165 0.0484449,-0.0267165 0.0353819,7.87402e-006 0.0618976,0.0231142 0.0618976,0.0727795zm-0.220346 -0.146913c-0.0183898,0 -0.0304213,0.0120669 -0.0304213,0.0279291 0,0.0155236 0.0116811,0.0279528 0.0297126,0.0279528l0.000358268 0c0.018748,0 0.0304094,-0.0124291 0.0304094,-0.0279528 -0.000354331,-0.0158622 -0.0116614,-0.0279291 -0.0300591,-0.0279291zm-0.0272323 0.239626l0.0537441 0 0 -0.161681 -0.0537441 0 0 0.161681z"/>
 </g>
</svg>
