<?xml version="1.0" encoding="UTF-8"?>
<!DOCTYPE svg PUBLIC "-//W3C//DTD SVG 1.1//EN" "http://www.w3.org/Graphics/SVG/1.1/DTD/svg11.dtd">
<!-- Creator: CorelDRAW -->
<svg xmlns="http://www.w3.org/2000/svg" xml:space="preserve" width="100%" height="100%" shape-rendering="geometricPrecision" text-rendering="geometricPrecision" image-rendering="optimizeQuality" fill-rule="evenodd" clip-rule="evenodd"
viewBox="0 0 0.552224 0.552224"
 xmlns:xlink="http://www.w3.org/1999/xlink">
 <g id="Layer_x0020_1">
  <metadata id="CorelCorpID_0Corel-Layer"/>
  <circle fill="#00A439" cx="0.27611" cy="0.27611" r="0.276112"/>
  <g id="_255135440">
   <path id="_255138152" fill="none" stroke="white" stroke-width="0.0138898" stroke-linecap="round" stroke-linejoin="round" d="M0.35822 0.339169l0 0.0801457c0,0.00662992 -0.00559843,0.0120827 -0.0124094,0.0120827l-0.207669 0c-0.00682677,0 -0.0124094,-0.00543701 -0.0124094,-0.0120827l0 -0.250685c0,-0.00664567 0.00660236,-0.0120827 0.0134291,-0.0120827l0.0997559 0"/>
   <line id="_255136976" fill="none" stroke="white" stroke-width="0.0138898" stroke-linecap="round" stroke-linejoin="round" x1="0.157445" y1="0.272343" x2="0.217728" y2= "0.272343" />
   <line id="_254028904" fill="none" stroke="white" stroke-width="0.0138898" stroke-linecap="round" stroke-linejoin="round" x1="0.157445" y1="0.236287" x2="0.198937" y2= "0.236287" />
   <line id="_255656832" fill="none" stroke="white" stroke-width="0.0138898" stroke-linecap="round" stroke-linejoin="round" x1="0.157445" y1="0.200232" x2="0.190303" y2= "0.200232" />
   <line id="_255659016" fill="none" stroke="white" stroke-width="0.0138898" stroke-linecap="round" stroke-linejoin="round" x1="0.256988" y1="0.201248" x2="0.31778" y2= "0.201248" />
   <line id="_255659208" fill="none" stroke="white" stroke-width="0.0138898" stroke-linecap="round" stroke-linejoin="round" x1="0.268516" y1="0.236799" x2="0.31778" y2= "0.236799" />
   <line id="_255660048" fill="none" stroke="white" stroke-width="0.0138898" stroke-linecap="round" stroke-linejoin="round" x1="0.300004" y1="0.271839" x2="0.31778" y2= "0.271839" />
   <line id="_255658296" fill="none" stroke="white" stroke-width="0.0138898" stroke-linecap="round" stroke-linejoin="round" x1="0.377213" y1="0.29015" x2="0.397398" y2= "0.32313" />
   <circle id="_255657744" fill="none" stroke="white" stroke-width="0.0138898" cx="0.32814" cy="0.201927" r="0.100439"/>
   <rect id="_255658704" fill="none" stroke="white" stroke-width="0.0138898" transform="matrix(-0.537895 -0.93931 0.93931 -0.537895 0.430865 0.414401)" width="0.0684724" height="0.0304252" rx="0.0152126" ry="0.0152126"/>
  </g>
 </g>
</svg>
