<?xml version="1.0" encoding="UTF-8"?>
<!DOCTYPE svg PUBLIC "-//W3C//DTD SVG 1.1//EN" "http://www.w3.org/Graphics/SVG/1.1/DTD/svg11.dtd">
<!-- Creator: CorelDRAW -->
<svg xmlns="http://www.w3.org/2000/svg" xml:space="preserve" width="100%" height="100%" shape-rendering="geometricPrecision" text-rendering="geometricPrecision" image-rendering="optimizeQuality" fill-rule="evenodd" clip-rule="evenodd"
viewBox="0 0 0.554417 0.554417"
 xmlns:xlink="http://www.w3.org/1999/xlink">
 <g id="Layer_x0020_1">
  <metadata id="CorelCorpID_0Corel-Layer"/>
  <rect fill="#D8D7D7" width="0.554417" height="0.554417"/>
  <path fill="#646466" fill-rule="nonzero" d="M0.242205 0.0821417c0.0450236,0 0.0857913,0.0182598 0.115299,0.0477677 0.0295118,0.0295079 0.0477677,0.0702756 0.0477677,0.115299 0,0.0450236 -0.0182559,0.0857874 -0.0477677,0.115299 -0.0295079,0.0295079 -0.0702756,0.0477677 -0.115299,0.0477677 -0.0450197,0 -0.0857874,-0.0182598 -0.115295,-0.0477677 -0.0295118,-0.0295118 -0.0477677,-0.0702756 -0.0477677,-0.115299 0,-0.0450236 0.0182559,-0.0857913 0.0477677,-0.115299 0.0295079,-0.0295079 0.0702756,-0.0477677 0.115295,-0.0477677zm-0.020252 0.160898c-0.00241732,0.000377953 -0.00483071,0.000759843 -0.00724803,0.0011378 -0.00170079,0.00645669 -0.00340945,0.0129134 -0.00511417,0.0193661 0.0119409,0.00334646 0.0166142,0.00975591 0.00696063,0.0222205 0.00885433,0.0164685 0.0177126,0.0329409 0.0265669,0.0494134 0.0087126,-0.0167598 0.0174252,-0.0335157 0.0261417,-0.0502717 -0.0107323,-0.0129252 -0.00385433,-0.0182874 0.00667717,-0.0220709 -0.00185039,-0.00626772 -0.00369685,-0.0125315 -0.00554331,-0.0187992 -0.00227165,-0.000472441 -0.00454724,-0.000948819 -0.00681496,-0.00142126 -0.00696457,0.0163307 -0.0139252,0.0326575 -0.0208858,0.0489882 -0.00691732,-0.016189 -0.0138307,-0.032378 -0.0207402,-0.048563zm0.0642126 0.00598031c0.00933465,0.0182835 0.00544882,0.0254803 -0.00511417,0.0270591 0.00464173,0.00361024 0.0049252,0.00911417 0.000854331,0.0165197 -0.0100394,0.0187008 -0.0200787,0.0374016 -0.030122,0.0561063 0.0259724,-0.000771654 0.050563,-0.0110945 0.0727441,-0.0384488 -0.00572047,-0.0181732 0.00225591,-0.0554055 -0.0383622,-0.0612362zm-0.0868504 -0.000251969c-0.00170866,0.00512598 -0.00341339,0.0102559 -0.00511811,0.0153858 -0.00165748,0.00608268 0.00214961,0.0106024 0.00946457,0.0128268 -0.00305118,0.00321654 -0.00519685,0.00681496 -0.00101969,0.0130827 0.0104016,0.0198346 0.0208071,0.0396732 0.0312165,0.0595118 -0.0289409,-0.00262992 -0.0535394,-0.0145591 -0.0729291,-0.0377087 0.00570472,-0.0219646 -0.00325984,-0.0567283 0.0383858,-0.0630984zm-0.00104331 -0.0693858c0.00346063,-0.0104409 0.00718504,-0.0208819 0.0106299,-0.0313268 0.00267323,-0.00748425 0.010874,-0.00939764 0.0187323,-0.00356299 0.00582283,0.00466535 0.0113504,0.00837402 0.0209961,0.000106299 0.00805118,-0.00653937 0.0161929,-0.00383465 0.0197913,0.00496457 0.00405512,0.00993701 0.00822835,0.0198819 0.0122913,0.0298189l0.0140315 0c0.00387795,0 0.00704724,0.00317323 0.00704724,0.00705118l0 0c0,0.00387795 -0.00316929,0.00704724 -0.00704724,0.00704724l-0.111634 0c-0.00387795,0 -0.00705118,-0.00316929 -0.00705118,-0.00704724l0 0c0,-0.00387795 0.00317323,-0.00705118 0.00705118,-0.00705118l0.0151614 0zm0.177398 0.184705l0.036937 0.037311 0.0113819 -0.011378 0.0868898 0.0868937 -0.0376496 0.0376496 -0.0874291 -0.0874291 0.0117638 -0.0117638 -0.0364252 -0.0364291 0.0145315 -0.0148543zm-0.0410748 -0.211268c-0.0236417,-0.0236457 -0.056311,-0.0382756 -0.0923898,-0.0382756 -0.0360748,0 -0.0687441,0.0146299 -0.0923858,0.0382756 -0.0236457,0.0236457 -0.0382756,0.056311 -0.0382756,0.0923898 0,0.0360748 0.0146299,0.0687441 0.0382756,0.0923898 0.0236417,0.0236457 0.056311,0.0382756 0.0923858,0.0382756 0.0360787,0 0.068748,-0.0146299 0.0923898,-0.0382756 0.0236457,-0.0236457 0.0382756,-0.056315 0.0382756,-0.0923898 0,-0.0360787 -0.0146299,-0.0687441 -0.0382756,-0.0923898z"/>
 </g>
</svg>
