<?xml version="1.0" encoding="UTF-8"?>
<!DOCTYPE svg PUBLIC "-//W3C//DTD SVG 1.1//EN" "http://www.w3.org/Graphics/SVG/1.1/DTD/svg11.dtd">
<!-- Creator: CorelDRAW -->
<svg xmlns="http://www.w3.org/2000/svg" xml:space="preserve" width="100%" height="100%" style="shape-rendering:geometricPrecision; text-rendering:geometricPrecision; image-rendering:optimizeQuality; fill-rule:evenodd; clip-rule:evenodd"
viewBox="0 0 0.521339 0.523988"
 xmlns:xlink="http://www.w3.org/1999/xlink">
 <defs>
  <style type="text/css">
   <![CDATA[
    .str0 {stroke:#1F1A17;stroke-width:0.0138898}
    .str2 {stroke:#383431;stroke-width:0.0194449;stroke-linecap:round;stroke-linejoin:round}
    .str1 {stroke:#383431;stroke-width:0.0208346}
    .fil0 {fill:none}
   ]]>
  </style>
 </defs>
 <g id="Layer_x0020_1">
  <metadata id="CorelCorpID_0Corel-Layer"/>
  <path class="fil0 str0" d="M0.0737638 0.182287c-0.0045748,-0.00643701 -0.0111732,-0.00931102 -0.0198071,-0.00355512 -0.0108465,0.010315 -0.0216929,0.0206339 -0.0325354,0.0309488 -0.0074252,0.00705906 -0.0106535,0.0102402 -0.0128858,0.0205787 -0.00262992,0.0121969 -0.00193701,0.0252244 0.00123622,0.038874 0.0283898,0.106606 0.109598,0.185071 0.22122,0.237063 0.0265709,0.012374 0.0603504,0.0179843 0.0827402,-0.0040748 0.00888583,-0.00876378 0.0177795,-0.0175236 0.0266654,-0.0262835 0.00727559,-0.00931496 0.00778346,-0.0172717 0.00152362,-0.0238701 -0.0170984,-0.0169291 -0.0341969,-0.0338583 -0.0512953,-0.0507874 -0.00899213,-0.00948031 -0.0147402,-0.0108346 -0.0223465,-0.00406299 -0.0098189,0.00998819 -0.0196378,0.0199764 -0.0294567,0.0299646 -0.00796457,0.00938976 -0.0176142,0.0114213 -0.0309803,0.00457087 -0.0560039,-0.0304843 -0.0901181,-0.0719252 -0.116303,-0.117319 -0.00552362,-0.0110866 -0.00548819,-0.0220945 0.00660236,-0.0345354 0.00880315,-0.00829528 0.0176063,-0.0165906 0.0264094,-0.0248858 0.00696063,-0.00862992 0.00424409,-0.0159134 -0.00101575,-0.0218386 -0.0165906,-0.0169291 -0.0331811,-0.0338583 -0.0497717,-0.0507874z"/>
  <line class="fil0 str0" x1="0.0443071" y1="0.192445" x2="0.11287" y2= "0.262024" />
  <line class="fil0 str0" x1="0.261169" y1="0.410323" x2="0.329732" y2= "0.479902" />
  <path class="fil0 str1" d="M0.351437 0.0104173c0.0880669,0 0.159484,0.0715394 0.159484,0.159752 0,0.0882126 -0.0714173,0.159752 -0.159484,0.159752 -0.0288976,0 -0.0560079,-0.00770472 -0.0793819,-0.0211693 -0.0177559,0.00228346 -0.0777756,0.0306063 -0.0821732,0.0259724 -0.00424016,-0.0106969 0.0214094,-0.0862559 0.0146063,-0.102378 -0.00806299,-0.0191063 -0.0125354,-0.040126 -0.0125354,-0.0621772 0,-0.0882126 0.0714173,-0.159752 0.159484,-0.159752z"/>
  <line class="fil0 str2" x1="0.266354" y1="0.112933" x2="0.448783" y2= "0.11289" />
  <line class="fil0 str2" x1="0.266354" y1="0.173098" x2="0.448783" y2= "0.173055" />
  <line class="fil0 str2" x1="0.266354" y1="0.234626" x2="0.351933" y2= "0.234583" />
 </g>
</svg>
