<?xml version="1.0" encoding="UTF-8"?>
<!DOCTYPE svg PUBLIC "-//W3C//DTD SVG 1.1//EN" "http://www.w3.org/Graphics/SVG/1.1/DTD/svg11.dtd">
<!-- Creator: CorelDRAW -->
<svg xmlns="http://www.w3.org/2000/svg" xml:space="preserve" width="100%" height="100%" shape-rendering="geometricPrecision" text-rendering="geometricPrecision" image-rendering="optimizeQuality" fill-rule="evenodd" clip-rule="evenodd"
viewBox="0 0 0.65502 0.560516"
 xmlns:xlink="http://www.w3.org/1999/xlink">
 <g id="Layer_x0020_1">
  <metadata id="CorelCorpID_0Corel-Layer"/>
  <path fill="none" stroke="#0A0B0C" stroke-width="0.0333346" stroke-linecap="round" stroke-linejoin="round" d="M0.429772 0.119303c-0.225461,-0.0560906 -0.318937,0.0647874 -0.413185,0.167882 0.0410197,0.0410197 0.0730748,0.0747047 0.114094,0.115724"/>
  <path fill="none" stroke="#0A0B0C" stroke-width="0.0333346" stroke-linecap="round" stroke-linejoin="round" d="M0.513744 0.169862c0.0515512,0.0396575 0.0774094,0.0648858 0.124657,0.113248 -0.133823,0.169937 -0.265209,0.217988 -0.410717,0.170331"/>
  <path fill="none" stroke="#0A0B0C" stroke-width="0.0333346" stroke-linecap="round" stroke-linejoin="round" d="M0.459917 0.219756c0.0149252,0.0218819 0.0154921,0.0369055 0.0154921,0.0653898 0,0.075378 -0.0611299,0.136508 -0.136508,0.136508 -0.0272441,0 -0.0442677,-0.00472441 -0.0653701,-0.0184764m-0.0582598 -0.0618583c-0.00774016,-0.017122 -0.012874,-0.0361496 -0.012874,-0.0561732 0,-0.075374 0.0611299,-0.136504 0.136504,-0.136504 0.0247323,0 0.0365,0.0016811 0.0565039,0.013185"/>
  <line fill="none" stroke="#0A0B0C" stroke-width="0.0333346" stroke-linecap="round" stroke-linejoin="round" x1="0.605803" y1="0.0166181" x2="0.0760787" y2= "0.543898" />
 </g>
</svg>
