<?xml version="1.0" encoding="UTF-8"?>
<!DOCTYPE svg PUBLIC "-//W3C//DTD SVG 1.1//EN" "http://www.w3.org/Graphics/SVG/1.1/DTD/svg11.dtd">
<!-- Creator: CorelDRAW -->
<svg xmlns="http://www.w3.org/2000/svg" xml:space="preserve" width="100%" height="100%" style="shape-rendering:geometricPrecision; text-rendering:geometricPrecision; image-rendering:optimizeQuality; fill-rule:evenodd; clip-rule:evenodd" viewBox="0 0 2.83281 0.744004" xmlns:xlink="http://www.w3.org/1999/xlink">
 <defs>
  <style type="text/css">
   <![CDATA[
    .fil0 {fill:#26A8E0}
    .fil1 {fill:#005E84;fill-rule:nonzero}
   ]]>
  </style>
 </defs>
 <g id="Layer_x0020_1">
  <metadata id="CorelCorpID_0Corel-Layer"/>
  <path class="fil0" d="M0.28272 0.744004l0.0892795 -0.0491024 0 -0.215764 0.251472 0.00148819 0.0729134 0.0297598 0.00148819 0.208323 -0.415154 0.0252953zm0.769299 -0.741028c0.0133937,0.0094252 0.0267835,0.0188504 0.0401772,0.0282717 0.0287677,0 0.0575354,0 0.0863031,0 0,0.0520827 0,0.104161 0,0.156244 -0.0322402,0 -0.0644803,0 -0.0967205,0 -0.0826063,0.123516 -0.0548268,0.355146 0.0491063,0.48211 -0.00297638,0.0114094 -0.00595276,0.0228189 -0.00892913,0.0342244 -0.0981614,-0.129209 -0.168193,-0.244776 -0.200882,-0.34224 -0.0287677,-0.0104173 -0.0575354,-0.0208307 -0.0863031,-0.031248 0.0267835,-0.0277756 0.0535669,-0.0555512 0.0803504,-0.0833268 0.0421614,-0.0163701 0.0843228,-0.0327362 0.12648,-0.0491063 0.00347244,-0.0649764 0.00694488,-0.129953 0.0104173,-0.194929zm-0.751441 0.70978c0.0158701,-0.0128937 0.0317402,-0.0257913 0.0476142,-0.038689 0,-0.077374 0,-0.154752 0,-0.232126 0.093248,0.00297638 0.186496,0.00595276 0.279744,0.0089252 0.0828346,-0.0734055 0.165665,-0.146815 0.248496,-0.220224 0.0451378,-0.014878 0.0902756,-0.0297598 0.135409,-0.0446378 0.00297638,-0.062 0.00595276,-0.124 0.00892913,-0.186004 -0.21824,0.00793701 -0.43648,0.015874 -0.65472,0.023811 -0.12202,0.141358 -0.244035,0.28272 -0.366051,0.424079 0.0934961,0.0116575 0.280736,0.0195945 0.296114,0.0863071 0.00148819,0.0595197 0.00297638,0.119039 0.00446457,0.178559z"/>
  <path class="fil1" d="M1.18542 0.496516l0 -0.239823 0.0900118 0c0.018315,0 0.033,0.00245669 0.0440551,0.00725591 0.0111142,0.00485827 0.0197677,0.0123425 0.0260197,0.0224488 0.00625591,0.0100512 0.00943701,0.0206024 0.00943701,0.0316614 0,0.0102165 -0.00279134,0.019878 -0.00837402,0.0289213 -0.00552756,0.00904724 -0.0139606,0.0163622 -0.025185,0.0219449 0.0145197,0.00424409 0.0256299,0.0115039 0.0334488,0.0217205 0.0078189,0.0102756 0.0117244,0.0223937 0.0117244,0.0363504 0,0.0112244 -0.00239764,0.0216654 -0.00714567,0.0313268 -0.00474803,0.00966142 -0.0106102,0.0170866 -0.0175906,0.0223346 -0.00697638,0.00524803 -0.0157441,0.00915748 -0.0262441,0.0118386 -0.0104961,0.0026811 -0.0233937,0.00401969 -0.0386929,0.00401969l-0.0914646 0zm0.0317717 -0.139035l0.051874 0c0.0140157,0 0.024122,-0.000948819 0.0302638,-0.00279134 0.00804331,-0.00240157 0.0141299,-0.00636614 0.0182047,-0.0119528 0.0040748,-0.00558268 0.00614173,-0.012563 0.00614173,-0.020937 0,-0.00792913 -0.00189764,-0.0149646 -0.00569685,-0.0209961 -0.00385039,-0.00608661 -0.00932283,-0.0102165 -0.0163583,-0.0124528 -0.00709055,-0.00223228 -0.0192638,-0.00335039 -0.0365197,-0.00335039l-0.0479094 0 0 0.0724803zm0 0.110724l0.0596929 0c0.0102717,0 0.0174764,-0.000389764 0.0216102,-0.00111417 0.00731102,-0.00134252 0.0133976,-0.00351969 0.018311,-0.00659055 0.00491732,-0.00301575 0.00893701,-0.00748031 0.0121181,-0.0132874 0.00312598,-0.00586614 0.00474803,-0.0125669 0.00474803,-0.0202165 0,-0.00893307 -0.00229134,-0.0166929 -0.00687008,-0.0233386 -0.00457874,-0.00659055 -0.0109449,-0.0112244 -0.0190945,-0.0139055 -0.00809843,-0.00262205 -0.0198228,-0.00396457 -0.0350669,-0.00396457l-0.0554488 0 0 0.0824173z"/>
  <polygon id="1" class="fil1" points="1.40581,0.496516 1.40581,0.256693 1.43524,0.256693 1.43524,0.496516 "/>
  <path id="12" class="fil1" d="M1.5998 0.440567l0.0304291 0.00374016c-0.00479921,0.017811 -0.0136772,0.0316063 -0.0266339,0.0414331 -0.0130118,0.00977165 -0.0295945,0.014685 -0.049752,0.014685 -0.0254055,0 -0.045563,-0.0078189 -0.0604173,-0.0234528 -0.0149055,-0.0156339 -0.0223346,-0.0375787 -0.0223346,-0.0658346 0,-0.0292559 0.00753937,-0.0519291 0.0225591,-0.068063 0.0150748,-0.0161378 0.034563,-0.0242362 0.0585748,-0.0242362 0.0232283,0 0.0422126,0.00792913 0.0568976,0.0237323 0.0147402,0.0158031 0.0221142,0.0380827 0.0221142,0.0667244 0,0.0017874 -5.90551e-005,0.00441339 -0.000169291,0.00787402l-0.129543 0c0.00105906,0.0190984 0.00647638,0.0337283 0.0161929,0.0438346 0.00971654,0.0101614 0.0217756,0.0152441 0.0362953,0.0152441 0.0107756,0 0.0199882,-0.00285039 0.0276378,-0.00854331 0.00764961,-0.00564173 0.0136811,-0.014685 0.0181496,-0.0271378zm-0.0966575 -0.0476299l0.0969921 0c-0.00128346,-0.0145748 -0.00502756,-0.0255748 -0.0111142,-0.0328346 -0.00937795,-0.0113346 -0.0215512,-0.0170276 -0.0364606,-0.0170276 -0.0135118,0 -0.0249055,0.00451969 -0.0341181,0.0135669 -0.0092126,0.00904724 -0.0142953,0.0211614 -0.0152992,0.0362953z"/>
  <path id="123" class="fil1" d="M1.7806 0.475075c-0.0109449,0.00926772 -0.0214449,0.0158031 -0.0314961,0.0196535 -0.0101063,0.00379921 -0.020937,0.00569685 -0.0324961,0.00569685 -0.0190984,0 -0.0337244,-0.00463386 -0.044,-0.0139606 -0.0102205,-0.00932283 -0.0153543,-0.0212756 -0.0153543,-0.0357362 0,-0.00854331 0.00189764,-0.0163031 0.00580709,-0.0233386 0.00385039,-0.00703543 0.00893307,-0.0126772 0.015185,-0.0169213 0.00631102,-0.00424409 0.0133465,-0.00748031 0.0212205,-0.00965748 0.00575197,-0.00150787 0.0144606,-0.00301575 0.0261299,-0.00441339 0.0237874,-0.00284646 0.0413228,-0.00619685 0.0525472,-0.0101614 0.000110236,-0.00401969 0.000165354,-0.00659055 0.000165354,-0.00764961 0,-0.0120039 -0.00279134,-0.0204921 -0.00837402,-0.0253504 -0.00748425,-0.00670079 -0.0187087,-0.00999606 -0.0335039,-0.00999606 -0.0138465,0 -0.0240669,0.00240157 -0.0307126,0.00725984 -0.00658661,0.00485827 -0.0114449,0.0134567 -0.0146299,0.0257953l-0.0287559 -0.00396457c0.00262598,-0.0122835 0.0069252,-0.0222795 0.0129016,-0.029815 0.00597244,-0.00759449 0.014685,-0.0134567 0.0260197,-0.0175354 0.0113346,-0.0040748 0.0244567,-0.00614173 0.0394213,-0.00614173 0.0148504,0 0.0268583,0.0017874 0.036126,0.00524803 0.00926772,0.00351969 0.0160827,0.00787402 0.0204921,0.0131811 0.00435433,0.00530315 0.00737008,0.0119488 0.00915748,0.0200433 0.000948819,0.00502756 0.00145276,0.0140709 0.00145276,0.0271378l0 0.0392559c0,0.0274134 0.000614173,0.0447244 0.00189764,0.0519291 0.00122835,0.00725591 0.00374016,0.0142362 0.0074252,0.0208819l-0.0307638 0c-0.00301575,-0.00608661 -0.00502756,-0.0132323 -0.0058622,-0.0214409zm-0.00245669 -0.0657795c-0.0107244,0.00441339 -0.026748,0.00809843 -0.0480787,0.0111693 -0.0121181,0.00173228 -0.0207165,0.00368504 -0.025685,0.0058622 -0.00502362,0.00217717 -0.00893307,0.0053622 -0.0116142,0.0096063 -0.00273622,0.00418504 -0.00413386,0.00882283 -0.00413386,0.0139567 0,0.00787402 0.00301575,0.0144094 0.00893701,0.0196575 0.00591732,0.00519291 0.0146299,0.00781496 0.0260748,0.00781496 0.0113346,0 0.0214409,-0.00245669 0.0302638,-0.0074252 0.00882283,-0.0049685 0.0153543,-0.0117835 0.0194882,-0.0203819 0.0031811,-0.00664567 0.00474803,-0.0164724 0.00474803,-0.0294252l0 -0.0108346z"/>
  <path id="1234" class="fil1" d="M1.96693 0.432862l0.0289213 0.00379528c-0.00312598,0.0199331 -0.0112205,0.0355669 -0.0242874,0.0468465 -0.0130118,0.0112795 -0.0290354,0.0169213 -0.0480236,0.0169213 -0.0237283,0 -0.0428819,-0.00776378 -0.0572874,-0.0232835 -0.0144606,-0.0155236 -0.0217205,-0.0378031 -0.0217205,-0.0668386 0,-0.0187638 0.00312598,-0.0351772 0.00932283,-0.049252 0.00625591,-0.0140709 0.0156929,-0.024622 0.0284213,-0.0316575 0.0126772,-0.00703543 0.0265236,-0.0105551 0.0414331,-0.0105551 0.018874,0 0.0343386,0.00480315 0.0462913,0.0143504 0.0120039,0.00954724 0.0197087,0.023063 0.0231142,0.0406496l-0.0286417 0.00441339c-0.00273622,-0.0116693 -0.00753937,-0.020437 -0.0144646,-0.0263583 -0.0069252,-0.0058622 -0.0152992,-0.0088189 -0.025126,-0.0088189 -0.0148543,0 -0.0269134,0.00530315 -0.036185,0.0159685 -0.00926772,0.0106102 -0.0139016,0.0274173 -0.0139016,0.0504213 0,0.0233386 0.0044685,0.040315 0.0134567,0.0509252 0.00893307,0.0105512 0.0206024,0.0158583 0.0350118,0.0158583 0.0115551,0 0.0211614,-0.0035748 0.0289213,-0.0106654 0.00776378,-0.00709449 0.0126772,-0.0179803 0.0147441,-0.0327205z"/>
  <path id="12345" class="fil1" d="M2.02109 0.496516l0 -0.239823 0.0294291 0 0 0.0860433c0.0137362,-0.0159134 0.0311024,-0.0238976 0.0520394,-0.0238976 0.0128425,0 0.0240118,0.00257087 0.0335039,0.00764961 0.00949213,0.00502756 0.0163031,0.012063 0.0203819,0.0209961 0.0040748,0.00893307 0.00614173,0.0219449 0.00614173,0.0389173l0 0.110114 -0.0294843 0 0 -0.110114c0,-0.014685 -0.0031811,-0.0254055 -0.00954724,-0.0321063 -0.00636614,-0.00670079 -0.0154134,-0.0101063 -0.0270827,-0.0101063 -0.00870866,0 -0.0169173,0.00229134 -0.024622,0.00681496 -0.00770866,0.00451969 -0.0131811,0.0106614 -0.0164173,0.0184252 -0.00329528,0.00770472 -0.00491339,0.0184252 -0.00491339,0.0320512l0 0.0950354 -0.0294291 0z"/>
  <polygon id="123456" class="fil1" points="2.19593,0.424539 2.19593,0.394945 2.28644,0.394945 2.28644,0.424539 "/>
  <polygon id="1234567" class="fil1" points="2.32139,0.496516 2.32139,0.256693 2.35316,0.256693 2.35316,0.375626 2.47226,0.256693 2.51526,0.256693 2.41464,0.35385 2.51967,0.496516 2.47779,0.496516 2.39242,0.375126 2.35316,0.413429 2.35316,0.496516 "/>
  <path id="12345678" class="fil1" d="M2.58807 0.496516l-0.0636575 -0.239823 0.0325551 0 0.0365197 0.157181c0.00390551,0.0164724 0.00725591,0.0328346 0.0101063,0.0490827 0.00614173,-0.0256299 0.0097126,-0.0403701 0.0108307,-0.0443346l0.0456181 -0.161929 0.0383071 0 0.0343386 0.12139c0.00859843,0.0300984 0.0147992,0.0584055 0.0186496,0.084874 0.00301575,-0.0151299 0.00703543,-0.0325512 0.0119528,-0.0521535l0.0375787 -0.15411 0.031937 0 -0.0657756 0.239823 -0.0305984 0 -0.0505354 -0.182701c-0.00424409,-0.0152992 -0.00675591,-0.0246811 -0.00753937,-0.0281417 -0.00251181,0.011 -0.00485433,0.020378 -0.00703543,0.0281417l-0.0508661 0.182701 -0.0323858 0z"/>
 </g>
</svg>