<?xml version="1.0" encoding="UTF-8"?>
<!DOCTYPE svg PUBLIC "-//W3C//DTD SVG 1.1//EN" "http://www.w3.org/Graphics/SVG/1.1/DTD/svg11.dtd">
<!-- Creator: CorelDRAW -->
<svg xmlns="http://www.w3.org/2000/svg" xml:space="preserve" width="100%" height="100%" shape-rendering="geometricPrecision" text-rendering="geometricPrecision" image-rendering="optimizeQuality" fill-rule="evenodd" clip-rule="evenodd"
viewBox="0 0 1.51863 1.51863"
 xmlns:xlink="http://www.w3.org/1999/xlink">
 <g id="Layer_x0020_1">
  <metadata id="CorelCorpID_0Corel-Layer"/>
  <circle fill="#D8D7D7" cx="0.759318" cy="0.759315" r="0.759316"/>
  <path fill="white" fill-rule="nonzero" d="M0.877177 0.527299c0.0128937,0.00317323 0.0207756,0.0161969 0.0176063,0.0290906 -0.00317323,0.0128937 -0.0161969,0.0207756 -0.0290906,0.0176063 -0.294358,-0.0732323 -0.427004,0.0732913 -0.551579,0.210906 -0.00230315,0.00254331 -0.00459843,0.00508268 -0.00694094,0.00766535 0.0234055,0.0235669 0.0449528,0.0455945 0.0664961,0.067622 0.0264252,0.0270118 0.0528504,0.0540276 0.0823268,0.0835039 0.00941339,0.00940945 0.00941339,0.0246693 0,0.0340787 -0.00940945,0.00940945 -0.0246654,0.00940945 -0.0340787,0 -0.0298543,-0.0298504 -0.0562756,-0.0568661 -0.0827008,-0.083878 -0.0264094,-0.0269961 -0.052815,-0.0539961 -0.0822756,-0.0834528l7.87402e-005 -7.87402e-005c-0.0090315,-0.00901969 -0.00943701,-0.0236417 -0.00073622,-0.0331535 0.00652756,-0.00714173 0.0143701,-0.0158031 0.0222441,-0.0245039 0.133957,-0.147972 0.276583,-0.305528 0.59865,-0.225406zm0.231846 -0.142169c0.00940945,-0.00935827 0.024626,-0.0093189 0.0339843,9.44882e-005 0.00935827,0.00940945 0.0093189,0.024626 -9.05512e-005,0.0339843l-0.765965 0.762429c-0.00941339,0.00935827 -0.0246299,0.0093189 -0.0339882,-9.44882e-005 -0.00935827,-0.00940945 -0.00931496,-0.024626 9.44882e-005,-0.0339843l0.765965 -0.762429zm-0.213866 0.324327c-0.00748425,-0.0109724 -0.00466142,-0.0259331 0.00630709,-0.0334213 0.0109724,-0.00748819 0.025937,-0.00466142 0.0334213,0.00630709 0.0128307,0.018811 0.0195315,0.034874 0.0230591,0.0525472 0.00334252,0.0167323 0.00357874,0.0335984 0.00357874,0.055563 0,0.0611496 -0.0247953,0.11652 -0.0648819,0.156602 -0.0400827,0.0400866 -0.0954567,0.0648819 -0.156606,0.0648819 -0.0217913,0 -0.0398189,-0.00198031 -0.0570866,-0.00684252 -0.0173346,-0.00488189 -0.0331732,-0.0125236 -0.0505197,-0.0238268 -0.011126,-0.00722835 -0.0142874,-0.0221063 -0.00706299,-0.0332323 0.00722835,-0.011126 0.0221063,-0.0142874 0.0332323,-0.00705906 0.0131693,0.00857874 0.0248937,0.0142953 0.0373425,0.0177992 0.0125157,0.00352756 0.0264961,0.00496063 0.0440945,0.00496063 0.0478465,0 0.0911693,-0.0193976 0.122528,-0.0507598 0.0313622,-0.0313583 0.0507598,-0.0746811 0.0507598,-0.122524 0,-0.0192244 -0.000173228,-0.0338189 -0.0026378,-0.0461496 -0.00227559,-0.0113937 -0.00677559,-0.0220197 -0.0155276,-0.0348465zm-0.311949 0.152335c0.00545669,0.0121142 6.29921e-005,0.0263622 -0.0120512,0.0318189 -0.0121142,0.00546063 -0.0263622,6.29921e-005 -0.0318189,-0.0120512 -0.00645669,-0.0142756 -0.0117953,-0.0294803 -0.0154488,-0.0454252 -0.00340551,-0.0148504 -0.00533465,-0.0301417 -0.00533465,-0.0456811 0,-0.0611457 0.0247992,-0.11652 0.0648819,-0.156602 0.0400827,-0.0400827 0.0954528,-0.064878 0.156598,-0.064878 0.0194567,0 0.0340472,0.000708661 0.0485,0.00385827 0.014752,0.0032126 0.0282992,0.00880315 0.0451614,0.0185 0.0114882,0.00660236 0.0154528,0.0212717 0.00885039,0.0327598 -0.00660236,0.0114921 -0.0212717,0.0154528 -0.0327638,0.00885039 -0.012063,-0.00693701 -0.0214882,-0.010878 -0.0314134,-0.0130394 -0.0102244,-0.00222441 -0.0220236,-0.00272835 -0.0383346,-0.00272835 -0.0478386,0 -0.0911614,0.0193976 -0.12252,0.0507559 -0.0313583,0.0313583 -0.0507559,0.0746811 -0.0507559,0.122524 0,0.0120866 0.00144882,0.0237717 0.00401181,0.0349488 0.00288189,0.0125827 0.00718898,0.0247795 0.012437,0.0363898zm0.394961 -0.21902c-0.0105039,-0.00811024 -0.0124409,-0.0232008 -0.00433071,-0.0337047 0.00811024,-0.0105 0.0232008,-0.0124409 0.0337008,-0.00433071 0.0379961,0.0292323 0.0664606,0.0530866 0.0940591,0.0784764 0.0273898,0.0252008 0.0541339,0.052122 0.0887362,0.0875394 0.0085,0.00874016 0.00901181,0.0222874 0.00166535,0.0316102l2.75591e-005 1.9685e-005c-0.0994173,0.126248 -0.198591,0.207484 -0.300587,0.248571 -0.103539,0.0417126 -0.209031,0.0419567 -0.319657,0.00572441 -0.0126339,-0.0041063 -0.0195433,-0.0176811 -0.015437,-0.030315 0.0041063,-0.0126339 0.0176772,-0.0195433 0.030311,-0.015437 0.0997756,0.0326772 0.194476,0.0326378 0.286898,-0.00459449 0.0895866,-0.0360866 0.177894,-0.107173 0.267457,-0.217244 -0.0268031,-0.0272835 -0.0490669,-0.0493937 -0.0719843,-0.0704764 -0.026811,-0.0246654 -0.054315,-0.0477244 -0.0908583,-0.0758386z"/>
 </g>
</svg>
