<?xml version="1.0" encoding="UTF-8"?>
<!DOCTYPE svg PUBLIC "-//W3C//DTD SVG 1.1//EN" "http://www.w3.org/Graphics/SVG/1.1/DTD/svg11.dtd">
<!-- Creator: CorelDRAW -->
<svg xmlns="http://www.w3.org/2000/svg" xml:space="preserve" width="100%" height="100%" shape-rendering="geometricPrecision" text-rendering="geometricPrecision" image-rendering="optimizeQuality" fill-rule="evenodd" clip-rule="evenodd"
viewBox="0 0 1.50972 1.50972"
 xmlns:xlink="http://www.w3.org/1999/xlink">
 <g id="Layer_x0020_1">
  <metadata id="CorelCorpID_0Corel-Layer"/>
  <circle fill="#D8D7D7" cx="0.754862" cy="0.754862" r="0.754862"/>
  <path fill="#D8D7D7" d="M0.754862 1.38392c-0.346858,0 -0.629051,-0.282197 -0.629051,-0.629051 0,-0.346858 0.282193,-0.629055 0.629051,-0.629055 0.34687,0 0.629051,0.282197 0.629051,0.629055 0,0.346854 -0.282181,0.629051 -0.629051,0.629051z"/>
  <path fill="#838281" fill-opacity="0.301961" d="M1.08837 0.468531c-0.0585472,-0.0585433 -0.153465,-0.0585433 -0.212008,0l-0.0311181 0.031122 0.212004 0.212008 0.031122 -0.0311181c0.0585472,-0.0585433 0.0585472,-0.153465 0,-0.212012z"/>
  <polygon fill="#838281" fill-opacity="0.301961" points="0.424622,0.920268 0.43278,1.12412 0.636634,1.13228 0.669512,1.0994 0.457504,0.88739 "/>
  <polygon fill="#838281" fill-opacity="0.301961" points="0.609402,0.997591 0.955445,0.651547 0.905354,0.601461 0.559311,0.947504 "/>
  <polygon fill="#838281" fill-opacity="0.301961" points="0.538461,0.926657 0.884508,0.580614 0.824402,0.520504 0.47835,0.866539 "/>
  <polygon fill="#838281" fill-opacity="0.301961" points="0.690354,1.07855 1.0364,0.732508 0.976295,0.672394 0.63024,1.01843 "/>
  <path fill="white" d="M1.06478 0.444945c-0.0585433,-0.0585472 -0.153461,-0.0585472 -0.212008,0l-0.0311181 0.031122 0.212004 0.212004 0.031122 -0.0311181c0.0585433,-0.0585472 0.0585433,-0.153461 0,-0.212008z"/>
  <polygon fill="white" points="0.401039,0.896677 0.409189,1.10053 0.613043,1.10869 0.645921,1.07581 0.433917,0.863803 "/>
  <rect fill="white" transform="matrix(0.125593 -0.125593 0.125593 0.125593 0.535722 0.923914)" width="2.7553" height="0.398815"/>
  <rect fill="white" transform="matrix(0.125594 -0.125591 0.125591 0.125594 0.454762 0.842953)" width="2.75529" height="0.478626"/>
  <rect fill="white" transform="matrix(0.125594 -0.125591 0.125591 0.125594 0.606656 0.994847)" width="2.75529" height="0.478626"/>
 </g>
</svg>
