<?xml version="1.0" encoding="UTF-8"?>
<!DOCTYPE svg PUBLIC "-//W3C//DTD SVG 1.1//EN" "http://www.w3.org/Graphics/SVG/1.1/DTD/svg11.dtd">
<!-- Creator: CorelDRAW -->
<svg xmlns="http://www.w3.org/2000/svg" xml:space="preserve" width="100%" height="100%" shape-rendering="geometricPrecision" text-rendering="geometricPrecision" image-rendering="optimizeQuality" fill-rule="evenodd" clip-rule="evenodd"
viewBox="0 0 0.5 0.5"
 xmlns:xlink="http://www.w3.org/1999/xlink">
 <g id="Layer_x0020_1">
  <metadata id="CorelCorpID_0Corel-Layer"/>
  <g id="Background_1_">
   <path id="_137813512" fill="white" d="M-0 0.243661l0 0.0134764c0.00351575,0.129291 0.107618,0.233094 0.231543,0.242862l0.0380866 0c0.12461,-0.0098622 0.226953,-0.114547 0.23037,-0.243059l0 -0.0132795c-0.00341732,-0.130756 -0.109276,-0.236807 -0.236913,-0.24335 -0.137307,-0.00693307 -0.25928,0.103217 -0.263087,0.24335z"/>
  </g>
  <g id="Symbol">
   <g>
    <path id="_134127952" fill="#605D5C" d="M0.251173 0.125598c0.0398425,0 0.0445315,9.84252e-005 0.0603504,0.000877953 0.0145512,0.000586614 0.0223622,0.00312598 0.0276378,0.00517717 0.00693307,0.00273228 0.0119134,0.00605512 0.0170866,0.0113268 0.00517717,0.00527559 0.00849606,0.0103504 0.0112323,0.0173819 0.00205118,0.00537008 0.0043937,0.013378 0.00517717,0.0282244 0.000779528,0.0160118 0.000877953,0.0207992 0.000877953,0.0613228 0,0.0405276 -9.84252e-005,0.045311 -0.000877953,0.0613268 -0.000586614,0.0147441 -0.00302756,0.0228504 -0.00517717,0.0282205 -0.00273622,0.0070315 -0.00595669,0.0121102 -0.0112323,0.0173819 -0.00517323,0.00527559 -0.0101535,0.00859449 -0.0170866,0.0113307 -0.00527559,0.00214567 -0.013185,0.00458661 -0.0276378,0.00517323 -0.0157244,0.000783465 -0.0205079,0.00088189 -0.0603504,0.00088189 -0.0398465,0 -0.0445315,-9.84252e-005 -0.0603543,-0.00088189 -0.0145512,-0.000586614 -0.0223622,-0.00312205 -0.0276339,-0.00517323 -0.00693307,-0.00273622 -0.0119173,-0.00605512 -0.0170906,-0.0113307 -0.00517717,-0.00527165 -0.00849606,-0.0103504 -0.0112323,-0.0173819 -0.00205118,-0.00537008 -0.0043937,-0.013378 -0.00517323,-0.0282205 -0.000783465,-0.0160157 -0.00088189,-0.0207992 -0.00088189,-0.0613268 0,-0.0405236 9.84252e-005,-0.045311 0.00088189,-0.0613228 0.000582677,-0.014748 0.00302756,-0.0228543 0.00517323,-0.0282244 0.00273622,-0.0070315 0.00595669,-0.0121063 0.0112323,-0.0173819 0.00517323,-0.00527165 0.0101575,-0.00859449 0.0170906,-0.0113268 0.00527165,-0.00214961 0.0131811,-0.00459055 0.0276339,-0.00517717 0.0157244,-0.000681102 0.0205079,-0.000877953 0.0603543,-0.000877953m0 -0.0273425c-0.0405276,0 -0.0456063,0.00019685 -0.0614291,0.000976378 -0.0158189,0.000783465 -0.0267559,0.0033189 -0.0362283,0.0070315 -0.0098622,0.00390551 -0.0181654,0.00908268 -0.0263661,0.0175787 -0.00830315,0.00849606 -0.0133819,0.0168937 -0.017189,0.0269488 -0.0037126,0.00957087 -0.00625197,0.0207047 -0.00693307,0.0368189 -0.000783465,0.0161102 -0.000877953,0.0212874 -0.000877953,0.0624961 0,0.0412087 0.000192913,0.0463858 0.000877953,0.0624961 0.000779528,0.0161142 0.0033189,0.0271496 0.00693307,0.036815 0.00380709,0.00996063 0.00888583,0.0184567 0.017189,0.0269528 0.00829921,0.00849606 0.0165984,0.0136732 0.0263661,0.0175787 0.00947244,0.00380709 0.0204094,0.00634646 0.0362283,0.0070315 0.0159213,0.000779528 0.0209961,0.000976378 0.0614291,0.000976378 0.0404291,0 0.0456024,-0.00019685 0.0614252,-0.000976378 0.0158189,-0.000783465 0.0267559,-0.00332283 0.0362283,-0.0070315 0.00986614,-0.00390551 0.0181654,-0.00908268 0.0263701,-0.0175787 0.00829921,-0.00849606 0.013378,-0.0168937 0.017185,-0.0269528 0.0037126,-0.00956693 0.00625197,-0.0207008 0.00693307,-0.036815 0.000783465,-0.0161102 0.00088189,-0.0212874 0.00088189,-0.0624961 0,-0.0412087 -0.00019685,-0.0463858 -0.00088189,-0.0624961 -0.000779528,-0.0161142 -0.0033189,-0.0271496 -0.00693307,-0.0368189 -0.00380709,-0.00995669 -0.00888583,-0.0184528 -0.017185,-0.0269488 -0.00830315,-0.00849606 -0.0166024,-0.0136732 -0.0263701,-0.0175787 -0.00947244,-0.00380709 -0.0204094,-0.00634646 -0.0362283,-0.0070315 -0.0158228,-0.000779528 -0.0209961,-0.000976378 -0.0614252,-0.000976378l0 0z"/>
    <path id="_137809648" fill="#605D5C" d="M0.251173 0.172083c-0.0423858,0 -0.076563,0.0348622 -0.076563,0.0779252 0,0.0430669 0.0342756,0.0779291 0.076563,0.0779291 0.0422835,0 0.076563,-0.0348622 0.076563,-0.0779291 0,-0.043063 -0.0342795,-0.0779252 -0.076563,-0.0779252zm0 0.128508c-0.0274409,0 -0.0497087,-0.0225551 -0.0497087,-0.0505827 0,-0.0280276 0.0222677,-0.0505827 0.0497087,-0.0505827 0.0274409,0 0.0497047,0.0225551 0.0497047,0.0505827 0,0.0280276 -0.0222638,0.0505827 -0.0497047,0.0505827z"/>
    <ellipse id="_137813536" fill="#605D5C" cx="0.330762" cy="0.168957" rx="0.017871" ry="0.0181633"/>
   </g>
  </g>
 </g>
</svg>
