<?xml version="1.0" encoding="UTF-8"?>
<!DOCTYPE svg PUBLIC "-//W3C//DTD SVG 1.1//EN" "http://www.w3.org/Graphics/SVG/1.1/DTD/svg11.dtd">
<!-- Creator: CorelDRAW -->
<svg xmlns="http://www.w3.org/2000/svg" xml:space="preserve" width="100%" height="100%" style="shape-rendering:geometricPrecision; text-rendering:geometricPrecision; image-rendering:optimizeQuality; fill-rule:evenodd; clip-rule:evenodd"
viewBox="0 0 0.605118 0.605118"
 xmlns:xlink="http://www.w3.org/1999/xlink">
 <defs>
  <style type="text/css">
   <![CDATA[
    .str0 {stroke:#DF5C5D;stroke-width:0.0166654}
    .str1 {stroke:#DF5C5D;stroke-width:0.0180551}
    .fil0 {fill:none}
   ]]>
  </style>
 </defs>
 <g id="Layer_x0020_1">
  <metadata id="CorelCorpID_0Corel-Layer"/>
  <circle class="fil0 str0" cx="0.302033" cy="0.228145" r="0.052075"/>
  <path class="fil0 str0" d="M0.253307 0.299315c-0.046311,0.00637795 -0.0592953,0.0496575 -0.0571339,0.10972 0.0716339,0 0.143268,0 0.214898,0 0.00714961,-0.0651457 -0.011685,-0.102583 -0.0564803,-0.112319 -0.0409646,0.0430669 -0.0724528,0.0306063 -0.101283,0.00259843z"/>
  <line class="fil0 str0" x1="0.364327" y1="0.372677" x2="0.194878" y2= "0.372677" />
  <path class="fil0 str0" d="M0.250685 0.243441c-0.00737402,0.00400394 -0.0158346,0.0062874 -0.0248228,0.0062874 -0.0287598,0 -0.0520748,-0.023315 -0.0520748,-0.0520787 0,-0.0287598 0.023315,-0.0520748 0.0520748,-0.0520748 0.0226378,0 0.0419134,0.0144449 0.0490866,0.034622"/>
  <path class="fil0 str0" d="M0.263717 0.266933c-0.0330197,0.0242638 -0.0638465,0.0147362 -0.0886181,-0.00933071 -0.046315,0.00637795 -0.0592992,0.0496575 -0.0571339,0.10972 0.0268583,0 0.0537244,0 0.0805866,0"/>
  <line class="fil0 str0" x1="0.207563" y1="0.330965" x2="0.116665" y2= "0.330965" />
  <path class="fil0 str0" d="M0.357244 0.242146c0.00737402,0.004 0.0158346,0.00628346 0.0248228,0.00628346 0.0287559,0 0.0520748,-0.023315 0.0520748,-0.0520787 0,-0.0287559 -0.0233189,-0.0520748 -0.0520748,-0.0520748 -0.0226378,0 -0.0419134,0.0144449 -0.0490866,0.034622"/>
  <path class="fil0 str0" d="M0.343189 0.264614c0.0330197,0.0242638 0.0628307,0.0157559 0.0876024,-0.00831102 0.046311,0.00637795 0.0592953,0.0496614 0.0571339,0.10972 -0.0268622,0 -0.0537283,0 -0.0805866,0"/>
  <line class="fil0 str0" x1="0.398327" y1="0.329669" x2="0.489224" y2= "0.329669" />
  <line class="fil0 str0" x1="0.287673" y1="0.278504" x2="0.274732" y2= "0.315874" />
  <line class="fil0 str0" x1="0.320528" y1="0.277264" x2="0.332449" y2= "0.313618" />
  <circle class="fil0 str1" cx="0.302557" cy="0.302557" r="0.293529"/>
  <path class="fil0 str1" d="M0.53061 0.373559c-0.0302362,0.097189 -0.120921,0.167787 -0.228051,0.167787 -0.111252,0 -0.204764,-0.0761299 -0.231268,-0.179118"/>
 </g>
</svg>
