<?xml version="1.0" encoding="UTF-8"?>
<!DOCTYPE svg PUBLIC "-//W3C//DTD SVG 1.1//EN" "http://www.w3.org/Graphics/SVG/1.1/DTD/svg11.dtd">
<!-- Creator: CorelDRAW -->
<svg xmlns="http://www.w3.org/2000/svg" xml:space="preserve" width="100%" height="100%" style="shape-rendering:geometricPrecision; text-rendering:geometricPrecision; image-rendering:optimizeQuality; fill-rule:evenodd; clip-rule:evenodd"
viewBox="0 0 0.908543 0.908713"
 xmlns:xlink="http://www.w3.org/1999/xlink">
 <defs>
  <style type="text/css">
   <![CDATA[
    .str0 {stroke:#5A76B1;stroke-width:0.0138898}
    .str1 {stroke:#5A76B1;stroke-width:0.0208346}
    .str2 {stroke:#5A76B1;stroke-width:0.0208346;stroke-dasharray:0.041669 0.020835}
    .fil0 {fill:none}
    .fil2 {fill:white}
    .fil1 {fill:#5A76B1}
   ]]>
  </style>
 </defs>
 <g id="Layer_x0020_1">
  <metadata id="CorelCorpID_0Corel-Layer"/>
  <g id="_110218328">
   <rect id="_110218832" class="fil0 str0" transform="matrix(-0.568613 0.561082 -0.561082 -0.568613 0.950683 0.463968)" width="0.867756" height="0.890083" rx="0.147839" ry="0.147839"/>
   <g>
    <path id="_110218760" class="fil0 str1" d="M0.36863 0.624827l0.243417 0.00185039 0.0557205 0.00042126c0.0187008,0.000145669 0.0353937,-0.00956693 0.0449331,-0.0242441 0.0125709,-0.0193268 0.00849213,-0.026563 -0.00727953,-0.0413622 -0.0409094,-0.0383504 -0.0355591,-0.0744724 0.00357087,-0.10898 0.0122598,-0.010815 0.0140472,-0.0162008 0.00745669,-0.031185 -0.00815748,-0.018563 -0.0265354,-0.031689 -0.0480118,-0.0318543l-0.299134 -0.00227559c-0.0291024,-0.000224409 -0.0533583,0.0234094 -0.0533228,0.0525157l0.000133858 0.131787c3.14961e-005,0.0291063 0.0234094,0.0531024 0.0525157,0.0533268z"/>
    <line id="_110218688" class="fil0 str2" x1="0.610118" y1="0.394087" x2="0.60911" y2= "0.627291" />
    <circle id="_110218616" class="fil1" transform="matrix(0.612038 0.614277 -0.614277 0.612038 0.44035 0.510678)" r="0.0572126"/>
   </g>
   <g>
    <path id="_110218520" class="fil2 str1" d="M0.366315 0.594969l0.173114 -0.171126 0.0396299 -0.0391732c0.0133031,-0.0131457 0.0182008,-0.0318268 0.0145394,-0.0489449 -0.0048189,-0.0225433 -0.0128228,-0.0247638 -0.0344409,-0.0240394 -0.0560394,0.00191339 -0.0778543,-0.027374 -0.0746811,-0.0794449 0.000996063,-0.0163189 -0.00155906,-0.0213858 -0.0168268,-0.0272953 -0.0189055,-0.00732283 -0.0411772,-0.00357087 -0.0564488,0.0115276l-0.212748 0.210299c-0.0207008,0.0204606 -0.0210748,0.0543228 -0.000437008,0.0748425l0.0934528 0.0929213c0.0206417,0.0205197 0.0541417,0.0208976 0.0748465,0.000433071z"/>
    <line id="_110218448" class="fil0 str2" x1="0.373303" y1="0.261043" x2="0.537795" y2= "0.426354" />
    <circle id="_110218376" class="fil1" cx="0.336072" cy="0.463598" r="0.0496112"/>
   </g>
  </g>
 </g>
</svg>
