<?xml version="1.0" encoding="UTF-8"?>
<!DOCTYPE svg PUBLIC "-//W3C//DTD SVG 1.1//EN" "http://www.w3.org/Graphics/SVG/1.1/DTD/svg11.dtd">
<!-- Creator: CorelDRAW -->
<svg xmlns="http://www.w3.org/2000/svg" xml:space="preserve" width="100%" height="100%" shape-rendering="geometricPrecision" text-rendering="geometricPrecision" image-rendering="optimizeQuality" fill-rule="evenodd" clip-rule="evenodd"
viewBox="0 0 0.601031 0.598157"
 xmlns:xlink="http://www.w3.org/1999/xlink">
 <g id="Layer_x0020_1">
  <metadata id="CorelCorpID_0Corel-Layer"/>
  <path fill="none" stroke="#DF5C5D" stroke-width="0.0208346" stroke-linecap="round" stroke-linejoin="round" d="M0.0389685 0.0104173l0.364028 0c0.0157047,0 0.0285512,0.0127165 0.0285512,0.0282598l0 0.240209c0,0.0155433 -0.0128465,0.0282598 -0.0285512,0.0282598l-0.295709 0 0.00038189 0.0746575 -0.0687008 -0.0746575c-0.0157047,0 -0.0285512,-0.0127165 -0.0285512,-0.0282598l0 -0.240209c0,-0.0155433 0.0128465,-0.0282598 0.0285512,-0.0282598z"/>
  <path fill="white" stroke="#DF5C5D" stroke-width="0.0208346" stroke-linecap="round" stroke-linejoin="round" d="M0.562063 0.216394l-0.364028 0c-0.0157047,0 -0.0285512,0.0127165 -0.0285512,0.0282598l0 0.240209c0,0.0155433 0.0128465,0.0282598 0.0285512,0.0282598l0.295709 0 -0.00038189 0.0746575 0.0687008 -0.0746575c0.0157047,0 0.0285512,-0.0127165 0.0285512,-0.0282598l0 -0.240209c0,-0.0155433 -0.0128465,-0.0282598 -0.0285512,-0.0282598z"/>
  <line fill="none" stroke="#DF5C5D" stroke-width="0.0208346" stroke-linecap="round" stroke-linejoin="round" x1="0.110531" y1="0.0935276" x2="0.334693" y2= "0.0935197" />
  <line fill="none" stroke="#DF5C5D" stroke-width="0.0208346" stroke-linecap="round" stroke-linejoin="round" x1="0.110531" y1="0.159551" x2="0.334693" y2= "0.159543" />
  <line fill="none" stroke="#DF5C5D" stroke-width="0.0208346" stroke-linecap="round" stroke-linejoin="round" x1="0.110531" y1="0.227098" x2="0.174508" y2= "0.226492" />
  <path fill="none" stroke="#DF5C5D" stroke-width="0.0208346" stroke-linecap="round" stroke-linejoin="round" d="M0.512169 0.391874c-0.087811,0.0848228 -0.17463,0.0799055 -0.260701,0.00272835 -0.0225748,-0.0202795 -0.0220394,-0.0364764 0.00252362,-0.0566339 0.100748,-0.0882244 0.182748,-0.0659094 0.256898,0.00491732 0.0217441,0.0174646 0.0191299,0.0311417 0.00127953,0.0489882z"/>
  <ellipse fill="none" stroke="#DF5C5D" stroke-width="0.0208346" cx="0.380449" cy="0.367464" rx="0.0886219" ry="0.0855747"/>
  <ellipse fill="none" stroke="#DF5C5D" stroke-width="0.0208346" cx="0.380449" cy="0.367466" rx="0.043931" ry="0.0424205"/>
 </g>
</svg>
