<?xml version="1.0" encoding="UTF-8"?>
<!DOCTYPE svg PUBLIC "-//W3C//DTD SVG 1.1//EN" "http://www.w3.org/Graphics/SVG/1.1/DTD/svg11.dtd">
<!-- Creator: CorelDRAW -->
<svg xmlns="http://www.w3.org/2000/svg" xml:space="preserve" width="100%" height="100%" style="shape-rendering:geometricPrecision; text-rendering:geometricPrecision; image-rendering:optimizeQuality; fill-rule:evenodd; clip-rule:evenodd"
viewBox="0 0 0.612579 0.612579"
 xmlns:xlink="http://www.w3.org/1999/xlink">
 <defs>
  <style type="text/css">
   <![CDATA[
    .str0 {stroke:#5A76B1;stroke-width:0.0194449}
    .fil0 {fill:none}
    .fil1 {fill:white}
   ]]>
  </style>
 </defs>
 <g id="Layer_x0020_1">
  <metadata id="CorelCorpID_0Corel-Layer"/>
  <g id="_121128824">
   <path id="_121129280" class="fil0 str0" d="M0.304996 0.0712087l0 0.472551m0.00129134 -0.534035c0.0163268,0 0.029563,0.0132362 0.029563,0.029563 0,0.0163268 -0.0132362,0.029563 -0.029563,0.029563 -0.0163228,0 -0.029563,-0.0132362 -0.029563,-0.029563 0,-0.0163268 0.0132402,-0.029563 0.029563,-0.029563zm0 0.534004c0.0163268,0 0.029563,0.0132402 0.029563,0.0295669 0,0.0163228 -0.0132362,0.029563 -0.029563,0.029563 -0.0163228,0 -0.029563,-0.0132402 -0.029563,-0.029563 0,-0.0158937 0.0125433,-0.0288583 0.0282717,-0.0295354l1.1811e-005 0c0.000425197,-1.9685e-005 0.000850394,-3.14961e-005 0.00127953,-3.14961e-005z"/>
   <path id="_121129208" class="fil0 str0" d="M0.54137 0.305l-0.472551 0m0.534039 0.00129134c0,0.0163268 -0.0132402,0.029563 -0.0295669,0.029563 -0.0163228,0 -0.029563,-0.0132362 -0.029563,-0.029563 0,-0.0163268 0.0132402,-0.029563 0.029563,-0.029563 0.0163268,0 0.0295669,0.0132362 0.0295669,0.029563zm-0.534008 0c0,0.0163268 -0.0132362,0.029563 -0.029563,0.029563 -0.0163268,0 -0.029563,-0.0132362 -0.029563,-0.029563 0,-0.0163268 0.0132362,-0.029563 0.029563,-0.029563 0.0158937,0 0.0288543,0.0125433 0.0295315,0.0282717l0 1.1811e-005c1.9685e-005,0.000425197 3.14961e-005,0.000850394 3.14961e-005,0.00127953z"/>
   <path id="_121129136" class="fil0 str0" d="M0.471602 0.13915l-0.334142 0.334146m0.378535 -0.376709c0.0115433,0.0115472 0.0115433,0.0302677 0,0.041811 -0.0115472,0.0115433 -0.0302677,0.0115433 -0.041811,0 -0.0115433,-0.0115433 -0.0115433,-0.0302638 0,-0.041811 0.0115433,-0.0115433 0.0302638,-0.0115433 0.041811,0zm-0.377602 0.377602c0.0115472,0.0115433 0.0115472,0.0302638 0,0.0418071 -0.0115433,0.0115433 -0.0302638,0.0115433 -0.0418071,0 -0.0115433,-0.0115433 -0.0115433,-0.0302638 0,-0.0418071 0.0112362,-0.0112402 0.0292717,-0.0115354 0.040874,-0.000893701l7.87402e-006 7.87402e-006c0.000314961,0.000287402 0.000622047,0.000582677 0.000925197,0.000885827z"/>
   <path id="_121129064" class="fil0 str0" d="M0.13915 0.14098l0.334142 0.334146m-0.376705 -0.378535c0.0115433,-0.0115433 0.0302638,-0.0115433 0.0418071,0 0.0115433,0.0115433 0.0115433,0.0302638 0,0.041811 -0.0115433,0.0115433 -0.0302638,0.0115433 -0.0418071,0 -0.0115472,-0.0115472 -0.0115472,-0.0302677 0,-0.041811zm0.377598 0.377598c0.0115433,-0.0115433 0.0302638,-0.0115433 0.0418071,0 0.0115472,0.0115433 0.0115472,0.0302638 0,0.041811 -0.0115433,0.0115433 -0.0302638,0.0115433 -0.0418071,0 -0.0112402,-0.0112402 -0.0115354,-0.0292756 -0.000893701,-0.040874l7.87402e-006 -7.87402e-006c0.000287402,-0.000314961 0.000582677,-0.000625984 0.000885827,-0.000929134z"/>
   <circle id="_121128992" class="fil1 str0" cx="0.304168" cy="0.31067" r="0.178751"/>
   <path id="_121128920" class="fil0 str0" d="M0.212811 0.416346c0.0614567,0 0.122913,0 0.18437,0 0,-0.00938189 -0.000397638,-0.0187717 0,-0.0281457 0.00448819,-0.105528 -0.18598,-0.0992756 -0.185075,-0.0059685 0.000110236,0.0113701 0.000468504,0.0227441 0.000704724,0.0341142z"/>
   <circle id="_121128848" class="fil0 str0" cx="0.304047" cy="0.239965" r="0.0515388"/>
  </g>
 </g>
</svg>
