<?xml version="1.0" encoding="UTF-8"?>
<!DOCTYPE svg PUBLIC "-//W3C//DTD SVG 1.1//EN" "http://www.w3.org/Graphics/SVG/1.1/DTD/svg11.dtd">
<!-- Creator: CorelDRAW -->
<svg xmlns="http://www.w3.org/2000/svg" xml:space="preserve" width="100%" height="100%" style="shape-rendering:geometricPrecision; text-rendering:geometricPrecision; image-rendering:optimizeQuality; fill-rule:evenodd; clip-rule:evenodd"
viewBox="0 0 0.611835 0.602929"
 xmlns:xlink="http://www.w3.org/1999/xlink">
 <defs>
  <style type="text/css">
   <![CDATA[
    .str0 {stroke:#5A76B1;stroke-width:0.0138898}
    .fil3 {fill:none}
    .fil2 {fill:#B6D973}
    .fil0 {fill:#5A76B1}
    .fil1 {fill:#AFD564;fill-rule:nonzero}
   ]]>
  </style>
 </defs>
 <g id="Layer_x0020_1">
  <metadata id="CorelCorpID_0Corel-Layer"/>
  <g id="_253255016">
   <path id="_253255184" class="fil0" d="M0.309819 0.113835c0.0163465,0.0131378 0.0403465,-0.0284488 0.0657362,0.0369961 0.00758661,0.0195551 0.0491654,-0.00446457 0.0384331,0.0649094 -0.00320866,0.0207283 0.0448071,0.0207165 0.000826772,0.0754291 -0.0131417,0.0163425 0.0284488,0.0403465 -0.037,0.0657323 -0.0195551,0.00759055 0.00446457,0.0491693 -0.0649094,0.0384331 -0.0207283,-0.00320472 -0.0207165,0.044811 -0.0754291,0.000826772 -0.0163425,-0.0131378 -0.0403465,0.0284488 -0.0657323,-0.0369961 -0.00758661,-0.0195551 -0.0491654,0.00446457 -0.0384291,-0.0649094 0.00320472,-0.0207283 -0.044811,-0.0207165 -0.000830709,-0.0754291 0.0131417,-0.0163425 -0.0284488,-0.0403465 0.0369961,-0.0657323 0.0195551,-0.00759055 -0.00446063,-0.0491693 0.0649134,-0.0384331 0.0207244,0.00320866 0.0207165,-0.044811 0.0754252,-0.000826772zm-0.0352008 0.0273071c0.0631575,0 0.114374,0.0512165 0.114374,0.114378 0,0.0631614 -0.0512165,0.114378 -0.114374,0.114378 -0.0631614,0 -0.114382,-0.0512165 -0.114382,-0.114378 0,-0.0631614 0.0512205,-0.114378 0.114382,-0.114378z"/>
   <path id="_253255112" class="fil1" d="M0.196528 0.278469c-0.00516929,-0.00447638 -0.00573622,-0.0122992 -0.00125984,-0.0174724 0.00447638,-0.00516929 0.0122992,-0.00573622 0.0174724,-0.00125984l0.0363819 0.0313661 0.0775197 -0.0831969c0.00466142,-0.00501181 0.0125079,-0.00529528 0.0175197,-0.000629921 0.00501181,0.00466142 0.00529528,0.0125079 0.000633858,0.0175197l-0.0856496 0.0919213 -7.87402e-006 -7.87402e-006c-0.00451969,0.0048622 -0.0121142,0.00530709 -0.0171732,0.000929134l-0.045437 -0.0391693z"/>
   <path id="_253255040" class="fil2" d="M0.336563 0.40865c-0.00762205,0.000334646 -0.015252,-0.000472441 -0.0230433,-0.00362992 -0.0140512,0.0173898 -0.0325118,0.0234291 -0.0544606,0.0174606 0.00458661,0.0373898 0.00917323,0.0747756 0.0137598,0.112161 0.000669291,0.00506693 0.00524409,0.00506693 0.00908661,0 0.0133268,-0.0164449 0.0266575,-0.0328858 0.0399843,-0.0493307 0.0142795,0.00103937 0.0285591,0.00207874 0.0428386,0.00311811 0.0042126,7.87402e-005 0.00538189,-0.00241732 0.00311417,-0.0075315 -0.0105591,-0.0237992 -0.0207244,-0.0484488 -0.0312795,-0.072248zm0.0457992 -0.0432362c-0.00106299,0.0104016 -0.00401969,0.0183898 -0.0088622,0.0239803 0.0155079,0.0211535 0.0310157,0.0423071 0.0465276,0.0634646 0.00242126,0.00312992 0.00573622,0.00308268 0.00830709,-0.00311417 0.00588583,-0.0120315 0.0117717,-0.0240591 0.0176575,-0.0360906 0.0212874,-0.00337402 0.0425787,-0.00674803 0.0638661,-0.010126 0.00533858,-0.000397638 0.00757874,-0.00530709 0.00155906,-0.00908661 -0.0289921,-0.0218071 -0.0579843,-0.0436142 -0.0869764,-0.0654252 -0.00707087,0.0222047 -0.0219606,0.0330866 -0.0420787,0.0363976z"/>
  </g>
 </g>
 <g id="Layer_x0020_1_0">
  <metadata id="CorelCorpID_1Corel-Layer"/>
  <ellipse class="fil3 str0" cx="0.305918" cy="0.301464" rx="0.298973" ry="0.29452"/>
 </g>
</svg>
