<?xml version="1.0" encoding="UTF-8"?>
<!DOCTYPE svg PUBLIC "-//W3C//DTD SVG 1.1//EN" "http://www.w3.org/Graphics/SVG/1.1/DTD/svg11.dtd">
<!-- Creator: CorelDRAW -->
<svg xmlns="http://www.w3.org/2000/svg" xml:space="preserve" width="100%" height="100%" style="shape-rendering:geometricPrecision; text-rendering:geometricPrecision; image-rendering:optimizeQuality; fill-rule:evenodd; clip-rule:evenodd"
viewBox="0 0 0.919472 0.920906"
 xmlns:xlink="http://www.w3.org/1999/xlink">
 <defs>
  <style type="text/css">
   <![CDATA[
    .fil1 {fill:#E97E55}
    .fil0 {fill:#E97E55;fill-rule:nonzero}
   ]]>
  </style>
 </defs>
 <g id="Layer_x0020_1">
  <metadata id="CorelCorpID_0Corel-Layer"/>
  <g id="_146073856">
   <path id="_146072968" class="fil0" d="M0.114039 0.214004c-0.00572835,0.00805512 -0.0169016,0.00993701 -0.0249528,0.00420866 -0.00805118,-0.00573228 -0.00993701,-0.0169055 -0.00420472,-0.0249567 0.00935039,-0.0131772 0.0194764,-0.025937 0.030311,-0.0382244 0.0108898,-0.0123465 0.0222756,-0.0239764 0.0340984,-0.0348268 0.00727559,-0.00670079 0.0186063,-0.00622835 0.0253031,0.00105118 0.00669685,0.00727559 0.00622835,0.0186063 -0.00105118,0.0253031 -0.0112205,0.0102992 -0.0217638,0.0210394 -0.0315748,0.0321614 -0.00982677,0.0111457 -0.0191535,0.0229213 -0.0279291,0.0352835zm-0.0682126 0.513472c-0.00232283,0.00959843 -0.0119882,0.0155 -0.0215866,0.0131772 -0.00960236,-0.00232283 -0.0155039,-0.0119882 -0.0131811,-0.0215906l0.0232559 -0.0951299c0.00232283,-0.00959843 0.0119882,-0.0155 0.0215906,-0.0131772 0.00123228,0.000299213 0.00240157,0.000716535 0.00350394,0.00124409l0.0920354 0.0376496c0.00913386,0.00371654 0.0135276,0.0141378 0.00981102,0.0232717 -0.00371654,0.00913386 -0.0141339,0.0135276 -0.0232717,0.00981496l-0.0544567 -0.0222795c0.0337795,0.0636496 0.0837677,0.11763 0.14448,0.156709 0.066689,0.0429291 0.146346,0.0678504 0.231693,0.0678504 0.117654,0 0.223472,-0.0473898 0.299921,-0.12402 0.0767362,-0.0769173 0.123961,-0.183335 0.123961,-0.300921 0,-0.0131693 -0.000555118,-0.025748 -0.0016378,-0.0377165 -0.00114567,-0.0126417 -0.00285827,-0.0251614 -0.00511417,-0.0375276 -0.00174409,-0.00971654 0.00472047,-0.0190039 0.014437,-0.020748 0.00971654,-0.00174016 0.0190079,0.00472441 0.020748,0.0144409 0.00244094,0.0133858 0.00429921,0.0269331 0.00553543,0.0406102 0.00127165,0.0140236 0.00192126,0.027689 0.00192126,0.0409409 0,0.127366 -0.0512323,0.242713 -0.134476,0.326154 -0.0830157,0.0832165 -0.197799,0.134677 -0.325295,0.134677 -0.0923898,0 -0.178705,-0.0270354 -0.251039,-0.0735984 -0.0633228,-0.0407638 -0.115913,-0.0965236 -0.152469,-0.162236l-0.0103661 0.0424055zm0.172689 -0.616894c-0.00812992,0.00565354 -0.0193031,0.00364567 -0.0249528,-0.00448425 -0.00565354,-0.00812992 -0.00364567,-0.0193031 0.00448425,-0.0249528 0.0125079,-0.00869685 0.0257126,-0.0169055 0.0395709,-0.0245787 0.0136417,-0.00755906 0.0276102,-0.0144094 0.0418504,-0.0205 0.00909843,-0.00387008 0.0196102,0.000366142 0.0234803,0.00946063 0.00387402,0.00909843 -0.000366142,0.0196142 -0.00946063,0.0234843 -0.0132795,0.0056811 -0.026122,0.0119646 -0.0384843,0.018815 -0.0123386,0.00683465 -0.0245157,0.014437 -0.0364882,0.0227559zm0.124075 -0.0590354c-0.00951969,0.00270866 -0.0194409,-0.00281496 -0.0221496,-0.0123386 -0.00270866,-0.00951969 0.00281496,-0.0194409 0.0123386,-0.0221496 0.0139764,-0.00401575 0.0285236,-0.00742913 0.0436142,-0.0102008 0.0149213,-0.00274016 0.0297835,-0.00474803 0.0445276,-0.00598425 0.00987008,-0.000811024 0.0185315,0.0065315 0.0193465,0.0164016 0.000811024,0.00987402 -0.0065315,0.0185354 -0.0164016,0.0193465 -0.0141929,0.00118898 -0.027874,0.00300787 -0.0410236,0.0054252 -0.0133661,0.00245276 -0.0267992,0.00563386 -0.040252,0.0095zm0.141382 -0.0157677c-0.00987008,-0.000543307 -0.0174331,-0.00898819 -0.0168937,-0.0188583 0.000543307,-0.00987008 0.00898425,-0.0174331 0.0188583,-0.0168937 0.0147362,0.000834646 0.0290551,0.00231496 0.0429291,0.00441732 0.0140984,0.00213386 0.0281732,0.0049685 0.0421772,0.00846063 0.00960236,0.0023622 0.0154685,0.0120591 0.0131102,0.0216614 -0.0023622,0.00959843 -0.012063,0.0154685 -0.0216614,0.0131063 -0.0125787,-0.0031378 -0.0255709,-0.00573622 -0.0389528,-0.00775984 -0.0132402,-0.00200394 -0.0264449,-0.0033937 -0.0395669,-0.00413386zm0.138028 0.0315906c-0.0091378,-0.00379528 -0.0134685,-0.0142756 -0.00967323,-0.0234134 0.00379134,-0.00913386 0.0142756,-0.0134646 0.0234094,-0.00967323 0.0124409,0.00517717 0.0246496,0.0109213 0.0365906,0.0172047 0.0120197,0.0063189 0.0236772,0.0131339 0.0349331,0.0204055 0.00832283,0.00534252 0.0107362,0.0164213 0.00539764,0.0247441 -0.00534252,0.00832283 -0.0164213,0.0107402 -0.0247441,0.00539764 -0.0104803,-0.00677165 -0.021248,-0.0130709 -0.0322677,-0.0188661 -0.010874,-0.00571654 -0.0220984,-0.0109961 -0.0336457,-0.0157992zm0.118094 0.0744134c-0.00735433,-0.00658268 -0.00798031,-0.0178819 -0.00140157,-0.0252362 0.00658268,-0.00735433 0.0178819,-0.00798031 0.0252362,-0.00140157 0.0104685,0.00934646 0.0203504,0.0189803 0.0296063,0.0288622 0.00935433,0.00998031 0.0183701,0.0205157 0.0270157,0.0315551 0.0060748,0.00777953 0.00469685,0.0190157 -0.00308268,0.0250945 -0.00778346,0.00607874 -0.0190197,0.00469685 -0.0250945,-0.00308268 -0.00775984,-0.00990945 -0.0160709,-0.0195984 -0.0249134,-0.0290354 -0.00888189,-0.00947638 -0.0180157,-0.0184134 -0.0273661,-0.0267559zm0.0867087 0.106854c-0.00491732,-0.00855512 -0.0019685,-0.0194764 0.00658661,-0.0243937 0.00855512,-0.00491732 0.0194764,-0.0019685 0.0243937,0.00658661 0.00712992,0.0124016 0.0139685,0.0251417 0.0202047,0.0381732 0.00635433,0.0132795 0.0120866,0.026815 0.016874,0.0405394 0.00325197,0.00932677 -0.00167323,0.0195276 -0.0110039,0.0227795 -0.00932677,0.00325197 -0.0195276,-0.00167717 -0.0227795,-0.0110039 -0.00440157,-0.0126142 -0.0096063,-0.0249213 -0.0153386,-0.0368937 -0.00585039,-0.0122283 -0.0122598,-0.0241732 -0.018937,-0.0357874zm-0.791055 0.21172c-0.000153543,0.00987008 -0.00828346,0.017748 -0.0181535,0.0175906 -0.00987008,-0.000153543 -0.017748,-0.00828346 -0.0175945,-0.0181535 0.000200787,-0.0112559 0.000570866,-0.0220866 0.00123622,-0.0322283 0.000704724,-0.0107638 0.00173622,-0.0214724 0.00323228,-0.0321299 0.00135433,-0.00979528 0.0103937,-0.0166378 0.020189,-0.0152795 0.00979134,0.00135433 0.0166339,0.0103937 0.0152795,0.020185 -0.00135433,0.00965748 -0.00229921,0.0194921 -0.00295276,0.0294685 -0.000692913,0.0105945 -0.00106299,0.0207047 -0.00123622,0.0305472zm0.0195709 -0.128087c-0.00294488,0.00944488 -0.0129882,0.0147165 -0.0224331,0.0117756 -0.00944488,-0.00294094 -0.0147165,-0.0129843 -0.0117756,-0.0224331 0.00423228,-0.0134567 0.00905512,-0.0266378 0.0144409,-0.0395 0.00551969,-0.0131929 0.0115354,-0.0259094 0.0180157,-0.0381181 0.00464567,-0.00874803 0.0155039,-0.0120748 0.024252,-0.00742913 0.00874803,0.00464567 0.0120748,0.0155039 0.00742913,0.024252 -0.00612992,0.0115512 -0.0116811,0.0232441 -0.0166142,0.0350315 -0.00497638,0.0118937 -0.00942913,0.0240472 -0.013315,0.0364213z"/>
   <path id="_146072488" class="fil0" d="M0.616579 0.512417c0,-0.00792913 0.00642913,-0.0143583 0.0143543,-0.0143583 0.00792913,0 0.0143583,0.00642913 0.0143583,0.0143583l0 0.00897638c0,0.0079252 -0.00642913,0.0143543 -0.0143583,0.0143543 -0.0079252,0 -0.0143543,-0.00642913 -0.0143543,-0.0143543l0 -0.00897638zm-0.0797165 0.122508c0.00792913,0 0.0143543,0.0064252 0.0143543,0.0143543 0,0.00792913 -0.0064252,0.0143543 -0.0143543,0.0143543l-0.316043 0c-0.0114803,0 -0.0219252,-0.00469685 -0.0295039,-0.0122677 -0.00761024,-0.00759843 -0.0123346,-0.0180591 -0.0123346,-0.0295354l0 -0.374244c0,-0.0114803 0.00472441,-0.021937 0.0123346,-0.0295354 0.00757874,-0.00757087 0.0180236,-0.0122677 0.0295039,-0.0122677l0.0510079 0 0 0.0287087 -0.0510079 0c-0.00363386,0 -0.00693307,0.00148031 -0.00931496,0.00385827 -0.00235039,0.00234646 -0.00381102,0.00561417 -0.00381102,0.00923622l0 0.374244c0,0.00361811 0.00146063,0.00688976 0.00381102,0.00923622 0.00238189,0.00237795 0.0056811,0.00385827 0.00931496,0.00385827l0.316043 0zm-0.223929 -0.429142l0.202787 0 0 0.0287087 -0.202787 0 0 -0.0287087zm0.239783 0l0.0507362 0c0.0114409,0 0.0219055,0.00455906 0.0295197,0.0120157 0.00760236,0.00744882 0.0123189,0.0177441 0.0123189,0.0292559l0 0.23239c0,0.00792913 -0.00642913,0.0143543 -0.0143583,0.0143543 -0.0079252,0 -0.0143543,-0.0064252 -0.0143543,-0.0143543l0 -0.23239c0,-0.00350394 -0.00140945,-0.00661417 -0.0036811,-0.00884252 -0.00235827,-0.00230709 -0.00570079,-0.00372047 -0.00944488,-0.00372047l-0.0507362 0 0 -0.0287087z"/>
   <path id="_146071912" class="fil0" d="M0.28424 0.167728l0.0158543 0c0.00868898,0 0.0164764,0.00397244 0.0220197,0.0103661 0.00505118,0.00583071 0.00818898,0.0137323 0.00818898,0.0222874l0 0.0490276c0,0.00855118 -0.0031378,0.0164528 -0.00818898,0.0222835 -0.00554331,0.0063937 -0.0133307,0.0103661 -0.0220197,0.0103661l-0.0158543 0c-0.00869291,0 -0.0164803,-0.00397244 -0.0220236,-0.0103661 -0.00505118,-0.00583071 -0.00818898,-0.0137323 -0.00818898,-0.0222835l0 -0.0490276c0,-0.00855512 0.0031378,-0.0164567 0.00818898,-0.0222874 0.00554331,-0.0063937 0.0133307,-0.0103661 0.0220236,-0.0103661zm0.0158543 0.0287126l-0.0158543 0c-3.14961e-005,0 -0.000173228,0.000145669 -0.000377953,0.00038189 -0.000692913,0.000799213 -0.00112205,0.00205118 -0.00112205,0.00355906l0 0.0490276c0,0.00150394 0.000429134,0.00275591 0.00112205,0.00355512 0.000204724,0.00023622 0.000346457,0.00038189 0.000377953,0.00038189l0.0158543 0c2.75591e-005,0 0.000169291,-0.000145669 0.000374016,-0.00038189 0.000692913,-0.000799213 0.00112598,-0.00205118 0.00112598,-0.00355512l0 -0.0490276c0,-0.00150787 -0.000433071,-0.00275984 -0.00112598,-0.00355906 -0.000204724,-0.00023622 -0.000346457,-0.00038189 -0.000374016,-0.00038189z"/>
   <path id="_146072800" class="fil0" d="M0.523122 0.167728l0.0158543 0c0.00868898,0 0.0164764,0.00397244 0.0220197,0.0103661 0.00505118,0.00583071 0.00818898,0.0137323 0.00818898,0.0222874l0 0.0490276c0,0.00855118 -0.0031378,0.0164528 -0.00818898,0.0222835 -0.00554331,0.0063937 -0.0133307,0.0103661 -0.0220197,0.0103661l-0.0158543 0c-0.00869291,0 -0.0164803,-0.00397244 -0.0220236,-0.0103661 -0.00505118,-0.00583071 -0.00818898,-0.0137323 -0.00818898,-0.0222835l0 -0.0490276c0,-0.00855512 0.0031378,-0.0164567 0.00818898,-0.0222874 0.00554331,-0.0063937 0.0133307,-0.0103661 0.0220236,-0.0103661zm0.0158543 0.0287126l-0.0158543 0c-3.14961e-005,0 -0.000173228,0.000145669 -0.000377953,0.00038189 -0.000692913,0.000799213 -0.00112205,0.00205118 -0.00112205,0.00355906l0 0.0490276c0,0.00150394 0.000429134,0.00275591 0.00112205,0.00355512 0.000204724,0.00023622 0.000346457,0.00038189 0.000377953,0.00038189l0.0158543 0c2.75591e-005,0 0.000169291,-0.000145669 0.000374016,-0.00038189 0.000692913,-0.000799213 0.00112598,-0.00205118 0.00112598,-0.00355512l0 -0.0490276c0,-0.00150787 -0.000433071,-0.00275984 -0.00112598,-0.00355906 -0.000204724,-0.00023622 -0.000346457,-0.00038189 -0.000374016,-0.00038189z"/>
   <polygon id="_146072320" class="fil1" points="0.20602,0.316323 0.62565,0.316323 0.62565,0.344862 0.20602,0.344862 "/>
   <path id="_146073040" class="fil0" d="M0.24513 0.372787l0.0665906 0c0.00458268,0 0.00874016,0.00191732 0.0117559,0.00501181 0.00290551,0.00299213 0.0047126,0.00706693 0.0047126,0.0115157l0 0.0654173c0,0.00445276 -0.00180709,0.00852756 -0.0047126,0.0115157 -0.00301575,0.00309449 -0.00717323,0.00501181 -0.0117559,0.00501181l-0.0665906 0c-0.00458661,0 -0.00874409,-0.00191732 -0.0117559,-0.00501181 -0.00290551,-0.00298819 -0.0047126,-0.00706299 -0.0047126,-0.0115157l0 -0.0654173c0,-0.00444882 0.00180709,-0.00852362 0.0047126,-0.0115157 0.00301181,-0.00309055 0.00716929,-0.00501181 0.0117559,-0.00501181zm0.0543504 0.0287126l-0.0421102 0 0 0.0410512 0.0421102 0 0 -0.0410512z"/>
   <path id="_146073256" class="fil0" d="M0.37937 0.372787l0.0665906 0c0.00458268,0 0.00874016,0.00191732 0.011752,0.00501181 0.00290945,0.00299213 0.00471654,0.00706693 0.00471654,0.0115157l0 0.0654173c0,0.00445276 -0.00181102,0.00852756 -0.00471654,0.0115157 -0.00301181,0.00309449 -0.00716929,0.00501181 -0.011752,0.00501181l-0.0665906 0c-0.00459055,0 -0.00874409,-0.00191732 -0.0117559,-0.00501181 -0.00290551,-0.00298819 -0.00471654,-0.00706299 -0.00471654,-0.0115157l0 -0.0654173c0,-0.00444882 0.00181102,-0.00852362 0.00471654,-0.0115157 0.00301181,-0.00309055 0.00716535,-0.00501181 0.0117559,-0.00501181zm0.0543465 0.0287126l-0.0421063 0 0 0.0410512 0.0421063 0 0 -0.0410512z"/>
   <path id="_146072464" class="fil0" d="M0.510437 0.372787l0.0665906 0c0.00458661,0 0.00874409,0.00192126 0.0117559,0.00501181 0.00290551,0.00299213 0.0047126,0.00706693 0.0047126,0.0115157l0 0.0654173c0,0.00445276 -0.00180709,0.00852756 -0.0047126,0.0115157 -0.00301181,0.00309449 -0.00716929,0.00501181 -0.0117559,0.00501181l-0.0665906 0c-0.00458268,0 -0.00874016,-0.00191732 -0.0117559,-0.00501181 -0.00290551,-0.00298819 -0.0047126,-0.00706299 -0.0047126,-0.0115157l0 -0.0654173c0,-0.00444882 0.00180709,-0.00852362 0.0047126,-0.0115157 0.00301575,-0.00309449 0.00717323,-0.00501181 0.0117559,-0.00501181zm0.0543504 0.0287126l-0.0421102 0 0 0.0410512 0.0421102 0 0 -0.0410512z"/>
   <path id="_146073328" class="fil0" d="M0.560874 0.604441l-0.050437 0c-0.0045748,0 -0.00874016,-0.00191732 -0.0117559,-0.00501181 -0.00290551,-0.00298819 -0.0047126,-0.00707087 -0.0047126,-0.0115157l0 -0.0654173c0,-0.00444882 0.00180709,-0.00852362 0.0047126,-0.0115157 0.00301575,-0.00309449 0.00717323,-0.00501181 0.0117559,-0.00501181l0.0665906 0c0.00458661,0 0.00874409,0.00192126 0.0117559,0.00501181 0.00290551,0.00299213 0.0047126,0.00706693 0.0047126,0.0115157l0 0.0506417 -0.0287087 0 0 -0.0384567 -0.0421102 0 0 0.0410512 0.0381969 0 0 0.0287087z"/>
   <path id="_146071504" class="fil0" d="M0.376197 0.505969l0.0665945 0c0.00457874,0 0.00874016,0.00191732 0.011752,0.00501181 0.00290945,0.00299213 0.00471654,0.00706693 0.00471654,0.0115157l0 0.0654173c0,0.00445276 -0.00181102,0.00852756 -0.00471654,0.0115157 -0.00301181,0.00309449 -0.00717323,0.00501181 -0.011752,0.00501181l-0.0665945 0c-0.00458661,0 -0.00874016,-0.00191732 -0.011752,-0.00501181 -0.00290551,-0.00298819 -0.00471654,-0.00706299 -0.00471654,-0.0115157l0 -0.0654173c0,-0.00444882 0.00180709,-0.00852362 0.00471654,-0.0115157 0.00301181,-0.00309055 0.00716535,-0.00501181 0.011752,-0.00501181zm0.0543504 0.0287126l-0.0421063 0 0 0.0410512 0.0421063 0 0 -0.0410512z"/>
   <path id="_146072680" class="fil0" d="M0.24513 0.505969l0.0665906 0c0.00458268,0 0.00874016,0.00191732 0.0117559,0.00501181 0.00290551,0.00299213 0.0047126,0.00706693 0.0047126,0.0115157l0 0.0654173c0,0.00445276 -0.00180709,0.00852756 -0.0047126,0.0115157 -0.00301575,0.00309449 -0.00717323,0.00501181 -0.0117559,0.00501181l-0.0665906 0c-0.00458661,0 -0.00874409,-0.00191732 -0.0117559,-0.00501181 -0.00290157,-0.00298819 -0.0047126,-0.00706299 -0.0047126,-0.0115157l0 -0.0654173c0,-0.00444882 0.00180709,-0.00852362 0.0047126,-0.0115157 0.00301181,-0.00309055 0.00716929,-0.00501181 0.0117559,-0.00501181zm0.0543504 0.0287126l-0.0421102 0 0 0.0410512 0.0421102 0 0 -0.0410512z"/>
   <path id="_146072584" class="fil0" d="M0.629878 0.544024c0.0291063,0 0.0554606,0.0121417 0.0745354,0.0317717 0.0189803,0.0195354 0.0307205,0.0464528 0.0307205,0.076126 0,0.0296732 -0.0117402,0.0565945 -0.0307205,0.076126 -0.0190748,0.0196299 -0.0454291,0.0317756 -0.0745354,0.0317756 -0.0291063,0 -0.0554606,-0.0121457 -0.0745354,-0.0317756 -0.0189803,-0.0195315 -0.0307244,-0.0464528 -0.0307244,-0.076126 0,-0.0296732 0.0117441,-0.0565906 0.0307244,-0.076126 0.0190748,-0.0196299 0.0454291,-0.0317717 0.0745354,-0.0317717zm0.0540118 0.0517362c-0.0138268,-0.0142244 -0.0329252,-0.0230276 -0.0540118,-0.0230276 -0.0210906,0 -0.040189,0.00880315 -0.0540118,0.0230276 -0.0139213,0.0143268 -0.0225354,0.0341811 -0.0225354,0.0561614 0,0.0219803 0.00861417,0.0418346 0.0225354,0.0561614 0.0138228,0.0142283 0.0329213,0.0230276 0.0540118,0.0230276 0.0210866,0 0.040189,-0.00879921 0.0540118,-0.0230276 0.0139213,-0.0143268 0.0225354,-0.0341811 0.0225354,-0.0561614 0,-0.0219803 -0.00861417,-0.0418346 -0.0225354,-0.0561614z"/>
   <path id="_146072728" class="fil0" d="M0.616528 0.59913c0,-0.00789764 0.00640157,-0.0142992 0.0142992,-0.0142992 0.00789764,0 0.0142992,0.00640157 0.0142992,0.0142992l0.000106299 0.0469803c0,0.00358661 -0.0013189,0.0068622 -0.0035,0.00937402l-0.0257087 0.0309567c-0.00504724,0.00607087 -0.014063,0.00689764 -0.0201339,0.00185039 -0.00606693,-0.00504724 -0.00689764,-0.014063 -0.00185039,-0.0201299l0.0225827 -0.0271929 -9.44882e-005 -0.0418386z"/>
  </g>
 </g>
</svg>
