<?xml version="1.0" encoding="UTF-8"?>
<!DOCTYPE svg PUBLIC "-//W3C//DTD SVG 1.1//EN" "http://www.w3.org/Graphics/SVG/1.1/DTD/svg11.dtd">
<!-- Creator: CorelDRAW -->
<svg xmlns="http://www.w3.org/2000/svg" xml:space="preserve" width="100%" height="100%" style="shape-rendering:geometricPrecision; text-rendering:geometricPrecision; image-rendering:optimizeQuality; fill-rule:evenodd; clip-rule:evenodd"
viewBox="0 0 0.614606 0.605701"
 xmlns:xlink="http://www.w3.org/1999/xlink">
 <defs>
  <style type="text/css">
   <![CDATA[
    .str0 {stroke:#1CABA4;stroke-width:0.0166654}
    .str1 {stroke:#1CABA4;stroke-width:0.0123504}
    .fil0 {fill:none}
   ]]>
  </style>
 </defs>
 <g id="Layer_x0020_1">
  <metadata id="CorelCorpID_0Corel-Layer"/>
  <ellipse class="fil0 str0" cx="0.307303" cy="0.30285" rx="0.298973" ry="0.29452"/>
  <path class="fil0 str1" d="M0.418142 0.127453l0.0327047 0c0.00597244,0 0.0108583,0.00488583 0.0108583,0.0108543l0 0.0640669c0,0.0059685 -0.00488976,0.0108583 -0.0108583,0.0108583l-0.0327047 0c-0.0059685,0 -0.0108583,-0.00488583 -0.0108583,-0.0108583l0 -0.0640669c0,-0.0059685 0.00488583,-0.0108543 0.0108583,-0.0108543zm0.0905315 0.27576l-0.0602992 0 0 0.0544921m-0.330717 -0.26485c0,0.0754685 0.000602362,0.148681 0.000685039,0.223831 3.14961e-005,0.0348583 0.011748,0.0423504 0.0473031,0.0423307l0.28248 -0.000173228 0.0633425 -0.0558346 0 -0.211957 -0.0304291 0.000141732 0 0.0198346c0,0.0182126 -0.0153307,0.0331142 -0.034063,0.0331142l-0.0285394 0c-0.0187362,0 -0.034063,-0.0149016 -0.034063,-0.0331142l0 -0.0193937 -0.134252 0.000614173 0 0.0187795c0,0.0182126 -0.0153307,0.0331142 -0.034063,0.0331142l-0.0285394 0c-0.0187362,0 -0.034063,-0.0149016 -0.034063,-0.0331142l0 -0.0183346 -0.0357992 0.000161417zm0.0686693 -0.0654016l0.0327047 0c0.00597244,0 0.0108583,0.00488583 0.0108583,0.0108543l0 0.0640669c0,0.0059685 -0.00488976,0.0108583 -0.0108583,0.0108583l-0.0327047 0c-0.0059685,0 -0.0108543,-0.00488583 -0.0108543,-0.0108583l0 -0.0640669c0,-0.0059685 0.00488583,-0.0108543 0.0108543,-0.0108543z"/>
  <path class="fil0 str1" d="M0.21522 0.265642l0.0411575 0c0.00394488,0 0.00716929,0.00322047 0.00716929,0.00715354l0 0.0241063c0,0.00393307 -0.00322441,0.00715354 -0.00716929,0.00715354l-0.0411575 0c-0.00394094,0 -0.00716535,-0.00322047 -0.00716535,-0.00715354l0 -0.0241063c0,-0.00393307 0.00322441,-0.00715354 0.00716535,-0.00715354zm0.172409 0l0.0411575 0c0.00394094,0 0.00716535,0.00322047 0.00716535,0.00715354l0 0.0241063c0,0.00393307 -0.00322441,0.00715354 -0.00716535,0.00715354l-0.0411575 0c-0.00394488,0 -0.00716929,-0.00322047 -0.00716929,-0.00715354l0 -0.0241063c0,-0.00393307 0.00322441,-0.00715354 0.00716929,-0.00715354zm-0.0857598 0.12372l0.0411575 0c0.00394488,0 0.00716929,0.00322047 0.00716929,0.00715354l0 0.0241063c0,0.00393307 -0.00322441,0.00715354 -0.00716929,0.00715354l-0.0411575 0c-0.00394094,0 -0.00716535,-0.00322047 -0.00716535,-0.00715354l0 -0.0241063c0,-0.00393307 0.00322441,-0.00715354 0.00716535,-0.00715354zm0 -0.0616378l0.0411575 0c0.00394488,0 0.00716929,0.00322047 0.00716929,0.00715354l0 0.0241063c0,0.00393307 -0.00322441,0.00715354 -0.00716929,0.00715354l-0.0411575 0c-0.00394094,0 -0.00716535,-0.00322047 -0.00716535,-0.00715354l0 -0.0241063c0,-0.00393307 0.00322441,-0.00715354 0.00716535,-0.00715354zm0 -0.0620827l0.0411575 0c0.00394488,0 0.00716929,0.00322047 0.00716929,0.00715354l0 0.0241063c0,0.00393307 -0.00322441,0.00715354 -0.00716929,0.00715354l-0.0411575 0c-0.00394094,0 -0.00716535,-0.00322047 -0.00716535,-0.00715354l0 -0.0241063c0,-0.00393307 0.00322441,-0.00715354 0.00716535,-0.00715354zm-0.0866496 0.12372l0.0411575 0c0.00394488,0 0.00716929,0.00322047 0.00716929,0.00715354l0 0.0241063c0,0.00393307 -0.00322441,0.00715354 -0.00716929,0.00715354l-0.0411575 0c-0.00394094,0 -0.00716535,-0.00322047 -0.00716535,-0.00715354l0 -0.0241063c0,-0.00393307 0.00322441,-0.00715354 0.00716535,-0.00715354zm0 -0.0616378l0.0411575 0c0.00394488,0 0.00716929,0.00322047 0.00716929,0.00715354l0 0.0241063c0,0.00393307 -0.00322441,0.00715354 -0.00716929,0.00715354l-0.0411575 0c-0.00394094,0 -0.00716535,-0.00322047 -0.00716535,-0.00715354l0 -0.0241063c0,-0.00393307 0.00322441,-0.00715354 0.00716535,-0.00715354z"/>
 </g>
</svg>
