<?xml version="1.0" encoding="UTF-8"?>
<!DOCTYPE svg PUBLIC "-//W3C//DTD SVG 1.1//EN" "http://www.w3.org/Graphics/SVG/1.1/DTD/svg11.dtd">
<!-- Creator: CorelDRAW -->
<svg xmlns="http://www.w3.org/2000/svg" xml:space="preserve" width="100%" height="100%" shape-rendering="geometricPrecision" text-rendering="geometricPrecision" image-rendering="optimizeQuality" fill-rule="evenodd" clip-rule="evenodd"
viewBox="0 0 0.552224 0.552224"
 xmlns:xlink="http://www.w3.org/1999/xlink">
 <g id="Layer_x0020_1">
  <metadata id="CorelCorpID_0Corel-Layer"/>
  <circle fill="#A9ACAF" cx="0.27611" cy="0.27611" r="0.276112"/>
  <g id="_255658920">
   <path id="_255656568" fill="none" stroke="white" stroke-width="0.0138898" stroke-linecap="round" stroke-linejoin="round" d="M0.35822 0.344409l0 0.0801457c0,0.00662992 -0.00559843,0.0120827 -0.0124094,0.0120827l-0.207669 0c-0.00682677,0 -0.0124094,-0.00543701 -0.0124094,-0.0120827l0 -0.250685c0,-0.00664567 0.00660236,-0.0120827 0.0134291,-0.0120827l0.0997559 0"/>
   <line id="_255657600" fill="none" stroke="white" stroke-width="0.0138898" stroke-linecap="round" stroke-linejoin="round" x1="0.157445" y1="0.277583" x2="0.217728" y2= "0.277583" />
   <line id="_255661344" fill="none" stroke="white" stroke-width="0.0138898" stroke-linecap="round" stroke-linejoin="round" x1="0.157445" y1="0.241528" x2="0.198937" y2= "0.241528" />
   <line id="_255657240" fill="none" stroke="white" stroke-width="0.0138898" stroke-linecap="round" stroke-linejoin="round" x1="0.157445" y1="0.205472" x2="0.190303" y2= "0.205472" />
   <line id="_255658728" fill="none" stroke="white" stroke-width="0.0138898" stroke-linecap="round" stroke-linejoin="round" x1="0.256988" y1="0.206488" x2="0.31778" y2= "0.206488" />
   <line id="_255106600" fill="none" stroke="white" stroke-width="0.0138898" stroke-linecap="round" stroke-linejoin="round" x1="0.268516" y1="0.242039" x2="0.31778" y2= "0.242039" />
   <line id="_255107008" fill="none" stroke="white" stroke-width="0.0138898" stroke-linecap="round" stroke-linejoin="round" x1="0.300004" y1="0.277079" x2="0.31778" y2= "0.277079" />
   <line id="_255133280" fill="none" stroke="white" stroke-width="0.0138898" stroke-linecap="round" stroke-linejoin="round" x1="0.377213" y1="0.29539" x2="0.397398" y2= "0.32837" />
   <circle id="_255106576" fill="none" stroke="white" stroke-width="0.0138898" cx="0.32814" cy="0.207167" r="0.100439"/>
   <rect id="_255656472" fill="none" stroke="white" stroke-width="0.0138898" transform="matrix(-0.537895 -0.93931 0.93931 -0.537895 0.430865 0.419641)" width="0.0684724" height="0.0304252" rx="0.0152126" ry="0.0152126"/>
  </g>
 </g>
</svg>
