<?xml version="1.0" encoding="UTF-8"?>
<!DOCTYPE svg PUBLIC "-//W3C//DTD SVG 1.1//EN" "http://www.w3.org/Graphics/SVG/1.1/DTD/svg11.dtd">
<!-- Creator: CorelDRAW -->
<svg xmlns="http://www.w3.org/2000/svg" xml:space="preserve" width="100%" height="100%" style="shape-rendering:geometricPrecision; text-rendering:geometricPrecision; image-rendering:optimizeQuality; fill-rule:evenodd; clip-rule:evenodd"
viewBox="0 0 0.504323 0.521823"
 xmlns:xlink="http://www.w3.org/1999/xlink">
 <defs>
  <style type="text/css">
   <![CDATA[
    .fil0 {fill:none}
    .fil2 {fill:#969594}
    .fil1 {fill:#969594;fill-rule:nonzero}
   ]]>
  </style>
 </defs>
 <g id="Layer_x0020_1">
  <metadata id="CorelCorpID_0Corel-Layer"/>
  <path class="fil0" d="M0.0818386 0.0997756c0.0903465,-0.109921 0.250465,-0.115217 0.344512,-0.00101575"/>
  <path class="fil1" d="M0.0935945 0.109445c-0.00533858,0.00649213 -0.0149331,0.0074252 -0.0214252,0.00208661 -0.00649213,-0.00533858 -0.0074252,-0.0149331 -0.00208661,-0.0214252 0.010878,-0.0132362 0.0227244,-0.0250551 0.0353228,-0.0354291 0.043248,-0.0356142 0.0953228,-0.0541575 0.147713,-0.0546772 0.0524094,-0.000523622 0.105067,0.0169921 0.149449,0.0534724 0.0125827,0.0103386 0.0245,0.0222087 0.0355394,0.0356181 0.00533858,0.00649213 0.00440551,0.0160866 -0.00208661,0.0214252 -0.00649213,0.00533858 -0.0160866,0.00440551 -0.0214252,-0.00208661 -0.00975591,-0.0118504 -0.0202795,-0.0223346 -0.0313661,-0.0314449 -0.0386378,-0.0317559 -0.0843937,-0.0470079 -0.129874,-0.0465512 -0.0454961,0.000452756 -0.0908346,0.0166457 -0.12861,0.0477559 -0.0110866,0.00912992 -0.0215354,0.0195591 -0.0311496,0.0312559z"/>
  <path class="fil2" d="M0.0729173 0.13628c0.0233661,0 0.042315,0.0189488 0.042315,0.0423189 0,0.0233661 -0.0189488,0.042315 -0.042315,0.042315 -0.0233701,0 -0.0423189,-0.0189488 -0.0423189,-0.042315 0,-0.0233701 0.0189488,-0.0423189 0.0423189,-0.0423189zm-0.0200945 0.0936654c-0.00643307,0 -0.0128661,0 -0.0192992,0 -0.0134882,0.00322835 -0.0218701,0.0104291 -0.0278465,0.0194921 -0.0050748,0.00770472 -0.00567323,0.0115748 -0.00567323,0.0205039 0,0.0179213 0,0.0358386 0,0.0537559 0,0.0117362 -0.000330709,0.0164764 0.0056811,0.0265551 0.00301969,0.00507087 0.00630709,0.0100827 0.0100197,0.0149921 0.00922835,0.0122047 0.0102008,0.0125039 0.0102008,0.0282283 0,0.0247205 0,0.049437 0,0.0741575 0.0323346,0 0.0646693,0 0.0970039,0 0,-0.0269606 0,-0.0539213 0,-0.080878 0,-0.0106299 0.000677165,-0.0120315 0.00657874,-0.0207244 0.00404331,-0.0059685 0.00780315,-0.0122402 0.0110315,-0.0190236 0.00307087,-0.00645276 0.0032126,-0.00998819 0.0032126,-0.0171063 0,-0.0198622 0,-0.0397165 0,-0.0595748 0,-0.00929134 -0.000877953,-0.0141417 -0.00638976,-0.022122 -0.00716929,-0.0103976 -0.0165236,-0.0157047 -0.026622,-0.0192717 -0.00609449,0 -0.012189,0 -0.0182795,0 -0.0123701,0.0215039 -0.032126,0.0127717 -0.0396181,0.00101575z"/>
  <path class="fil2" d="M0.252382 0.0679606c0.030122,0 0.0545512,0.0244291 0.0545512,0.0545551 0,0.030122 -0.0244291,0.0545512 -0.0545512,0.0545512 -0.030126,0 -0.0545551,-0.0244291 -0.0545551,-0.0545512 0,-0.030126 0.0244291,-0.0545551 0.0545551,-0.0545551zm-0.0126614 0.128972l0.0294567 0 -0.00711024 0.0213307 0 0.0208228 -0.00812598 0.0319961 -0.0137126 -0.0309803 0.00660236 -0.00101575 -0.0020315 -0.0213307 -0.00711024 -0.0116811 0.0020315 -0.00914173zm-0.0705512 0.0204331c-0.00592913,0.00900787 -0.00663386,0.0135394 -0.00663386,0.0239803 0,0.0209606 0,0.0419173 0,0.062874 0,0.0137244 -0.00495276,0.0274016 0.00207087,0.039185 0.00352756,0.00592126 0.00738583,0.0118031 0.0117205,0.0175354 0.0140157,0.0185394 0.0205591,0.0216417 0.0205591,0.045622 0,0.0331732 0,0.0899606 0,0.11526 0.0378189,0 0.0756378,0 0.113453,0 0,-0.0315315 0,-0.099626 0,-0.131154 0,-0.0124331 0.0114685,-0.0140787 0.0183622,-0.0242402 0.00472441,-0.00697244 0.00913386,-0.0143189 0.0129016,-0.022248 0.00358661,-0.00753937 0.00375591,-0.011685 0.00375591,-0.0200079 0,-0.0232323 0,-0.0591535 0,-0.082378 0,-0.0108661 -0.00103543,-0.0165394 -0.00747244,-0.025874 -0.00838583,-0.0121535 -0.0193268,-0.0183701 -0.0311378,-0.0225394 -0.0447323,0 -0.0318504,0.091622 -0.0532913,0.0920197 -0.0121732,0.000224409 -0.0255945,-0.0857677 -0.0357362,-0.0908701 -0.0101417,-0.0051063 -0.0376457,0.00629528 -0.0485512,0.0228346z"/>
  <path class="fil2" d="M0.434906 0.13628c0.0233661,0 0.042315,0.0189488 0.042315,0.0423189 0,0.0233661 -0.0189488,0.042315 -0.042315,0.042315 -0.0233701,0 -0.0423189,-0.0189488 -0.0423189,-0.042315 0,-0.0233701 0.0189488,-0.0423189 0.0423189,-0.0423189zm-0.0214921 0.0936654c-0.00643307,0 -0.0128661,0 -0.0192992,0 -0.0134882,0.00322835 -0.0218701,0.0104291 -0.0278465,0.0194921 -0.0050748,0.00770472 -0.00567323,0.0115748 -0.00567323,0.0205039 0,0.0179213 0,0.0358386 0,0.0537559 0,0.0117362 -0.000330709,0.0164764 0.0056811,0.0265551 0.00301969,0.00507087 0.00630709,0.0100827 0.0100197,0.0149921 0.00922835,0.0122047 0.0102008,0.0125039 0.0102008,0.0282283 0,0.0247205 0,0.049437 0,0.0741575 0.0323346,0 0.0646693,0 0.0970039,0 0,-0.0269606 0,-0.0539213 0,-0.080878 0,-0.0106299 0.000677165,-0.0120315 0.00657874,-0.0207244 0.00404331,-0.0059685 0.00780315,-0.0122402 0.0110315,-0.0190236 0.00307087,-0.00645276 0.0032126,-0.00998819 0.0032126,-0.0171063 0,-0.0198622 0,-0.0397165 0,-0.0595748 0,-0.00929134 -0.000877953,-0.0141417 -0.00638976,-0.022122 -0.00716929,-0.0103976 -0.0165236,-0.0157047 -0.026622,-0.0192717 -0.00609449,0 -0.012189,0 -0.0182795,0 -0.0123701,0.0215039 -0.032126,0.0127717 -0.0396181,0.00101575z"/>
 </g>
</svg>
