<?xml version="1.0" encoding="UTF-8"?>
<!DOCTYPE svg PUBLIC "-//W3C//DTD SVG 1.1//EN" "http://www.w3.org/Graphics/SVG/1.1/DTD/svg11.dtd">
<!-- Creator: CorelDRAW -->
<svg xmlns="http://www.w3.org/2000/svg" xml:space="preserve" width="100%" height="100%" style="shape-rendering:geometricPrecision; text-rendering:geometricPrecision; image-rendering:optimizeQuality; fill-rule:evenodd; clip-rule:evenodd"
viewBox="0 0 0.37035 0.41276"
 xmlns:xlink="http://www.w3.org/1999/xlink">
 <defs>
  <style type="text/css">
   <![CDATA[
    .str0 {stroke:#1F1A17;stroke-width:0.0236102;stroke-linecap:round;stroke-linejoin:round}
    .fil1 {fill:none}
    .fil0 {fill:#1F1A17}
   ]]>
  </style>
 </defs>
 <g id="Layer_x0020_1">
  <metadata id="CorelCorpID_0Corel-Layer"/>
  <path class="fil0" d="M0.318461 0l-0.293134 0c-0.0139646,0 -0.0253268,0.0113622 -0.0253268,0.0253268l0 0.362106c0,0.0139646 0.0113622,0.0253268 0.0253268,0.0253268l0.121059 0c0.00446457,0 0.00808268,-0.00361811 0.00808268,-0.00808268 0,-0.00446457 -0.00361811,-0.00808268 -0.00808268,-0.00808268l-0.121059 0c-0.00505118,0 -0.00916142,-0.00411024 -0.00916142,-0.00916142l0 -0.362106c0,-0.00505118 0.00411024,-0.00916142 0.00916142,-0.00916142l0.293134 0c0.00505118,0 0.00916142,0.00411024 0.00916142,0.00916142l0 0.172402c0,0.00446063 0.00361811,0.00808268 0.00808268,0.00808268 0.00446457,0 0.00808268,-0.00361811 0.00808268,-0.00808268l0 -0.172402c0,-0.0139646 -0.0113622,-0.0253268 -0.0253268,-0.0253268z"/>
  <path class="fil0" d="M0.34374 0.221646c-0.00751181,-0.000748031 -0.0150197,0.00138189 -0.0209606,0.0058937 -0.00473622,-0.00794488 -0.0128071,-0.0135787 -0.0221457,-0.0145157 -0.00751575,-0.000748031 -0.0150236,0.00138189 -0.0209646,0.0058937 -0.00473228,-0.00794488 -0.0128071,-0.0135787 -0.0221457,-0.0145157 -0.00573622,-0.000570866 -0.0114646,0.000535433 -0.0165,0.00309449l0 -0.102933c0,-0.00835433 -0.00355512,-0.0163661 -0.00975591,-0.0219764 -0.00619685,-0.0056063 -0.0145433,-0.00834252 -0.0229094,-0.00750787 -0.0149173,0.00149606 -0.0266063,0.0149882 -0.0266063,0.0307165l0 0.103193 -0.0237598 0.0237598c-0.012626,0.012626 -0.0177244,0.0305394 -0.0136339,0.0479213l0.0180394 0.0766654c0.00730709,0.031063 0.0347008,0.0527598 0.0666142,0.0527598l0.0729016 0c0.0377362,0 0.068437,-0.0307008 0.068437,-0.0684331l0 -0.0892992c0,-0.0157283 -0.011689,-0.0292205 -0.0266102,-0.0307165zm0.0104449 0.120012c0,0.0288228 -0.0234488,0.0522677 -0.0522677,0.0522677l-0.0729055 0c-0.024374,0 -0.0452953,-0.0165709 -0.050878,-0.0402953l-0.0180394 -0.0766654c-0.00279921,-0.0118898 0.000688976,-0.0241496 0.00932677,-0.0327874l0.0123307 -0.0123307 0 0.0279055c0,0.00446457 0.00361811,0.00808268 0.00808268,0.00808268 0.00446457,0 0.00808268,-0.00361811 0.00808268,-0.00808268l0 -0.153957c0,-0.00752756 0.00529528,-0.0139528 0.0120551,-0.0146299 0.00388189,-0.000389764 0.00759449,0.000822835 0.0104528,0.00340551 0.0028189,0.00255512 0.00443701,0.00619685 0.00443701,0.00999606l0 0.142256c0,0.00446457 0.00361811,0.00808268 0.00808268,0.00808268 0.00446457,0 0.00808268,-0.00361811 0.00808268,-0.00808268l0 -0.0129331c0,-0.00379921 0.00161417,-0.00744094 0.00443701,-0.00999213 0.00285827,-0.00258661 0.00656693,-0.00379921 0.0104528,-0.00340945 0.00675591,0.000677165 0.0120512,0.00710236 0.0120512,0.0146299l0 0.0203228c0,0.00446457 0.00362205,0.00808268 0.00808268,0.00808268 0.00446457,0 0.00808661,-0.00361811 0.00808661,-0.00808268l0 -0.0129331c0,-0.00379921 0.00161417,-0.00744094 0.00443701,-0.00999213 0.00285433,-0.00258661 0.00656693,-0.00379921 0.0104488,-0.00340551 0.00675984,0.000673228 0.0120551,0.00710236 0.0120551,0.014626l0 0.0203268c0,0.00446063 0.00361811,0.00808268 0.00808268,0.00808268 0.00446457,0 0.00808268,-0.00361811 0.00808268,-0.00808268l0 -0.0129331c0,-0.00379921 0.00161811,-0.00744094 0.00443701,-0.00999606 0.00285827,-0.00258268 0.00656693,-0.00379528 0.0104528,-0.00340551 0.00675984,0.000677165 0.0120551,0.00710236 0.0120551,0.0146299l0 0.0892992 -3.93701e-006 0z"/>
  <line class="fil1 str0" x1="0.0592205" y1="0.0787362" x2="0.156913" y2= "0.0787362" />
  <line class="fil1 str0" x1="0.0592205" y1="0.148075" x2="0.156913" y2= "0.148075" />
  <line class="fil1 str0" x1="0.0592205" y1="0.223543" x2="0.115839" y2= "0.223543" />
  <line class="fil1 str0" x1="0.0592205" y1="0.292882" x2="0.115839" y2= "0.292882" />
  <line class="fil1 str0" x1="0.263693" y1="0.0787362" x2="0.301709" y2= "0.0787362" />
  <line class="fil1 str0" x1="0.264673" y1="0.141701" x2="0.302689" y2= "0.141701" />
 </g>
</svg>
