<?xml version="1.0" encoding="UTF-8"?>
<!DOCTYPE svg PUBLIC "-//W3C//DTD SVG 1.1//EN" "http://www.w3.org/Graphics/SVG/1.1/DTD/svg11.dtd">
<!-- Creator: CorelDRAW -->
<svg xmlns="http://www.w3.org/2000/svg" xml:space="preserve" width="100%" height="100%" style="shape-rendering:geometricPrecision; text-rendering:geometricPrecision; image-rendering:optimizeQuality; fill-rule:evenodd; clip-rule:evenodd"
viewBox="0 0 0.515937 0.534429"
 xmlns:xlink="http://www.w3.org/1999/xlink">
 <defs>
  <style type="text/css">
   <![CDATA[
    .str1 {stroke:#0A0B0C;stroke-width:0.0111102}
    .str0 {stroke:#0A0B0C;stroke-width:0.0180551}
    .str2 {stroke:#0A0B0C;stroke-width:0.0138898;stroke-dasharray:0.013890 0.013890}
    .fil0 {fill:none}
    .fil1 {fill:#0A0B0C}
   ]]>
  </style>
 </defs>
 <g id="Layer_x0020_1">
  <metadata id="CorelCorpID_0Corel-Layer"/>
  <g id="_122557040">
   <polyline id="_122558120" class="fil0 str0" points="0.182724,0.44537 0.136736,0.467957 0.128787,0.38715 0.0479803,0.379201 0.0815079,0.305252 0.0154961,0.257969 0.0815079,0.210685 0.0479803,0.136736 0.128787,0.128787 0.136736,0.0479803 0.210685,0.0815079 0.257969,0.0154961 0.305252,0.0815079 0.379201,0.0479803 0.38715,0.128787 0.467957,0.136736 0.434429,0.210685 0.500441,0.257969 0.434429,0.305252 0.467957,0.379201 0.38715,0.38715 0.379201,0.467957 0.299114,0.431693 "/>
   <path id="_122556848" class="fil0 str1" d="M0.212165 0.320594l0 -0.186441c0,-0.00438189 0.00350394,-0.00796063 0.00779528,-0.00796063l0.139913 0c0.00429134,0 0.00779528,0.00357874 0.00779528,0.00796063l0 0.186441c0,0.00438583 -0.00350394,0.00796457 -0.00779528,0.00796457l-0.0733661 0"/>
   <rect id="_122557400" class="fil1" x="0.384413" y="0.187382" width="0.0115945" height="0.0936614"/>
   <rect id="_122557808" class="fil1" x="0.384413" y="0.157642" width="0.0115945" height="0.016752"/>
   <rect id="_122557664" class="fil1" transform="matrix(-0.480016 0.87726 -0.87726 -0.480016 0.166612 0.245311)" width="0.0120787" height="0.0110197"/>
   <rect id="_122552168" class="fil1" transform="matrix(-0.480016 0.87726 -0.87726 -0.480016 0.154333 0.268217)" width="0.0120787" height="0.0110197"/>
   <rect id="_122556296" class="fil1" transform="matrix(-0.480016 0.87726 -0.87726 -0.480016 0.145128 0.288382)" width="0.0120787" height="0.0110197"/>
   <rect id="_122553440" class="fil1" transform="matrix(-0.480016 0.87726 -0.87726 -0.480016 0.134557 0.3065)" width="0.0120787" height="0.0110197"/>
   <path id="_122557592" class="fil0 str2" d="M0.311063 0.357272c0,0 0.0497874,0.0403346 -0.00409449,0.121693"/>
   <path id="_122558240" class="fil0 str2" d="M0.175335 0.371626c0,0 0.0190945,0.0225551 0.0313701,0.0635787"/>
   <path id="_122553920" class="fil0 str1" d="M0.193067 0.528874c0.028874,0 0.057748,0 0.086622,0 0,-0.0191417 0,-0.0382835 0,-0.0574291 0.0187008,-0.0334331 0.0347165,-0.0657756 0.0204606,-0.0854567 -0.00477559,-0.00683465 -0.00955118,-0.0136732 -0.0143228,-0.0205118 0,-0.0204055 -0.000374016,-0.040811 0,-0.0612126 0.000681102,-0.0372441 -0.0457559,-0.0349606 -0.0464685,-0.00258661 -0.000145669,0.00659055 4.33071e-005,0.0131811 8.66142e-005,0.0197717 0.000212598,0.00217323 0.00023622,0.00419685 0.000208661,0.00605906 -0.000464567,0.0286299 -0.0275748,0.0274843 -0.0279331,-0.00950394 -0.00038189,-0.0349331 0.00320472,-0.0722953 0.000275591,-0.105669 -0.00362992,0.00151181 -0.00880315,0.00434252 -0.0113701,0.00894488 -0.0167874,0.0300748 -0.0350591,0.0681693 -0.0498465,0.0970236 -0.0127244,0.0245512 -0.0154764,0.0465551 0,0.0656339 0.0307638,0.0387717 0.0433622,0.0879409 0.0422874,0.144937z"/>
  </g>
 </g>
</svg>
