<?xml version="1.0" encoding="UTF-8"?>
<!DOCTYPE svg PUBLIC "-//W3C//DTD SVG 1.1//EN" "http://www.w3.org/Graphics/SVG/1.1/DTD/svg11.dtd">
<!-- Creator: CorelDRAW -->
<svg xmlns="http://www.w3.org/2000/svg" xml:space="preserve" width="100%" height="100%" style="shape-rendering:geometricPrecision; text-rendering:geometricPrecision; image-rendering:optimizeQuality; fill-rule:evenodd; clip-rule:evenodd"
viewBox="0 0 0.604724 0.606591"
 xmlns:xlink="http://www.w3.org/1999/xlink">
 <defs>
  <style type="text/css">
   <![CDATA[
    .str2 {stroke:#0A0B0C;stroke-width:0.0180551}
    .str0 {stroke:#0A0B0C;stroke-width:0.0208346;stroke-linecap:round;stroke-linejoin:round}
    .str1 {stroke:#0A0B0C;stroke-width:0.0263898;stroke-linecap:round;stroke-linejoin:round}
    .fil0 {fill:none}
   ]]>
  </style>
 </defs>
 <g id="Layer_x0020_1">
  <metadata id="CorelCorpID_0Corel-Layer"/>
  <g id="_120843784">
   <path id="_120942392" class="fil0 str0" d="M0.0354724 0.198409c-0.0712756,0.139768 0.0165394,0.296004 0.169453,0.302197 0.0409252,0.00165748 0.0867126,-0.000125984 0.135681,0.000212598 0.0313307,0.0313307 0.0612992,0.0640236 0.0926299,0.0953543 0,-0.0326929 0,-0.0612992 0,-0.0939921 0.24489,-0.0753583 0.197717,-0.402224 -0.053126,-0.400488"/>
   <line id="_120942992" class="fil0 str1" x1="0.153642" y1="0.221661" x2="0.444886" y2= "0.220933" />
   <line id="_120841672" class="fil0 str1" x1="0.153642" y1="0.28524" x2="0.444886" y2= "0.284512" />
   <line id="_120844144" class="fil0 str1" x1="0.153642" y1="0.347453" x2="0.444886" y2= "0.346724" />
   <line id="_120942680" class="fil0 str1" x1="0.292106" y1="0.411035" x2="0.444886" y2= "0.410307" />
   <line id="_120844024" class="fil0 str1" x1="0.221185" y1="0.410854" x2="0.224705" y2= "0.410854" />
   <line id="_120943376" class="fil0 str1" x1="0.324031" y1="0.101319" x2="0.327551" y2= "0.101319" />
   <path id="_120843904" class="fil0 str2" d="M0.263173 0.0092126c-0.0423346,-0.00299606 -0.0608031,0.0236811 -0.0706457,0.0610945 0,0.0281024 0,0.0562047 0,0.084311 0.00121654,0.00545276 0.00490945,0.00932677 0.0110748,0.011622 0.0196811,0 0.0393583,0 0.0590394,0 0.00535039,-0.00121654 0.00998425,-0.00342913 0.00966929,-0.0125945 0,-0.0194488 0,-0.027063 0,-0.0465079 -0.000535433,-0.00752362 -0.00349213,-0.0106929 -0.00755118,-0.011874 -0.00812205,0 -0.0232362,0 -0.0313583,0 -0.00541732,-0.0167402 0.0104764,-0.0466575 0.0329488,-0.0489528 0,-0.0144528 0,-0.019685 0,-0.0341339 -0.000122047,-0.00229921 -0.00118504,-0.00329134 -0.00317717,-0.00296457z"/>
   <path id="_120943448" class="fil0 str2" d="M0.137681 0.0092126c-0.0423346,-0.00299606 -0.0608031,0.0236811 -0.0706457,0.0610945 0,0.0281024 0,0.0562047 0,0.084311 0.00121654,0.00545276 0.00490945,0.00932677 0.0110748,0.011622 0.0196811,0 0.0393583,0 0.0590394,0 0.00535039,-0.00121654 0.00998425,-0.00342913 0.00966929,-0.0125945 0,-0.0194488 0,-0.027063 0,-0.0465079 -0.000535433,-0.00752362 -0.00349213,-0.0106929 -0.00755118,-0.011874 -0.00812205,0 -0.0232362,0 -0.0313583,0 -0.00541732,-0.0167402 0.0104764,-0.0466575 0.0329488,-0.0489528 0,-0.0144528 0,-0.019685 0,-0.0341339 -0.000122047,-0.00229921 -0.00118504,-0.00329134 -0.00317717,-0.00296457z"/>
  </g>
 </g>
</svg>
