<?xml version="1.0" encoding="UTF-8"?>
<!DOCTYPE svg PUBLIC "-//W3C//DTD SVG 1.1//EN" "http://www.w3.org/Graphics/SVG/1.1/DTD/svg11.dtd">
<!-- Creator: CorelDRAW -->
<svg xmlns="http://www.w3.org/2000/svg" xml:space="preserve" width="100%" height="100%" style="shape-rendering:geometricPrecision; text-rendering:geometricPrecision; image-rendering:optimizeQuality; fill-rule:evenodd; clip-rule:evenodd"
viewBox="0 0 0.19272 0.264461"
 xmlns:xlink="http://www.w3.org/1999/xlink">
 <defs>
  <style type="text/css">
   <![CDATA[
    .fil0 {fill:#ADADAD}
    .fil1 {fill:white;fill-rule:nonzero}
   ]]>
  </style>
 </defs>
 <g id="Layer_x0020_1">
  <metadata id="CorelCorpID_0Corel-Layer"/>
  <g id="_92896576">
   <path id="_92896864" class="fil0" d="M0.0398583 0.0921339l0.110059 0c-0.000114173,-0.032689 -0.0135906,-0.0541969 -0.0311772,-0.0644016 -0.00777953,-0.00451575 -0.0163425,-0.00684646 -0.0248386,-0.0069685 -0.00846063,-0.00011811 -0.0169331,0.00195276 -0.0245472,0.00623228 -0.0173701,0.00976378 -0.0303465,0.031311 -0.0294961,0.0651378zm0.13085 0.000385827c0.0124606,0.00215354 0.0220118,0.0130748 0.0220118,0.026126l0 0.119303c0,0.0145827 -0.0119291,0.0265118 -0.0265118,0.0265118l-0.139697 0c-0.0145827,0 -0.0265118,-0.0119291 -0.0265118,-0.0265118l0 -0.119303c0,-0.0120157 0.00810236,-0.0222244 0.0191063,-0.0254488 -0.00125591,-0.0429882 0.0164252,-0.0710591 0.0400748,-0.0843504 0.0107992,-0.0060748 0.0228661,-0.00900787 0.0349646,-0.00883858 0.0120709,0.000173228 0.0241457,0.00343307 0.0350118,0.00974016 0.0235276,0.0136496 0.0415669,0.0414409 0.0415512,0.0827717z"/>
   <path id="_92896192" class="fil1" d="M0.111634 0.205398l-0.0199016 0c-5.11811e-005,-0.00287795 -7.87402e-005,-0.00461024 -7.87402e-005,-0.00524803 0,-0.00644882 0.00106693,-0.011748 0.00319685,-0.0159055 0.00212992,-0.0041811 0.00642126,-0.00884252 0.012815,-0.0140669 0.0063937,-0.00519291 0.0102283,-0.00860236 0.0114567,-0.0102283 0.00194094,-0.0025315 0.00290157,-0.00535433 0.00290157,-0.00841732 0,-0.00426378 -0.00170472,-0.00791339 -0.00511417,-0.0109764 -0.00340945,-0.00303937 -0.00799213,-0.00455512 -0.0137756,-0.00455512 -0.00556693,0 -0.0102283,0.00159843 -0.0139843,0.00476772 -0.00373228,0.00316929 -0.00631496,0.00801969 -0.00772835,0.0145197l-0.0201142 -0.00250394c0.000562992,-0.00932677 0.0045315,-0.0172402 0.0118819,-0.0237402 0.00738189,-0.0065 0.0170236,-0.00974803 0.0290157,-0.00974803 0.0125748,0 0.0225906,0.00330315 0.0300512,0.00988189 0.00743307,0.00658268 0.0111614,0.0142283 0.0111614,0.0229921 0,0.00482283 -0.00138583,0.00940551 -0.00410236,0.0137205 -0.00274409,0.00431496 -0.00857874,0.0102047 -0.0175315,0.0176378 -0.00463386,0.0038622 -0.00751181,0.00695276 -0.00862992,0.00929528 -0.00111811,0.00234646 -0.00162598,0.00652756 -0.00151969,0.0125748zm-0.0199016 0.0294921l0 -0.0219252 0.0219252 0 0 0.0219252 -0.0219252 0z"/>
  </g>
 </g>
</svg>
