<?xml version="1.0" encoding="UTF-8"?>
<!DOCTYPE svg PUBLIC "-//W3C//DTD SVG 1.1//EN" "http://www.w3.org/Graphics/SVG/1.1/DTD/svg11.dtd">
<!-- Creator: CorelDRAW -->
<svg xmlns="http://www.w3.org/2000/svg" xml:space="preserve" width="100%" height="100%" style="shape-rendering:geometricPrecision; text-rendering:geometricPrecision; image-rendering:optimizeQuality; fill-rule:evenodd; clip-rule:evenodd"
viewBox="0 0 1.92913 1.21789"
 xmlns:xlink="http://www.w3.org/1999/xlink">
 <defs>
  <style type="text/css">
   <![CDATA[
    .fil0 {fill:white}
   ]]>
  </style>
 </defs>
 <g id="Layer_x0020_1">
  <metadata id="CorelCorpID_0Corel-Layer"/>
  <path class="fil0" d="M0.462795 1.21789l0.146146 -0.080378 0 -0.353193 0.411646 0.00243307 0.119354 0.0487165 0.00243701 0.341012 -0.679587 0.0414055 3.93701e-006 3.93701e-006zm1.2593 -1.21302c0.0219252,0.0154252 0.0438425,0.0308583 0.0657677,0.0462795 0.0470906,0 0.094185,0 0.141276,0 0,0.0852559 0,0.170504 0,0.25576 -0.0527795,0 -0.105551,0 -0.158327,0 -0.135224,0.202189 -0.089752,0.581354 0.0803819,0.789189 -0.00487008,0.0186772 -0.00974409,0.0373504 -0.0146142,0.0560236 -0.160685,-0.211508 -0.275323,-0.400685 -0.328831,-0.560228 -0.0470906,-0.0170512 -0.094185,-0.0340984 -0.141276,-0.0511496 0.0438465,-0.0454685 0.087689,-0.0909331 0.131531,-0.136402 0.0690157,-0.0267953 0.138031,-0.0535866 0.207039,-0.0803858 0.00568504,-0.106362 0.0113701,-0.212724 0.0170512,-0.319087l0 0zm-1.23007 1.16187c0.0259803,-0.0211063 0.0519606,-0.0422205 0.0779449,-0.0633307 0,-0.126657 0,-0.253323 0,-0.379976 0.152642,0.00487008 0.305283,0.00974409 0.457921,0.0146063 0.135598,-0.120157 0.271185,-0.240327 0.406776,-0.360492 0.0738858,-0.0243543 0.147776,-0.0487165 0.221657,-0.0730709 0.00487008,-0.101488 0.00974409,-0.20298 0.0146142,-0.304476 -0.357244,0.0129921 -0.714492,0.0259843 -1.07174,0.0389764 -0.19974,0.231394 -0.399472,0.462795 -0.599205,0.694193 0.153047,0.0190827 0.459547,0.0320748 0.48472,0.14128 0.00243701,0.0974291 0.00487402,0.194858 0.00731102,0.292291l-3.93701e-006 0z"/>
 </g>
</svg>
