<?xml version="1.0" encoding="UTF-8"?>
<!DOCTYPE svg PUBLIC "-//W3C//DTD SVG 1.1//EN" "http://www.w3.org/Graphics/SVG/1.1/DTD/svg11.dtd">
<!-- Creator: CorelDRAW -->
<svg xmlns="http://www.w3.org/2000/svg" xml:space="preserve" width="100%" height="100%" style="shape-rendering:geometricPrecision; text-rendering:geometricPrecision; image-rendering:optimizeQuality; fill-rule:evenodd; clip-rule:evenodd"
viewBox="0 0 0.776988 0.490524"
 xmlns:xlink="http://www.w3.org/1999/xlink">
 <defs>
  <style type="text/css">
   <![CDATA[
    .fil0 {fill:white}
   ]]>
  </style>
 </defs>
 <g id="Layer_x0020_1">
  <metadata id="CorelCorpID_0Corel-Layer"/>
  <path class="fil0" d="M0.186398 0.490524l0.0588622 -0.032374 0 -0.142252 0.165795 0.000980315 0.0480748 0.0196181 0.000980315 0.13735 -0.273713 0.0166772 0 0zm0.507201 -0.488563c0.00883071,0.0062126 0.0176614,0.0124291 0.0264921,0.0186417 0.0189646,0 0.0379331,0 0.0568976,0 0,0.0343346 0,0.0686732 0,0.103012 -0.0212559,0 -0.0425118,0 -0.0637677,0 -0.0544646,0.0814331 -0.0361457,0.234146 0.032378,0.317854 -0.00196457,0.00752362 -0.0039252,0.0150472 -0.00588976,0.0225669 -0.0647165,-0.085189 -0.11089,-0.161382 -0.132441,-0.225642 -0.0189646,-0.00686614 -0.0379331,-0.0137323 -0.0568976,-0.0206024 0.0176575,-0.018311 0.035315,-0.036622 0.0529724,-0.054937 0.0277992,-0.0107913 0.0555945,-0.0215827 0.0833898,-0.032374 0.0022874,-0.0428386 0.00457874,-0.0856811 0.00686614,-0.12852l0 0zm-0.495425 0.467961c0.0104606,-0.0085 0.0209252,-0.0170039 0.0313898,-0.0255079 0,-0.0510118 0,-0.102028 0,-0.153039 0.0614803,0.00196063 0.122961,0.0039252 0.184437,0.00588189 0.0546142,-0.0483937 0.109224,-0.0967953 0.163835,-0.145193 0.0297598,-0.00981102 0.0595197,-0.019622 0.0892756,-0.0294291 0.00196063,-0.040878 0.0039252,-0.0817559 0.00588583,-0.122634 -0.143886,0.00523228 -0.287772,0.0104646 -0.431657,0.0156969 -0.0804488,0.0932008 -0.160894,0.186398 -0.241339,0.279598 0.0616417,0.00768504 0.185091,0.0129173 0.195228,0.0569016 0.000980315,0.0392402 0.00196457,0.0784843 0.00294488,0.117724l0 0z"/>
 </g>
</svg>
