<?xml version="1.0" encoding="UTF-8"?>
<!DOCTYPE svg PUBLIC "-//W3C//DTD SVG 1.1//EN" "http://www.w3.org/Graphics/SVG/1.1/DTD/svg11.dtd">
<!-- Creator: CorelDRAW -->
<svg xmlns="http://www.w3.org/2000/svg" xml:space="preserve" width="100%" height="100%" style="shape-rendering:geometricPrecision; text-rendering:geometricPrecision; image-rendering:optimizeQuality; fill-rule:evenodd; clip-rule:evenodd"
viewBox="0 0 0.614606 0.605701"
 xmlns:xlink="http://www.w3.org/1999/xlink">
 <defs>
  <style type="text/css">
   <![CDATA[
    .str2 {stroke:#E97E55;stroke-width:0.0166654}
    .str1 {stroke:#E97E55;stroke-width:0.00972047}
    .str0 {stroke:#E97E55;stroke-width:0.00972047;stroke-linejoin:round}
    .fil0 {fill:none}
    .fil1 {fill:#E97E55}
   ]]>
  </style>
 </defs>
 <g id="Layer_x0020_1">
  <metadata id="CorelCorpID_0Corel-Layer"/>
  <g id="_110403968">
   <path id="_116498872" class="fil0 str0" d="M0.154012 0.166894l0.0291732 0 0 0.013126c0,0.0179173 0.0137795,0.0325748 0.030626,0.0325748l3.93701e-006 0c0.0168465,0 0.030626,-0.0146575 0.030626,-0.0325748l0 -0.013126 0.133217 0 0 0.013126c0,0.0179173 0.0137795,0.0325748 0.030626,0.0325748l3.93701e-006 0c0.0168465,0 0.030626,-0.0146575 0.030626,-0.0325748l0 -0.013126 0.0320906 0c0.0155079,0 0.0281969,0.0125669 0.0281969,0.0279331l0 0.25237c0,0.0153661 -0.012689,0.0279331 -0.0281969,0.0279331l-0.316992 0c-0.0155079,0 -0.0281969,-0.0125669 -0.0281969,-0.0279331l0 -0.25237c0,-0.0153661 0.012689,-0.0279331 0.0281969,-0.0279331z"/>
   <line id="_116498800" class="fil0 str1" x1="0.142346" y1="0.232039" x2="0.479752" y2= "0.232039" />
   <path id="_116498728" class="fil1" d="M0.213783 0.123909l3.93701e-006 0c0.00987795,0 0.0179567,0.00859843 0.0179567,0.0191024l0 0.0377205c0,0.0105039 -0.00808268,0.0191024 -0.0179567,0.0191024l-3.93701e-006 0c-0.00987402,0 -0.0179567,-0.00859843 -0.0179567,-0.0191024l0 -0.0377205c0,-0.0105039 0.00807874,-0.0191024 0.0179567,-0.0191024zm0.195555 0l0 0c0.00987795,0 0.0179606,0.00859843 0.0179606,0.0191024l0 0.0377205c0,0.0105039 -0.00808661,0.0191024 -0.0179606,0.0191024l0 0c-0.00987795,0 -0.0179606,-0.00859843 -0.0179606,-0.0191024l0 -0.0377205c0,-0.0105039 0.00807874,-0.0191024 0.0179606,-0.0191024z"/>
   <path id="_116498656" class="fil1" d="M0.296744 0.257602l0.0325709 0c0.00229921,0 0.0041811,0.00188189 0.0041811,0.0041811l0 0.030622c0,0.00229921 -0.00188189,0.0041811 -0.0041811,0.0041811l-0.0325709 0c-0.00229921,0 -0.0041811,-0.00188189 -0.0041811,-0.0041811l0 -0.030622c0,-0.00229921 0.00188189,-0.0041811 0.0041811,-0.0041811zm0.148484 0.0524055l0.0325709 0c0.00229921,0 0.0041811,0.00188189 0.0041811,0.00418504l0 0.0306181c0,0.00230315 -0.00188189,0.0041811 -0.0041811,0.0041811l-0.0325709 0c-0.00229921,0 -0.0041811,-0.00187795 -0.0041811,-0.0041811l0 -0.0306181c0,-0.00230315 0.00188189,-0.00418504 0.0041811,-0.00418504zm-0.0485236 0l0.0325709 0c0.00229921,0 0.0041811,0.00188189 0.0041811,0.00418504l0 0.0306181c0,0.00230315 -0.00188189,0.0041811 -0.0041811,0.0041811l-0.0325709 0c-0.00230315,0 -0.0041811,-0.00187795 -0.0041811,-0.0041811l0 -0.0306181c0,-0.00230315 0.00187795,-0.00418504 0.0041811,-0.00418504zm-0.0504646 0l0.0325709 0c0.00229921,0 0.0041811,0.00188189 0.0041811,0.00418504l0 0.0306181c0,0.00230315 -0.00188189,0.0041811 -0.0041811,0.0041811l-0.0325709 0c-0.00230315,0 -0.0041811,-0.00187795 -0.0041811,-0.0041811l0 -0.0306181c0,-0.00230315 0.00187795,-0.00418504 0.0041811,-0.00418504zm-0.0499803 0l0.0325709 0c0.00229921,0 0.0041811,0.00188189 0.0041811,0.00418504l0 0.0306181c0,0.00230315 -0.00188189,0.0041811 -0.0041811,0.0041811l-0.0325709 0c-0.00230315,0 -0.0041811,-0.00187795 -0.0041811,-0.0041811l0 -0.0306181c0,-0.00230315 0.00187795,-0.00418504 0.0041811,-0.00418504zm-0.0485236 0l0.0325709 0c0.00229921,0 0.0041811,0.00188189 0.0041811,0.00418504l0 0.0306181c0,0.00230315 -0.00188189,0.0041811 -0.0041811,0.0041811l-0.0325709 0c-0.00230315,0 -0.00418504,-0.00187795 -0.00418504,-0.0041811l0 -0.0306181c0,-0.00230315 0.00188189,-0.00418504 0.00418504,-0.00418504zm-0.0499803 0l0.0325709 0c0.00229921,0 0.0041811,0.00188189 0.0041811,0.00418504l0 0.0306181c0,0.00230315 -0.00188189,0.0041811 -0.0041811,0.0041811l-0.0325709 0c-0.00230315,0 -0.0041811,-0.00187795 -0.0041811,-0.0041811l0 -0.0306181c0,-0.00230315 0.00187795,-0.00418504 0.0041811,-0.00418504zm-0.0494961 0l0.0325709 0c0.00229921,0 0.0041811,0.00188189 0.0041811,0.00418504l0 0.0306181c0,0.00230315 -0.00188189,0.0041811 -0.0041811,0.0041811l-0.0325709 0c-0.00229921,0 -0.0041811,-0.00187795 -0.0041811,-0.0041811l0 -0.0306181c0,-0.00230315 0.00188189,-0.00418504 0.0041811,-0.00418504zm0.296969 0.0519213l0.0325709 0c0.00229921,0 0.0041811,0.00188189 0.0041811,0.00418504l0 0.0306181c0,0.00230315 -0.00188189,0.0041811 -0.0041811,0.0041811l-0.0325709 0c-0.00229921,0 -0.0041811,-0.00187795 -0.0041811,-0.0041811l0 -0.0306181c0,-0.00230315 0.00188189,-0.00418504 0.0041811,-0.00418504zm-0.0485236 0l0.0325709 0c0.00229921,0 0.0041811,0.00188189 0.0041811,0.00418504l0 0.0306181c0,0.00230315 -0.00188189,0.0041811 -0.0041811,0.0041811l-0.0325709 0c-0.00230315,0 -0.0041811,-0.00187795 -0.0041811,-0.0041811l0 -0.0306181c0,-0.00230315 0.00187795,-0.00418504 0.0041811,-0.00418504zm-0.0504646 0l0.0325709 0c0.00229921,0 0.0041811,0.00188189 0.0041811,0.00418504l0 0.0306181c0,0.00230315 -0.00188189,0.0041811 -0.0041811,0.0041811l-0.0325709 0c-0.00230315,0 -0.0041811,-0.00187795 -0.0041811,-0.0041811l0 -0.0306181c0,-0.00230315 0.00187795,-0.00418504 0.0041811,-0.00418504zm-0.0499803 0l0.0325709 0c0.00229921,0 0.0041811,0.00188189 0.0041811,0.00418504l0 0.0306181c0,0.00230315 -0.00188189,0.0041811 -0.0041811,0.0041811l-0.0325709 0c-0.00230315,0 -0.0041811,-0.00187795 -0.0041811,-0.0041811l0 -0.0306181c0,-0.00230315 0.00187795,-0.00418504 0.0041811,-0.00418504zm-0.0485236 0l0.0325709 0c0.00229921,0 0.0041811,0.00188189 0.0041811,0.00418504l0 0.0306181c0,0.00230315 -0.00188189,0.0041811 -0.0041811,0.0041811l-0.0325709 0c-0.00230315,0 -0.00418504,-0.00187795 -0.00418504,-0.0041811l0 -0.0306181c0,-0.00230315 0.00188189,-0.00418504 0.00418504,-0.00418504zm-0.0499803 0l0.0325709 0c0.00229921,0 0.0041811,0.00188189 0.0041811,0.00418504l0 0.0306181c0,0.00230315 -0.00188189,0.0041811 -0.0041811,0.0041811l-0.0325709 0c-0.00230315,0 -0.0041811,-0.00187795 -0.0041811,-0.0041811l0 -0.0306181c0,-0.00230315 0.00187795,-0.00418504 0.0041811,-0.00418504zm-0.0494961 0l0.0325709 0c0.00229921,0 0.0041811,0.00188189 0.0041811,0.00418504l0 0.0306181c0,0.00230315 -0.00188189,0.0041811 -0.0041811,0.0041811l-0.0325709 0c-0.00229921,0 -0.0041811,-0.00187795 -0.0041811,-0.0041811l0 -0.0306181c0,-0.00230315 0.00188189,-0.00418504 0.0041811,-0.00418504zm0.19798 0.0519213l0.0325709 0c0.00229921,0 0.0041811,0.00188189 0.0041811,0.0041811l0 0.030622c0,0.00230315 -0.00188189,0.0041811 -0.0041811,0.0041811l-0.0325709 0c-0.00230315,0 -0.0041811,-0.00187795 -0.0041811,-0.0041811l0 -0.030622c0,-0.00229921 0.00187795,-0.0041811 0.0041811,-0.0041811zm-0.0499803 0l0.0325709 0c0.00229921,0 0.0041811,0.00188189 0.0041811,0.0041811l0 0.030622c0,0.00230315 -0.00188189,0.0041811 -0.0041811,0.0041811l-0.0325709 0c-0.00230315,0 -0.0041811,-0.00187795 -0.0041811,-0.0041811l0 -0.030622c0,-0.00229921 0.00187795,-0.0041811 0.0041811,-0.0041811zm-0.0485236 0l0.0325709 0c0.00229921,0 0.0041811,0.00188189 0.0041811,0.0041811l0 0.030622c0,0.00230315 -0.00188189,0.0041811 -0.0041811,0.0041811l-0.0325709 0c-0.00230315,0 -0.00418504,-0.00187795 -0.00418504,-0.0041811l0 -0.030622c0,-0.00229921 0.00188189,-0.0041811 0.00418504,-0.0041811zm-0.0499803 0l0.0325709 0c0.00229921,0 0.0041811,0.00188189 0.0041811,0.0041811l0 0.030622c0,0.00230315 -0.00188189,0.0041811 -0.0041811,0.0041811l-0.0325709 0c-0.00230315,0 -0.0041811,-0.00187795 -0.0041811,-0.0041811l0 -0.030622c0,-0.00229921 0.00187795,-0.0041811 0.0041811,-0.0041811zm-0.0494961 0l0.0325709 0c0.00229921,0 0.0041811,0.00188189 0.0041811,0.0041811l0 0.030622c0,0.00230315 -0.00188189,0.0041811 -0.0041811,0.0041811l-0.0325709 0c-0.00229921,0 -0.0041811,-0.00187795 -0.0041811,-0.0041811l0 -0.030622c0,-0.00229921 0.00188189,-0.0041811 0.0041811,-0.0041811zm0.296484 -0.156248l0.0325709 0c0.00229921,0 0.0041811,0.00188189 0.0041811,0.0041811l0 0.030622c0,0.00229921 -0.00188189,0.0041811 -0.0041811,0.0041811l-0.0325709 0c-0.00230315,0 -0.0041811,-0.00188189 -0.0041811,-0.0041811l0 -0.030622c0,-0.00229921 0.00187795,-0.0041811 0.0041811,-0.0041811zm-0.0485236 0l0.0325709 0c0.00229921,0 0.0041811,0.00188189 0.0041811,0.0041811l0 0.030622c0,0.00229921 -0.00188189,0.0041811 -0.0041811,0.0041811l-0.0325709 0c-0.00230315,0 -0.00418504,-0.00188189 -0.00418504,-0.0041811l0 -0.030622c0,-0.00229921 0.00188189,-0.0041811 0.00418504,-0.0041811zm-0.0499803 0l0.0325709 0c0.00229921,0 0.0041811,0.00188189 0.0041811,0.0041811l0 0.030622c0,0.00229921 -0.00188189,0.0041811 -0.0041811,0.0041811l-0.0325709 0c-0.00230315,0 -0.0041811,-0.00188189 -0.0041811,-0.0041811l0 -0.030622c0,-0.00229921 0.00187795,-0.0041811 0.0041811,-0.0041811z"/>
  </g>
  <ellipse class="fil0 str2" cx="0.307303" cy="0.30285" rx="0.298973" ry="0.29452"/>
 </g>
</svg>
