<?xml version="1.0" encoding="UTF-8"?>
<!DOCTYPE svg PUBLIC "-//W3C//DTD SVG 1.1//EN" "http://www.w3.org/Graphics/SVG/1.1/DTD/svg11.dtd">
<!-- Creator: CorelDRAW -->
<svg xmlns="http://www.w3.org/2000/svg" xml:space="preserve" width="100%" height="100%" style="shape-rendering:geometricPrecision; text-rendering:geometricPrecision; image-rendering:optimizeQuality; fill-rule:evenodd; clip-rule:evenodd"
viewBox="0 0 0.359969 0.449"
 xmlns:xlink="http://www.w3.org/1999/xlink">
 <defs>
  <style type="text/css">
   <![CDATA[
    .fil0 {fill:#605D5C}
    .fil1 {fill:#838281}
   ]]>
  </style>
 </defs>
 <g id="Layer_x0020_1">
  <metadata id="CorelCorpID_0Corel-Layer"/>
  <g id="_116267016">
   <path id="_118140576" class="fil0" d="M0.0497047 0.141402c0,0.00649213 0.000161417,0.0132638 0.000161417,0.0197598 -0.00655512,0 -0.0131102,0 -0.0196654,0 -0.00611417,0.000232283 -0.0099252,0.00315354 -0.0103701,0.0100118l0 0.017374 0.0010315 -2.75591e-005 0.318232 0c0.0114724,0 0.0208583,0.00948819 0.0208583,0.0210866 0,0.012748 0,0.0254961 0,0.038248 -0.000145669,0.00849213 -0.00514173,0.0119843 -0.0128543,0.0126732 -0.00299213,1.9685e-005 -0.00598425,3.54331e-005 -0.00897638,5.51181e-005 -0.0255827,-2.3622e-005 -0.0511693,-4.72441e-005 -0.0767559,-7.48031e-005 -0.0175315,-0.000401575 -0.0269606,0.00848819 -0.0282835,0.0266732 2.3622e-005,0.00849606 4.33071e-005,0.0169921 6.69291e-005,0.0254843 -0.000173228,0.012626 -0.000350394,0.025248 -0.000527559,0.0378701 0.000551181,0.0140197 0.00627165,0.0246535 0.0259921,0.0261299l0.0897638 -9.05512e-005c0.0070315,0.000307087 0.0114016,0.00393701 0.0115906,0.0130315l-1.5748e-005 0.038311c0,0.0115945 -0.00938976,0.0210827 -0.0208583,0.0210827l-0.318232 0c-0.0114724,0 -0.0208819,-0.00948425 -0.0208622,-0.0210827l0.000358268 -0.218492 0.000165354 -0.0363543c-0.000799213,-0.0212992 0.0153425,-0.0324252 0.0341654,-0.0315354 0.00500394,-5.90551e-005 0.0100118,-9.05512e-005 0.0150157,-0.000133858zm0.048126 0.177315c-0.00575197,0 -0.0115079,0 -0.0172598,0 -0.00779528,-0.000137795 -0.0137126,0.00803543 -0.0100197,0.0139961 0.0085748,0.014437 0.0196929,0.0266969 0.0338228,0.0421811 0.0066811,0.0074252 0.0138937,0.0130079 0.0241378,0.000972441 0.0120433,-0.0133583 0.0223701,-0.0255433 0.0324882,-0.039563 0.00658661,-0.00840551 0.001,-0.0173031 -0.00861417,-0.0172283 -0.00562598,0 -0.011248,0 -0.0168701,0 0.00143701,-0.0120827 0.00287008,-0.0241654 0.00430709,-0.036252 0.00256299,-0.0432598 -0.0513031,-0.0359291 -0.0462992,0 0.00143701,0.0119646 0.00287008,0.0239291 0.00430709,0.0358937zm0.185917 -0.0312283c0.0170433,0 0.0308661,0.0138268 0.0308661,0.0308701 0,0.0170433 -0.0138228,0.0308661 -0.0308661,0.0308661 -0.0170433,0 -0.0308661,-0.0138228 -0.0308661,-0.0308661 0,-0.0170433 0.0138228,-0.0308701 0.0308661,-0.0308701z"/>
   <path id="_110404112" class="fil1" d="M0.0902913 0.166894c-0.0089685,0 -0.0179409,0 -0.0269173,0 0.00263386,-0.0380433 0.00526378,-0.0760906 0.00789764,-0.114134 0.00203543,-0.0209213 0.0124409,-0.0298031 0.0297874,-0.0287126 -0.00358661,0.0476142 -0.00717717,0.0952323 -0.0107677,0.142846zm0.0545551 0.000720472c0.0380472,0 0.0760906,0 0.114138,0 0.0020315,-0.0302717 0.00406693,-0.0605394 0.00609843,-0.0908071 -0.0163858,-0.00370866 -0.0275157,-0.0155551 -0.033378,-0.0355315 -0.0151929,-0.000598425 -0.0303898,-0.00119685 -0.0455827,-0.00179528 -0.00738583,0.0189055 -0.0198898,0.0287126 -0.0358898,0.0323031 -0.00179528,0.0319409 -0.00359055,0.0638858 -0.00538583,0.0958307zm0.0592244 -0.0778858c0.0172402,0 0.0312244,0.0139843 0.0312244,0.0312244 0,0.0172441 -0.0139843,0.0312244 -0.0312244,0.0312244 -0.0172441,0 -0.0312283,-0.0139803 -0.0312283,-0.0312244 0,-0.0172402 0.0139843,-0.0312244 0.0312283,-0.0312244zm-0.0926024 0.0775236c0.00610236,0 0.0122047,0 0.0183031,0 0.00227559,-0.0452205 0.00454724,-0.0904449 0.00682283,-0.135669 0,-0.011248 0.00490157,-0.0143543 0.0157913,-0.0136378 0.0384016,0.00203543 0.0768071,0.00406693 0.115213,0.00610236 0.00993701,-0.000279528 0.015937,0.00657874 0.0150748,0.0139961 -0.00275197,0.0430709 -0.00550787,0.0861417 -0.00825591,0.129209 0.00646063,-0.00011811 0.0129213,-0.00023622 0.0193819,-0.000358268 0.00214961,-0.0392323 0.00429921,-0.0784646 0.00644882,-0.117697 0.0011063,-0.0202323 -0.00297638,-0.0402402 -0.027626,-0.042378 -0.040437,-0.00227165 -0.080878,-0.00454724 -0.121315,-0.0068189 -0.020563,-0.000145669 -0.0329173,0.0117598 -0.0330197,0.0287126 -0.00227165,0.0461811 -0.00454724,0.0923622 -0.0068189,0.138539z"/>
  </g>
 </g>
</svg>
