<?xml version="1.0" encoding="UTF-8"?>
<!DOCTYPE svg PUBLIC "-//W3C//DTD SVG 1.1//EN" "http://www.w3.org/Graphics/SVG/1.1/DTD/svg11.dtd">
<!-- Creator: CorelDRAW -->
<svg xmlns="http://www.w3.org/2000/svg" xml:space="preserve" width="100%" height="100%" shape-rendering="geometricPrecision" text-rendering="geometricPrecision" image-rendering="optimizeQuality" fill-rule="evenodd" clip-rule="evenodd"
viewBox="0 0 0.552224 0.552224"
 xmlns:xlink="http://www.w3.org/1999/xlink">
 <g id="Layer_x0020_1">
  <metadata id="CorelCorpID_0Corel-Layer"/>
  <circle fill="#A9ACAF" cx="0.27611" cy="0.27611" r="0.276112"/>
  <path fill="white" d="M0.244232 0.422055l-0.108386 0c-0.00840157,0 -0.0152402,-0.00683858 -0.0152402,-0.0152441 0,-0.00840157 0.00683465,-0.0152402 0.0152402,-0.0152402l0.0341102 0c0.00309055,0 0.006,-0.00120866 0.0081811,-0.00339764 0.00222835,-0.00223622 0.00344882,-0.00522047 0.00343701,-0.00838583l0 -7.08661e-005c0,-0.00840551 0.00683465,-0.0152441 0.0152402,-0.0152441l0.0203228 0c0.00280709,0 0.00508268,-0.00227165 0.00508268,-0.00507874 0,-0.00280709 -0.00227559,-0.00508268 -0.00508268,-0.00508268l-0.0203228 0c-0.0140079,0 -0.0254016,0.0113976 -0.0254016,0.0254055l0 8.66142e-005c0,0.000625984 -0.000295276,0.00101969 -0.000472441,0.00119685 -0.000271654,0.000271654 -0.000602362,0.000409449 -0.000984252,0.000409449l-0.0341102 0c-0.0140079,0 -0.0254016,0.0113937 -0.0254016,0.0254016 0,0.0140079 0.0113937,0.0254055 0.0254016,0.0254055l0.108386 0c0.00280709,0 0.00508268,-0.00227559 0.00508268,-0.00508268 0,-0.00280709 -0.00227559,-0.00507874 -0.00508268,-0.00507874z"/>
  <path fill="white" d="M0.413587 0.184961l-0.0231614 0c-0.00190551,-0.00400394 -0.00598819,-0.00677559 -0.0107087,-0.00677559l-0.0338701 0c-0.00472047,0 -0.00880709,0.00277165 -0.0107126,0.00677559l-0.0231614 0c-0.00280315,0 -0.00507874,0.00227559 -0.00507874,0.00507874 0,0.00280709 0.00227559,0.00508268 0.00507874,0.00508268l0.0220197 0 0 0.00138189c0,0.00981496 0.00722047,0.0179173 0.0167992,0.0188504 0.0011811,0.000114173 0.00235827,0.00011811 0.00351969,1.1811e-005l0 0.0217677c0,0.0102638 0.00788976,0.0185827 0.0179567,0.0189409 0.00509843,0.000169291 0.00994094,-0.00166929 0.0136102,-0.0052126 0.00366929,-0.00353937 0.00569291,-0.00830315 0.00569291,-0.0134055l0 -0.00169291 0.0164724 0 -0.00894094 0.102866c-0.000244094,0.00279528 0.00182283,0.00525984 0.00461811,0.00550394 0.000149606,1.1811e-005 0.000299213,1.5748e-005 0.000448819,1.5748e-005 0.0026063,0 0.00482283,-0.00199213 0.00505512,-0.0046378l0.00907087 -0.10435c0.008,-0.00209055 0.0139213,-0.00937795 0.0139213,-0.0180236l0 -0.0135512c0,-0.0102677 -0.00835827,-0.018626 -0.0186299,-0.018626zm-0.0321772 0.00507874l0 0.0474213c0,0.0023189 -0.00092126,0.00448425 -0.00259055,0.00609449 -0.00166535,0.00161024 -0.0038622,0.00243307 -0.00619291,0.00236614 -0.00449606,-0.00015748 -0.00815354,-0.00410236 -0.00815354,-0.0087874l0 -0.0285984c0,-0.00181496 -0.000968504,-0.00349213 -0.00254331,-0.00440157 -0.000783465,-0.000452756 -0.00166142,-0.000677165 -0.00253543,-0.000677165 -0.00088189,0 -0.00175984,0.000228346 -0.00254724,0.000685039 -0.00154331,0.000893701 -0.00329528,0.00127559 -0.00507087,0.00110236 -0.00427559,-0.000417323 -0.00762598,-0.00425591 -0.00762598,-0.00873622l0 -0.00646457c0,-0.000937008 0.000759843,-0.00169685 0.00169685,-0.00169685l0.0338701 0c0.000933071,0 0.00169291,0.000759843 0.00169291,0.00169685l0 0 0 -3.93701e-006zm0.0406457 0.0270984c0,0.00465354 -0.00377953,0.00844488 -0.00842913,0.0084685 -3.14961e-005,0 -6.29921e-005,0 -9.84252e-005,0l-0.0219567 0 0 -0.0304843 0.0220157 0c0.00466929,0 0.0084685,0.00379921 0.0084685,0.0084685l0 0.0135472 0 0z"/>
  <path fill="white" d="M0.339071 0.235768c0.00280709,0 0.00507874,-0.00227559 0.00507874,-0.00508268 0,-0.00280709 -0.00227165,-0.00507874 -0.00507874,-0.00507874l-0.0270984 0c-0.00280315,0 -0.00507874,0.00227165 -0.00507874,0.00507874 0,0.00280709 0.00227559,0.00508268 0.00507874,0.00508268l0.0270984 0z"/>
  <path fill="white" d="M0.42413 0.370177c-0.0102953,-0.0175787 -0.0293858,-0.0294134 -0.051189,-0.0294134l-0.0406457 0c-0.00466929,0 -0.00846457,-0.00379921 -0.00846457,-0.0084685l0 -0.00677165c0,-0.0018189 -0.000267717,-0.00362205 -0.000783465,-0.00535039 0.00457874,-0.00339764 0.00755512,-0.00884252 0.00755512,-0.0149724 0,-0.0102717 -0.00835433,-0.0186299 -0.0186299,-0.0186299l-0.00846457 0 0 -0.00169291c0,-0.00472047 -0.00277165,-0.00880315 -0.00677559,-0.0107126l0 -0.145091c0,-0.0102717 -0.00835433,-0.0186299 -0.0186299,-0.0186299 -0.0102717,0 -0.018626,0.00835827 -0.018626,0.0186299l0 0.0558858 -0.0626614 0c-0.0102717,0 -0.0186299,0.00835827 -0.0186299,0.018626l0 0.0135512c0,0.00864567 0.00592126,0.0159331 0.0139173,0.0180236l0.0090748 0.10435c0.000244094,0.00279528 0.00270472,0.00487795 0.00550394,0.00462205 0.00279528,-0.000244094 0.0048622,-0.00270866 0.00461811,-0.00550394l-0.00894094 -0.102862 0.0571181 0 0 0.0384016c-0.00400394,0.00190551 -0.00677559,0.00598819 -0.00677559,0.0107087l0 0.00169291 -0.0084685 0c-0.0102717,0 -0.018626,0.00835827 -0.018626,0.0186299 0,0.00612992 0.00297244,0.0115748 0.00755512,0.0149724 -0.000515748,0.00172835 -0.000783465,0.0035315 -0.000783465,0.00535039l0 0.0474173c0,0.032685 0.0265906,0.0592756 0.0592756,0.0592756l0.128709 0c0.00653543,0 0.0118543,-0.0053189 0.0118543,-0.0118543l0 -0.0203228c0,-0.0106969 -0.00285039,-0.0207402 -0.00782677,-0.0294134 -7.87402e-005,-0.000153543 -0.000165354,-0.00030315 -0.000259843,-0.000448819zm-0.154492 -0.241102c0,-0.00466929 0.00379528,-0.0084685 0.00846457,-0.0084685 0.00467323,0 0.0084685,0.00379921 0.0084685,0.0084685l0 0.143949 -0.0169331 0 0 -0.143949 0 0zm-0.0727638 0.0965315c-3.14961e-005,0 -6.69291e-005,0 -9.84252e-005,0 -0.00464961,-2.3622e-005 -0.00842913,-0.00381102 -0.00842913,-0.0084685l0 -0.0135512c0,-0.00466929 0.00379921,-0.00846457 0.0084685,-0.00846457l0.0626614 0 0 0.0304803 -0.0626024 0 0 3.93701e-006zm0.225181 0.194756c0,0.000933071 -0.000759843,0.00169291 -0.00169291,0.00169291l-0.0745157 0c-0.0270827,0 -0.0491142,-0.0220315 -0.0491142,-0.0491142l0 -0.0338701c0,-0.00280709 -0.00227559,-0.00507874 -0.00507874,-0.00507874 -0.00280709,0 -0.00508268,0.00227165 -0.00508268,0.00507874l0 0.0338701c0,0.020122 0.0100787,0.037937 0.0254528,0.0486535 -0.0239094,-0.0032874 -0.0423858,-0.0238543 -0.0423858,-0.0486535l0 -0.0338701c0,-0.00280709 -0.00227559,-0.00507874 -0.00508268,-0.00507874 -0.00280315,0 -0.00507874,0.00227165 -0.00507874,0.00507874l0 0.0338701c0,0.020122 0.0100787,0.037937 0.0254528,0.0486575 -0.0239094,-0.0032874 -0.0423898,-0.0238543 -0.0423898,-0.0486535l0 -0.0474213c0,-0.000590551 6.29921e-005,-0.0011811 0.000185039,-0.00175197 0.000496063,3.93701e-005 0.001,5.90551e-005 0.00151181,5.90551e-005l0.0406417 0c0.00280709,0 0.00508268,-0.00227559 0.00508268,-0.00507874 0,-0.00280709 -0.00227559,-0.00508268 -0.00508268,-0.00508268l-0.0406417 0c-0.00466929,0 -0.0084685,-0.00379921 -0.0084685,-0.0084685 0,-0.00466929 0.00379921,-0.00846457 0.0084685,-0.00846457l0.0135472 0c0.00280709,0 0.00507874,-0.00227559 0.00507874,-0.00508268l0 -0.00677559c0,-0.000933071 0.000759843,-0.00169291 0.00169291,-0.00169291l0.0270984 0c0.000933071,0 0.00169291,0.000759843 0.00169291,0.00169291l0 0.00677559c0,0.00280709 0.00227559,0.00508268 0.00508268,0.00508268l0.0135472 0c0.00466929,0 0.0084685,0.00379528 0.0084685,0.00846457 0,0.00466929 -0.00379921,0.0084685 -0.0084685,0.0084685l-0.00677559 0c-0.00280315,0 -0.00507874,0.00227559 -0.00507874,0.00508268 0,0.00280315 0.00227559,0.00507874 0.00507874,0.00507874l0.00677559 0c0.000507874,0 0.00101181,-1.9685e-005 0.00151181,-5.90551e-005 0.000122047,0.000570866 0.000181102,0.00116142 0.000181102,0.00175197l0 0.00677559c0,0.0102717 0.00835827,0.0186299 0.0186299,0.0186299l0.0406457 0c0.0147835,0 0.028063,0.00656299 0.0370709,0.0169331l-0.0641693 0c-0.00833071,0 -0.0165591,-0.00212205 -0.0237953,-0.0061378 -0.00245276,-0.00135827 -0.00554724,-0.000476378 -0.00690551,0.00197638 -0.0013622,0.00245276 -0.000476378,0.00554724 0.00197638,0.00690945 0.00874016,0.00485039 0.0186732,0.00741339 0.0287244,0.00741339l0.0709921 0c0.00261024,0.00518504 0.00433071,0.0109016 0.00495669,0.0169331l-0.0759488 0c-0.00833071,0 -0.0165591,-0.00212205 -0.0237913,-0.0061378 -0.00245276,-0.0013622 -0.00554724,-0.000472441 -0.00690945,0.00198031 -0.0013622,0.00245276 -0.000476378,0.00554724 0.00198031,0.00690551 0.00873622,0.00485039 0.0186693,0.00741339 0.0287205,0.00741339l0.0762087 0 0 0.0152441 0 0z"/>
 </g>
</svg>
